G04 #@! TF.GenerationSoftware,KiCad,Pcbnew,5.1.4+dfsg1-1~bpo10+1*
G04 #@! TF.CreationDate,2019-09-21T23:22:25+08:00*
G04 #@! TF.ProjectId,8-Bit CPU,382d4269-7420-4435-9055-2e6b69636164,rev?*
G04 #@! TF.SameCoordinates,Original*
G04 #@! TF.FileFunction,Copper,L4,Bot*
G04 #@! TF.FilePolarity,Positive*
%FSLAX46Y46*%
G04 Gerber Fmt 4.6, Leading zero omitted, Abs format (unit mm)*
G04 Created by KiCad (PCBNEW 5.1.4+dfsg1-1~bpo10+1) date 2019-09-21 23:22:25*
%MOMM*%
%LPD*%
G04 APERTURE LIST*
%ADD10C,1.700000*%
%ADD11C,1.524000*%
%ADD12O,1.700000X1.700000*%
%ADD13R,1.700000X1.700000*%
%ADD14O,2.500000X4.500000*%
%ADD15O,5.000000X2.500000*%
%ADD16O,4.500000X2.500000*%
%ADD17C,1.800000*%
%ADD18C,1.500000*%
%ADD19C,1.600000*%
%ADD20O,1.600000X1.600000*%
%ADD21R,1.600000X1.600000*%
%ADD22C,0.609600*%
%ADD23C,0.254000*%
G04 APERTURE END LIST*
D10*
X72465000Y-77053000D03*
X65965000Y-77053000D03*
X72465000Y-72553000D03*
X65965000Y-72553000D03*
D11*
X46990000Y-95885000D03*
X44450000Y-90805000D03*
X41910000Y-95885000D03*
D12*
X46990000Y-74295000D03*
X46990000Y-76835000D03*
X44450000Y-74295000D03*
X44450000Y-76835000D03*
X41910000Y-74295000D03*
D13*
X41910000Y-76835000D03*
D14*
X41020000Y-65230000D03*
D15*
X45720000Y-68230000D03*
D16*
X45720000Y-62230000D03*
D17*
X64770000Y-62230000D03*
X67310000Y-62230000D03*
X69850000Y-62230000D03*
D18*
X106680000Y-57785000D03*
X109220000Y-57785000D03*
X111760000Y-57785000D03*
X114300000Y-57785000D03*
X116840000Y-57785000D03*
X119380000Y-57785000D03*
X119380000Y-70485000D03*
X116840000Y-70485000D03*
X114300000Y-70485000D03*
X111760000Y-70485000D03*
X109220000Y-70485000D03*
X106680000Y-70485000D03*
D12*
X114300000Y-82550000D03*
X114300000Y-80010000D03*
X116840000Y-82550000D03*
X116840000Y-80010000D03*
X119380000Y-82550000D03*
D13*
X119380000Y-80010000D03*
D19*
X73660000Y-116205000D03*
D20*
X91440000Y-108585000D03*
X76200000Y-116205000D03*
X88900000Y-108585000D03*
X78740000Y-116205000D03*
X86360000Y-108585000D03*
X81280000Y-116205000D03*
X83820000Y-108585000D03*
X83820000Y-116205000D03*
X81280000Y-108585000D03*
X86360000Y-116205000D03*
X78740000Y-108585000D03*
X88900000Y-116205000D03*
X76200000Y-108585000D03*
X91440000Y-116205000D03*
X73660000Y-108585000D03*
D10*
X144705000Y-122210000D03*
X151205000Y-122210000D03*
X144705000Y-126710000D03*
X151205000Y-126710000D03*
D20*
X126365000Y-108585000D03*
X144145000Y-116205000D03*
X128905000Y-108585000D03*
X141605000Y-116205000D03*
X131445000Y-108585000D03*
X139065000Y-116205000D03*
X133985000Y-108585000D03*
X136525000Y-116205000D03*
X136525000Y-108585000D03*
X133985000Y-116205000D03*
X139065000Y-108585000D03*
X131445000Y-116205000D03*
X141605000Y-108585000D03*
X128905000Y-116205000D03*
X144145000Y-108585000D03*
D19*
X126365000Y-116205000D03*
D10*
X158675000Y-122210000D03*
X165175000Y-122210000D03*
X158675000Y-126710000D03*
X165175000Y-126710000D03*
X68655000Y-129250000D03*
X62155000Y-129250000D03*
X68655000Y-124750000D03*
X62155000Y-124750000D03*
D13*
X137795000Y-137160000D03*
D12*
X135255000Y-137160000D03*
X137795000Y-134620000D03*
X135255000Y-134620000D03*
X137795000Y-132080000D03*
X135255000Y-132080000D03*
D13*
X140335000Y-123825000D03*
D12*
X137795000Y-123825000D03*
X135255000Y-123825000D03*
X132715000Y-123825000D03*
D13*
X193675000Y-86360000D03*
D12*
X191135000Y-86360000D03*
X193675000Y-83820000D03*
X191135000Y-83820000D03*
X193675000Y-81280000D03*
X191135000Y-81280000D03*
D21*
X130810000Y-75565000D03*
D20*
X128270000Y-83185000D03*
X128270000Y-75565000D03*
X130810000Y-83185000D03*
D10*
X59765000Y-77180000D03*
X53265000Y-77180000D03*
X59765000Y-72680000D03*
X53265000Y-72680000D03*
D22*
X120650000Y-133985000D03*
X107950000Y-140335000D03*
X102870000Y-133985000D03*
X90170000Y-140335000D03*
X85090000Y-133985000D03*
X108585000Y-119380000D03*
X90805000Y-119380000D03*
X123714500Y-149527500D03*
X130810000Y-137160000D03*
X130175000Y-126365000D03*
X55078000Y-135255000D03*
X59690000Y-146685000D03*
X73025000Y-122555000D03*
X64770000Y-132715000D03*
X42545000Y-116205000D03*
X48260000Y-120015000D03*
X63802500Y-117142500D03*
X65405000Y-107315000D03*
X43815000Y-104775000D03*
X75565000Y-140335000D03*
X68882500Y-155877500D03*
X53340000Y-155877500D03*
X40640000Y-144145000D03*
X57150000Y-130810000D03*
X68453000Y-118491000D03*
X46657500Y-100027500D03*
X184785000Y-145415000D03*
X170815000Y-145415000D03*
X175895000Y-131445000D03*
X189865000Y-131445000D03*
X194310000Y-156210000D03*
X180975000Y-156210000D03*
X92075000Y-106680000D03*
X71755000Y-100965000D03*
X84455000Y-100965000D03*
X82550000Y-102870000D03*
X79375000Y-106680000D03*
X113665000Y-110490000D03*
X113665000Y-109220000D03*
X113665000Y-105410000D03*
X150075000Y-113030000D03*
X96520000Y-104140000D03*
X82550000Y-94615000D03*
X99695000Y-86756000D03*
X97201001Y-100330000D03*
X144780000Y-99695000D03*
X149225000Y-99695000D03*
X160655000Y-99695000D03*
X134620000Y-87630000D03*
X151765000Y-85725000D03*
X133350000Y-99695000D03*
X128905000Y-99695000D03*
X102870000Y-116840000D03*
X98425000Y-114300000D03*
X194310000Y-127635000D03*
X180975000Y-127635000D03*
X167640000Y-116840000D03*
X181610000Y-116840000D03*
X156845000Y-124460000D03*
X162560000Y-119380000D03*
X163830000Y-114300000D03*
X152400000Y-106045000D03*
X152400000Y-115570000D03*
X162560000Y-109855000D03*
X167640000Y-102870000D03*
X151130000Y-72390000D03*
X137160000Y-72390000D03*
X142240000Y-58420000D03*
X156210000Y-58420000D03*
X147320000Y-83185000D03*
X176530000Y-76200000D03*
X186690000Y-91440000D03*
X179705000Y-84455000D03*
X162560000Y-62230000D03*
X189865000Y-62230000D03*
X172555000Y-92240000D03*
X164465000Y-74930000D03*
X190754000Y-91821000D03*
X191437500Y-101297500D03*
X186333250Y-59079250D03*
X170815000Y-59690000D03*
X90805000Y-80010000D03*
X76835000Y-74930000D03*
X76835000Y-60960000D03*
X113665000Y-77802500D03*
X99695000Y-76905000D03*
X93677500Y-75565000D03*
X100330000Y-78505000D03*
X120650000Y-86360000D03*
X90805000Y-69215000D03*
X73660000Y-83312000D03*
X132080000Y-134780000D03*
X100203000Y-153416000D03*
X71120000Y-147955000D03*
X103505000Y-155890000D03*
X80645000Y-155890000D03*
X94996000Y-154002500D03*
X83566000Y-154002500D03*
X106299000Y-154002500D03*
X64770000Y-70485000D03*
X69850000Y-70485000D03*
X132617500Y-154940000D03*
X55880000Y-69215000D03*
X167005000Y-86995000D03*
X140335000Y-147320000D03*
X86360000Y-150495000D03*
X89535000Y-153990000D03*
X104140000Y-128905000D03*
X92075000Y-155890000D03*
X123190000Y-127635000D03*
X86360000Y-128905000D03*
X111125000Y-153990000D03*
X120015000Y-154305000D03*
X181610000Y-102870000D03*
X113314000Y-98425000D03*
X143510000Y-142875000D03*
X143510000Y-154305000D03*
X153035000Y-153035000D03*
X166370000Y-146685000D03*
X166370000Y-144145000D03*
X163830000Y-135040000D03*
X157480000Y-155575000D03*
X157480000Y-145415000D03*
X158115000Y-137160000D03*
X158115000Y-130810000D03*
X140208000Y-152908000D03*
X154305000Y-140335000D03*
X148590000Y-131130000D03*
X143510000Y-131445000D03*
X148590000Y-136210000D03*
X143510000Y-136525000D03*
X72390000Y-133047500D03*
X104140000Y-150495000D03*
X42847500Y-85725000D03*
X46990000Y-80645000D03*
X59690000Y-83820000D03*
X55245000Y-90805000D03*
X50165000Y-95250000D03*
X63500000Y-85725000D03*
X53975000Y-89535000D03*
X65405000Y-92075000D03*
X56515000Y-95885000D03*
X59055000Y-95885000D03*
X123190000Y-131445000D03*
X124460000Y-133985000D03*
X106680000Y-133985000D03*
X88900000Y-133985000D03*
X121285000Y-147320000D03*
X132080000Y-137160000D03*
X140970000Y-134620000D03*
X125730000Y-126365000D03*
X136525000Y-128572500D03*
X59690000Y-135255000D03*
X60630000Y-118440000D03*
X43180000Y-118745000D03*
X43180000Y-127635000D03*
X46507400Y-106197400D03*
X68326000Y-132715000D03*
X45085000Y-146685000D03*
X40640000Y-147955000D03*
X59690000Y-129540000D03*
X193675000Y-131445000D03*
X179705000Y-131445000D03*
X98535000Y-102125000D03*
X96369900Y-105560100D03*
X113665000Y-102870000D03*
X117475000Y-86995000D03*
X82550000Y-104775000D03*
X133350000Y-86995000D03*
X149225000Y-86995000D03*
X173990000Y-123825000D03*
X153972500Y-103202500D03*
X153797000Y-112903000D03*
X163830000Y-107950000D03*
X160020000Y-58420000D03*
X146050000Y-58420000D03*
X140335000Y-79375000D03*
X193675000Y-103172500D03*
X186690000Y-92240000D03*
X180505000Y-83655000D03*
X177800000Y-73660000D03*
X172085000Y-91440000D03*
X173634400Y-61315600D03*
X76835000Y-57150000D03*
X76835000Y-71120000D03*
X108490000Y-80105000D03*
X96520000Y-76835000D03*
X71120000Y-84836000D03*
X78105000Y-80645000D03*
X77137500Y-63832500D03*
X105410000Y-120015000D03*
X72390000Y-150495000D03*
X87630000Y-120015000D03*
X108282500Y-155877500D03*
X96852500Y-155877500D03*
X130776250Y-154906250D03*
X143510000Y-104140000D03*
X119077500Y-105410000D03*
X194310000Y-74295000D03*
X163830000Y-60325000D03*
X182950000Y-78740000D03*
X116205000Y-156210000D03*
X87630000Y-132080000D03*
X105410000Y-132080000D03*
X90170000Y-150495000D03*
X107950000Y-150495000D03*
X112395000Y-153035000D03*
X52070000Y-153035000D03*
X61595000Y-106045000D03*
X177800000Y-100965000D03*
X85422500Y-155877500D03*
X115189000Y-98425000D03*
X166370000Y-145415000D03*
X157480000Y-142240000D03*
X157480000Y-152400000D03*
X161290000Y-145415000D03*
X140208000Y-148844000D03*
X150495000Y-140335000D03*
X143510000Y-139700000D03*
X143510000Y-134620000D03*
X173355000Y-152400000D03*
X174625000Y-152400000D03*
X46990000Y-123190000D03*
X166370000Y-138430000D03*
X40972500Y-85725000D03*
X63500000Y-83820000D03*
X54190000Y-83820000D03*
X65405000Y-95250000D03*
X118745000Y-128905000D03*
X126365000Y-153035000D03*
X120650000Y-150495000D03*
X128880000Y-151790000D03*
X100965000Y-128905000D03*
X120650000Y-151765000D03*
X129680000Y-151765000D03*
X88900000Y-130175000D03*
X126365000Y-154305000D03*
X135255000Y-147955000D03*
X130810000Y-130810000D03*
X135890000Y-147320000D03*
X131445000Y-131445000D03*
X66675000Y-133985000D03*
X72390000Y-133985000D03*
X102235000Y-127635000D03*
X84455000Y-127635000D03*
X121920000Y-150495000D03*
X117475000Y-140970000D03*
X153035000Y-133350000D03*
X116840000Y-140335000D03*
X154305000Y-133350000D03*
X116840000Y-139065000D03*
X153035000Y-137160000D03*
X128270000Y-146050000D03*
X121285000Y-148590000D03*
X120650000Y-147955000D03*
X128905000Y-145415000D03*
X120650000Y-146685000D03*
X128270000Y-144780000D03*
X121285000Y-146050000D03*
X128905000Y-144145000D03*
X120650000Y-145415000D03*
X128270000Y-143510000D03*
X109220000Y-127000000D03*
X91440000Y-127000000D03*
X74295000Y-122555000D03*
X130175000Y-150495000D03*
X93345000Y-126365000D03*
X75565000Y-122555000D03*
X130810000Y-149860000D03*
X111125000Y-126365000D03*
X94615000Y-125730000D03*
X76835000Y-122555000D03*
X135280000Y-154305000D03*
X112395000Y-125730000D03*
X113665000Y-125095000D03*
X95885000Y-125095000D03*
X78105000Y-122555000D03*
X136080000Y-154305000D03*
X97155000Y-124460000D03*
X79375000Y-122555000D03*
X114935000Y-124460000D03*
X135445000Y-151320000D03*
X98425000Y-123825000D03*
X134620000Y-149860000D03*
X80645000Y-122555000D03*
X116205000Y-123825000D03*
X117475000Y-123190000D03*
X99695000Y-123190000D03*
X133985000Y-149225000D03*
X81915000Y-122555000D03*
X118745000Y-122555000D03*
X100965000Y-122555000D03*
X83185000Y-122555000D03*
X134620000Y-148590000D03*
X57150000Y-126365000D03*
X50165000Y-137795000D03*
X191135000Y-136525000D03*
X59690000Y-113030000D03*
X128905000Y-93980000D03*
X78105000Y-93980000D03*
X175895000Y-136525000D03*
X175260000Y-107950000D03*
X191135000Y-107950000D03*
X142240000Y-63500000D03*
X157480000Y-63500000D03*
X162560000Y-63500000D03*
X187325000Y-71120000D03*
X160655000Y-90170000D03*
X168910000Y-68580000D03*
X168910000Y-63500000D03*
X81915000Y-76835000D03*
X81915000Y-66040000D03*
X55880000Y-126365000D03*
X51435000Y-137795000D03*
X191135000Y-137795000D03*
X176530000Y-137160000D03*
X58420000Y-111760000D03*
X127635000Y-93345000D03*
X77470000Y-93345000D03*
X176530000Y-108585000D03*
X174625000Y-108585000D03*
X191135000Y-109220000D03*
X142875000Y-64135000D03*
X186690000Y-69850000D03*
X159385000Y-90170000D03*
X168275000Y-69215000D03*
X168275000Y-64135000D03*
X82550000Y-74295000D03*
X83185000Y-66040000D03*
X162560000Y-64770000D03*
X157480000Y-64770000D03*
X54610000Y-126365000D03*
X50165000Y-139065000D03*
X191135000Y-139065000D03*
X57150000Y-110490000D03*
X126365000Y-92710000D03*
X80010000Y-92710000D03*
X174625000Y-137795000D03*
X175895000Y-109220000D03*
X191135000Y-110490000D03*
X173990000Y-109220000D03*
X157480000Y-66040000D03*
X162560000Y-66040000D03*
X186055000Y-66040000D03*
X158115000Y-90170000D03*
X167640000Y-68580000D03*
X167640000Y-64770000D03*
X83185000Y-76835000D03*
X84455000Y-66040000D03*
X140970000Y-64770000D03*
X53340000Y-126365000D03*
X48895000Y-139065000D03*
X191135000Y-140335000D03*
X175895000Y-138430000D03*
X55880000Y-109220000D03*
X125095000Y-92075000D03*
X78740000Y-92075000D03*
X173355000Y-109855000D03*
X176530000Y-109855000D03*
X191135000Y-111760000D03*
X157480000Y-67310000D03*
X162560000Y-67310000D03*
X185420000Y-66675000D03*
X156845000Y-90170000D03*
X167005000Y-69215000D03*
X167005000Y-65405000D03*
X83820000Y-76200000D03*
X85725000Y-66040000D03*
X141605000Y-65405000D03*
X52070000Y-126365000D03*
X48895000Y-142875000D03*
X191135000Y-141605000D03*
X52070000Y-110490000D03*
X123825000Y-91440000D03*
X76200000Y-91440000D03*
X191135000Y-113030000D03*
X175895000Y-113030000D03*
X172720000Y-113030000D03*
X173355000Y-141605000D03*
X157480000Y-68580000D03*
X142240000Y-68580000D03*
X162560000Y-68580000D03*
X183515000Y-66040000D03*
X155575000Y-90170000D03*
X166370000Y-69850000D03*
X166370000Y-66040000D03*
X86995000Y-74930000D03*
X86995000Y-66040000D03*
X50800000Y-126365000D03*
X47625000Y-142875000D03*
X191135000Y-142875000D03*
X176530000Y-142240000D03*
X50800000Y-111760000D03*
X122555000Y-90805000D03*
X73660000Y-90805000D03*
X191135000Y-114300000D03*
X176530000Y-113665000D03*
X172085000Y-113665000D03*
X157480000Y-69850000D03*
X142875000Y-69215000D03*
X162560000Y-69850000D03*
X182880000Y-66675000D03*
X154305000Y-90170000D03*
X165735000Y-70485000D03*
X165735000Y-66675000D03*
X87630000Y-74295000D03*
X88265000Y-66040000D03*
X49530000Y-126365000D03*
X47625000Y-144145000D03*
X191135000Y-144145000D03*
X49530000Y-113030000D03*
X121285000Y-90170000D03*
X75565000Y-90170000D03*
X153035000Y-90170000D03*
X171450000Y-114300000D03*
X172085000Y-142875000D03*
X175895000Y-114300000D03*
X191135000Y-115570000D03*
X157480000Y-71120000D03*
X162560000Y-71120000D03*
X182245000Y-69850000D03*
X161925000Y-73025000D03*
X88265000Y-76200000D03*
X89535000Y-66040000D03*
X140970000Y-69850000D03*
X48260000Y-126365000D03*
X46355000Y-144145000D03*
X191135000Y-145415000D03*
X175895000Y-143510000D03*
X44450000Y-113665000D03*
X116205000Y-89535000D03*
X72390000Y-89535000D03*
X146050000Y-89535000D03*
X170815000Y-114935000D03*
X176530000Y-114935000D03*
X191135000Y-116840000D03*
X157480000Y-72390000D03*
X162560000Y-72390000D03*
X181610000Y-70485000D03*
X161925000Y-74295000D03*
X88900000Y-75565000D03*
X90805000Y-66040000D03*
X141605000Y-70485000D03*
X133985000Y-154940000D03*
X68580000Y-107315000D03*
X65405000Y-114935000D03*
X44450000Y-115570000D03*
X177165000Y-145415000D03*
X167005000Y-118745000D03*
X160020000Y-119380000D03*
X161290000Y-73660000D03*
X161290000Y-62865000D03*
X180975000Y-62230000D03*
X90805000Y-70485000D03*
X143510000Y-71120000D03*
X175895000Y-116840000D03*
X82550000Y-85090000D03*
X44450000Y-108585000D03*
X134620000Y-157480000D03*
X51132500Y-98425000D03*
X64135000Y-92710000D03*
X45085000Y-114935000D03*
X64135000Y-107315000D03*
X65405000Y-116205000D03*
X43180000Y-107315000D03*
X89535000Y-128270000D03*
X89535000Y-121920000D03*
X137160000Y-154305000D03*
X121920000Y-111055000D03*
X138430000Y-99695000D03*
X121920000Y-110255000D03*
X137160000Y-99695000D03*
X121920000Y-109455000D03*
X135890000Y-99695000D03*
X121920000Y-108655000D03*
X134620000Y-99695000D03*
X127635000Y-99695000D03*
X113030000Y-116840000D03*
X126365000Y-99695000D03*
X112395000Y-116205000D03*
X125095000Y-99695000D03*
X111125000Y-116205000D03*
X123825000Y-99695000D03*
X109855000Y-116205000D03*
X109220000Y-94615000D03*
X122555000Y-99695000D03*
X108585000Y-116205000D03*
X122555000Y-96520000D03*
X108585000Y-95250000D03*
X121285000Y-99695000D03*
X107950000Y-115570000D03*
X121285000Y-96520000D03*
X109855000Y-95885000D03*
X120015000Y-99695000D03*
X107315000Y-114300000D03*
X120015000Y-96520000D03*
X109220000Y-96520000D03*
X118745000Y-99695000D03*
X106680000Y-113030000D03*
X118745000Y-96520000D03*
X55245000Y-109855000D03*
X55245000Y-107950000D03*
X56515000Y-107950000D03*
X56515000Y-111125000D03*
X57785000Y-107950000D03*
X57785000Y-112395000D03*
X59055000Y-113665000D03*
X59055000Y-107950000D03*
X52705000Y-108585000D03*
X52705000Y-109855000D03*
X51435000Y-108585000D03*
X51435000Y-111125000D03*
X50165000Y-108585000D03*
X50165000Y-112395000D03*
X48895000Y-108585000D03*
X48895000Y-113665000D03*
X59055000Y-115570000D03*
X48260000Y-115570000D03*
X102870000Y-102870000D03*
X71755000Y-102235000D03*
X85725000Y-95885000D03*
X102870000Y-104140000D03*
X73025000Y-102235000D03*
X87630000Y-96520000D03*
X73025000Y-99060000D03*
X102870000Y-105410000D03*
X75565000Y-104140000D03*
X87630000Y-95250000D03*
X74295000Y-102870000D03*
X102870000Y-106680000D03*
X76835000Y-101600000D03*
X88900000Y-95885000D03*
X76835000Y-99060000D03*
X92075000Y-102235000D03*
X84455000Y-103505000D03*
X95250000Y-107315000D03*
X85725000Y-102235000D03*
X94615000Y-100965000D03*
X85725000Y-100965000D03*
X94615000Y-107950000D03*
X88265000Y-103505000D03*
X92075000Y-103505000D03*
X93980000Y-108585000D03*
X89535000Y-104140000D03*
X93345000Y-109220000D03*
X102235000Y-114935000D03*
X95250000Y-119380000D03*
X80645000Y-101600000D03*
X98151001Y-99060000D03*
X93345000Y-99060000D03*
X98425000Y-112395000D03*
X154940000Y-111125000D03*
X162560000Y-111125000D03*
X101600000Y-107315000D03*
X175330000Y-56585000D03*
X179705000Y-57150000D03*
X140735000Y-102870000D03*
X158115000Y-96520000D03*
X139935000Y-102870000D03*
X156845000Y-96520000D03*
X141535000Y-102870000D03*
X159385000Y-96520000D03*
X139135000Y-102870000D03*
X155575000Y-96520000D03*
X128975000Y-102870000D03*
X135890000Y-94615000D03*
X150495000Y-94615000D03*
X131375000Y-102870000D03*
X139700000Y-96520000D03*
X154305000Y-96520000D03*
X129775000Y-102870000D03*
X137160000Y-95250000D03*
X151765000Y-95250000D03*
X130575000Y-102870000D03*
X138430000Y-95885000D03*
X153035000Y-95885000D03*
X176930000Y-57150000D03*
X183515000Y-57150000D03*
X167640000Y-133985000D03*
X132080000Y-126365000D03*
X132715000Y-125730000D03*
X175592500Y-146050000D03*
X169545000Y-118745000D03*
X169545000Y-93345000D03*
X166370000Y-125095000D03*
X170180000Y-126365000D03*
X170180000Y-118110000D03*
X170180000Y-104140000D03*
X167005000Y-124460000D03*
X170180000Y-125095000D03*
X96520000Y-119380000D03*
X99101001Y-99060000D03*
X97790000Y-119380000D03*
X128905000Y-95250000D03*
X128905000Y-96520000D03*
X149225000Y-113665000D03*
X99060000Y-119380000D03*
X122555000Y-118110000D03*
X149225000Y-118110000D03*
X152400000Y-118110000D03*
X156210000Y-116840000D03*
X165100000Y-101600000D03*
X110490000Y-119380000D03*
X164465000Y-100965000D03*
X111760000Y-119380000D03*
X113030000Y-119380000D03*
X163830000Y-100330000D03*
X114300000Y-119380000D03*
X163195000Y-99695000D03*
X101600000Y-119380000D03*
X168910000Y-74930000D03*
X161925000Y-100965000D03*
X147320000Y-105410000D03*
X181305000Y-84455000D03*
X100330000Y-119380000D03*
X170180000Y-127635000D03*
X143510000Y-125730000D03*
X121285000Y-118110000D03*
X175895000Y-69215000D03*
X173990000Y-86360000D03*
X175260000Y-68580000D03*
X173355000Y-85090000D03*
X170815000Y-68580000D03*
X172720000Y-84455000D03*
X172720000Y-87440000D03*
X171450000Y-69215000D03*
X172085000Y-83820000D03*
X172720000Y-88240000D03*
X172085000Y-69850000D03*
X171450000Y-84455000D03*
X172085000Y-71120000D03*
X172720000Y-89040000D03*
X170815000Y-85090000D03*
X172720000Y-89840000D03*
X171450000Y-72390000D03*
X170180000Y-85725000D03*
X172720000Y-90640000D03*
X170180000Y-73660000D03*
X169545000Y-86360000D03*
X182905000Y-86995000D03*
X182105000Y-84455000D03*
X185350000Y-83820000D03*
X121285000Y-81280000D03*
X102470000Y-78740000D03*
X96520000Y-83115000D03*
X104870000Y-84455000D03*
X106680000Y-83185000D03*
X96520000Y-81515000D03*
X96520000Y-82315000D03*
X105670000Y-83820000D03*
X92710000Y-83115000D03*
X85090000Y-83185000D03*
X92710000Y-82315000D03*
X85725000Y-80010000D03*
X92710000Y-81515000D03*
X86360000Y-79375000D03*
X112960000Y-76200000D03*
X101670000Y-78105000D03*
X110560000Y-76200000D03*
X98620000Y-74295000D03*
X112160000Y-76200000D03*
X100870000Y-77470000D03*
X111360000Y-76200000D03*
X100070000Y-76200000D03*
X101670000Y-83820000D03*
X121990000Y-76200000D03*
X122790000Y-76200000D03*
X100870000Y-83820000D03*
X123590000Y-76200000D03*
X100070000Y-83820000D03*
X124390000Y-76200000D03*
X108585000Y-85725000D03*
X103270000Y-80010000D03*
X81280000Y-77470000D03*
X97155000Y-80905000D03*
X90170000Y-79375000D03*
X97155000Y-80105000D03*
X89535000Y-78740000D03*
X104070000Y-79375000D03*
X84455000Y-76835000D03*
X102470000Y-80645000D03*
X80645000Y-78105000D03*
X103270000Y-75565000D03*
X115570000Y-74295000D03*
X105670000Y-68955000D03*
X105670000Y-72130000D03*
X133350000Y-134620000D03*
X114935000Y-138430000D03*
X113030000Y-152400000D03*
X111125000Y-149225000D03*
X104140000Y-154940000D03*
X93345000Y-149225000D03*
X92710000Y-155194000D03*
X159385000Y-111760000D03*
X161290000Y-114300000D03*
X127635000Y-150520000D03*
X138430000Y-154940000D03*
X71755000Y-130810000D03*
X121920000Y-141605000D03*
X127635000Y-146685000D03*
X107950000Y-142875000D03*
X90170000Y-142875000D03*
X113665000Y-142240000D03*
X118745000Y-157480000D03*
X104775000Y-142240000D03*
X86995000Y-142240000D03*
X163830000Y-109220000D03*
X154305000Y-109855000D03*
X166370000Y-110490000D03*
X157480000Y-110490000D03*
X168910000Y-119380000D03*
X168910000Y-93980000D03*
X168275000Y-118745000D03*
X168275000Y-95885000D03*
X167640000Y-119380000D03*
X167640000Y-97085000D03*
X114300000Y-152400000D03*
X62865000Y-141605000D03*
X66040000Y-141605000D03*
X120015000Y-157480000D03*
X124460000Y-85725000D03*
X70485000Y-88900000D03*
X122555000Y-86360000D03*
X71120000Y-88265000D03*
X184785000Y-106680000D03*
X190500000Y-106680000D03*
X184785000Y-107950000D03*
X189865000Y-107950000D03*
X184785000Y-109220000D03*
X189230000Y-109220000D03*
X184785000Y-110490000D03*
X188595000Y-110490000D03*
X186055000Y-115570000D03*
X184785000Y-115570000D03*
X184785000Y-114300000D03*
X186690000Y-114300000D03*
X184785000Y-113030000D03*
X187325000Y-113030000D03*
X184785000Y-111760000D03*
X187960000Y-111760000D03*
X49530000Y-76200000D03*
D23*
X121285000Y-151130000D02*
X124460000Y-151130000D01*
X121285000Y-151130000D02*
X119380000Y-149225000D01*
X119380000Y-144145000D02*
X120015000Y-143510000D01*
X119380000Y-149225000D02*
X119380000Y-144145000D01*
X120015000Y-130175000D02*
X118745000Y-128905000D01*
X120015000Y-143510000D02*
X120015000Y-130175000D01*
X124460000Y-151130000D02*
X126365000Y-153035000D01*
X125730000Y-153670000D02*
X128270000Y-153670000D01*
X123825000Y-151765000D02*
X125730000Y-153670000D01*
X120650000Y-151765000D02*
X123825000Y-151765000D01*
X118745000Y-149860000D02*
X120650000Y-151765000D01*
X100965000Y-128905000D02*
X101600000Y-129540000D01*
X118110000Y-129540000D02*
X119380000Y-130810000D01*
X101600000Y-129540000D02*
X118110000Y-129540000D01*
X119380000Y-130810000D02*
X119380000Y-142875000D01*
X118745000Y-143510000D02*
X118745000Y-149860000D01*
X119380000Y-142875000D02*
X118745000Y-143510000D01*
X128880000Y-151790000D02*
X128880000Y-153060000D01*
X128880000Y-153060000D02*
X128270000Y-153670000D01*
X128905000Y-154305000D02*
X129680000Y-153530000D01*
X123190000Y-152400000D02*
X125095000Y-154305000D01*
X129680000Y-153530000D02*
X129680000Y-151765000D01*
X88900000Y-130175000D02*
X117475000Y-130175000D01*
X125095000Y-154305000D02*
X128905000Y-154305000D01*
X117475000Y-130175000D02*
X118745000Y-131445000D01*
X120015000Y-152400000D02*
X123190000Y-152400000D01*
X118745000Y-131445000D02*
X118745000Y-142240000D01*
X118745000Y-142240000D02*
X118110000Y-142875000D01*
X118110000Y-142875000D02*
X118110000Y-150495000D01*
X118110000Y-150495000D02*
X120015000Y-152400000D01*
X130810000Y-135890000D02*
X130810000Y-130810000D01*
X131445000Y-136525000D02*
X130810000Y-135890000D01*
X132715000Y-136525000D02*
X131445000Y-136525000D01*
X135255000Y-147955000D02*
X135255000Y-139065000D01*
X135255000Y-139065000D02*
X132715000Y-136525000D01*
X136525000Y-137795000D02*
X136525000Y-136525000D01*
X136525000Y-136525000D02*
X135890000Y-135890000D01*
X135890000Y-135890000D02*
X132080000Y-135890000D01*
X132080000Y-135890000D02*
X131445000Y-135255000D01*
X131445000Y-135255000D02*
X131445000Y-131445000D01*
X135890000Y-147320000D02*
X135890000Y-138430000D01*
X135890000Y-138430000D02*
X136525000Y-137795000D01*
X66675000Y-133985000D02*
X72390000Y-133985000D01*
X102235000Y-127635000D02*
X84455000Y-127635000D01*
X120650002Y-128270000D02*
X120015000Y-127635001D01*
X121920000Y-132715000D02*
X121285000Y-132080000D01*
X121285000Y-135890000D02*
X121920000Y-135255000D01*
X120015000Y-148590000D02*
X120014999Y-144780000D01*
X122555000Y-140970000D02*
X121285000Y-139700000D01*
X120015000Y-127635001D02*
X102235000Y-127635000D01*
X121920000Y-150495000D02*
X120015000Y-148590000D01*
X120014999Y-144780000D02*
X122555000Y-142240000D01*
X121285000Y-132080000D02*
X121285000Y-128905000D01*
X122555000Y-142240000D02*
X122555000Y-140970000D01*
X121285000Y-128905000D02*
X120650002Y-128270000D01*
X121920000Y-135255000D02*
X121920000Y-132715000D01*
X121285000Y-139700000D02*
X121285000Y-135890000D01*
X116840000Y-141605000D02*
X117475000Y-140970000D01*
X116840000Y-151765000D02*
X116840000Y-141605000D01*
X118745000Y-153670000D02*
X116840000Y-151765000D01*
X151130000Y-154940000D02*
X150495000Y-155575000D01*
X123825000Y-155575000D02*
X121920000Y-153670000D01*
X151130000Y-135255000D02*
X151130000Y-154940000D01*
X153035000Y-133350000D02*
X151130000Y-135255000D01*
X150495000Y-155575000D02*
X123825000Y-155575000D01*
X121920000Y-153670000D02*
X118745000Y-153670000D01*
X116840000Y-140335000D02*
X116205000Y-140970000D01*
X123190000Y-156210000D02*
X151130000Y-156210000D01*
X116205000Y-140970000D02*
X116205000Y-152400000D01*
X118745000Y-154940000D02*
X121920000Y-154940000D01*
X116205000Y-152400000D02*
X118745000Y-154940000D01*
X121920000Y-154940000D02*
X123190000Y-156210000D01*
X151130000Y-156210000D02*
X151765000Y-155575000D01*
X151765000Y-155575000D02*
X151765000Y-135890000D01*
X151765000Y-135890000D02*
X154305000Y-133350000D01*
X116840000Y-139065000D02*
X115570000Y-140335000D01*
X115570000Y-153035000D02*
X118110000Y-155575000D01*
X118110000Y-155575000D02*
X121285000Y-155575000D01*
X115570000Y-140335000D02*
X115570000Y-153035000D01*
X121285000Y-155575000D02*
X122555000Y-156845000D01*
X122555000Y-156845000D02*
X151765000Y-156845000D01*
X151765000Y-156845000D02*
X152400000Y-156210000D01*
X152400000Y-156210000D02*
X152400000Y-137795000D01*
X152400000Y-137795000D02*
X153035000Y-137160000D01*
X125095000Y-146050000D02*
X128270000Y-146050000D01*
X121285000Y-148590000D02*
X122555000Y-148590000D01*
X122555000Y-148590000D02*
X125095000Y-146050000D01*
X120650000Y-147955000D02*
X121920000Y-147955000D01*
X121920000Y-147955000D02*
X124460000Y-145415000D01*
X124460000Y-145415000D02*
X128905000Y-145415000D01*
X120650000Y-146685000D02*
X121920000Y-146685000D01*
X121920000Y-146685000D02*
X123825000Y-144780000D01*
X123825000Y-144780000D02*
X128270000Y-144780000D01*
X121285000Y-146050000D02*
X123190000Y-144145000D01*
X123190000Y-144145000D02*
X128905000Y-144145000D01*
X120650000Y-145415000D02*
X122555000Y-143510000D01*
X122555000Y-143510000D02*
X128270000Y-143510000D01*
X109220000Y-127000000D02*
X91440000Y-127000000D01*
X74295000Y-122555000D02*
X78740000Y-127000000D01*
X78740000Y-127000000D02*
X91440000Y-127000000D01*
X130175000Y-144145000D02*
X130175000Y-150495000D01*
X123825000Y-127000000D02*
X125730000Y-128905000D01*
X125730000Y-141605000D02*
X126365000Y-142240000D01*
X109220000Y-127000000D02*
X123825000Y-127000000D01*
X125730000Y-128905000D02*
X125730000Y-141605000D01*
X126365000Y-142240000D02*
X128270000Y-142240000D01*
X128270000Y-142240000D02*
X130175000Y-144145000D01*
X93345000Y-126365000D02*
X111125000Y-126365000D01*
X75565000Y-122555000D02*
X79375000Y-126365000D01*
X79375000Y-126365000D02*
X93345000Y-126365000D01*
X124460000Y-126365000D02*
X126365000Y-128270000D01*
X111125000Y-126365000D02*
X124460000Y-126365000D01*
X126365000Y-128270000D02*
X126365000Y-140970000D01*
X126365000Y-140970000D02*
X127000000Y-141605000D01*
X130810000Y-143510000D02*
X130810000Y-149860000D01*
X127000000Y-141605000D02*
X128905000Y-141605000D01*
X128905000Y-141605000D02*
X130810000Y-143510000D01*
X112395000Y-125730000D02*
X94615000Y-125730000D01*
X76835000Y-122555000D02*
X80010000Y-125730000D01*
X94615000Y-125730000D02*
X80010000Y-125730000D01*
X135280000Y-153695000D02*
X135280000Y-154305000D01*
X133350000Y-151765000D02*
X135280000Y-153695000D01*
X132080000Y-151765000D02*
X133350000Y-151765000D01*
X131445000Y-142875000D02*
X131445000Y-151130000D01*
X126365000Y-125730000D02*
X127000000Y-126365000D01*
X131445000Y-151130000D02*
X132080000Y-151765000D01*
X127000000Y-140335000D02*
X127635000Y-140970000D01*
X112395000Y-125730000D02*
X126365000Y-125730000D01*
X127635000Y-140970000D02*
X129540000Y-140970000D01*
X127000000Y-126365000D02*
X127000000Y-140335000D01*
X129540000Y-140970000D02*
X131445000Y-142875000D01*
X95885000Y-125095000D02*
X113665000Y-125095000D01*
X78105000Y-122555000D02*
X80645000Y-125095000D01*
X80645000Y-125095000D02*
X95885000Y-125095000D01*
X133985000Y-151130000D02*
X136080000Y-153225000D01*
X132080000Y-150495000D02*
X132715000Y-151130000D01*
X132715000Y-151130000D02*
X133985000Y-151130000D01*
X132080000Y-142240000D02*
X132080000Y-150495000D01*
X127000000Y-125095000D02*
X127635000Y-125730000D01*
X113665000Y-125095000D02*
X127000000Y-125095000D01*
X136080000Y-153225000D02*
X136080000Y-154305000D01*
X128270000Y-140335000D02*
X130175000Y-140335000D01*
X127635000Y-125730000D02*
X127635000Y-139700000D01*
X127635000Y-139700000D02*
X128270000Y-140335000D01*
X130175000Y-140335000D02*
X132080000Y-142240000D01*
X79375000Y-122555000D02*
X81280000Y-124460000D01*
X97155000Y-124460000D02*
X81280000Y-124460000D01*
X114935000Y-124460000D02*
X97155000Y-124460000D01*
X134620000Y-150495000D02*
X135445000Y-151320000D01*
X132715000Y-149860000D02*
X133350000Y-150495000D01*
X132715000Y-141605000D02*
X132715000Y-149860000D01*
X127635000Y-124460000D02*
X128270000Y-125095000D01*
X114935000Y-124460000D02*
X127635000Y-124460000D01*
X128270000Y-125095000D02*
X128270000Y-139065000D01*
X128905000Y-139700000D02*
X130810000Y-139700000D01*
X133350000Y-150495000D02*
X134620000Y-150495000D01*
X128270000Y-139065000D02*
X128905000Y-139700000D01*
X130810000Y-139700000D02*
X132715000Y-141605000D01*
X80645000Y-122555000D02*
X81915000Y-123825000D01*
X81915000Y-123825000D02*
X98425000Y-123825000D01*
X98425000Y-123825000D02*
X116205000Y-123825000D01*
X133731000Y-149860000D02*
X134620000Y-149860000D01*
X133350000Y-149479000D02*
X133731000Y-149860000D01*
X133350000Y-140970000D02*
X133350000Y-149479000D01*
X128270000Y-123825000D02*
X128905000Y-124460000D01*
X128905000Y-124460000D02*
X128905000Y-138430000D01*
X129540000Y-139065000D02*
X131445000Y-139065000D01*
X116205000Y-123825000D02*
X128270000Y-123825000D01*
X131445000Y-139065000D02*
X133350000Y-140970000D01*
X128905000Y-138430000D02*
X129540000Y-139065000D01*
X117475000Y-123190000D02*
X99695000Y-123190000D01*
X81915000Y-122555000D02*
X82550000Y-123190000D01*
X99695000Y-123190000D02*
X82550000Y-123190000D01*
X133985000Y-140335000D02*
X133985000Y-149225000D01*
X128905000Y-123190000D02*
X129540000Y-123825000D01*
X129540000Y-123825000D02*
X129540000Y-137795000D01*
X117475000Y-123190000D02*
X128905000Y-123190000D01*
X129540000Y-137795000D02*
X130175000Y-138430000D01*
X132080000Y-138430000D02*
X133985000Y-140335000D01*
X130175000Y-138430000D02*
X132080000Y-138430000D01*
X83185000Y-122555000D02*
X100965000Y-122555000D01*
X100965000Y-122555000D02*
X118745000Y-122555000D01*
X134620000Y-139700000D02*
X134620000Y-148590000D01*
X132715000Y-137795000D02*
X134620000Y-139700000D01*
X130556000Y-137795000D02*
X132715000Y-137795000D01*
X129540000Y-122555000D02*
X130810000Y-123825000D01*
X130175000Y-137414000D02*
X130556000Y-137795000D01*
X118745000Y-122555000D02*
X129540000Y-122555000D01*
X130175000Y-127635000D02*
X130175000Y-137414000D01*
X130810000Y-123825000D02*
X130810000Y-127000000D01*
X130810000Y-127000000D02*
X130175000Y-127635000D01*
X55499000Y-125730000D02*
X56515000Y-125730000D01*
X55245000Y-125984000D02*
X55499000Y-125730000D01*
X50165000Y-135255000D02*
X55245000Y-130175000D01*
X56515000Y-125730000D02*
X57150000Y-126365000D01*
X55245000Y-130175000D02*
X55245000Y-125984000D01*
X50165000Y-137795000D02*
X50165000Y-135255000D01*
X191135000Y-136525000D02*
X175895000Y-136525000D01*
X175895000Y-136525000D02*
X175260000Y-135890000D01*
X175260000Y-135890000D02*
X175260000Y-126365000D01*
X175260000Y-126365000D02*
X175895000Y-125730000D01*
X175895000Y-125730000D02*
X175895000Y-121920000D01*
X175895000Y-121920000D02*
X175260000Y-121285000D01*
X175260000Y-121285000D02*
X175260000Y-107950000D01*
X157480000Y-63500000D02*
X142240000Y-63500000D01*
X157480000Y-63500000D02*
X162560000Y-63500000D01*
X162560000Y-63500000D02*
X186055000Y-63500000D01*
X186055000Y-63500000D02*
X187325000Y-64770000D01*
X187325000Y-64770000D02*
X187325000Y-71120000D01*
X156845000Y-93980000D02*
X160655000Y-90170000D01*
X128905000Y-93980000D02*
X156845000Y-93980000D01*
X160655000Y-80010000D02*
X160655000Y-90170000D01*
X168910000Y-68580000D02*
X168910000Y-73660000D01*
X167005000Y-75565000D02*
X167005000Y-77470000D01*
X167005000Y-77470000D02*
X165735000Y-78740000D01*
X161925000Y-78740000D02*
X160655000Y-80010000D01*
X168910000Y-73660000D02*
X167005000Y-75565000D01*
X165735000Y-78740000D02*
X161925000Y-78740000D01*
X81915000Y-66040000D02*
X81915000Y-76835000D01*
X81915000Y-66040000D02*
X86360000Y-61595000D01*
X142240000Y-63500000D02*
X140335000Y-61595000D01*
X140335000Y-61595000D02*
X86360000Y-61595000D01*
X175260000Y-102235000D02*
X175260000Y-107950000D01*
X180340000Y-82550000D02*
X179070000Y-83820000D01*
X179070000Y-83820000D02*
X179070000Y-98425000D01*
X179070000Y-98425000D02*
X175260000Y-102235000D01*
X185420000Y-82550000D02*
X187325000Y-80645000D01*
X187325000Y-71120000D02*
X187325000Y-80645000D01*
X185420000Y-82550000D02*
X180340000Y-82550000D01*
X190500000Y-107315000D02*
X191135000Y-107950000D01*
X184150000Y-107315000D02*
X190500000Y-107315000D01*
X183515000Y-107950000D02*
X184150000Y-107315000D01*
X175260000Y-107950000D02*
X183515000Y-107950000D01*
X71120000Y-93980000D02*
X128905000Y-93980000D01*
X69850000Y-95250000D02*
X71120000Y-93980000D01*
X69850000Y-99695000D02*
X69850000Y-95250000D01*
X59690000Y-113030000D02*
X59690000Y-104140000D01*
X59690000Y-104140000D02*
X60325000Y-103505000D01*
X60325000Y-103505000D02*
X68580000Y-103505000D01*
X68580000Y-103505000D02*
X69215000Y-102870000D01*
X69215000Y-102870000D02*
X69215000Y-100330000D01*
X69215000Y-100330000D02*
X69850000Y-99695000D01*
X55880000Y-126365000D02*
X55880000Y-130810000D01*
X55880000Y-130810000D02*
X50800000Y-135890000D01*
X50800000Y-135890000D02*
X50800000Y-137160000D01*
X50800000Y-137160000D02*
X51435000Y-137795000D01*
X190500000Y-137160000D02*
X176530000Y-137160000D01*
X191135000Y-137795000D02*
X190500000Y-137160000D01*
X176530000Y-137160000D02*
X175260000Y-137160000D01*
X175260000Y-137160000D02*
X174625000Y-136525000D01*
X174625000Y-136525000D02*
X174625000Y-125730000D01*
X174625000Y-125730000D02*
X175260000Y-125095000D01*
X175260000Y-125095000D02*
X175260000Y-122555000D01*
X175260000Y-122555000D02*
X174625000Y-121920000D01*
X174625000Y-121920000D02*
X174625000Y-108585000D01*
X190500000Y-108585000D02*
X176530000Y-108585000D01*
X191135000Y-109220000D02*
X190500000Y-108585000D01*
X156845000Y-64135000D02*
X142875000Y-64135000D01*
X163195000Y-64135000D02*
X185420000Y-64135000D01*
X185420000Y-64135000D02*
X186690000Y-65405000D01*
X186690000Y-65405000D02*
X186690000Y-69850000D01*
X156210000Y-93345000D02*
X159385000Y-90170000D01*
X127635000Y-93345000D02*
X156210000Y-93345000D01*
X160020000Y-79375000D02*
X160020000Y-89535000D01*
X168275000Y-69215000D02*
X168275000Y-73025000D01*
X166370000Y-74930000D02*
X166370000Y-76835000D01*
X168275000Y-73025000D02*
X166370000Y-74930000D01*
X160020000Y-89535000D02*
X159385000Y-90170000D01*
X166370000Y-76835000D02*
X165100000Y-78105000D01*
X165100000Y-78105000D02*
X161290000Y-78105000D01*
X161290000Y-78105000D02*
X160020000Y-79375000D01*
X82550000Y-66675000D02*
X82550000Y-74295000D01*
X83185000Y-66040000D02*
X82550000Y-66675000D01*
X142875000Y-64135000D02*
X141605000Y-64135000D01*
X86995000Y-62230000D02*
X139700000Y-62230000D01*
X141605000Y-64135000D02*
X139700000Y-62230000D01*
X86995000Y-62230000D02*
X83185000Y-66040000D01*
X174625000Y-101600000D02*
X174625000Y-108585000D01*
X178435000Y-97790000D02*
X174625000Y-101600000D01*
X178435000Y-83185000D02*
X178435000Y-97790000D01*
X179705000Y-81915000D02*
X178435000Y-83185000D01*
X162560000Y-64770000D02*
X163195000Y-64135000D01*
X157480000Y-64770000D02*
X162560000Y-64770000D01*
X157480000Y-64770000D02*
X156845000Y-64135000D01*
X184785000Y-81915000D02*
X186690000Y-80010000D01*
X186690000Y-69850000D02*
X186690000Y-80010000D01*
X184785000Y-81915000D02*
X179705000Y-81915000D01*
X70485000Y-93345000D02*
X127635000Y-93345000D01*
X69215000Y-94615000D02*
X70485000Y-93345000D01*
X69215000Y-99060000D02*
X69215000Y-94615000D01*
X58420000Y-111760000D02*
X58420000Y-103505000D01*
X58420000Y-103505000D02*
X59055000Y-102870000D01*
X59055000Y-102870000D02*
X67945000Y-102870000D01*
X67945000Y-102870000D02*
X68580000Y-102235000D01*
X68580000Y-99695000D02*
X69215000Y-99060000D01*
X68580000Y-102235000D02*
X68580000Y-99695000D01*
X54610000Y-126365000D02*
X54610000Y-129540000D01*
X54610000Y-129540000D02*
X49530000Y-134620000D01*
X49530000Y-134620000D02*
X49530000Y-138430000D01*
X49530000Y-138430000D02*
X50165000Y-139065000D01*
X189865000Y-137795000D02*
X191135000Y-139065000D01*
X174625000Y-137795000D02*
X189865000Y-137795000D01*
X173990000Y-122555000D02*
X173990000Y-109220000D01*
X174625000Y-123190000D02*
X173990000Y-122555000D01*
X174625000Y-124460000D02*
X174625000Y-123190000D01*
X173990000Y-125095000D02*
X174625000Y-124460000D01*
X173990000Y-137160000D02*
X173990000Y-125095000D01*
X174625000Y-137795000D02*
X173990000Y-137160000D01*
X157480000Y-66040000D02*
X162560000Y-66040000D01*
X162560000Y-66040000D02*
X163830000Y-64770000D01*
X163830000Y-64770000D02*
X184785000Y-64770000D01*
X184785000Y-64770000D02*
X186055000Y-66040000D01*
X155575000Y-92710000D02*
X158115000Y-90170000D01*
X126365000Y-92710000D02*
X155575000Y-92710000D01*
X159385000Y-88900000D02*
X158115000Y-90170000D01*
X167640000Y-68580000D02*
X167640000Y-72390000D01*
X159385000Y-78740000D02*
X159385000Y-88900000D01*
X167640000Y-72390000D02*
X165735000Y-74295000D01*
X160655000Y-77470000D02*
X159385000Y-78740000D01*
X165735000Y-76200000D02*
X164465000Y-77470000D01*
X165735000Y-74295000D02*
X165735000Y-76200000D01*
X164465000Y-77470000D02*
X160655000Y-77470000D01*
X83185000Y-67310000D02*
X83185000Y-76835000D01*
X84455000Y-66040000D02*
X83185000Y-67310000D01*
X140970000Y-64770000D02*
X156210000Y-64770000D01*
X156210000Y-64770000D02*
X157480000Y-66040000D01*
X139065000Y-62865000D02*
X87630000Y-62865000D01*
X84455000Y-66040000D02*
X87630000Y-62865000D01*
X139065000Y-62865000D02*
X140970000Y-64770000D01*
X173990000Y-100965000D02*
X173990000Y-109220000D01*
X177800000Y-97155000D02*
X173990000Y-100965000D01*
X177800000Y-82550000D02*
X177800000Y-97155000D01*
X179070000Y-81280000D02*
X177800000Y-82550000D01*
X184150000Y-81280000D02*
X186055000Y-79375000D01*
X186055000Y-66040000D02*
X186055000Y-79375000D01*
X184150000Y-81280000D02*
X179070000Y-81280000D01*
X190500000Y-109855000D02*
X191135000Y-110490000D01*
X184150000Y-109855000D02*
X190500000Y-109855000D01*
X183515000Y-109220000D02*
X184150000Y-109855000D01*
X175895000Y-109220000D02*
X183515000Y-109220000D01*
X68580000Y-93980000D02*
X69850000Y-92710000D01*
X68580000Y-98425000D02*
X68580000Y-93980000D01*
X57150000Y-110490000D02*
X57150000Y-102870000D01*
X67310000Y-102235000D02*
X67945000Y-101600000D01*
X57150000Y-102870000D02*
X57785000Y-102235000D01*
X69850000Y-92710000D02*
X126365000Y-92710000D01*
X57785000Y-102235000D02*
X67310000Y-102235000D01*
X67945000Y-101600000D02*
X67945000Y-99060000D01*
X67945000Y-99060000D02*
X68580000Y-98425000D01*
X53340000Y-126365000D02*
X53340000Y-129540000D01*
X53340000Y-129540000D02*
X48895000Y-133985000D01*
X48895000Y-133985000D02*
X48895000Y-139065000D01*
X191135000Y-140335000D02*
X189230000Y-138430000D01*
X189230000Y-138430000D02*
X175895000Y-138430000D01*
X175895000Y-138430000D02*
X173990000Y-138430000D01*
X173990000Y-138430000D02*
X173355000Y-137795000D01*
X173355000Y-137795000D02*
X173355000Y-109855000D01*
X190500000Y-111125000D02*
X191135000Y-111760000D01*
X157480000Y-67310000D02*
X162560000Y-67310000D01*
X162560000Y-67310000D02*
X164465000Y-65405000D01*
X164465000Y-65405000D02*
X184150000Y-65405000D01*
X184150000Y-65405000D02*
X185420000Y-66675000D01*
X154940000Y-92075000D02*
X156845000Y-90170000D01*
X125095000Y-92075000D02*
X154940000Y-92075000D01*
X158750000Y-78105000D02*
X158750000Y-88265000D01*
X160020000Y-76835000D02*
X158750000Y-78105000D01*
X158750000Y-88265000D02*
X156845000Y-90170000D01*
X167005000Y-69215000D02*
X167005000Y-71755000D01*
X167005000Y-71755000D02*
X165100000Y-73660000D01*
X165100000Y-73660000D02*
X165100000Y-75565000D01*
X165100000Y-75565000D02*
X163830000Y-76835000D01*
X163830000Y-76835000D02*
X160020000Y-76835000D01*
X83820000Y-67945000D02*
X83820000Y-76200000D01*
X85725000Y-66040000D02*
X83820000Y-67945000D01*
X173355000Y-100330000D02*
X173355000Y-109855000D01*
X177165000Y-81915000D02*
X177165000Y-96520000D01*
X177165000Y-96520000D02*
X173355000Y-100330000D01*
X178435000Y-80645000D02*
X177165000Y-81915000D01*
X88265000Y-63500000D02*
X85725000Y-66040000D01*
X138430000Y-63500000D02*
X88265000Y-63500000D01*
X140335000Y-65405000D02*
X138430000Y-63500000D01*
X141605000Y-65405000D02*
X140335000Y-65405000D01*
X155575000Y-65405000D02*
X157480000Y-67310000D01*
X141605000Y-65405000D02*
X155575000Y-65405000D01*
X183515000Y-80645000D02*
X185420000Y-78740000D01*
X183515000Y-80645000D02*
X178435000Y-80645000D01*
X185420000Y-66675000D02*
X185420000Y-78740000D01*
X176530000Y-109855000D02*
X182880000Y-109855000D01*
X182880000Y-109855000D02*
X184150000Y-111125000D01*
X190500000Y-111125000D02*
X184150000Y-111125000D01*
X67945000Y-93345000D02*
X69215000Y-92075000D01*
X67945000Y-97790000D02*
X67945000Y-93345000D01*
X55880000Y-109220000D02*
X55880000Y-102235000D01*
X55880000Y-102235000D02*
X56515000Y-101600000D01*
X69215000Y-92075000D02*
X125095000Y-92075000D01*
X66675000Y-101600000D02*
X67310000Y-100965000D01*
X56515000Y-101600000D02*
X66675000Y-101600000D01*
X67310000Y-100965000D02*
X67310000Y-98425000D01*
X67310000Y-98425000D02*
X67945000Y-97790000D01*
X52070000Y-126365000D02*
X52070000Y-129540000D01*
X52070000Y-129540000D02*
X48260000Y-133350000D01*
X48260000Y-133350000D02*
X48260000Y-142240000D01*
X48260000Y-142240000D02*
X48895000Y-142875000D01*
X154305000Y-91440000D02*
X123825000Y-91440000D01*
X172720000Y-140970000D02*
X172720000Y-113030000D01*
X173355000Y-141605000D02*
X172720000Y-140970000D01*
X191135000Y-141605000D02*
X173355000Y-141605000D01*
X191135000Y-113030000D02*
X190500000Y-112395000D01*
X157480000Y-68580000D02*
X142240000Y-68580000D01*
X157480000Y-68580000D02*
X162560000Y-68580000D01*
X165100000Y-66040000D02*
X162560000Y-68580000D01*
X183515000Y-66040000D02*
X165100000Y-66040000D01*
X154305000Y-91440000D02*
X155575000Y-90170000D01*
X166370000Y-71120000D02*
X166370000Y-69850000D01*
X163830000Y-73660000D02*
X166370000Y-71120000D01*
X163195000Y-76200000D02*
X163830000Y-75565000D01*
X163830000Y-75565000D02*
X163830000Y-73660000D01*
X155575000Y-90170000D02*
X158115000Y-87630000D01*
X158115000Y-87630000D02*
X158115000Y-77470000D01*
X158115000Y-77470000D02*
X159385000Y-76200000D01*
X159385000Y-76200000D02*
X163195000Y-76200000D01*
X86995000Y-66040000D02*
X86995000Y-74930000D01*
X137795000Y-64135000D02*
X142240000Y-68580000D01*
X137795000Y-64135000D02*
X88900000Y-64135000D01*
X86995000Y-66040000D02*
X88900000Y-64135000D01*
X184785000Y-67310000D02*
X183515000Y-66040000D01*
X184785000Y-78105000D02*
X184785000Y-67310000D01*
X172720000Y-113030000D02*
X172720000Y-99695000D01*
X176530000Y-95885000D02*
X176530000Y-81280000D01*
X172720000Y-99695000D02*
X176530000Y-95885000D01*
X176530000Y-81280000D02*
X177800000Y-80010000D01*
X177800000Y-80010000D02*
X182880000Y-80010000D01*
X182880000Y-80010000D02*
X184785000Y-78105000D01*
X183515000Y-113030000D02*
X184150000Y-112395000D01*
X175895000Y-113030000D02*
X183515000Y-113030000D01*
X190500000Y-112395000D02*
X184150000Y-112395000D01*
X68580000Y-91440000D02*
X123825000Y-91440000D01*
X67310000Y-92710000D02*
X68580000Y-91440000D01*
X67310000Y-97155000D02*
X67310000Y-92710000D01*
X52070000Y-110490000D02*
X52070000Y-101600000D01*
X52070000Y-101600000D02*
X52705000Y-100965000D01*
X52705000Y-100965000D02*
X66040000Y-100965000D01*
X66675000Y-97790000D02*
X67310000Y-97155000D01*
X66040000Y-100965000D02*
X66675000Y-100330000D01*
X66675000Y-100330000D02*
X66675000Y-97790000D01*
X50800000Y-126365000D02*
X50800000Y-129540000D01*
X50800000Y-129540000D02*
X47625000Y-132715000D01*
X47625000Y-132715000D02*
X47625000Y-142875000D01*
X176530000Y-142240000D02*
X190500000Y-142240000D01*
X190500000Y-142240000D02*
X191135000Y-142875000D01*
X172720000Y-142240000D02*
X172085000Y-141605000D01*
X172085000Y-113665000D02*
X172085000Y-141605000D01*
X172720000Y-142240000D02*
X176530000Y-142240000D01*
X176530000Y-113665000D02*
X190500000Y-113665000D01*
X190500000Y-113665000D02*
X191135000Y-114300000D01*
X142875000Y-69215000D02*
X156845000Y-69215000D01*
X156845000Y-69215000D02*
X157480000Y-69850000D01*
X157480000Y-69850000D02*
X162560000Y-69850000D01*
X162560000Y-69850000D02*
X165735000Y-66675000D01*
X165735000Y-66675000D02*
X182880000Y-66675000D01*
X153670000Y-90805000D02*
X154305000Y-90170000D01*
X122555000Y-90805000D02*
X153670000Y-90805000D01*
X163195000Y-73025000D02*
X165735000Y-70485000D01*
X154305000Y-90170000D02*
X157480000Y-86995000D01*
X157480000Y-86995000D02*
X157480000Y-76835000D01*
X157480000Y-76835000D02*
X158750000Y-75565000D01*
X163195000Y-74930000D02*
X163195000Y-73025000D01*
X158750000Y-75565000D02*
X162560000Y-75565000D01*
X162560000Y-75565000D02*
X163195000Y-74930000D01*
X87630000Y-66675000D02*
X87630000Y-74295000D01*
X88265000Y-66040000D02*
X87630000Y-66675000D01*
X142875000Y-69215000D02*
X141605000Y-69215000D01*
X89535000Y-64770000D02*
X137160000Y-64770000D01*
X141605000Y-69215000D02*
X137160000Y-64770000D01*
X89535000Y-64770000D02*
X88265000Y-66040000D01*
X175895000Y-95250000D02*
X172085000Y-99060000D01*
X175895000Y-80645000D02*
X175895000Y-95250000D01*
X172085000Y-99060000D02*
X172085000Y-113665000D01*
X177165000Y-79375000D02*
X175895000Y-80645000D01*
X182880000Y-66675000D02*
X184150000Y-67945000D01*
X180975000Y-79375000D02*
X184150000Y-76200000D01*
X184150000Y-67945000D02*
X184150000Y-76200000D01*
X180975000Y-79375000D02*
X177165000Y-79375000D01*
X66675000Y-92075000D02*
X67945000Y-90805000D01*
X66040000Y-97155000D02*
X66675000Y-96520000D01*
X66040000Y-99695000D02*
X66040000Y-97155000D01*
X67945000Y-90805000D02*
X122555000Y-90805000D01*
X50800000Y-111760000D02*
X50800000Y-107950000D01*
X51435000Y-100965000D02*
X52070000Y-100330000D01*
X50800000Y-107950000D02*
X51435000Y-107315000D01*
X51435000Y-107315000D02*
X51435000Y-100965000D01*
X66675000Y-96520000D02*
X66675000Y-92075000D01*
X65405000Y-100330000D02*
X66040000Y-99695000D01*
X52070000Y-100330000D02*
X65405000Y-100330000D01*
X49530000Y-126365000D02*
X49530000Y-129540000D01*
X49530000Y-129540000D02*
X46990000Y-132080000D01*
X46990000Y-132080000D02*
X46990000Y-143510000D01*
X46990000Y-143510000D02*
X47625000Y-144145000D01*
X121285000Y-90170000D02*
X153035000Y-90170000D01*
X171450000Y-142240000D02*
X171450000Y-114300000D01*
X172085000Y-142875000D02*
X189865000Y-142875000D01*
X172085000Y-142875000D02*
X171450000Y-142240000D01*
X189865000Y-142875000D02*
X191135000Y-144145000D01*
X157480000Y-71120000D02*
X162560000Y-71120000D01*
X161925000Y-73025000D02*
X162560000Y-73660000D01*
X162179000Y-74930000D02*
X162560000Y-74549000D01*
X162560000Y-73660000D02*
X162560000Y-74549000D01*
X153035000Y-90170000D02*
X156845000Y-86360000D01*
X156845000Y-86360000D02*
X156845000Y-76200000D01*
X156845000Y-76200000D02*
X158115000Y-74930000D01*
X158115000Y-74930000D02*
X162179000Y-74930000D01*
X88265000Y-67310000D02*
X88265000Y-76200000D01*
X89535000Y-66040000D02*
X88265000Y-67310000D01*
X156210000Y-69850000D02*
X157480000Y-71120000D01*
X140970000Y-69850000D02*
X156210000Y-69850000D01*
X136525000Y-65405000D02*
X90170000Y-65405000D01*
X89535000Y-66040000D02*
X90170000Y-65405000D01*
X136525000Y-65405000D02*
X140970000Y-69850000D01*
X171450000Y-98425000D02*
X171450000Y-114300000D01*
X176530000Y-78740000D02*
X175260000Y-80010000D01*
X175260000Y-94615000D02*
X171450000Y-98425000D01*
X175260000Y-80010000D02*
X175260000Y-94615000D01*
X182245000Y-69850000D02*
X183515000Y-71120000D01*
X182245000Y-69850000D02*
X179705000Y-67310000D01*
X166370000Y-67310000D02*
X162560000Y-71120000D01*
X179705000Y-67310000D02*
X166370000Y-67310000D01*
X180340000Y-78740000D02*
X183515000Y-75565000D01*
X183515000Y-71120000D02*
X183515000Y-75565000D01*
X180340000Y-78740000D02*
X176530000Y-78740000D01*
X190500000Y-114935000D02*
X191135000Y-115570000D01*
X183515000Y-114300000D02*
X184150000Y-114935000D01*
X184150000Y-114935000D02*
X190500000Y-114935000D01*
X175895000Y-114300000D02*
X183515000Y-114300000D01*
X67310000Y-90170000D02*
X121285000Y-90170000D01*
X66040000Y-91440000D02*
X67310000Y-90170000D01*
X66040000Y-95885000D02*
X66040000Y-91440000D01*
X49530000Y-107950000D02*
X50800000Y-106680000D01*
X65405000Y-96520000D02*
X66040000Y-95885000D01*
X50800000Y-106680000D02*
X50800000Y-100330000D01*
X49530000Y-113030000D02*
X49530000Y-107950000D01*
X64770000Y-99695000D02*
X65405000Y-99060000D01*
X50800000Y-100330000D02*
X51435000Y-99695000D01*
X65405000Y-99060000D02*
X65405000Y-96520000D01*
X51435000Y-99695000D02*
X64770000Y-99695000D01*
X48260000Y-126365000D02*
X48260000Y-129540000D01*
X46355000Y-144145000D02*
X46355000Y-131445000D01*
X46355000Y-131445000D02*
X48260000Y-129540000D01*
X189230000Y-143510000D02*
X175895000Y-143510000D01*
X190500000Y-144780000D02*
X189230000Y-143510000D01*
X191135000Y-145415000D02*
X190500000Y-144780000D01*
X190500000Y-144780000D02*
X190409999Y-144689999D01*
X175895000Y-143510000D02*
X171450000Y-143510000D01*
X171450000Y-143510000D02*
X170815000Y-142875000D01*
X170815000Y-142875000D02*
X170815000Y-114935000D01*
X191135000Y-116840000D02*
X190500000Y-116205000D01*
X157480000Y-72390000D02*
X156845000Y-71755000D01*
X156845000Y-71755000D02*
X156754999Y-71664999D01*
X157480000Y-72390000D02*
X162560000Y-72390000D01*
X116205000Y-89535000D02*
X146050000Y-89535000D01*
X152400000Y-89535000D02*
X146050000Y-89535000D01*
X156210000Y-85725000D02*
X152400000Y-89535000D01*
X156210000Y-75565000D02*
X156210000Y-85725000D01*
X161925000Y-74295000D02*
X157480000Y-74295000D01*
X157480000Y-74295000D02*
X156210000Y-75565000D01*
X90805000Y-66040000D02*
X88900000Y-67945000D01*
X88900000Y-75565000D02*
X88900000Y-67945000D01*
X170815000Y-97790000D02*
X170815000Y-114935000D01*
X174625000Y-79375000D02*
X174625000Y-93980000D01*
X181610000Y-70485000D02*
X182880000Y-71755000D01*
X175895000Y-78105000D02*
X174625000Y-79375000D01*
X174625000Y-93980000D02*
X170815000Y-97790000D01*
X140335000Y-70485000D02*
X135890000Y-66040000D01*
X141605000Y-70485000D02*
X155575000Y-70485000D01*
X141605000Y-70485000D02*
X140335000Y-70485000D01*
X155575000Y-70485000D02*
X156845000Y-71755000D01*
X135890000Y-66040000D02*
X90805000Y-66040000D01*
X179070000Y-67945000D02*
X181610000Y-70485000D01*
X162560000Y-72390000D02*
X167005000Y-67945000D01*
X167005000Y-67945000D02*
X179070000Y-67945000D01*
X179705000Y-78105000D02*
X182880000Y-74930000D01*
X182880000Y-71755000D02*
X182880000Y-74930000D01*
X179705000Y-78105000D02*
X175895000Y-78105000D01*
X182880000Y-114935000D02*
X184150000Y-116205000D01*
X176530000Y-114935000D02*
X182880000Y-114935000D01*
X190500000Y-116205000D02*
X184150000Y-116205000D01*
X66675000Y-89535000D02*
X116205000Y-89535000D01*
X64770000Y-91440000D02*
X66675000Y-89535000D01*
X64770000Y-98425000D02*
X64770000Y-91440000D01*
X64135000Y-99060000D02*
X64770000Y-98425000D01*
X50800000Y-99060000D02*
X64135000Y-99060000D01*
X44450000Y-113665000D02*
X47625000Y-113665000D01*
X47625000Y-113665000D02*
X48260000Y-113030000D01*
X48260000Y-107950000D02*
X50165000Y-106045000D01*
X48260000Y-113030000D02*
X48260000Y-107950000D01*
X50165000Y-106045000D02*
X50165000Y-99695000D01*
X50165000Y-99695000D02*
X50800000Y-99060000D01*
X129540000Y-154940000D02*
X130175000Y-154305000D01*
X118110000Y-132080000D02*
X118110000Y-141605000D01*
X124460000Y-154940000D02*
X129540000Y-154940000D01*
X122473987Y-152953987D02*
X124460000Y-154940000D01*
X117475000Y-142240000D02*
X117475000Y-151130000D01*
X118110000Y-141605000D02*
X117475000Y-142240000D01*
X116840000Y-130810000D02*
X118110000Y-132080000D01*
X73025000Y-130810000D02*
X116840000Y-130810000D01*
X68580000Y-107315000D02*
X68580000Y-117475000D01*
X68580000Y-117475000D02*
X67310000Y-118745000D01*
X67310000Y-118745000D02*
X67310000Y-130175000D01*
X119298987Y-152953987D02*
X122473987Y-152953987D01*
X67310000Y-130175000D02*
X68580000Y-131445000D01*
X130175000Y-154305000D02*
X133350000Y-154305000D01*
X72390000Y-131445000D02*
X73025000Y-130810000D01*
X117475000Y-151130000D02*
X119298987Y-152953987D01*
X68580000Y-131445000D02*
X72390000Y-131445000D01*
X133350000Y-154305000D02*
X133985000Y-154940000D01*
X43815000Y-114935000D02*
X44450000Y-115570000D01*
X47625000Y-114935000D02*
X65405000Y-114935000D01*
X46990000Y-115570000D02*
X47625000Y-114935000D01*
X44450000Y-115570000D02*
X46990000Y-115570000D01*
X167005000Y-118745000D02*
X160655000Y-118745000D01*
X160655000Y-118745000D02*
X160020000Y-119380000D01*
X154940000Y-71120000D02*
X156845000Y-73025000D01*
X139700000Y-71120000D02*
X154940000Y-71120000D01*
X156845000Y-73025000D02*
X160655000Y-73025000D01*
X160655000Y-73025000D02*
X161290000Y-73660000D01*
X161290000Y-62865000D02*
X180340000Y-62865000D01*
X180340000Y-62865000D02*
X180975000Y-62230000D01*
X91440000Y-66675000D02*
X90170000Y-67945000D01*
X90170000Y-67945000D02*
X90170000Y-69850000D01*
X90170000Y-69850000D02*
X90805000Y-70485000D01*
X139700000Y-71120000D02*
X135255000Y-66675000D01*
X175895000Y-127000000D02*
X175895000Y-130175000D01*
X176530000Y-126365000D02*
X175895000Y-127000000D01*
X178435000Y-144145000D02*
X177165000Y-145415000D01*
X175895000Y-130175000D02*
X176530000Y-130810000D01*
X176530000Y-121285000D02*
X176530000Y-126365000D01*
X175895000Y-120650000D02*
X176530000Y-121285000D01*
X175895000Y-116840000D02*
X175895000Y-120650000D01*
X188595000Y-144145000D02*
X178435000Y-144145000D01*
X176530000Y-130810000D02*
X176530000Y-132080000D01*
X191389000Y-135890000D02*
X191770000Y-136271000D01*
X175895000Y-132715000D02*
X175895000Y-135255000D01*
X176530000Y-135890000D02*
X191389000Y-135890000D01*
X175895000Y-135255000D02*
X176530000Y-135890000D01*
X176530000Y-132080000D02*
X175895000Y-132715000D01*
X191770000Y-136271000D02*
X191770000Y-145796000D01*
X191770000Y-145796000D02*
X191516000Y-146050000D01*
X191516000Y-146050000D02*
X190500000Y-146050000D01*
X190500000Y-146050000D02*
X188595000Y-144145000D01*
X44450000Y-108585000D02*
X43815000Y-109220000D01*
X43815000Y-109220000D02*
X43815000Y-114935000D01*
X46355000Y-108585000D02*
X49530000Y-105410000D01*
X44450000Y-108585000D02*
X46355000Y-108585000D01*
X49530000Y-105410000D02*
X49530000Y-101600000D01*
X135255000Y-66675000D02*
X91440000Y-66675000D01*
X121920000Y-157480000D02*
X134620000Y-157480000D01*
X120650000Y-156210000D02*
X121920000Y-157480000D01*
X117475000Y-156210000D02*
X120650000Y-156210000D01*
X114935000Y-153670000D02*
X117475000Y-156210000D01*
X114935000Y-139700000D02*
X114935000Y-153670000D01*
X117475000Y-137160000D02*
X114935000Y-139700000D01*
X117475000Y-132715000D02*
X117475000Y-137160000D01*
X116205000Y-131445000D02*
X117475000Y-132715000D01*
X73660000Y-131445000D02*
X116205000Y-131445000D01*
X73025000Y-132080000D02*
X73660000Y-131445000D01*
X67945000Y-132080000D02*
X73025000Y-132080000D01*
X66675000Y-130810000D02*
X67945000Y-132080000D01*
X66675000Y-115570000D02*
X66675000Y-130810000D01*
X66040000Y-114935000D02*
X66675000Y-115570000D01*
X65405000Y-114935000D02*
X66040000Y-114935000D01*
X82550000Y-86995000D02*
X81915000Y-87630000D01*
X70485000Y-87630000D02*
X69215000Y-88900000D01*
X64135000Y-95250000D02*
X64135000Y-94615000D01*
X66040000Y-88900000D02*
X64135000Y-90805000D01*
X82550000Y-85090000D02*
X82550000Y-86995000D01*
X81915000Y-87630000D02*
X70485000Y-87630000D01*
X69215000Y-88900000D02*
X66040000Y-88900000D01*
X64135000Y-95250000D02*
X64135000Y-96520000D01*
X49530000Y-101600000D02*
X49530000Y-99060000D01*
X50165000Y-98425000D02*
X51132500Y-98425000D01*
X49530000Y-99060000D02*
X50165000Y-98425000D01*
X51132500Y-98425000D02*
X63500000Y-98425000D01*
X63500000Y-98425000D02*
X64135000Y-97790000D01*
X64135000Y-96520000D02*
X64135000Y-97790000D01*
X64135000Y-90805000D02*
X64135000Y-92710000D01*
X64135000Y-92710000D02*
X64135000Y-95250000D01*
X46990000Y-114300000D02*
X63500000Y-114300000D01*
X45085000Y-114935000D02*
X46355000Y-114935000D01*
X46355000Y-114935000D02*
X46990000Y-114300000D01*
X63500000Y-114300000D02*
X64135000Y-113665000D01*
X64135000Y-113665000D02*
X64135000Y-107315000D01*
X65405000Y-116205000D02*
X43815000Y-116205000D01*
X43180000Y-115570000D02*
X43180000Y-107315000D01*
X43815000Y-116205000D02*
X43180000Y-115570000D01*
X136525000Y-140970000D02*
X136525000Y-152400000D01*
X139065000Y-138430000D02*
X139065000Y-133985000D01*
X139065000Y-138430000D02*
X136525000Y-140970000D01*
X130175000Y-121920000D02*
X89535000Y-121920000D01*
X70430000Y-129540000D02*
X70140000Y-129250000D01*
X88900000Y-128905000D02*
X89535000Y-128270000D01*
X87630000Y-128905000D02*
X88900000Y-128905000D01*
X137160000Y-153035000D02*
X137160000Y-154305000D01*
X136525000Y-152400000D02*
X137160000Y-153035000D01*
X131445000Y-123190000D02*
X130175000Y-121920000D01*
X131445000Y-130175000D02*
X131445000Y-123190000D01*
X139065000Y-133985000D02*
X138430000Y-133350000D01*
X134620000Y-133350000D02*
X131445000Y-130175000D01*
X138430000Y-133350000D02*
X134620000Y-133350000D01*
X87630000Y-128905000D02*
X86995000Y-129540000D01*
X86995000Y-129540000D02*
X70430000Y-129540000D01*
X70140000Y-129250000D02*
X68655000Y-129250000D01*
X121920000Y-111055000D02*
X123895000Y-111055000D01*
X123895000Y-111055000D02*
X125095000Y-109855000D01*
X125095000Y-109855000D02*
X125095000Y-107315000D01*
X125095000Y-107315000D02*
X127000000Y-105410000D01*
X127000000Y-105410000D02*
X133985000Y-105410000D01*
X133985000Y-105410000D02*
X138430000Y-100965000D01*
X138430000Y-100965000D02*
X138430000Y-99695000D01*
X121920000Y-110255000D02*
X123425000Y-110255000D01*
X123425000Y-110255000D02*
X124460000Y-109220000D01*
X124460000Y-109220000D02*
X124460000Y-106680000D01*
X124460000Y-106680000D02*
X126365000Y-104775000D01*
X126365000Y-104775000D02*
X133350000Y-104775000D01*
X133350000Y-104775000D02*
X137160000Y-100965000D01*
X137160000Y-100965000D02*
X137160000Y-99695000D01*
X121920000Y-109455000D02*
X122955000Y-109455000D01*
X122955000Y-109455000D02*
X123825000Y-108585000D01*
X123825000Y-108585000D02*
X123825000Y-106045000D01*
X123825000Y-106045000D02*
X125730000Y-104140000D01*
X125730000Y-104140000D02*
X132715000Y-104140000D01*
X132715000Y-104140000D02*
X135890000Y-100965000D01*
X135890000Y-100965000D02*
X135890000Y-99695000D01*
X121920000Y-108655000D02*
X122485000Y-108655000D01*
X122485000Y-108655000D02*
X123190000Y-107950000D01*
X123190000Y-107950000D02*
X123190000Y-105410000D01*
X123190000Y-105410000D02*
X125095000Y-103505000D01*
X125095000Y-103505000D02*
X132080000Y-103505000D01*
X132080000Y-103505000D02*
X134620000Y-100965000D01*
X134620000Y-100965000D02*
X134620000Y-99695000D01*
X127635000Y-99695000D02*
X123190000Y-104140000D01*
X123190000Y-104140000D02*
X116205000Y-104140000D01*
X116205000Y-104140000D02*
X115570000Y-104775000D01*
X111125000Y-113665000D02*
X113030000Y-115570000D01*
X113030000Y-115570000D02*
X113030000Y-116840000D01*
X111125000Y-105410000D02*
X111125000Y-113665000D01*
X115570000Y-104775000D02*
X111760000Y-104775000D01*
X111760000Y-104775000D02*
X111125000Y-105410000D01*
X110490000Y-114300000D02*
X112395000Y-116205000D01*
X122555000Y-103505000D02*
X115570000Y-103505000D01*
X115570000Y-103505000D02*
X114935000Y-104140000D01*
X126365000Y-99695000D02*
X122555000Y-103505000D01*
X110490000Y-104775000D02*
X110490000Y-114300000D01*
X114935000Y-104140000D02*
X111125000Y-104140000D01*
X111125000Y-104140000D02*
X110490000Y-104775000D01*
X109855000Y-114935000D02*
X111125000Y-116205000D01*
X121920000Y-102870000D02*
X114935000Y-102870000D01*
X125095000Y-99695000D02*
X121920000Y-102870000D01*
X114935000Y-102870000D02*
X114300000Y-103505000D01*
X109855000Y-104140000D02*
X109855000Y-114935000D01*
X114300000Y-103505000D02*
X110490000Y-103505000D01*
X110490000Y-103505000D02*
X109855000Y-104140000D01*
X109220000Y-115570000D02*
X109855000Y-116205000D01*
X123825000Y-99695000D02*
X121285000Y-102235000D01*
X109220000Y-103505000D02*
X109220000Y-115570000D01*
X121285000Y-102235000D02*
X110490000Y-102235000D01*
X110490000Y-102235000D02*
X109220000Y-103505000D01*
X108585000Y-102870000D02*
X108585000Y-116205000D01*
X109855000Y-101600000D02*
X108585000Y-102870000D01*
X122555000Y-99695000D02*
X120650000Y-101600000D01*
X120650000Y-101600000D02*
X109855000Y-101600000D01*
X122555000Y-96520000D02*
X120650000Y-94615000D01*
X109220000Y-94615000D02*
X120650000Y-94615000D01*
X121285000Y-99695000D02*
X120015000Y-100965000D01*
X120015000Y-100965000D02*
X109220000Y-100965000D01*
X109220000Y-100965000D02*
X107950000Y-102235000D01*
X107950000Y-102235000D02*
X107950000Y-115570000D01*
X121285000Y-96520000D02*
X120015000Y-95250000D01*
X108585000Y-95250000D02*
X120015000Y-95250000D01*
X109855000Y-95885000D02*
X119380000Y-95885000D01*
X120015000Y-99695000D02*
X119380000Y-100330000D01*
X119380000Y-100330000D02*
X108585000Y-100330000D01*
X108585000Y-100330000D02*
X107315000Y-101600000D01*
X107315000Y-101600000D02*
X107315000Y-114300000D01*
X119380000Y-95885000D02*
X120015000Y-96520000D01*
X109220000Y-96520000D02*
X118745000Y-96520000D01*
X118745000Y-99695000D02*
X107950000Y-99695000D01*
X107950000Y-99695000D02*
X106680000Y-100965000D01*
X106680000Y-100965000D02*
X106680000Y-113030000D01*
X55245000Y-107950000D02*
X55245000Y-109855000D01*
X56515000Y-107950000D02*
X56515000Y-111125000D01*
X57785000Y-107950000D02*
X57785000Y-112395000D01*
X59055000Y-107950000D02*
X59055000Y-113665000D01*
X52705000Y-108585000D02*
X52705000Y-109855000D01*
X51435000Y-108585000D02*
X51435000Y-111125000D01*
X50165000Y-108585000D02*
X50165000Y-112395000D01*
X48895000Y-108585000D02*
X48895000Y-113665000D01*
X48260000Y-115570000D02*
X59055000Y-115570000D01*
X82550000Y-109220000D02*
X83185000Y-109855000D01*
X93980000Y-109855000D02*
X100965000Y-102870000D01*
X71755000Y-102235000D02*
X73660000Y-100330000D01*
X73660000Y-100330000D02*
X78105000Y-100330000D01*
X100965000Y-102870000D02*
X102870000Y-102870000D01*
X78105000Y-100330000D02*
X81280000Y-103505000D01*
X81280000Y-106680000D02*
X82550000Y-107950000D01*
X81280000Y-103505000D02*
X81280000Y-106680000D01*
X83185000Y-109855000D02*
X93980000Y-109855000D01*
X82550000Y-107950000D02*
X82550000Y-109220000D01*
X71755000Y-98425000D02*
X83185000Y-98425000D01*
X71120000Y-99060000D02*
X71755000Y-98425000D01*
X83185000Y-98425000D02*
X85725000Y-95885000D01*
X71120000Y-101600000D02*
X71120000Y-99060000D01*
X71755000Y-102235000D02*
X71120000Y-101600000D01*
X73660000Y-99695000D02*
X73025000Y-99060000D01*
X84455000Y-99695000D02*
X73660000Y-99695000D01*
X87630000Y-96520000D02*
X84455000Y-99695000D01*
X74295000Y-100965000D02*
X73025000Y-102235000D01*
X78728408Y-102235000D02*
X78099204Y-101605796D01*
X77470000Y-100965000D02*
X74295000Y-100965000D01*
X80010000Y-103505000D02*
X78740000Y-102235000D01*
X94615000Y-110490000D02*
X80645000Y-110490000D01*
X102870000Y-104140000D02*
X100965000Y-104140000D01*
X80645000Y-110490000D02*
X80010000Y-109855000D01*
X80010000Y-109855000D02*
X80010000Y-103505000D01*
X78099204Y-101594204D02*
X77470000Y-100965000D01*
X78740000Y-102235000D02*
X78728408Y-102235000D01*
X100965000Y-104140000D02*
X94615000Y-110490000D01*
X78099204Y-101605796D02*
X78099204Y-101594204D01*
X100965000Y-105410000D02*
X95250000Y-111125000D01*
X78740000Y-111125000D02*
X77470000Y-109855000D01*
X95250000Y-111125000D02*
X78740000Y-111125000D01*
X102870000Y-105410000D02*
X100965000Y-105410000D01*
X71120000Y-102870000D02*
X74295000Y-102870000D01*
X87630000Y-95250000D02*
X85090000Y-95250000D01*
X82550000Y-97790000D02*
X71120000Y-97790000D01*
X71120000Y-97790000D02*
X70485000Y-98425000D01*
X70485000Y-102235000D02*
X71120000Y-102870000D01*
X85090000Y-95250000D02*
X82550000Y-97790000D01*
X70485000Y-98425000D02*
X70485000Y-102235000D01*
X77470000Y-104775000D02*
X76835000Y-104140000D01*
X77470000Y-109855000D02*
X77470000Y-104775000D01*
X76835000Y-104140000D02*
X75565000Y-104140000D01*
X83820000Y-99060000D02*
X76835000Y-99060000D01*
X88900000Y-95885000D02*
X86995000Y-95885000D01*
X86995000Y-95885000D02*
X83820000Y-99060000D01*
X102870000Y-106680000D02*
X100965000Y-106680000D01*
X75565000Y-101600000D02*
X76835000Y-101600000D01*
X95885000Y-111760000D02*
X76835000Y-111760000D01*
X74930000Y-109855000D02*
X74930000Y-102235000D01*
X100965000Y-106680000D02*
X95885000Y-111760000D01*
X76835000Y-111760000D02*
X74930000Y-109855000D01*
X74930000Y-102235000D02*
X75565000Y-101600000D01*
X93980000Y-102235000D02*
X86995000Y-102235000D01*
X86995000Y-102235000D02*
X86360000Y-101600000D01*
X85090000Y-101600000D02*
X84455000Y-102235000D01*
X86360000Y-101600000D02*
X85090000Y-101600000D01*
X95250000Y-103505000D02*
X93980000Y-102235000D01*
X84455000Y-102235000D02*
X84455000Y-103505000D01*
X95250000Y-107315000D02*
X95250000Y-103505000D01*
X94615000Y-100965000D02*
X85725000Y-100965000D01*
X86360000Y-102870000D02*
X85725000Y-102235000D01*
X94615000Y-104140000D02*
X93345000Y-102870000D01*
X93345000Y-102870000D02*
X86360000Y-102870000D01*
X94615000Y-107950000D02*
X94615000Y-104140000D01*
X92710000Y-103505000D02*
X88265000Y-103505000D01*
X93980000Y-104775000D02*
X92710000Y-103505000D01*
X93980000Y-108585000D02*
X93980000Y-104775000D01*
X92075000Y-104140000D02*
X89535000Y-104140000D01*
X93345000Y-105410000D02*
X92075000Y-104140000D01*
X93345000Y-109220000D02*
X93345000Y-105410000D01*
X102235000Y-114935000D02*
X99695000Y-114935000D01*
X99695000Y-114935000D02*
X95250000Y-119380000D01*
X90805000Y-100330000D02*
X83820000Y-100330000D01*
X83820000Y-100330000D02*
X82550000Y-101600000D01*
X82550000Y-101600000D02*
X80645000Y-101600000D01*
X90805000Y-100330000D02*
X92075000Y-99060000D01*
X92075000Y-99060000D02*
X98151001Y-99060000D01*
X154940000Y-111125000D02*
X162560000Y-111125000D01*
X101600000Y-107315000D02*
X98425000Y-110490000D01*
X98425000Y-110490000D02*
X98425000Y-112395000D01*
X175330000Y-56585000D02*
X175330000Y-57220000D01*
X175330000Y-57220000D02*
X175895000Y-57785000D01*
X175895000Y-57785000D02*
X179070000Y-57785000D01*
X179070000Y-57785000D02*
X179705000Y-57150000D01*
X140735000Y-102870000D02*
X140735000Y-99295000D01*
X140735000Y-99295000D02*
X141605000Y-98425000D01*
X141605000Y-98425000D02*
X156210000Y-98425000D01*
X156210000Y-98425000D02*
X158115000Y-96520000D01*
X139935000Y-102870000D02*
X139935000Y-98825000D01*
X139935000Y-98825000D02*
X140970000Y-97790000D01*
X140970000Y-97790000D02*
X155575000Y-97790000D01*
X155575000Y-97790000D02*
X156845000Y-96520000D01*
X141535000Y-102870000D02*
X141535000Y-99765000D01*
X141535000Y-99765000D02*
X142240000Y-99060000D01*
X142240000Y-99060000D02*
X156845000Y-99060000D01*
X156845000Y-99060000D02*
X159385000Y-96520000D01*
X139135000Y-102870000D02*
X139135000Y-98355000D01*
X139135000Y-98355000D02*
X140335000Y-97155000D01*
X140335000Y-97155000D02*
X154940000Y-97155000D01*
X154940000Y-97155000D02*
X155575000Y-96520000D01*
X128975000Y-102870000D02*
X128975000Y-101530000D01*
X128975000Y-101530000D02*
X129540000Y-100965000D01*
X129540000Y-100965000D02*
X129540000Y-95250000D01*
X129540000Y-95250000D02*
X130175000Y-94615000D01*
X130175000Y-94615000D02*
X135890000Y-94615000D01*
X135890000Y-94615000D02*
X150495000Y-94615000D01*
X131375000Y-97225000D02*
X131375000Y-102870000D01*
X139700000Y-96520000D02*
X132080000Y-96520000D01*
X132080000Y-96520000D02*
X131375000Y-97225000D01*
X139700000Y-96520000D02*
X154305000Y-96520000D01*
X130810000Y-95250000D02*
X137160000Y-95250000D01*
X130175000Y-101600000D02*
X130175000Y-95885000D01*
X130175000Y-95885000D02*
X130810000Y-95250000D01*
X129775000Y-102870000D02*
X129775000Y-102000000D01*
X129775000Y-102000000D02*
X130175000Y-101600000D01*
X137160000Y-95250000D02*
X151765000Y-95250000D01*
X130810000Y-102235000D02*
X130575000Y-102470000D01*
X130810000Y-96520000D02*
X130810000Y-102235000D01*
X138430000Y-95885000D02*
X131445000Y-95885000D01*
X130575000Y-102470000D02*
X130575000Y-102870000D01*
X131445000Y-95885000D02*
X130810000Y-96520000D01*
X138430000Y-95885000D02*
X153035000Y-95885000D01*
X176930000Y-57150000D02*
X178435000Y-57150000D01*
X178435000Y-57150000D02*
X179070000Y-56515000D01*
X179070000Y-56515000D02*
X182880000Y-56515000D01*
X182880000Y-56515000D02*
X183515000Y-57150000D01*
X163830000Y-130175000D02*
X167640000Y-133985000D01*
X132715000Y-130175000D02*
X163830000Y-130175000D01*
X132080000Y-129540000D02*
X132715000Y-130175000D01*
X132080000Y-126365000D02*
X132080000Y-129540000D01*
X132715000Y-128905000D02*
X132715000Y-125730000D01*
X133350000Y-129540000D02*
X164465000Y-129540000D01*
X133350000Y-129540000D02*
X132715000Y-128905000D01*
X164465000Y-129540000D02*
X165735000Y-130810000D01*
X165100000Y-130175000D02*
X165735000Y-130810000D01*
X168275000Y-133350000D02*
X165735000Y-130810000D01*
X168275000Y-145415000D02*
X168275000Y-133350000D01*
X175592500Y-146050000D02*
X168910000Y-146050000D01*
X168910000Y-146050000D02*
X168275000Y-145415000D01*
X169545000Y-93345000D02*
X169545000Y-118745000D01*
X166370000Y-125095000D02*
X168910000Y-125095000D01*
X168910000Y-125095000D02*
X170180000Y-126365000D01*
X170180000Y-104140000D02*
X170180000Y-118110000D01*
X167005000Y-124460000D02*
X169545000Y-124460000D01*
X169545000Y-124460000D02*
X170180000Y-125095000D01*
X100330000Y-115570000D02*
X96520000Y-119380000D01*
X104140000Y-115570000D02*
X100330000Y-115570000D01*
X105410000Y-100330000D02*
X105410000Y-114300000D01*
X105410000Y-114300000D02*
X104140000Y-115570000D01*
X104140000Y-99060000D02*
X105410000Y-100330000D01*
X99101001Y-99060000D02*
X104140000Y-99060000D01*
X107315000Y-99060000D02*
X128270000Y-99060000D01*
X106045000Y-100330000D02*
X107315000Y-99060000D01*
X106045000Y-114935000D02*
X106045000Y-100330000D01*
X104775000Y-116205000D02*
X106045000Y-114935000D01*
X100965000Y-116205000D02*
X104775000Y-116205000D01*
X97790000Y-119380000D02*
X100965000Y-116205000D01*
X128270000Y-99060000D02*
X128905000Y-98425000D01*
X128905000Y-98425000D02*
X128905000Y-96520000D01*
X128905000Y-96520000D02*
X128905000Y-95250000D01*
X149225000Y-113665000D02*
X149225000Y-118110000D01*
X99060000Y-119380000D02*
X100965000Y-117475000D01*
X100965000Y-117475000D02*
X121920000Y-117475000D01*
X121920000Y-117475000D02*
X122555000Y-118110000D01*
X152400000Y-118110000D02*
X154940000Y-118110000D01*
X154940000Y-118110000D02*
X156210000Y-116840000D01*
X165100000Y-107950000D02*
X165100000Y-101600000D01*
X164465000Y-108585000D02*
X165100000Y-107950000D01*
X112395000Y-121285000D02*
X143510000Y-121285000D01*
X143510000Y-121285000D02*
X148590000Y-116205000D01*
X148590000Y-116205000D02*
X148590000Y-110490000D01*
X110490000Y-119380000D02*
X112395000Y-121285000D01*
X150495000Y-108585000D02*
X164465000Y-108585000D01*
X148590000Y-110490000D02*
X150495000Y-108585000D01*
X113030000Y-120650000D02*
X111760000Y-119380000D01*
X142875000Y-120650000D02*
X113030000Y-120650000D01*
X147955000Y-115570000D02*
X142875000Y-120650000D01*
X164465000Y-100965000D02*
X164465000Y-106045000D01*
X164465000Y-106045000D02*
X162560000Y-107950000D01*
X147955000Y-109855000D02*
X147955000Y-115570000D01*
X149860000Y-107950000D02*
X147955000Y-109855000D01*
X162560000Y-107950000D02*
X149860000Y-107950000D01*
X161925000Y-107315000D02*
X163830000Y-105410000D01*
X113665000Y-120015000D02*
X142240000Y-120015000D01*
X113030000Y-119380000D02*
X113665000Y-120015000D01*
X142240000Y-120015000D02*
X147320000Y-114935000D01*
X147320000Y-114935000D02*
X147320000Y-109220000D01*
X147320000Y-109220000D02*
X149225000Y-107315000D01*
X163830000Y-105410000D02*
X163830000Y-100330000D01*
X149225000Y-107315000D02*
X161925000Y-107315000D01*
X146685000Y-108585000D02*
X148590000Y-106680000D01*
X146685000Y-113665000D02*
X146685000Y-108585000D01*
X141605000Y-119380000D02*
X142875000Y-118110000D01*
X163195000Y-104775000D02*
X163195000Y-99695000D01*
X145415000Y-114935000D02*
X146685000Y-113665000D01*
X161290000Y-106680000D02*
X163195000Y-104775000D01*
X148590000Y-106680000D02*
X161290000Y-106680000D01*
X114300000Y-119380000D02*
X141605000Y-119380000D01*
X142875000Y-118110000D02*
X142875000Y-115570000D01*
X142875000Y-115570000D02*
X143510000Y-114935000D01*
X143510000Y-114935000D02*
X145415000Y-114935000D01*
X151765000Y-105410000D02*
X151130000Y-106045000D01*
X160655000Y-106045000D02*
X153670000Y-106045000D01*
X140335000Y-115570000D02*
X140335000Y-118110000D01*
X153035000Y-105410000D02*
X151765000Y-105410000D01*
X153670000Y-106045000D02*
X153035000Y-105410000D01*
X162560000Y-90805000D02*
X162560000Y-104140000D01*
X167640000Y-76200000D02*
X167640000Y-78105000D01*
X139700000Y-118745000D02*
X102235000Y-118745000D01*
X161290000Y-80645000D02*
X161290000Y-89535000D01*
X162560000Y-79375000D02*
X161290000Y-80645000D01*
X147955000Y-106045000D02*
X146050000Y-107950000D01*
X146050000Y-113030000D02*
X144780000Y-114300000D01*
X151130000Y-106045000D02*
X147955000Y-106045000D01*
X168910000Y-74930000D02*
X167640000Y-76200000D01*
X167640000Y-78105000D02*
X166370000Y-79375000D01*
X162560000Y-104140000D02*
X160655000Y-106045000D01*
X161290000Y-89535000D02*
X162560000Y-90805000D01*
X146050000Y-107950000D02*
X146050000Y-113030000D01*
X141605000Y-114300000D02*
X140335000Y-115570000D01*
X166370000Y-79375000D02*
X162560000Y-79375000D01*
X144780000Y-114300000D02*
X141605000Y-114300000D01*
X140335000Y-118110000D02*
X139700000Y-118745000D01*
X102235000Y-118745000D02*
X101600000Y-119380000D01*
X161925000Y-103505000D02*
X161925000Y-100965000D01*
X154305000Y-105410000D02*
X160020000Y-105410000D01*
X160020000Y-105410000D02*
X161925000Y-103505000D01*
X153670000Y-104775000D02*
X154305000Y-105410000D01*
X151130000Y-104775000D02*
X150495000Y-105410000D01*
X151130000Y-104775000D02*
X153670000Y-104775000D01*
X150495000Y-105410000D02*
X147320000Y-105410000D01*
X192405000Y-82550000D02*
X193675000Y-81280000D01*
X189865000Y-83185000D02*
X190500000Y-82550000D01*
X190500000Y-82550000D02*
X192405000Y-82550000D01*
X181610000Y-83185000D02*
X189865000Y-83185000D01*
X181305000Y-84455000D02*
X181305000Y-83490000D01*
X181305000Y-83490000D02*
X181610000Y-83185000D01*
X167005000Y-127635000D02*
X170180000Y-127635000D01*
X143510000Y-125730000D02*
X143510000Y-128270000D01*
X144145000Y-128905000D02*
X165735000Y-128905000D01*
X165735000Y-128905000D02*
X167005000Y-127635000D01*
X143510000Y-128270000D02*
X144145000Y-128905000D01*
X100330000Y-119380000D02*
X101600000Y-118110000D01*
X101600000Y-118110000D02*
X121285000Y-118110000D01*
X173990000Y-86360000D02*
X173990000Y-78740000D01*
X173990000Y-78740000D02*
X175895000Y-76835000D01*
X175895000Y-76835000D02*
X175895000Y-69215000D01*
X173355000Y-78105000D02*
X173355000Y-85090000D01*
X175260000Y-68580000D02*
X175260000Y-76200000D01*
X175260000Y-76200000D02*
X173355000Y-78105000D01*
X174625000Y-75565000D02*
X174625000Y-69850000D01*
X174625000Y-75565000D02*
X172720000Y-77470000D01*
X174625000Y-69850000D02*
X173355000Y-68580000D01*
X173355000Y-68580000D02*
X170815000Y-68580000D01*
X172720000Y-84455000D02*
X172720000Y-83185000D01*
X172720000Y-77470000D02*
X172720000Y-83185000D01*
X172720000Y-83185000D02*
X172720000Y-83820000D01*
X172085000Y-76835000D02*
X172085000Y-86805000D01*
X173672500Y-75247500D02*
X173672500Y-70167500D01*
X173672500Y-75247500D02*
X172085000Y-76835000D01*
X173672500Y-70167500D02*
X172720000Y-69215000D01*
X172720000Y-69215000D02*
X171450000Y-69215000D01*
X172085000Y-86805000D02*
X172720000Y-87440000D01*
X171450000Y-76200000D02*
X172720000Y-74930000D01*
X172720000Y-74930000D02*
X172720000Y-70485000D01*
X172720000Y-70485000D02*
X172085000Y-69850000D01*
X172720000Y-88240000D02*
X172060000Y-88240000D01*
X171450000Y-87630000D02*
X171450000Y-76200000D01*
X172060000Y-88240000D02*
X171450000Y-87630000D01*
X171590000Y-89040000D02*
X172720000Y-89040000D01*
X170815000Y-88265000D02*
X171590000Y-89040000D01*
X172085000Y-71120000D02*
X172085000Y-74295000D01*
X170815000Y-75565000D02*
X170815000Y-88265000D01*
X172085000Y-74295000D02*
X170815000Y-75565000D01*
X172720000Y-89840000D02*
X171120000Y-89840000D01*
X171120000Y-89840000D02*
X170180000Y-88900000D01*
X170180000Y-88900000D02*
X170180000Y-74930000D01*
X171450000Y-73660000D02*
X171450000Y-72390000D01*
X170180000Y-74930000D02*
X171450000Y-73660000D01*
X170650000Y-90640000D02*
X172720000Y-90640000D01*
X169545000Y-89535000D02*
X170650000Y-90640000D01*
X170180000Y-73660000D02*
X169545000Y-74295000D01*
X169545000Y-74295000D02*
X169545000Y-89535000D01*
X182905000Y-86995000D02*
X189865000Y-86995000D01*
X189865000Y-86995000D02*
X190500000Y-87630000D01*
X192405000Y-87630000D02*
X193675000Y-86360000D01*
X190500000Y-87630000D02*
X192405000Y-87630000D01*
X192405000Y-85090000D02*
X193675000Y-83820000D01*
X189865000Y-84455000D02*
X190500000Y-85090000D01*
X182105000Y-84455000D02*
X189865000Y-84455000D01*
X190500000Y-85090000D02*
X192405000Y-85090000D01*
X185350000Y-83820000D02*
X191135000Y-83820000D01*
X113030000Y-78740000D02*
X103105000Y-78740000D01*
X114300000Y-80010000D02*
X113030000Y-78740000D01*
X121285000Y-81280000D02*
X115570000Y-81280000D01*
X115570000Y-81280000D02*
X114300000Y-80010000D01*
X103105000Y-78740000D02*
X102470000Y-78740000D01*
X104870000Y-84455000D02*
X104140000Y-84455000D01*
X104140000Y-84455000D02*
X102800000Y-83115000D01*
X102800000Y-83115000D02*
X96520000Y-83115000D01*
X96520000Y-81515000D02*
X97390000Y-81515000D01*
X105410000Y-83185000D02*
X104140000Y-81915000D01*
X106680000Y-83185000D02*
X105410000Y-83185000D01*
X97790000Y-81915000D02*
X104140000Y-81915000D01*
X97390000Y-81515000D02*
X97790000Y-81915000D01*
X96520000Y-82315000D02*
X96920000Y-82315000D01*
X96920000Y-82315000D02*
X97155000Y-82550000D01*
X97155000Y-82550000D02*
X103505000Y-82550000D01*
X104775000Y-83820000D02*
X103505000Y-82550000D01*
X105670000Y-83820000D02*
X104775000Y-83820000D01*
X92710000Y-83115000D02*
X85090000Y-83115000D01*
X85725000Y-80010000D02*
X88030000Y-82315000D01*
X92710000Y-82315000D02*
X88030000Y-82315000D01*
X86360000Y-79375000D02*
X88500000Y-81515000D01*
X92710000Y-81515000D02*
X88500000Y-81515000D01*
X103505000Y-78105000D02*
X112395000Y-78105000D01*
X112960000Y-77540000D02*
X112960000Y-76200000D01*
X112395000Y-78105000D02*
X112960000Y-77540000D01*
X103505000Y-78105000D02*
X101670000Y-78105000D01*
X101600000Y-76200000D02*
X105410000Y-76200000D01*
X99695000Y-74295000D02*
X101600000Y-76200000D01*
X105410000Y-76200000D02*
X110560000Y-76200000D01*
X98620000Y-74295000D02*
X99695000Y-74295000D01*
X104140000Y-77470000D02*
X111760000Y-77470000D01*
X112160000Y-77070000D02*
X112160000Y-76200000D01*
X111760000Y-77470000D02*
X112160000Y-77070000D01*
X104140000Y-77470000D02*
X100870000Y-77470000D01*
X100705000Y-76835000D02*
X100070000Y-76200000D01*
X111125000Y-76835000D02*
X100705000Y-76835000D01*
X111360000Y-76600000D02*
X111125000Y-76835000D01*
X111360000Y-76200000D02*
X111360000Y-76600000D01*
X105410000Y-85090000D02*
X102235000Y-85090000D01*
X102235000Y-85090000D02*
X101670000Y-84525000D01*
X106680000Y-83820000D02*
X105410000Y-85090000D01*
X101670000Y-84525000D02*
X101670000Y-83820000D01*
X120015000Y-83820000D02*
X106680000Y-83820000D01*
X121990000Y-81845000D02*
X120015000Y-83820000D01*
X121990000Y-76200000D02*
X121990000Y-81845000D01*
X107315000Y-84455000D02*
X106045000Y-85725000D01*
X106045000Y-85725000D02*
X101600000Y-85725000D01*
X120650000Y-84455000D02*
X107315000Y-84455000D01*
X100870000Y-84995000D02*
X100870000Y-83820000D01*
X101600000Y-85725000D02*
X100870000Y-84995000D01*
X122790000Y-82315000D02*
X120650000Y-84455000D01*
X122790000Y-76200000D02*
X122790000Y-82315000D01*
X100070000Y-85465000D02*
X100070000Y-83820000D01*
X100965000Y-86360000D02*
X100070000Y-85465000D01*
X106680000Y-86360000D02*
X100965000Y-86360000D01*
X121285000Y-85090000D02*
X107950000Y-85090000D01*
X107950000Y-85090000D02*
X106680000Y-86360000D01*
X123590000Y-82785000D02*
X121285000Y-85090000D01*
X123590000Y-76200000D02*
X123590000Y-82785000D01*
X121920000Y-85725000D02*
X108585000Y-85725000D01*
X124390000Y-83255000D02*
X121920000Y-85725000D01*
X124390000Y-76200000D02*
X124390000Y-83255000D01*
X92075000Y-77470000D02*
X81280000Y-77470000D01*
X98425000Y-78740000D02*
X93345000Y-78740000D01*
X99695000Y-80010000D02*
X98425000Y-78740000D01*
X93345000Y-78740000D02*
X92075000Y-77470000D01*
X103270000Y-80010000D02*
X99695000Y-80010000D01*
X97155000Y-80905000D02*
X90430000Y-80905000D01*
X90430000Y-80905000D02*
X90170000Y-80645000D01*
X90170000Y-80645000D02*
X90170000Y-79375000D01*
X92170000Y-80105000D02*
X97155000Y-80105000D01*
X89535000Y-78740000D02*
X90805000Y-78740000D01*
X90805000Y-78740000D02*
X92170000Y-80105000D01*
X99060000Y-78105000D02*
X93980000Y-78105000D01*
X100330000Y-79375000D02*
X99060000Y-78105000D01*
X92710000Y-76835000D02*
X84455000Y-76835000D01*
X93980000Y-78105000D02*
X92710000Y-76835000D01*
X104070000Y-79375000D02*
X100330000Y-79375000D01*
X91440000Y-78105000D02*
X80645000Y-78105000D01*
X92710000Y-79375000D02*
X91440000Y-78105000D01*
X97790000Y-79375000D02*
X92710000Y-79375000D01*
X99060000Y-80645000D02*
X97790000Y-79375000D01*
X102470000Y-80645000D02*
X99060000Y-80645000D01*
X103270000Y-75565000D02*
X113665000Y-75565000D01*
X115570000Y-74295000D02*
X114300000Y-75565000D01*
X114300000Y-75565000D02*
X113665000Y-75565000D01*
X105410000Y-69215000D02*
X105410000Y-71870000D01*
X105410000Y-71870000D02*
X105670000Y-72130000D01*
X105670000Y-68955000D02*
X105410000Y-69215000D01*
X133350000Y-134620000D02*
X135255000Y-134620000D01*
X114300000Y-139065000D02*
X114935000Y-138430000D01*
X114300000Y-151130000D02*
X114300000Y-139065000D01*
X113030000Y-152400000D02*
X114300000Y-151130000D01*
X111125000Y-149225000D02*
X111125000Y-153035000D01*
X111125000Y-153035000D02*
X109220000Y-154940000D01*
X109220000Y-154940000D02*
X104140000Y-154940000D01*
X92710000Y-149860000D02*
X93345000Y-149225000D01*
X92710000Y-155194000D02*
X92710000Y-149860000D01*
X53265000Y-77180000D02*
X59765000Y-77180000D01*
X159385000Y-111760000D02*
X160655000Y-111760000D01*
X160655000Y-111760000D02*
X161290000Y-112395000D01*
X161290000Y-112395000D02*
X161290000Y-114300000D01*
X129540000Y-151130000D02*
X130175000Y-151130000D01*
X128245000Y-151130000D02*
X130175000Y-151130000D01*
X127635000Y-150520000D02*
X128245000Y-151130000D01*
X134874000Y-154940000D02*
X138430000Y-154940000D01*
X134620000Y-154686000D02*
X134874000Y-154940000D01*
X134620000Y-154305000D02*
X134620000Y-154686000D01*
X132715000Y-152400000D02*
X134620000Y-154305000D01*
X131445000Y-152400000D02*
X132715000Y-152400000D01*
X130175000Y-151130000D02*
X131445000Y-152400000D01*
X87630000Y-130175000D02*
X88265000Y-129540000D01*
X127635000Y-150520000D02*
X127635000Y-146685000D01*
X120650000Y-135255000D02*
X120650000Y-140335000D01*
X121285000Y-133350000D02*
X121285000Y-134620000D01*
X120650000Y-132715000D02*
X121285000Y-133350000D01*
X120650000Y-140335000D02*
X121920000Y-141605000D01*
X120650000Y-129540000D02*
X120650000Y-132715000D01*
X121285000Y-134620000D02*
X120650000Y-135255000D01*
X90805000Y-128270000D02*
X119380000Y-128270000D01*
X88265000Y-129540000D02*
X89535000Y-129540000D01*
X89535000Y-129540000D02*
X90805000Y-128270000D01*
X71755000Y-130810000D02*
X72390000Y-130175000D01*
X119380000Y-128270000D02*
X120650000Y-129540000D01*
X72390000Y-130175000D02*
X87630000Y-130175000D01*
X114935000Y-157480000D02*
X118745000Y-157480000D01*
X111760000Y-152400000D02*
X111760000Y-154305000D01*
X111760000Y-154305000D02*
X114935000Y-157480000D01*
X113665000Y-150495000D02*
X111760000Y-152400000D01*
X113665000Y-142240000D02*
X113665000Y-150495000D01*
X107315000Y-142240000D02*
X107950000Y-142875000D01*
X104775000Y-142240000D02*
X107315000Y-142240000D01*
X89535000Y-142240000D02*
X90170000Y-142875000D01*
X86995000Y-142240000D02*
X89535000Y-142240000D01*
X161290000Y-109855000D02*
X161925000Y-109220000D01*
X161925000Y-109220000D02*
X163830000Y-109220000D01*
X154305000Y-109855000D02*
X161290000Y-109855000D01*
X166370000Y-110490000D02*
X157480000Y-110490000D01*
X168910000Y-119380000D02*
X168910000Y-93980000D01*
X168275000Y-95885000D02*
X168275000Y-118745000D01*
X167640000Y-118110000D02*
X167640000Y-119380000D01*
X167640000Y-115570000D02*
X167005000Y-116205000D01*
X167005000Y-103505000D02*
X167640000Y-104140000D01*
X167640000Y-97085000D02*
X167640000Y-101600000D01*
X167640000Y-101600000D02*
X167005000Y-102235000D01*
X167005000Y-102235000D02*
X167005000Y-103505000D01*
X167005000Y-117475000D02*
X167640000Y-118110000D01*
X167005000Y-116205000D02*
X167005000Y-117475000D01*
X167640000Y-104140000D02*
X167640000Y-115570000D01*
X115570000Y-156845000D02*
X114300000Y-155575000D01*
X114300000Y-155575000D02*
X114300000Y-152400000D01*
X120015000Y-157480000D02*
X119380000Y-156845000D01*
X119380000Y-156845000D02*
X115570000Y-156845000D01*
X62865000Y-141605000D02*
X66040000Y-141605000D01*
X121285000Y-88900000D02*
X124460000Y-85725000D01*
X70485000Y-88900000D02*
X121285000Y-88900000D01*
X120650000Y-88265000D02*
X122555000Y-86360000D01*
X71120000Y-88265000D02*
X120650000Y-88265000D01*
X184785000Y-106680000D02*
X190500000Y-106680000D01*
X184785000Y-107950000D02*
X189865000Y-107950000D01*
X189230000Y-109220000D02*
X184785000Y-109220000D01*
X184785000Y-110490000D02*
X188595000Y-110490000D01*
X184785000Y-115570000D02*
X186055000Y-115570000D01*
X184785000Y-114300000D02*
X186690000Y-114300000D01*
X184785000Y-113030000D02*
X187325000Y-113030000D01*
X187960000Y-111760000D02*
X184785000Y-111760000D01*
X49530000Y-76200000D02*
X48895000Y-75565000D01*
X45720000Y-75565000D02*
X44450000Y-76835000D01*
X48895000Y-75565000D02*
X45720000Y-75565000D01*
M02*
