M48
; DRILL file {KiCad 5.1.4+dfsg1-1~bpo10+1} date Fri 20 Sep 2019 11:34:31 AWST
; FORMAT={-:-/ absolute / inch / decimal}
; #@! TF.CreationDate,2019-09-20T11:34:31+08:00
; #@! TF.GenerationSoftware,Kicad,Pcbnew,5.1.4+dfsg1-1~bpo10+1
FMAT,2
INCH
T1C0.0120
T2C0.0300
T3C0.0315
T4C0.0354
T5C0.0394
%
G90
G05
T1
X1.575Y-3.435
X1.6Y-5.675
X1.6Y-5.825
X1.675Y-4.575
X1.7Y-4.225
X1.7Y-4.675
X1.7Y-5.025
X1.705Y-3.435
X1.725Y-4.125
X1.75Y-4.275
X1.75Y-4.475
X1.75Y-4.55
X1.775Y-4.525
X1.775Y-5.775
X1.825Y-5.675
X1.831Y-4.181
X1.8369Y-3.9381
X1.85Y-3.2
X1.85Y-3.25
X1.875Y-5.625
X1.875Y-5.675
X1.9Y-4.55
X1.9Y-4.725
X1.9Y-4.975
X1.925Y-4.275
X1.925Y-4.475
X1.925Y-5.475
X1.925Y-5.625
X1.95Y-4.45
X1.95Y-4.975
X1.975Y-3.825
X1.975Y-4.275
X1.975Y-4.425
X1.975Y-5.425
X1.975Y-5.475
X1.9778Y-3.275
X2.0Y-4.4
X2.0Y-4.975
X2.0093Y-3.125
X2.0126Y-3.625
X2.0126Y-3.7
X2.025Y-4.275
X2.025Y-4.375
X2.025Y-5.425
X2.05Y-4.35
X2.05Y-4.975
X2.05Y-6.025
X2.075Y-3.3
X2.075Y-4.275
X2.075Y-4.325
X2.0874Y-3.775
X2.1Y-4.975
X2.1Y-6.1369
X2.15Y-3.425
X2.15Y-3.825
X2.15Y-4.975
X2.1684Y-5.325
X2.175Y-4.25
X2.175Y-4.325
X2.1876Y-3.625
X2.2Y-2.725
X2.2Y-4.3
X2.2Y-4.975
X2.225Y-3.275
X2.225Y-3.625
X2.225Y-4.25
X2.225Y-4.375
X2.25Y-4.35
X2.25Y-4.975
X2.25Y-5.15
X2.2624Y-3.625
X2.2624Y-3.775
X2.275Y-4.25
X2.275Y-4.425
X2.3Y-4.4
X2.325Y-3.425
X2.325Y-4.25
X2.325Y-4.475
X2.325Y-4.55
X2.35Y-4.45
X2.35Y-5.1
X2.35Y-5.325
X2.35Y-5.775
X2.375Y-3.3
X2.387Y-4.663
X2.4Y-3.8124
X2.4187Y-3.5813
X2.425Y-4.175
X2.4381Y-2.825
X2.45Y-3.925
X2.475Y-5.575
X2.5Y-3.7376
X2.5Y-3.875
X2.5119Y-3.075
X2.5119Y-4.6119
X2.525Y-3.625
X2.525Y-4.225
X2.55Y-2.775
X2.55Y-3.55
X2.55Y-3.775
X2.55Y-5.225
X2.575Y-4.225
X2.575Y-4.525
X2.575Y-4.575
X2.6Y-3.25
X2.6Y-5.575
X2.625Y-5.275
X2.675Y-3.45
X2.69Y-5.225
X2.695Y-4.665
X2.7Y-4.225
X2.7119Y-6.1369
X2.75Y-2.775
X2.775Y-3.5
X2.8Y-3.34
X2.8Y-3.475
X2.8Y-5.825
X2.825Y-3.975
X2.825Y-4.025
X2.825Y-5.15
X2.85Y-3.525
X2.85Y-5.2381
X2.85Y-5.275
X2.85Y-5.925
X2.875Y-3.9
X2.875Y-4.025
X2.875Y-4.825
X2.9Y-3.28
X2.9Y-3.575
X2.925Y-4.05
X2.925Y-4.825
X2.975Y-3.55
X2.975Y-4.1
X2.975Y-4.825
X2.975Y-5.525
X3.0Y-3.6
X3.025Y-2.25
X3.025Y-2.4
X3.025Y-2.8
X3.025Y-2.95
X3.025Y-3.9
X3.025Y-4.0
X3.025Y-4.825
X3.0369Y-2.5131
X3.05Y-3.675
X3.075Y-3.175
X3.075Y-3.7
X3.075Y-4.825
X3.1Y-3.625
X3.125Y-4.2
X3.125Y-4.825
X3.15Y-3.65
X3.175Y-3.075
X3.175Y-4.0
X3.175Y-4.825
X3.175Y-6.1374
X3.2Y-3.05
X3.225Y-2.6
X3.225Y-3.025
X3.225Y-4.825
X3.25Y-2.925
X3.25Y-3.35
X3.25Y-3.725
X3.25Y-4.05
X3.25Y-4.125
X3.275Y-2.6
X3.275Y-3.025
X3.275Y-4.825
X3.29Y-6.0631
X3.3Y-3.0
X3.325Y-2.6
X3.325Y-3.025
X3.325Y-3.975
X3.325Y-4.075
X3.325Y-5.025
X3.35Y-3.275
X3.35Y-5.275
X3.3631Y-6.1369
X3.375Y-2.6
X3.375Y-3.15
X3.375Y-3.775
X3.375Y-3.975
X3.375Y-4.025
X3.4Y-3.125
X3.4Y-5.075
X3.4Y-5.925
X3.425Y-2.6
X3.425Y-2.95
X3.425Y-5.6
X3.45Y-2.925
X3.45Y-3.75
X3.45Y-3.8
X3.45Y-4.725
X3.45Y-5.2
X3.475Y-2.6
X3.475Y-3.0
X3.475Y-4.075
X3.5Y-2.975
X3.5Y-3.775
X3.5Y-5.125
X3.5Y-5.275
X3.525Y-2.6
X3.525Y-3.1
X3.525Y-4.1
X3.525Y-4.8
X3.525Y-5.05
X3.525Y-6.0626
X3.55Y-3.125
X3.55Y-5.525
X3.55Y-5.625
X3.55Y-5.925
X3.575Y-2.6
X3.575Y-2.725
X3.575Y-2.775
X3.575Y-3.15
X3.575Y-4.7
X3.6Y-5.0
X3.625Y-4.025
X3.625Y-4.075
X3.625Y-4.2
X3.625Y-6.1374
X3.65Y-3.2093
X3.65Y-3.2407
X3.65Y-3.2722
X3.65Y-6.11
X3.675Y-3.9
X3.675Y-4.3
X3.675Y-4.975
X3.675Y-5.875
X3.6881Y-2.975
X3.7Y-4.275
X3.725Y-3.975
X3.725Y-4.25
X3.725Y-4.95
X3.74Y-6.0631
X3.75Y-4.225
X3.75Y-4.7
X3.775Y-4.925
X3.7941Y-4.1559
X3.8Y-3.025
X3.8Y-3.2093
X3.8Y-3.2407
X3.8Y-3.2722
X3.8Y-4.1
X3.8Y-4.7
X3.8131Y-6.1369
X3.825Y-3.1537
X3.825Y-3.1852
X3.825Y-4.9
X3.8268Y-3.95
X3.85Y-4.7
X3.8642Y-3.9
X3.875Y-4.425
X3.875Y-4.5
X3.875Y-4.875
X3.8793Y-4.0207
X3.8827Y-2.925
X3.9Y-4.7
X3.9016Y-3.9
X3.925Y-3.0278
X3.925Y-3.4156
X3.925Y-4.85
X3.9398Y-2.975
X3.9398Y-3.3
X3.945Y-6.04
X3.95Y-3.0907
X3.95Y-4.7
X3.9713Y-3.0
X3.9713Y-3.3
X3.975Y-4.825
X3.975Y-5.075
X4.0Y-4.225
X4.0Y-4.7
X4.0028Y-3.025
X4.0028Y-3.3
X4.025Y-4.525
X4.025Y-5.025
X4.0343Y-3.075
X4.0343Y-3.175
X4.05Y-4.05
X4.05Y-4.1
X4.05Y-4.15
X4.05Y-4.2
X4.05Y-4.6
X4.05Y-5.275
X4.0657Y-2.85
X4.0657Y-3.15
X4.075Y-6.1374
X4.0972Y-3.125
X4.1Y-5.075
X4.1Y-5.925
X4.1Y-6.1
X4.125Y-5.6
X4.1287Y-3.325
X4.15Y-4.725
X4.15Y-5.2
X4.1602Y-3.3
X4.185Y-6.0631
X4.2Y-3.275
X4.2Y-4.45
X4.2Y-5.275
X4.225Y-4.5
X4.25Y-4.55
X4.25Y-5.525
X4.25Y-5.625
X4.25Y-5.925
X4.2631Y-6.1369
X4.2713Y-3.1537
X4.275Y-3.375
X4.275Y-3.75
X4.275Y-4.575
X4.275Y-4.7
X4.3Y-3.725
X4.3Y-3.8
X4.3Y-5.0
X4.325Y-3.775
X4.325Y-4.575
X4.35Y-4.7
X4.3528Y-3.0
X4.375Y-4.575
X4.375Y-4.975
X4.375Y-5.875
X4.375Y-6.0626
X4.3843Y-3.0
X4.4Y-4.7
X4.4157Y-3.0
X4.425Y-4.575
X4.425Y-4.95
X4.425Y-6.025
X4.4472Y-3.0
X4.45Y-4.6
X4.45Y-4.7
X4.45Y-6.0
X4.4612Y-3.875
X4.475Y-3.0631
X4.475Y-4.05
X4.475Y-4.15
X4.475Y-4.3
X4.475Y-4.35
X4.475Y-4.925
X4.475Y-5.6
X4.5Y-4.7
X4.5Y-6.0
X4.525Y-4.9
X4.525Y-5.45
X4.535Y-3.875
X4.575Y-3.525
X4.575Y-4.875
X4.575Y-6.15
X4.6Y-5.475
X4.6Y-5.525
X4.625Y-3.425
X4.625Y-4.85
X4.625Y-5.55
X4.675Y-3.8
X4.675Y-3.925
X4.675Y-4.825
X4.675Y-5.075
X4.675Y-6.2
X4.6881Y-4.15
X4.725Y-3.8
X4.725Y-3.925
X4.725Y-6.075
X4.725Y-6.2
X4.75Y-3.4
X4.75Y-5.275
X4.75Y-5.725
X4.75Y-5.775
X4.75Y-5.825
X4.75Y-5.925
X4.75Y-5.975
X4.775Y-3.2
X4.775Y-3.55
X4.775Y-3.8
X4.775Y-3.925
X4.775Y-4.65
X4.775Y-5.75
X4.775Y-5.8
X4.775Y-5.85
X4.8Y-4.2778
X4.8Y-4.3093
X4.8Y-4.3407
X4.8Y-4.3722
X4.8Y-5.575
X4.8Y-5.925
X4.8028Y-3.0
X4.825Y-3.4
X4.825Y-3.575
X4.825Y-3.8
X4.825Y-3.925
X4.825Y-4.65
X4.8343Y-3.0
X4.85Y-5.025
X4.85Y-5.175
X4.8657Y-3.0
X4.8706Y-5.8869
X4.875Y-3.6
X4.875Y-3.925
X4.8972Y-3.0
X4.9Y-3.375
X4.9Y-5.275
X4.925Y-3.625
X4.925Y-3.925
X4.95Y-4.975
X4.975Y-3.65
X4.975Y-3.925
X4.975Y-6.025
X4.975Y-6.075
X5.025Y-3.675
X5.025Y-3.925
X5.025Y-5.775
X5.025Y-5.926
X5.05Y-5.65
X5.05Y-5.7
X5.05Y-5.75
X5.074Y-5.976
X5.075Y-3.7
X5.075Y-3.75
X5.075Y-3.8
X5.075Y-3.925
X5.075Y-5.675
X5.075Y-5.725
X5.0778Y-4.05
X5.1055Y-5.975
X5.1093Y-4.05
X5.125Y-4.975
X5.125Y-5.925
X5.1407Y-4.05
X5.1487Y-6.0987
X5.15Y-5.15
X5.15Y-5.4
X5.15Y-5.9
X5.1722Y-4.05
X5.175Y-5.175
X5.2Y-4.975
X5.2Y-5.3063
X5.2Y-5.4
X5.2212Y-6.1
X5.225Y-4.95
X5.25Y-3.425
X5.25Y-3.925
X5.25Y-5.3
X5.275Y-5.875
X5.275Y-6.1
X5.3Y-3.45
X5.3Y-3.925
X5.3Y-5.85
X5.3Y-5.9
X5.3Y-6.2
X5.325Y-5.825
X5.326Y-6.075
X5.3325Y-5.9575
X5.35Y-3.725
X5.35Y-3.925
X5.35Y-5.8
X5.3575Y-6.075
X5.375Y-5.0619
X5.4Y-2.85
X5.4Y-3.75
X5.4Y-3.925
X5.4Y-6.075
X5.45Y-3.775
X5.45Y-3.925
X5.45Y-6.1
X5.4778Y-4.05
X5.5Y-3.8
X5.5093Y-4.05
X5.52Y-5.86
X5.52Y-6.02
X5.525Y-3.125
X5.525Y-5.8
X5.5407Y-4.05
X5.55Y-2.55
X5.55Y-2.75
X5.55Y-5.3
X5.5722Y-4.05
X5.575Y-2.575
X5.575Y-2.775
X5.6Y-2.3
X5.6Y-2.5
X5.6Y-2.7
X5.625Y-2.525
X5.625Y-2.725
X5.65Y-2.8
X5.65Y-4.1
X5.65Y-4.95
X5.65Y-5.175
X5.65Y-5.3
X5.65Y-5.375
X5.65Y-5.5
X5.65Y-5.625
X5.65Y-6.075
X5.7Y-3.925
X5.75Y-2.3
X5.75Y-3.525
X5.8Y-3.275
X5.8Y-4.15
X5.85Y-5.1626
X5.85Y-5.3626
X5.875Y-3.425
X5.875Y-3.925
X5.875Y-4.475
X5.875Y-4.65
X5.9085Y-4.45
X5.925Y-3.725
X5.925Y-5.525
X5.95Y-2.85
X5.975Y-3.375
X5.975Y-3.75
X6.0Y-4.175
X6.0Y-4.55
X6.0Y-4.65
X6.025Y-3.55
X6.025Y-3.775
X6.025Y-5.25
X6.025Y-5.4
X6.025Y-6.025
X6.055Y-4.445
X6.0619Y-4.0631
X6.075Y-3.55
X6.075Y-3.8
X6.075Y-4.325
X6.075Y-5.25
X6.075Y-5.525
X6.1Y-4.375
X6.125Y-3.55
X6.125Y-3.8
X6.15Y-2.3
X6.15Y-4.6
X6.175Y-3.55
X6.175Y-3.8
X6.175Y-4.9
X6.2Y-2.5
X6.2Y-2.55
X6.2Y-2.6
X6.2Y-2.65
X6.2Y-2.7
X6.2Y-2.75
X6.2Y-2.8
X6.2Y-2.85
X6.2Y-4.35
X6.2Y-5.6
X6.2Y-5.725
X6.2Y-6.0
X6.2Y-6.125
X6.225Y-3.55
X6.225Y-3.8
X6.225Y-5.15
X6.225Y-5.4
X6.275Y-3.55
X6.275Y-3.8
X6.275Y-4.4
X6.3Y-2.3
X6.3Y-4.7
X6.325Y-3.55
X6.325Y-3.925
X6.35Y-2.475
X6.35Y-2.9
X6.35Y-4.5
X6.35Y-5.725
X6.375Y-2.875
X6.375Y-2.925
X6.375Y-3.975
X6.4Y-2.45
X6.4Y-2.5
X6.4Y-2.55
X6.4Y-2.6
X6.4Y-2.65
X6.4Y-2.7
X6.4Y-2.75
X6.4Y-2.8
X6.4Y-2.85
X6.4Y-4.325
X6.4Y-4.375
X6.4Y-4.7
X6.425Y-3.925
X6.45Y-2.375
X6.45Y-3.95
X6.45Y-4.25
X6.45Y-4.3
X6.45Y-4.5
X6.45Y-5.3165
X6.475Y-2.95
X6.475Y-3.975
X6.5Y-4.0
X6.525Y-2.625
X6.525Y-2.775
X6.55Y-2.6
X6.55Y-2.75
X6.55Y-4.35
X6.55Y-4.925
X6.55Y-5.675
X6.55Y-5.725
X6.55Y-5.775
X6.575Y-2.575
X6.575Y-2.725
X6.575Y-3.425
X6.575Y-4.675
X6.575Y-4.9
X6.6Y-2.55
X6.6Y-2.7
X6.6Y-3.8222
X6.6Y-4.05
X6.6Y-4.6
X6.6Y-4.7
X6.6Y-5.275
X6.625Y-2.525
X6.625Y-2.725
X6.625Y-3.775
X6.625Y-4.675
X6.65Y-2.5
X6.65Y-2.7
X6.65Y-2.95
X6.65Y-3.7
X6.65Y-4.7
X6.675Y-3.4
X6.675Y-3.675
X6.675Y-4.675
X6.7Y-2.9
X6.7Y-3.375
X6.7Y-4.1
X6.7Y-4.65
X6.7Y-4.925
X6.7Y-4.975
X6.7Y-5.025
X6.725Y-2.35
X6.725Y-2.7
X6.725Y-3.35
X6.725Y-4.525
X6.725Y-5.725
X6.75Y-2.725
X6.75Y-2.85
X6.75Y-3.325
X6.75Y-4.5
X6.775Y-2.75
X6.775Y-2.8
X6.775Y-3.3
X6.775Y-3.6
X6.775Y-4.475
X6.775Y-5.625
X6.7935Y-3.6315
X6.8Y-3.325
X6.8Y-3.4425
X6.8Y-3.474
X6.8Y-3.5055
X6.8Y-3.537
X6.8Y-3.5685
X6.8Y-4.45
X6.825Y-3.35
X6.825Y-4.325
X6.825Y-5.575
X6.825Y-6.0
X6.836Y-2.414
X6.85Y-3.4
X6.85Y-4.3
X6.85Y-4.875
X6.875Y-4.275
X6.875Y-5.425
X6.875Y-6.0
X6.9Y-2.7
X6.9Y-4.25
X6.9028Y-2.2278
X6.9131Y-5.75
X6.925Y-2.725
X6.925Y-4.3
X6.925Y-4.45
X6.925Y-4.5
X6.925Y-4.6
X6.925Y-5.175
X6.925Y-5.375
X6.925Y-5.45
X6.925Y-5.65
X6.95Y-3.0
X6.95Y-4.275
X6.95Y-4.325
X6.95Y-4.475
X6.95Y-4.525
X6.95Y-5.4
X6.95Y-5.6
X6.9657Y-2.25
X6.975Y-5.725
X7.0Y-2.9
X7.0Y-3.975
X7.075Y-2.25
X7.075Y-3.325
X7.075Y-5.175
X7.1065Y-3.2935
X7.125Y-2.45
X7.125Y-5.025
X7.125Y-6.15
X7.138Y-3.325
X7.15Y-2.775
X7.15Y-4.05
X7.15Y-4.6
X7.1695Y-3.325
X7.175Y-2.75
X7.2Y-2.625
X7.201Y-3.425
X7.2028Y-3.1
X7.225Y-2.25
X7.225Y-2.6
X7.275Y-4.2
X7.275Y-4.25
X7.275Y-4.3
X7.275Y-4.35
X7.275Y-4.4
X7.275Y-4.45
X7.275Y-4.5
X7.275Y-4.55
X7.275Y-5.725
X7.2972Y-3.3
X7.3Y-2.625
X7.325Y-2.6
X7.325Y-4.55
X7.336Y-2.326
X7.35Y-2.75
X7.35Y-3.6
X7.35Y-3.6315
X7.35Y-4.5
X7.375Y-2.8
X7.375Y-4.45
X7.4Y-4.4
X7.425Y-4.35
X7.45Y-4.3
X7.475Y-2.45
X7.475Y-4.25
X7.475Y-5.175
X7.5Y-4.2
X7.51Y-3.615
X7.525Y-4.25
X7.525Y-4.3
X7.525Y-4.35
X7.525Y-4.4
X7.525Y-4.45
X7.525Y-4.5
X7.525Y-4.55
X7.525Y-4.6
X7.525Y-5.375
X7.525Y-5.425
X7.525Y-5.475
X7.525Y-5.525
X7.525Y-5.575
X7.525Y-5.625
X7.525Y-5.675
X7.525Y-5.725
X7.5369Y-3.9881
X7.625Y-4.0619
X7.625Y-5.175
X7.65Y-2.925
X7.65Y-5.025
X7.65Y-6.15
T2
X1.65Y-3.775
X1.75Y-3.575
X1.85Y-3.775
T3
X4.975Y-4.275
X4.975Y-4.575
X5.075Y-4.275
X5.075Y-4.575
X5.175Y-4.275
X5.175Y-4.575
X5.275Y-4.275
X5.275Y-4.575
X5.375Y-4.275
X5.375Y-4.575
X5.475Y-4.275
X5.475Y-4.575
X5.575Y-4.275
X5.575Y-4.575
X5.675Y-4.275
X5.675Y-4.575
X2.9Y-4.275
X2.9Y-4.575
X3.0Y-4.275
X3.0Y-4.575
X3.1Y-4.275
X3.1Y-4.575
X3.2Y-4.275
X3.2Y-4.575
X3.3Y-4.275
X3.3Y-4.575
X3.4Y-4.275
X3.4Y-4.575
X3.5Y-4.275
X3.5Y-4.575
X3.6Y-4.275
X3.6Y-4.575
X5.05Y-2.975
X5.05Y-3.275
X5.15Y-2.975
X5.15Y-3.275
T4
X2.55Y-2.45
X2.65Y-2.45
X2.75Y-2.45
T5
X6.247Y-4.8114
X6.247Y-4.9886
X6.503Y-4.8114
X6.503Y-4.9886
X2.447Y-4.9114
X2.447Y-5.0886
X2.703Y-4.9114
X2.703Y-5.0886
X2.075Y-2.8614
X2.075Y-3.0386
X2.3309Y-2.8614
X2.3309Y-3.0386
X7.525Y-3.2
X7.525Y-3.3
X7.525Y-3.4
X7.625Y-3.2
X7.625Y-3.3
X7.625Y-3.4
X2.6191Y-2.8614
X2.6191Y-3.0386
X2.875Y-2.8614
X2.875Y-3.0386
X1.65Y-2.975
X1.65Y-3.075
X1.75Y-2.975
X1.75Y-3.075
X1.85Y-2.975
X1.85Y-3.075
X4.5Y-3.15
X4.5Y-3.25
X4.6Y-3.15
X4.6Y-3.25
X4.7Y-3.15
X4.7Y-3.25
X5.697Y-4.8114
X5.697Y-4.9886
X5.953Y-4.8114
X5.953Y-4.9886
X4.2Y-2.275
X4.2Y-2.775
X4.3Y-2.275
X4.3Y-2.775
X4.4Y-2.275
X4.4Y-2.775
X4.5Y-2.275
X4.5Y-2.775
X4.6Y-2.275
X4.6Y-2.775
X4.7Y-2.275
X4.7Y-2.775
X5.325Y-5.2
X5.325Y-5.3
X5.325Y-5.4
X5.425Y-5.2
X5.425Y-5.3
X5.425Y-5.4
X5.225Y-4.875
X5.325Y-4.875
X5.425Y-4.875
X5.525Y-4.875
T5
G00X1.615Y-2.5287
M15
G01X1.615Y-2.6075
M16
G05
G00X1.8394Y-2.45
M15
G01X1.7606Y-2.45
M16
G05
G00X1.8492Y-2.6862
M15
G01X1.7508Y-2.6862
M16
G05
T0
M30
