G04 #@! TF.GenerationSoftware,KiCad,Pcbnew,5.1.4+dfsg1-1~bpo10+1*
G04 #@! TF.CreationDate,2019-09-20T11:34:30+08:00*
G04 #@! TF.ProjectId,8-Bit CPU,382d4269-7420-4435-9055-2e6b69636164,rev?*
G04 #@! TF.SameCoordinates,Original*
G04 #@! TF.FileFunction,Legend,Bot*
G04 #@! TF.FilePolarity,Positive*
%FSLAX46Y46*%
G04 Gerber Fmt 4.6, Leading zero omitted, Abs format (unit mm)*
G04 Created by KiCad (PCBNEW 5.1.4+dfsg1-1~bpo10+1) date 2019-09-20 11:34:30*
%MOMM*%
%LPD*%
G04 APERTURE LIST*
%ADD10C,0.381000*%
%ADD11C,0.254000*%
%ADD12C,0.203200*%
%ADD13C,0.150000*%
%ADD14C,0.010000*%
G04 APERTURE END LIST*
D10*
X193318492Y-58619571D02*
X193463635Y-58547000D01*
X193608778Y-58401857D01*
X193826492Y-58184142D01*
X193971635Y-58111571D01*
X194116778Y-58111571D01*
X194044207Y-58474428D02*
X194189350Y-58401857D01*
X194334492Y-58256714D01*
X194407064Y-57966428D01*
X194407064Y-57458428D01*
X194334492Y-57168142D01*
X194189350Y-57023000D01*
X194044207Y-56950428D01*
X193753921Y-56950428D01*
X193608778Y-57023000D01*
X193463635Y-57168142D01*
X193391064Y-57458428D01*
X193391064Y-57966428D01*
X193463635Y-58256714D01*
X193608778Y-58401857D01*
X193753921Y-58474428D01*
X194044207Y-58474428D01*
X192737921Y-56950428D02*
X192737921Y-58184142D01*
X192665350Y-58329285D01*
X192592778Y-58401857D01*
X192447635Y-58474428D01*
X192157350Y-58474428D01*
X192012207Y-58401857D01*
X191939635Y-58329285D01*
X191867064Y-58184142D01*
X191867064Y-56950428D01*
X191141350Y-58474428D02*
X191141350Y-56950428D01*
X189544778Y-58329285D02*
X189617350Y-58401857D01*
X189835064Y-58474428D01*
X189980207Y-58474428D01*
X190197921Y-58401857D01*
X190343064Y-58256714D01*
X190415635Y-58111571D01*
X190488207Y-57821285D01*
X190488207Y-57603571D01*
X190415635Y-57313285D01*
X190343064Y-57168142D01*
X190197921Y-57023000D01*
X189980207Y-56950428D01*
X189835064Y-56950428D01*
X189617350Y-57023000D01*
X189544778Y-57095571D01*
X188891635Y-58474428D02*
X188891635Y-56950428D01*
X188020778Y-58474428D02*
X188673921Y-57603571D01*
X188020778Y-56950428D02*
X188891635Y-57821285D01*
X185335635Y-58474428D02*
X185843635Y-57748714D01*
X186206492Y-58474428D02*
X186206492Y-56950428D01*
X185625921Y-56950428D01*
X185480778Y-57023000D01*
X185408207Y-57095571D01*
X185335635Y-57240714D01*
X185335635Y-57458428D01*
X185408207Y-57603571D01*
X185480778Y-57676142D01*
X185625921Y-57748714D01*
X186206492Y-57748714D01*
X184682492Y-57676142D02*
X184174492Y-57676142D01*
X183956778Y-58474428D02*
X184682492Y-58474428D01*
X184682492Y-56950428D01*
X183956778Y-56950428D01*
X182795635Y-57676142D02*
X183303635Y-57676142D01*
X183303635Y-58474428D02*
X183303635Y-56950428D01*
X182577921Y-56950428D01*
X181997350Y-57676142D02*
X181489350Y-57676142D01*
X181271635Y-58474428D02*
X181997350Y-58474428D01*
X181997350Y-56950428D01*
X181271635Y-56950428D01*
X179747635Y-58474428D02*
X180255635Y-57748714D01*
X180618492Y-58474428D02*
X180618492Y-56950428D01*
X180037921Y-56950428D01*
X179892778Y-57023000D01*
X179820207Y-57095571D01*
X179747635Y-57240714D01*
X179747635Y-57458428D01*
X179820207Y-57603571D01*
X179892778Y-57676142D01*
X180037921Y-57748714D01*
X180618492Y-57748714D01*
X179094492Y-57676142D02*
X178586492Y-57676142D01*
X178368778Y-58474428D02*
X179094492Y-58474428D01*
X179094492Y-56950428D01*
X178368778Y-56950428D01*
X177715635Y-58474428D02*
X177715635Y-56950428D01*
X176844778Y-58474428D01*
X176844778Y-56950428D01*
X175248207Y-58329285D02*
X175320778Y-58401857D01*
X175538492Y-58474428D01*
X175683635Y-58474428D01*
X175901350Y-58401857D01*
X176046492Y-58256714D01*
X176119064Y-58111571D01*
X176191635Y-57821285D01*
X176191635Y-57603571D01*
X176119064Y-57313285D01*
X176046492Y-57168142D01*
X175901350Y-57023000D01*
X175683635Y-56950428D01*
X175538492Y-56950428D01*
X175320778Y-57023000D01*
X175248207Y-57095571D01*
X174595064Y-57676142D02*
X174087064Y-57676142D01*
X173869350Y-58474428D02*
X174595064Y-58474428D01*
X174595064Y-56950428D01*
X173869350Y-56950428D01*
X173216207Y-58329285D02*
X173143635Y-58401857D01*
X173216207Y-58474428D01*
X173288778Y-58401857D01*
X173216207Y-58329285D01*
X173216207Y-58474428D01*
X173216207Y-57531000D02*
X173143635Y-57603571D01*
X173216207Y-57676142D01*
X173288778Y-57603571D01*
X173216207Y-57531000D01*
X173216207Y-57676142D01*
D11*
X182769328Y-60252428D02*
X182624185Y-60300809D01*
X182575804Y-60349190D01*
X182527423Y-60445952D01*
X182527423Y-60591095D01*
X182575804Y-60687857D01*
X182624185Y-60736238D01*
X182720947Y-60784619D01*
X183107995Y-60784619D01*
X183107995Y-59768619D01*
X182769328Y-59768619D01*
X182672566Y-59817000D01*
X182624185Y-59865380D01*
X182575804Y-59962142D01*
X182575804Y-60058904D01*
X182624185Y-60155666D01*
X182672566Y-60204047D01*
X182769328Y-60252428D01*
X183107995Y-60252428D01*
X182140376Y-60494333D02*
X181656566Y-60494333D01*
X182237138Y-60784619D02*
X181898471Y-59768619D01*
X181559804Y-60784619D01*
X181269519Y-60736238D02*
X181124376Y-60784619D01*
X180882471Y-60784619D01*
X180785709Y-60736238D01*
X180737328Y-60687857D01*
X180688947Y-60591095D01*
X180688947Y-60494333D01*
X180737328Y-60397571D01*
X180785709Y-60349190D01*
X180882471Y-60300809D01*
X181075995Y-60252428D01*
X181172757Y-60204047D01*
X181221138Y-60155666D01*
X181269519Y-60058904D01*
X181269519Y-59962142D01*
X181221138Y-59865380D01*
X181172757Y-59817000D01*
X181075995Y-59768619D01*
X180834090Y-59768619D01*
X180688947Y-59817000D01*
X180253519Y-60784619D02*
X180253519Y-59768619D01*
X179189138Y-60687857D02*
X179237519Y-60736238D01*
X179382661Y-60784619D01*
X179479423Y-60784619D01*
X179624566Y-60736238D01*
X179721328Y-60639476D01*
X179769709Y-60542714D01*
X179818090Y-60349190D01*
X179818090Y-60204047D01*
X179769709Y-60010523D01*
X179721328Y-59913761D01*
X179624566Y-59817000D01*
X179479423Y-59768619D01*
X179382661Y-59768619D01*
X179237519Y-59817000D01*
X179189138Y-59865380D01*
X177979614Y-60784619D02*
X177979614Y-59768619D01*
X177495804Y-60784619D02*
X177495804Y-59768619D01*
X176915233Y-60784619D01*
X176915233Y-59768619D01*
X176479804Y-60736238D02*
X176334661Y-60784619D01*
X176092757Y-60784619D01*
X175995995Y-60736238D01*
X175947614Y-60687857D01*
X175899233Y-60591095D01*
X175899233Y-60494333D01*
X175947614Y-60397571D01*
X175995995Y-60349190D01*
X176092757Y-60300809D01*
X176286280Y-60252428D01*
X176383042Y-60204047D01*
X176431423Y-60155666D01*
X176479804Y-60058904D01*
X176479804Y-59962142D01*
X176431423Y-59865380D01*
X176383042Y-59817000D01*
X176286280Y-59768619D01*
X176044376Y-59768619D01*
X175899233Y-59817000D01*
X175608947Y-59768619D02*
X175028376Y-59768619D01*
X175318661Y-60784619D02*
X175318661Y-59768619D01*
X174109138Y-60784619D02*
X174447804Y-60300809D01*
X174689709Y-60784619D02*
X174689709Y-59768619D01*
X174302661Y-59768619D01*
X174205900Y-59817000D01*
X174157519Y-59865380D01*
X174109138Y-59962142D01*
X174109138Y-60107285D01*
X174157519Y-60204047D01*
X174205900Y-60252428D01*
X174302661Y-60300809D01*
X174689709Y-60300809D01*
X173673709Y-59768619D02*
X173673709Y-60591095D01*
X173625328Y-60687857D01*
X173576947Y-60736238D01*
X173480185Y-60784619D01*
X173286661Y-60784619D01*
X173189900Y-60736238D01*
X173141519Y-60687857D01*
X173093138Y-60591095D01*
X173093138Y-59768619D01*
X172028757Y-60687857D02*
X172077138Y-60736238D01*
X172222280Y-60784619D01*
X172319042Y-60784619D01*
X172464185Y-60736238D01*
X172560947Y-60639476D01*
X172609328Y-60542714D01*
X172657709Y-60349190D01*
X172657709Y-60204047D01*
X172609328Y-60010523D01*
X172560947Y-59913761D01*
X172464185Y-59817000D01*
X172319042Y-59768619D01*
X172222280Y-59768619D01*
X172077138Y-59817000D01*
X172028757Y-59865380D01*
X171738471Y-59768619D02*
X171157900Y-59768619D01*
X171448185Y-60784619D02*
X171448185Y-59768619D01*
X170819233Y-60784619D02*
X170819233Y-59768619D01*
X170141900Y-59768619D02*
X169948376Y-59768619D01*
X169851614Y-59817000D01*
X169754852Y-59913761D01*
X169706471Y-60107285D01*
X169706471Y-60445952D01*
X169754852Y-60639476D01*
X169851614Y-60736238D01*
X169948376Y-60784619D01*
X170141900Y-60784619D01*
X170238661Y-60736238D01*
X170335423Y-60639476D01*
X170383804Y-60445952D01*
X170383804Y-60107285D01*
X170335423Y-59913761D01*
X170238661Y-59817000D01*
X170141900Y-59768619D01*
X169271042Y-60784619D02*
X169271042Y-59768619D01*
X168690471Y-60784619D01*
X168690471Y-59768619D01*
X168255042Y-60736238D02*
X168109900Y-60784619D01*
X167867995Y-60784619D01*
X167771233Y-60736238D01*
X167722852Y-60687857D01*
X167674471Y-60591095D01*
X167674471Y-60494333D01*
X167722852Y-60397571D01*
X167771233Y-60349190D01*
X167867995Y-60300809D01*
X168061519Y-60252428D01*
X168158280Y-60204047D01*
X168206661Y-60155666D01*
X168255042Y-60058904D01*
X168255042Y-59962142D01*
X168206661Y-59865380D01*
X168158280Y-59817000D01*
X168061519Y-59768619D01*
X167819614Y-59768619D01*
X167674471Y-59817000D01*
X167239042Y-60687857D02*
X167190661Y-60736238D01*
X167239042Y-60784619D01*
X167287423Y-60736238D01*
X167239042Y-60687857D01*
X167239042Y-60784619D01*
X167239042Y-60155666D02*
X167190661Y-60204047D01*
X167239042Y-60252428D01*
X167287423Y-60204047D01*
X167239042Y-60155666D01*
X167239042Y-60252428D01*
X182914471Y-63324619D02*
X182817709Y-63324619D01*
X182720947Y-63373000D01*
X182672566Y-63421380D01*
X182624185Y-63518142D01*
X182575804Y-63711666D01*
X182575804Y-63953571D01*
X182624185Y-64147095D01*
X182672566Y-64243857D01*
X182720947Y-64292238D01*
X182817709Y-64340619D01*
X182914471Y-64340619D01*
X183011233Y-64292238D01*
X183059614Y-64243857D01*
X183107995Y-64147095D01*
X183156376Y-63953571D01*
X183156376Y-63711666D01*
X183107995Y-63518142D01*
X183059614Y-63421380D01*
X183011233Y-63373000D01*
X182914471Y-63324619D01*
X181946852Y-63324619D02*
X181850090Y-63324619D01*
X181753328Y-63373000D01*
X181704947Y-63421380D01*
X181656566Y-63518142D01*
X181608185Y-63711666D01*
X181608185Y-63953571D01*
X181656566Y-64147095D01*
X181704947Y-64243857D01*
X181753328Y-64292238D01*
X181850090Y-64340619D01*
X181946852Y-64340619D01*
X182043614Y-64292238D01*
X182091995Y-64243857D01*
X182140376Y-64147095D01*
X182188757Y-63953571D01*
X182188757Y-63711666D01*
X182140376Y-63518142D01*
X182091995Y-63421380D01*
X182043614Y-63373000D01*
X181946852Y-63324619D01*
X180979233Y-63324619D02*
X180882471Y-63324619D01*
X180785709Y-63373000D01*
X180737328Y-63421380D01*
X180688947Y-63518142D01*
X180640566Y-63711666D01*
X180640566Y-63953571D01*
X180688947Y-64147095D01*
X180737328Y-64243857D01*
X180785709Y-64292238D01*
X180882471Y-64340619D01*
X180979233Y-64340619D01*
X181075995Y-64292238D01*
X181124376Y-64243857D01*
X181172757Y-64147095D01*
X181221138Y-63953571D01*
X181221138Y-63711666D01*
X181172757Y-63518142D01*
X181124376Y-63421380D01*
X181075995Y-63373000D01*
X180979233Y-63324619D01*
X180011614Y-63324619D02*
X179914852Y-63324619D01*
X179818090Y-63373000D01*
X179769709Y-63421380D01*
X179721328Y-63518142D01*
X179672947Y-63711666D01*
X179672947Y-63953571D01*
X179721328Y-64147095D01*
X179769709Y-64243857D01*
X179818090Y-64292238D01*
X179914852Y-64340619D01*
X180011614Y-64340619D01*
X180108376Y-64292238D01*
X180156757Y-64243857D01*
X180205138Y-64147095D01*
X180253519Y-63953571D01*
X180253519Y-63711666D01*
X180205138Y-63518142D01*
X180156757Y-63421380D01*
X180108376Y-63373000D01*
X180011614Y-63324619D01*
X179043995Y-63324619D02*
X178947233Y-63324619D01*
X178850471Y-63373000D01*
X178802090Y-63421380D01*
X178753709Y-63518142D01*
X178705328Y-63711666D01*
X178705328Y-63953571D01*
X178753709Y-64147095D01*
X178802090Y-64243857D01*
X178850471Y-64292238D01*
X178947233Y-64340619D01*
X179043995Y-64340619D01*
X179140757Y-64292238D01*
X179189138Y-64243857D01*
X179237519Y-64147095D01*
X179285900Y-63953571D01*
X179285900Y-63711666D01*
X179237519Y-63518142D01*
X179189138Y-63421380D01*
X179140757Y-63373000D01*
X179043995Y-63324619D01*
X178076376Y-63324619D02*
X177979614Y-63324619D01*
X177882852Y-63373000D01*
X177834471Y-63421380D01*
X177786090Y-63518142D01*
X177737709Y-63711666D01*
X177737709Y-63953571D01*
X177786090Y-64147095D01*
X177834471Y-64243857D01*
X177882852Y-64292238D01*
X177979614Y-64340619D01*
X178076376Y-64340619D01*
X178173138Y-64292238D01*
X178221519Y-64243857D01*
X178269900Y-64147095D01*
X178318280Y-63953571D01*
X178318280Y-63711666D01*
X178269900Y-63518142D01*
X178221519Y-63421380D01*
X178173138Y-63373000D01*
X178076376Y-63324619D01*
X177108757Y-63324619D02*
X177011995Y-63324619D01*
X176915233Y-63373000D01*
X176866852Y-63421380D01*
X176818471Y-63518142D01*
X176770090Y-63711666D01*
X176770090Y-63953571D01*
X176818471Y-64147095D01*
X176866852Y-64243857D01*
X176915233Y-64292238D01*
X177011995Y-64340619D01*
X177108757Y-64340619D01*
X177205519Y-64292238D01*
X177253900Y-64243857D01*
X177302280Y-64147095D01*
X177350661Y-63953571D01*
X177350661Y-63711666D01*
X177302280Y-63518142D01*
X177253900Y-63421380D01*
X177205519Y-63373000D01*
X177108757Y-63324619D01*
X176141138Y-63324619D02*
X176044376Y-63324619D01*
X175947614Y-63373000D01*
X175899233Y-63421380D01*
X175850852Y-63518142D01*
X175802471Y-63711666D01*
X175802471Y-63953571D01*
X175850852Y-64147095D01*
X175899233Y-64243857D01*
X175947614Y-64292238D01*
X176044376Y-64340619D01*
X176141138Y-64340619D01*
X176237900Y-64292238D01*
X176286280Y-64243857D01*
X176334661Y-64147095D01*
X176383042Y-63953571D01*
X176383042Y-63711666D01*
X176334661Y-63518142D01*
X176286280Y-63421380D01*
X176237900Y-63373000D01*
X176141138Y-63324619D01*
X175367042Y-64243857D02*
X175318661Y-64292238D01*
X175367042Y-64340619D01*
X175415423Y-64292238D01*
X175367042Y-64243857D01*
X175367042Y-64340619D01*
X175367042Y-63711666D02*
X175318661Y-63760047D01*
X175367042Y-63808428D01*
X175415423Y-63760047D01*
X175367042Y-63711666D01*
X175367042Y-63808428D01*
X174109138Y-64340619D02*
X174109138Y-63324619D01*
X173528566Y-64340619D01*
X173528566Y-63324619D01*
X172851233Y-63324619D02*
X172657709Y-63324619D01*
X172560947Y-63373000D01*
X172464185Y-63469761D01*
X172415804Y-63663285D01*
X172415804Y-64001952D01*
X172464185Y-64195476D01*
X172560947Y-64292238D01*
X172657709Y-64340619D01*
X172851233Y-64340619D01*
X172947995Y-64292238D01*
X173044757Y-64195476D01*
X173093138Y-64001952D01*
X173093138Y-63663285D01*
X173044757Y-63469761D01*
X172947995Y-63373000D01*
X172851233Y-63324619D01*
X171980376Y-64340619D02*
X171980376Y-63324619D01*
X171593328Y-63324619D01*
X171496566Y-63373000D01*
X171448185Y-63421380D01*
X171399804Y-63518142D01*
X171399804Y-63663285D01*
X171448185Y-63760047D01*
X171496566Y-63808428D01*
X171593328Y-63856809D01*
X171980376Y-63856809D01*
X182914471Y-65102619D02*
X182817709Y-65102619D01*
X182720947Y-65151000D01*
X182672566Y-65199380D01*
X182624185Y-65296142D01*
X182575804Y-65489666D01*
X182575804Y-65731571D01*
X182624185Y-65925095D01*
X182672566Y-66021857D01*
X182720947Y-66070238D01*
X182817709Y-66118619D01*
X182914471Y-66118619D01*
X183011233Y-66070238D01*
X183059614Y-66021857D01*
X183107995Y-65925095D01*
X183156376Y-65731571D01*
X183156376Y-65489666D01*
X183107995Y-65296142D01*
X183059614Y-65199380D01*
X183011233Y-65151000D01*
X182914471Y-65102619D01*
X181946852Y-65102619D02*
X181850090Y-65102619D01*
X181753328Y-65151000D01*
X181704947Y-65199380D01*
X181656566Y-65296142D01*
X181608185Y-65489666D01*
X181608185Y-65731571D01*
X181656566Y-65925095D01*
X181704947Y-66021857D01*
X181753328Y-66070238D01*
X181850090Y-66118619D01*
X181946852Y-66118619D01*
X182043614Y-66070238D01*
X182091995Y-66021857D01*
X182140376Y-65925095D01*
X182188757Y-65731571D01*
X182188757Y-65489666D01*
X182140376Y-65296142D01*
X182091995Y-65199380D01*
X182043614Y-65151000D01*
X181946852Y-65102619D01*
X180640566Y-66118619D02*
X181221138Y-66118619D01*
X180930852Y-66118619D02*
X180930852Y-65102619D01*
X181027614Y-65247761D01*
X181124376Y-65344523D01*
X181221138Y-65392904D01*
X180011614Y-65102619D02*
X179914852Y-65102619D01*
X179818090Y-65151000D01*
X179769709Y-65199380D01*
X179721328Y-65296142D01*
X179672947Y-65489666D01*
X179672947Y-65731571D01*
X179721328Y-65925095D01*
X179769709Y-66021857D01*
X179818090Y-66070238D01*
X179914852Y-66118619D01*
X180011614Y-66118619D01*
X180108376Y-66070238D01*
X180156757Y-66021857D01*
X180205138Y-65925095D01*
X180253519Y-65731571D01*
X180253519Y-65489666D01*
X180205138Y-65296142D01*
X180156757Y-65199380D01*
X180108376Y-65151000D01*
X180011614Y-65102619D01*
X178705328Y-66118619D02*
X179285900Y-66118619D01*
X178995614Y-66118619D02*
X178995614Y-65102619D01*
X179092376Y-65247761D01*
X179189138Y-65344523D01*
X179285900Y-65392904D01*
X177737709Y-66118619D02*
X178318280Y-66118619D01*
X178027995Y-66118619D02*
X178027995Y-65102619D01*
X178124757Y-65247761D01*
X178221519Y-65344523D01*
X178318280Y-65392904D01*
X177108757Y-65102619D02*
X177011995Y-65102619D01*
X176915233Y-65151000D01*
X176866852Y-65199380D01*
X176818471Y-65296142D01*
X176770090Y-65489666D01*
X176770090Y-65731571D01*
X176818471Y-65925095D01*
X176866852Y-66021857D01*
X176915233Y-66070238D01*
X177011995Y-66118619D01*
X177108757Y-66118619D01*
X177205519Y-66070238D01*
X177253900Y-66021857D01*
X177302280Y-65925095D01*
X177350661Y-65731571D01*
X177350661Y-65489666D01*
X177302280Y-65296142D01*
X177253900Y-65199380D01*
X177205519Y-65151000D01*
X177108757Y-65102619D01*
X175802471Y-66118619D02*
X176383042Y-66118619D01*
X176092757Y-66118619D02*
X176092757Y-65102619D01*
X176189519Y-65247761D01*
X176286280Y-65344523D01*
X176383042Y-65392904D01*
X175367042Y-66021857D02*
X175318661Y-66070238D01*
X175367042Y-66118619D01*
X175415423Y-66070238D01*
X175367042Y-66021857D01*
X175367042Y-66118619D01*
X175367042Y-65489666D02*
X175318661Y-65538047D01*
X175367042Y-65586428D01*
X175415423Y-65538047D01*
X175367042Y-65489666D01*
X175367042Y-65586428D01*
X174109138Y-66118619D02*
X174109138Y-65102619D01*
X174109138Y-65586428D02*
X173528566Y-65586428D01*
X173528566Y-66118619D02*
X173528566Y-65102619D01*
X172560947Y-66118619D02*
X173044757Y-66118619D01*
X173044757Y-65102619D01*
X172367423Y-65102619D02*
X171786852Y-65102619D01*
X172077138Y-66118619D02*
X172077138Y-65102619D01*
X182914471Y-68658619D02*
X182817709Y-68658619D01*
X182720947Y-68707000D01*
X182672566Y-68755380D01*
X182624185Y-68852142D01*
X182575804Y-69045666D01*
X182575804Y-69287571D01*
X182624185Y-69481095D01*
X182672566Y-69577857D01*
X182720947Y-69626238D01*
X182817709Y-69674619D01*
X182914471Y-69674619D01*
X183011233Y-69626238D01*
X183059614Y-69577857D01*
X183107995Y-69481095D01*
X183156376Y-69287571D01*
X183156376Y-69045666D01*
X183107995Y-68852142D01*
X183059614Y-68755380D01*
X183011233Y-68707000D01*
X182914471Y-68658619D01*
X181946852Y-68658619D02*
X181850090Y-68658619D01*
X181753328Y-68707000D01*
X181704947Y-68755380D01*
X181656566Y-68852142D01*
X181608185Y-69045666D01*
X181608185Y-69287571D01*
X181656566Y-69481095D01*
X181704947Y-69577857D01*
X181753328Y-69626238D01*
X181850090Y-69674619D01*
X181946852Y-69674619D01*
X182043614Y-69626238D01*
X182091995Y-69577857D01*
X182140376Y-69481095D01*
X182188757Y-69287571D01*
X182188757Y-69045666D01*
X182140376Y-68852142D01*
X182091995Y-68755380D01*
X182043614Y-68707000D01*
X181946852Y-68658619D01*
X181269519Y-68658619D02*
X180592185Y-69674619D01*
X180592185Y-68658619D02*
X181269519Y-69674619D01*
X180301900Y-68658619D02*
X179624566Y-69674619D01*
X179624566Y-68658619D02*
X180301900Y-69674619D01*
X179334280Y-68658619D02*
X178656947Y-69674619D01*
X178656947Y-68658619D02*
X179334280Y-69674619D01*
X178076376Y-69190809D02*
X178076376Y-69674619D01*
X178415042Y-68658619D02*
X178076376Y-69190809D01*
X177737709Y-68658619D01*
X177205519Y-69190809D02*
X177205519Y-69674619D01*
X177544185Y-68658619D02*
X177205519Y-69190809D01*
X176866852Y-68658619D01*
X176334661Y-69190809D02*
X176334661Y-69674619D01*
X176673328Y-68658619D02*
X176334661Y-69190809D01*
X175995995Y-68658619D01*
X175657328Y-69577857D02*
X175608947Y-69626238D01*
X175657328Y-69674619D01*
X175705709Y-69626238D01*
X175657328Y-69577857D01*
X175657328Y-69674619D01*
X175657328Y-69045666D02*
X175608947Y-69094047D01*
X175657328Y-69142428D01*
X175705709Y-69094047D01*
X175657328Y-69045666D01*
X175657328Y-69142428D01*
X174399423Y-69674619D02*
X174399423Y-68658619D01*
X174060757Y-69384333D01*
X173722090Y-68658619D01*
X173722090Y-69674619D01*
X173044757Y-68658619D02*
X172851233Y-68658619D01*
X172754471Y-68707000D01*
X172657709Y-68803761D01*
X172609328Y-68997285D01*
X172609328Y-69335952D01*
X172657709Y-69529476D01*
X172754471Y-69626238D01*
X172851233Y-69674619D01*
X173044757Y-69674619D01*
X173141519Y-69626238D01*
X173238280Y-69529476D01*
X173286661Y-69335952D01*
X173286661Y-68997285D01*
X173238280Y-68803761D01*
X173141519Y-68707000D01*
X173044757Y-68658619D01*
X172319042Y-68658619D02*
X171980376Y-69674619D01*
X171641709Y-68658619D01*
X170625709Y-68658619D02*
X169948376Y-69674619D01*
X169948376Y-68658619D02*
X170625709Y-69674619D01*
X168787233Y-69287571D02*
X168013138Y-69287571D01*
X168206661Y-69481095D02*
X168013138Y-69287571D01*
X168206661Y-69094047D01*
X166561709Y-69190809D02*
X166561709Y-69674619D01*
X166900376Y-68658619D02*
X166561709Y-69190809D01*
X166223042Y-68658619D01*
X182914471Y-70436619D02*
X182817709Y-70436619D01*
X182720947Y-70485000D01*
X182672566Y-70533380D01*
X182624185Y-70630142D01*
X182575804Y-70823666D01*
X182575804Y-71065571D01*
X182624185Y-71259095D01*
X182672566Y-71355857D01*
X182720947Y-71404238D01*
X182817709Y-71452619D01*
X182914471Y-71452619D01*
X183011233Y-71404238D01*
X183059614Y-71355857D01*
X183107995Y-71259095D01*
X183156376Y-71065571D01*
X183156376Y-70823666D01*
X183107995Y-70630142D01*
X183059614Y-70533380D01*
X183011233Y-70485000D01*
X182914471Y-70436619D01*
X181608185Y-71452619D02*
X182188757Y-71452619D01*
X181898471Y-71452619D02*
X181898471Y-70436619D01*
X181995233Y-70581761D01*
X182091995Y-70678523D01*
X182188757Y-70726904D01*
X181269519Y-70436619D02*
X180592185Y-71452619D01*
X180592185Y-70436619D02*
X181269519Y-71452619D01*
X180301900Y-70436619D02*
X179624566Y-71452619D01*
X179624566Y-70436619D02*
X180301900Y-71452619D01*
X179334280Y-70436619D02*
X178656947Y-71452619D01*
X178656947Y-70436619D02*
X179334280Y-71452619D01*
X178076376Y-70968809D02*
X178076376Y-71452619D01*
X178415042Y-70436619D02*
X178076376Y-70968809D01*
X177737709Y-70436619D01*
X177205519Y-70968809D02*
X177205519Y-71452619D01*
X177544185Y-70436619D02*
X177205519Y-70968809D01*
X176866852Y-70436619D01*
X176334661Y-70968809D02*
X176334661Y-71452619D01*
X176673328Y-70436619D02*
X176334661Y-70968809D01*
X175995995Y-70436619D01*
X175657328Y-71355857D02*
X175608947Y-71404238D01*
X175657328Y-71452619D01*
X175705709Y-71404238D01*
X175657328Y-71355857D01*
X175657328Y-71452619D01*
X175657328Y-70823666D02*
X175608947Y-70872047D01*
X175657328Y-70920428D01*
X175705709Y-70872047D01*
X175657328Y-70823666D01*
X175657328Y-70920428D01*
X173915614Y-71452619D02*
X174399423Y-71452619D01*
X174399423Y-70436619D01*
X173383423Y-70436619D02*
X173189900Y-70436619D01*
X173093138Y-70485000D01*
X172996376Y-70581761D01*
X172947995Y-70775285D01*
X172947995Y-71113952D01*
X172996376Y-71307476D01*
X173093138Y-71404238D01*
X173189900Y-71452619D01*
X173383423Y-71452619D01*
X173480185Y-71404238D01*
X173576947Y-71307476D01*
X173625328Y-71113952D01*
X173625328Y-70775285D01*
X173576947Y-70581761D01*
X173480185Y-70485000D01*
X173383423Y-70436619D01*
X172512566Y-71452619D02*
X172512566Y-70436619D01*
X172270661Y-70436619D01*
X172125519Y-70485000D01*
X172028757Y-70581761D01*
X171980376Y-70678523D01*
X171931995Y-70872047D01*
X171931995Y-71017190D01*
X171980376Y-71210714D01*
X172028757Y-71307476D01*
X172125519Y-71404238D01*
X172270661Y-71452619D01*
X172512566Y-71452619D01*
X170432185Y-71791285D02*
X170674090Y-71791285D01*
X170674090Y-70339857D01*
X170432185Y-70339857D01*
X169851614Y-70968809D02*
X169851614Y-71452619D01*
X170190280Y-70436619D02*
X169851614Y-70968809D01*
X169512947Y-70436619D01*
X169271042Y-71791285D02*
X169029138Y-71791285D01*
X169029138Y-70339857D01*
X169271042Y-70339857D01*
X167722852Y-71065571D02*
X166948757Y-71065571D01*
X167142280Y-71259095D02*
X166948757Y-71065571D01*
X167142280Y-70872047D01*
X165787614Y-70436619D02*
X165110280Y-71452619D01*
X165110280Y-70436619D02*
X165787614Y-71452619D01*
X182575804Y-73230619D02*
X183156376Y-73230619D01*
X182866090Y-73230619D02*
X182866090Y-72214619D01*
X182962852Y-72359761D01*
X183059614Y-72456523D01*
X183156376Y-72504904D01*
X181946852Y-72214619D02*
X181850090Y-72214619D01*
X181753328Y-72263000D01*
X181704947Y-72311380D01*
X181656566Y-72408142D01*
X181608185Y-72601666D01*
X181608185Y-72843571D01*
X181656566Y-73037095D01*
X181704947Y-73133857D01*
X181753328Y-73182238D01*
X181850090Y-73230619D01*
X181946852Y-73230619D01*
X182043614Y-73182238D01*
X182091995Y-73133857D01*
X182140376Y-73037095D01*
X182188757Y-72843571D01*
X182188757Y-72601666D01*
X182140376Y-72408142D01*
X182091995Y-72311380D01*
X182043614Y-72263000D01*
X181946852Y-72214619D01*
X181269519Y-72214619D02*
X180592185Y-73230619D01*
X180592185Y-72214619D02*
X181269519Y-73230619D01*
X180301900Y-72214619D02*
X179624566Y-73230619D01*
X179624566Y-72214619D02*
X180301900Y-73230619D01*
X179334280Y-72214619D02*
X178656947Y-73230619D01*
X178656947Y-72214619D02*
X179334280Y-73230619D01*
X178076376Y-72746809D02*
X178076376Y-73230619D01*
X178415042Y-72214619D02*
X178076376Y-72746809D01*
X177737709Y-72214619D01*
X177205519Y-72746809D02*
X177205519Y-73230619D01*
X177544185Y-72214619D02*
X177205519Y-72746809D01*
X176866852Y-72214619D01*
X176334661Y-72746809D02*
X176334661Y-73230619D01*
X176673328Y-72214619D02*
X176334661Y-72746809D01*
X175995995Y-72214619D01*
X175657328Y-73133857D02*
X175608947Y-73182238D01*
X175657328Y-73230619D01*
X175705709Y-73182238D01*
X175657328Y-73133857D01*
X175657328Y-73230619D01*
X175657328Y-72601666D02*
X175608947Y-72650047D01*
X175657328Y-72698428D01*
X175705709Y-72650047D01*
X175657328Y-72601666D01*
X175657328Y-72698428D01*
X174447804Y-73182238D02*
X174302661Y-73230619D01*
X174060757Y-73230619D01*
X173963995Y-73182238D01*
X173915614Y-73133857D01*
X173867233Y-73037095D01*
X173867233Y-72940333D01*
X173915614Y-72843571D01*
X173963995Y-72795190D01*
X174060757Y-72746809D01*
X174254280Y-72698428D01*
X174351042Y-72650047D01*
X174399423Y-72601666D01*
X174447804Y-72504904D01*
X174447804Y-72408142D01*
X174399423Y-72311380D01*
X174351042Y-72263000D01*
X174254280Y-72214619D01*
X174012376Y-72214619D01*
X173867233Y-72263000D01*
X173576947Y-72214619D02*
X172996376Y-72214619D01*
X173286661Y-73230619D02*
X173286661Y-72214619D01*
X172464185Y-72214619D02*
X172270661Y-72214619D01*
X172173900Y-72263000D01*
X172077138Y-72359761D01*
X172028757Y-72553285D01*
X172028757Y-72891952D01*
X172077138Y-73085476D01*
X172173900Y-73182238D01*
X172270661Y-73230619D01*
X172464185Y-73230619D01*
X172560947Y-73182238D01*
X172657709Y-73085476D01*
X172706090Y-72891952D01*
X172706090Y-72553285D01*
X172657709Y-72359761D01*
X172560947Y-72263000D01*
X172464185Y-72214619D01*
X170915995Y-72214619D02*
X170238661Y-73230619D01*
X170238661Y-72214619D02*
X170915995Y-73230619D01*
X169077519Y-72843571D02*
X168303423Y-72843571D01*
X168496947Y-73037095D02*
X168303423Y-72843571D01*
X168496947Y-72650047D01*
X166755233Y-73569285D02*
X166997138Y-73569285D01*
X166997138Y-72117857D01*
X166755233Y-72117857D01*
X166174661Y-72746809D02*
X166174661Y-73230619D01*
X166513328Y-72214619D02*
X166174661Y-72746809D01*
X165835995Y-72214619D01*
X165594090Y-73569285D02*
X165352185Y-73569285D01*
X165352185Y-72117857D01*
X165594090Y-72117857D01*
X182575804Y-75008619D02*
X183156376Y-75008619D01*
X182866090Y-75008619D02*
X182866090Y-73992619D01*
X182962852Y-74137761D01*
X183059614Y-74234523D01*
X183156376Y-74282904D01*
X181608185Y-75008619D02*
X182188757Y-75008619D01*
X181898471Y-75008619D02*
X181898471Y-73992619D01*
X181995233Y-74137761D01*
X182091995Y-74234523D01*
X182188757Y-74282904D01*
X180688947Y-75008619D02*
X181221138Y-75008619D01*
X180882471Y-74476428D01*
X181221138Y-73992619D01*
X180688947Y-73992619D01*
X179769709Y-75008619D02*
X180301900Y-75008619D01*
X179963233Y-74476428D01*
X180301900Y-73992619D01*
X179769709Y-73992619D01*
X178850471Y-75008619D02*
X179382661Y-75008619D01*
X179043995Y-74476428D01*
X179382661Y-73992619D01*
X178850471Y-73992619D01*
X177931233Y-75008619D02*
X178463423Y-75008619D01*
X178124757Y-74476428D01*
X178463423Y-73992619D01*
X177931233Y-73992619D01*
X177592566Y-73992619D02*
X176915233Y-75008619D01*
X176915233Y-73992619D02*
X177592566Y-75008619D01*
X176624947Y-73992619D02*
X175947614Y-75008619D01*
X175947614Y-73992619D02*
X176624947Y-75008619D01*
X175560566Y-74911857D02*
X175512185Y-74960238D01*
X175560566Y-75008619D01*
X175608947Y-74960238D01*
X175560566Y-74911857D01*
X175560566Y-75008619D01*
X175560566Y-74379666D02*
X175512185Y-74428047D01*
X175560566Y-74476428D01*
X175608947Y-74428047D01*
X175560566Y-74379666D01*
X175560566Y-74476428D01*
X174351042Y-74718333D02*
X173867233Y-74718333D01*
X174447804Y-75008619D02*
X174109138Y-73992619D01*
X173770471Y-75008619D01*
X172947995Y-75008619D02*
X173431804Y-75008619D01*
X173431804Y-73992619D01*
X172609328Y-73992619D02*
X172609328Y-74815095D01*
X172560947Y-74911857D01*
X172512566Y-74960238D01*
X172415804Y-75008619D01*
X172222280Y-75008619D01*
X172125519Y-74960238D01*
X172077138Y-74911857D01*
X172028757Y-74815095D01*
X172028757Y-73992619D01*
X171254661Y-75395666D02*
X171303042Y-75347285D01*
X171399804Y-75202142D01*
X171448185Y-75105380D01*
X171496566Y-74960238D01*
X171544947Y-74718333D01*
X171544947Y-74524809D01*
X171496566Y-74282904D01*
X171448185Y-74137761D01*
X171399804Y-74041000D01*
X171303042Y-73895857D01*
X171254661Y-73847476D01*
X170964376Y-73992619D02*
X170287042Y-75008619D01*
X170287042Y-73992619D02*
X170964376Y-75008619D01*
X169996757Y-75395666D02*
X169948376Y-75347285D01*
X169851614Y-75202142D01*
X169803233Y-75105380D01*
X169754852Y-74960238D01*
X169706471Y-74718333D01*
X169706471Y-74524809D01*
X169754852Y-74282904D01*
X169803233Y-74137761D01*
X169851614Y-74041000D01*
X169948376Y-73895857D01*
X169996757Y-73847476D01*
X168448566Y-74621571D02*
X167674471Y-74621571D01*
X167867995Y-74815095D02*
X167674471Y-74621571D01*
X167867995Y-74428047D01*
X166513328Y-73992619D02*
X165835995Y-75008619D01*
X165835995Y-73992619D02*
X166513328Y-75008619D01*
X182914471Y-77548619D02*
X182817709Y-77548619D01*
X182720947Y-77597000D01*
X182672566Y-77645380D01*
X182624185Y-77742142D01*
X182575804Y-77935666D01*
X182575804Y-78177571D01*
X182624185Y-78371095D01*
X182672566Y-78467857D01*
X182720947Y-78516238D01*
X182817709Y-78564619D01*
X182914471Y-78564619D01*
X183011233Y-78516238D01*
X183059614Y-78467857D01*
X183107995Y-78371095D01*
X183156376Y-78177571D01*
X183156376Y-77935666D01*
X183107995Y-77742142D01*
X183059614Y-77645380D01*
X183011233Y-77597000D01*
X182914471Y-77548619D01*
X181946852Y-77548619D02*
X181850090Y-77548619D01*
X181753328Y-77597000D01*
X181704947Y-77645380D01*
X181656566Y-77742142D01*
X181608185Y-77935666D01*
X181608185Y-78177571D01*
X181656566Y-78371095D01*
X181704947Y-78467857D01*
X181753328Y-78516238D01*
X181850090Y-78564619D01*
X181946852Y-78564619D01*
X182043614Y-78516238D01*
X182091995Y-78467857D01*
X182140376Y-78371095D01*
X182188757Y-78177571D01*
X182188757Y-77935666D01*
X182140376Y-77742142D01*
X182091995Y-77645380D01*
X182043614Y-77597000D01*
X181946852Y-77548619D01*
X180640566Y-78564619D02*
X181221138Y-78564619D01*
X180930852Y-78564619D02*
X180930852Y-77548619D01*
X181027614Y-77693761D01*
X181124376Y-77790523D01*
X181221138Y-77838904D01*
X180011614Y-77548619D02*
X179914852Y-77548619D01*
X179818090Y-77597000D01*
X179769709Y-77645380D01*
X179721328Y-77742142D01*
X179672947Y-77935666D01*
X179672947Y-78177571D01*
X179721328Y-78371095D01*
X179769709Y-78467857D01*
X179818090Y-78516238D01*
X179914852Y-78564619D01*
X180011614Y-78564619D01*
X180108376Y-78516238D01*
X180156757Y-78467857D01*
X180205138Y-78371095D01*
X180253519Y-78177571D01*
X180253519Y-77935666D01*
X180205138Y-77742142D01*
X180156757Y-77645380D01*
X180108376Y-77597000D01*
X180011614Y-77548619D01*
X178705328Y-78564619D02*
X179285900Y-78564619D01*
X178995614Y-78564619D02*
X178995614Y-77548619D01*
X179092376Y-77693761D01*
X179189138Y-77790523D01*
X179285900Y-77838904D01*
X177737709Y-78564619D02*
X178318280Y-78564619D01*
X178027995Y-78564619D02*
X178027995Y-77548619D01*
X178124757Y-77693761D01*
X178221519Y-77790523D01*
X178318280Y-77838904D01*
X176770090Y-78564619D02*
X177350661Y-78564619D01*
X177060376Y-78564619D02*
X177060376Y-77548619D01*
X177157138Y-77693761D01*
X177253900Y-77790523D01*
X177350661Y-77838904D01*
X175802471Y-78564619D02*
X176383042Y-78564619D01*
X176092757Y-78564619D02*
X176092757Y-77548619D01*
X176189519Y-77693761D01*
X176286280Y-77790523D01*
X176383042Y-77838904D01*
X175367042Y-78467857D02*
X175318661Y-78516238D01*
X175367042Y-78564619D01*
X175415423Y-78516238D01*
X175367042Y-78467857D01*
X175367042Y-78564619D01*
X175367042Y-77935666D02*
X175318661Y-77984047D01*
X175367042Y-78032428D01*
X175415423Y-77984047D01*
X175367042Y-77935666D01*
X175367042Y-78032428D01*
X173818852Y-77548619D02*
X173818852Y-78274333D01*
X173867233Y-78419476D01*
X173963995Y-78516238D01*
X174109138Y-78564619D01*
X174205900Y-78564619D01*
X173335042Y-78564619D02*
X173335042Y-77548619D01*
X172996376Y-78274333D01*
X172657709Y-77548619D01*
X172657709Y-78564619D01*
X172173900Y-78564619D02*
X172173900Y-77548619D01*
X171786852Y-77548619D01*
X171690090Y-77597000D01*
X171641709Y-77645380D01*
X171593328Y-77742142D01*
X171593328Y-77887285D01*
X171641709Y-77984047D01*
X171690090Y-78032428D01*
X171786852Y-78080809D01*
X172173900Y-78080809D01*
X182914471Y-79326619D02*
X182817709Y-79326619D01*
X182720947Y-79375000D01*
X182672566Y-79423380D01*
X182624185Y-79520142D01*
X182575804Y-79713666D01*
X182575804Y-79955571D01*
X182624185Y-80149095D01*
X182672566Y-80245857D01*
X182720947Y-80294238D01*
X182817709Y-80342619D01*
X182914471Y-80342619D01*
X183011233Y-80294238D01*
X183059614Y-80245857D01*
X183107995Y-80149095D01*
X183156376Y-79955571D01*
X183156376Y-79713666D01*
X183107995Y-79520142D01*
X183059614Y-79423380D01*
X183011233Y-79375000D01*
X182914471Y-79326619D01*
X181946852Y-79326619D02*
X181850090Y-79326619D01*
X181753328Y-79375000D01*
X181704947Y-79423380D01*
X181656566Y-79520142D01*
X181608185Y-79713666D01*
X181608185Y-79955571D01*
X181656566Y-80149095D01*
X181704947Y-80245857D01*
X181753328Y-80294238D01*
X181850090Y-80342619D01*
X181946852Y-80342619D01*
X182043614Y-80294238D01*
X182091995Y-80245857D01*
X182140376Y-80149095D01*
X182188757Y-79955571D01*
X182188757Y-79713666D01*
X182140376Y-79520142D01*
X182091995Y-79423380D01*
X182043614Y-79375000D01*
X181946852Y-79326619D01*
X180640566Y-80342619D02*
X181221138Y-80342619D01*
X180930852Y-80342619D02*
X180930852Y-79326619D01*
X181027614Y-79471761D01*
X181124376Y-79568523D01*
X181221138Y-79616904D01*
X179672947Y-80342619D02*
X180253519Y-80342619D01*
X179963233Y-80342619D02*
X179963233Y-79326619D01*
X180059995Y-79471761D01*
X180156757Y-79568523D01*
X180253519Y-79616904D01*
X178705328Y-80342619D02*
X179285900Y-80342619D01*
X178995614Y-80342619D02*
X178995614Y-79326619D01*
X179092376Y-79471761D01*
X179189138Y-79568523D01*
X179285900Y-79616904D01*
X178076376Y-79326619D02*
X177979614Y-79326619D01*
X177882852Y-79375000D01*
X177834471Y-79423380D01*
X177786090Y-79520142D01*
X177737709Y-79713666D01*
X177737709Y-79955571D01*
X177786090Y-80149095D01*
X177834471Y-80245857D01*
X177882852Y-80294238D01*
X177979614Y-80342619D01*
X178076376Y-80342619D01*
X178173138Y-80294238D01*
X178221519Y-80245857D01*
X178269900Y-80149095D01*
X178318280Y-79955571D01*
X178318280Y-79713666D01*
X178269900Y-79520142D01*
X178221519Y-79423380D01*
X178173138Y-79375000D01*
X178076376Y-79326619D01*
X177108757Y-79326619D02*
X177011995Y-79326619D01*
X176915233Y-79375000D01*
X176866852Y-79423380D01*
X176818471Y-79520142D01*
X176770090Y-79713666D01*
X176770090Y-79955571D01*
X176818471Y-80149095D01*
X176866852Y-80245857D01*
X176915233Y-80294238D01*
X177011995Y-80342619D01*
X177108757Y-80342619D01*
X177205519Y-80294238D01*
X177253900Y-80245857D01*
X177302280Y-80149095D01*
X177350661Y-79955571D01*
X177350661Y-79713666D01*
X177302280Y-79520142D01*
X177253900Y-79423380D01*
X177205519Y-79375000D01*
X177108757Y-79326619D01*
X176141138Y-79326619D02*
X176044376Y-79326619D01*
X175947614Y-79375000D01*
X175899233Y-79423380D01*
X175850852Y-79520142D01*
X175802471Y-79713666D01*
X175802471Y-79955571D01*
X175850852Y-80149095D01*
X175899233Y-80245857D01*
X175947614Y-80294238D01*
X176044376Y-80342619D01*
X176141138Y-80342619D01*
X176237900Y-80294238D01*
X176286280Y-80245857D01*
X176334661Y-80149095D01*
X176383042Y-79955571D01*
X176383042Y-79713666D01*
X176334661Y-79520142D01*
X176286280Y-79423380D01*
X176237900Y-79375000D01*
X176141138Y-79326619D01*
X175367042Y-80245857D02*
X175318661Y-80294238D01*
X175367042Y-80342619D01*
X175415423Y-80294238D01*
X175367042Y-80245857D01*
X175367042Y-80342619D01*
X175367042Y-79713666D02*
X175318661Y-79762047D01*
X175367042Y-79810428D01*
X175415423Y-79762047D01*
X175367042Y-79713666D01*
X175367042Y-79810428D01*
X173818852Y-79326619D02*
X173818852Y-80052333D01*
X173867233Y-80197476D01*
X173963995Y-80294238D01*
X174109138Y-80342619D01*
X174205900Y-80342619D01*
X172754471Y-80245857D02*
X172802852Y-80294238D01*
X172947995Y-80342619D01*
X173044757Y-80342619D01*
X173189900Y-80294238D01*
X173286661Y-80197476D01*
X173335042Y-80100714D01*
X173383423Y-79907190D01*
X173383423Y-79762047D01*
X173335042Y-79568523D01*
X173286661Y-79471761D01*
X173189900Y-79375000D01*
X173044757Y-79326619D01*
X172947995Y-79326619D01*
X172802852Y-79375000D01*
X172754471Y-79423380D01*
X182914471Y-81104619D02*
X182817709Y-81104619D01*
X182720947Y-81153000D01*
X182672566Y-81201380D01*
X182624185Y-81298142D01*
X182575804Y-81491666D01*
X182575804Y-81733571D01*
X182624185Y-81927095D01*
X182672566Y-82023857D01*
X182720947Y-82072238D01*
X182817709Y-82120619D01*
X182914471Y-82120619D01*
X183011233Y-82072238D01*
X183059614Y-82023857D01*
X183107995Y-81927095D01*
X183156376Y-81733571D01*
X183156376Y-81491666D01*
X183107995Y-81298142D01*
X183059614Y-81201380D01*
X183011233Y-81153000D01*
X182914471Y-81104619D01*
X181946852Y-81104619D02*
X181850090Y-81104619D01*
X181753328Y-81153000D01*
X181704947Y-81201380D01*
X181656566Y-81298142D01*
X181608185Y-81491666D01*
X181608185Y-81733571D01*
X181656566Y-81927095D01*
X181704947Y-82023857D01*
X181753328Y-82072238D01*
X181850090Y-82120619D01*
X181946852Y-82120619D01*
X182043614Y-82072238D01*
X182091995Y-82023857D01*
X182140376Y-81927095D01*
X182188757Y-81733571D01*
X182188757Y-81491666D01*
X182140376Y-81298142D01*
X182091995Y-81201380D01*
X182043614Y-81153000D01*
X181946852Y-81104619D01*
X180640566Y-82120619D02*
X181221138Y-82120619D01*
X180930852Y-82120619D02*
X180930852Y-81104619D01*
X181027614Y-81249761D01*
X181124376Y-81346523D01*
X181221138Y-81394904D01*
X179672947Y-82120619D02*
X180253519Y-82120619D01*
X179963233Y-82120619D02*
X179963233Y-81104619D01*
X180059995Y-81249761D01*
X180156757Y-81346523D01*
X180253519Y-81394904D01*
X178705328Y-82120619D02*
X179285900Y-82120619D01*
X178995614Y-82120619D02*
X178995614Y-81104619D01*
X179092376Y-81249761D01*
X179189138Y-81346523D01*
X179285900Y-81394904D01*
X178076376Y-81104619D02*
X177979614Y-81104619D01*
X177882852Y-81153000D01*
X177834471Y-81201380D01*
X177786090Y-81298142D01*
X177737709Y-81491666D01*
X177737709Y-81733571D01*
X177786090Y-81927095D01*
X177834471Y-82023857D01*
X177882852Y-82072238D01*
X177979614Y-82120619D01*
X178076376Y-82120619D01*
X178173138Y-82072238D01*
X178221519Y-82023857D01*
X178269900Y-81927095D01*
X178318280Y-81733571D01*
X178318280Y-81491666D01*
X178269900Y-81298142D01*
X178221519Y-81201380D01*
X178173138Y-81153000D01*
X178076376Y-81104619D01*
X177108757Y-81104619D02*
X177011995Y-81104619D01*
X176915233Y-81153000D01*
X176866852Y-81201380D01*
X176818471Y-81298142D01*
X176770090Y-81491666D01*
X176770090Y-81733571D01*
X176818471Y-81927095D01*
X176866852Y-82023857D01*
X176915233Y-82072238D01*
X177011995Y-82120619D01*
X177108757Y-82120619D01*
X177205519Y-82072238D01*
X177253900Y-82023857D01*
X177302280Y-81927095D01*
X177350661Y-81733571D01*
X177350661Y-81491666D01*
X177302280Y-81298142D01*
X177253900Y-81201380D01*
X177205519Y-81153000D01*
X177108757Y-81104619D01*
X175802471Y-82120619D02*
X176383042Y-82120619D01*
X176092757Y-82120619D02*
X176092757Y-81104619D01*
X176189519Y-81249761D01*
X176286280Y-81346523D01*
X176383042Y-81394904D01*
X175367042Y-82023857D02*
X175318661Y-82072238D01*
X175367042Y-82120619D01*
X175415423Y-82072238D01*
X175367042Y-82023857D01*
X175367042Y-82120619D01*
X175367042Y-81491666D02*
X175318661Y-81540047D01*
X175367042Y-81588428D01*
X175415423Y-81540047D01*
X175367042Y-81491666D01*
X175367042Y-81588428D01*
X173818852Y-81104619D02*
X173818852Y-81830333D01*
X173867233Y-81975476D01*
X173963995Y-82072238D01*
X174109138Y-82120619D01*
X174205900Y-82120619D01*
X173431804Y-81104619D02*
X172754471Y-81104619D01*
X173431804Y-82120619D01*
X172754471Y-82120619D01*
X182914471Y-82882619D02*
X182817709Y-82882619D01*
X182720947Y-82931000D01*
X182672566Y-82979380D01*
X182624185Y-83076142D01*
X182575804Y-83269666D01*
X182575804Y-83511571D01*
X182624185Y-83705095D01*
X182672566Y-83801857D01*
X182720947Y-83850238D01*
X182817709Y-83898619D01*
X182914471Y-83898619D01*
X183011233Y-83850238D01*
X183059614Y-83801857D01*
X183107995Y-83705095D01*
X183156376Y-83511571D01*
X183156376Y-83269666D01*
X183107995Y-83076142D01*
X183059614Y-82979380D01*
X183011233Y-82931000D01*
X182914471Y-82882619D01*
X181946852Y-82882619D02*
X181850090Y-82882619D01*
X181753328Y-82931000D01*
X181704947Y-82979380D01*
X181656566Y-83076142D01*
X181608185Y-83269666D01*
X181608185Y-83511571D01*
X181656566Y-83705095D01*
X181704947Y-83801857D01*
X181753328Y-83850238D01*
X181850090Y-83898619D01*
X181946852Y-83898619D01*
X182043614Y-83850238D01*
X182091995Y-83801857D01*
X182140376Y-83705095D01*
X182188757Y-83511571D01*
X182188757Y-83269666D01*
X182140376Y-83076142D01*
X182091995Y-82979380D01*
X182043614Y-82931000D01*
X181946852Y-82882619D01*
X180640566Y-83898619D02*
X181221138Y-83898619D01*
X180930852Y-83898619D02*
X180930852Y-82882619D01*
X181027614Y-83027761D01*
X181124376Y-83124523D01*
X181221138Y-83172904D01*
X179672947Y-83898619D02*
X180253519Y-83898619D01*
X179963233Y-83898619D02*
X179963233Y-82882619D01*
X180059995Y-83027761D01*
X180156757Y-83124523D01*
X180253519Y-83172904D01*
X178705328Y-83898619D02*
X179285900Y-83898619D01*
X178995614Y-83898619D02*
X178995614Y-82882619D01*
X179092376Y-83027761D01*
X179189138Y-83124523D01*
X179285900Y-83172904D01*
X178076376Y-82882619D02*
X177979614Y-82882619D01*
X177882852Y-82931000D01*
X177834471Y-82979380D01*
X177786090Y-83076142D01*
X177737709Y-83269666D01*
X177737709Y-83511571D01*
X177786090Y-83705095D01*
X177834471Y-83801857D01*
X177882852Y-83850238D01*
X177979614Y-83898619D01*
X178076376Y-83898619D01*
X178173138Y-83850238D01*
X178221519Y-83801857D01*
X178269900Y-83705095D01*
X178318280Y-83511571D01*
X178318280Y-83269666D01*
X178269900Y-83076142D01*
X178221519Y-82979380D01*
X178173138Y-82931000D01*
X178076376Y-82882619D01*
X176770090Y-83898619D02*
X177350661Y-83898619D01*
X177060376Y-83898619D02*
X177060376Y-82882619D01*
X177157138Y-83027761D01*
X177253900Y-83124523D01*
X177350661Y-83172904D01*
X176141138Y-82882619D02*
X176044376Y-82882619D01*
X175947614Y-82931000D01*
X175899233Y-82979380D01*
X175850852Y-83076142D01*
X175802471Y-83269666D01*
X175802471Y-83511571D01*
X175850852Y-83705095D01*
X175899233Y-83801857D01*
X175947614Y-83850238D01*
X176044376Y-83898619D01*
X176141138Y-83898619D01*
X176237900Y-83850238D01*
X176286280Y-83801857D01*
X176334661Y-83705095D01*
X176383042Y-83511571D01*
X176383042Y-83269666D01*
X176334661Y-83076142D01*
X176286280Y-82979380D01*
X176237900Y-82931000D01*
X176141138Y-82882619D01*
X175367042Y-83801857D02*
X175318661Y-83850238D01*
X175367042Y-83898619D01*
X175415423Y-83850238D01*
X175367042Y-83801857D01*
X175367042Y-83898619D01*
X175367042Y-83269666D02*
X175318661Y-83318047D01*
X175367042Y-83366428D01*
X175415423Y-83318047D01*
X175367042Y-83269666D01*
X175367042Y-83366428D01*
X173818852Y-82882619D02*
X173818852Y-83608333D01*
X173867233Y-83753476D01*
X173963995Y-83850238D01*
X174109138Y-83898619D01*
X174205900Y-83898619D01*
X173335042Y-83898619D02*
X173335042Y-82882619D01*
X172754471Y-83898619D01*
X172754471Y-82882619D01*
X182914471Y-84660619D02*
X182817709Y-84660619D01*
X182720947Y-84709000D01*
X182672566Y-84757380D01*
X182624185Y-84854142D01*
X182575804Y-85047666D01*
X182575804Y-85289571D01*
X182624185Y-85483095D01*
X182672566Y-85579857D01*
X182720947Y-85628238D01*
X182817709Y-85676619D01*
X182914471Y-85676619D01*
X183011233Y-85628238D01*
X183059614Y-85579857D01*
X183107995Y-85483095D01*
X183156376Y-85289571D01*
X183156376Y-85047666D01*
X183107995Y-84854142D01*
X183059614Y-84757380D01*
X183011233Y-84709000D01*
X182914471Y-84660619D01*
X181946852Y-84660619D02*
X181850090Y-84660619D01*
X181753328Y-84709000D01*
X181704947Y-84757380D01*
X181656566Y-84854142D01*
X181608185Y-85047666D01*
X181608185Y-85289571D01*
X181656566Y-85483095D01*
X181704947Y-85579857D01*
X181753328Y-85628238D01*
X181850090Y-85676619D01*
X181946852Y-85676619D01*
X182043614Y-85628238D01*
X182091995Y-85579857D01*
X182140376Y-85483095D01*
X182188757Y-85289571D01*
X182188757Y-85047666D01*
X182140376Y-84854142D01*
X182091995Y-84757380D01*
X182043614Y-84709000D01*
X181946852Y-84660619D01*
X180640566Y-85676619D02*
X181221138Y-85676619D01*
X180930852Y-85676619D02*
X180930852Y-84660619D01*
X181027614Y-84805761D01*
X181124376Y-84902523D01*
X181221138Y-84950904D01*
X179672947Y-85676619D02*
X180253519Y-85676619D01*
X179963233Y-85676619D02*
X179963233Y-84660619D01*
X180059995Y-84805761D01*
X180156757Y-84902523D01*
X180253519Y-84950904D01*
X178705328Y-85676619D02*
X179285900Y-85676619D01*
X178995614Y-85676619D02*
X178995614Y-84660619D01*
X179092376Y-84805761D01*
X179189138Y-84902523D01*
X179285900Y-84950904D01*
X177737709Y-85676619D02*
X178318280Y-85676619D01*
X178027995Y-85676619D02*
X178027995Y-84660619D01*
X178124757Y-84805761D01*
X178221519Y-84902523D01*
X178318280Y-84950904D01*
X177108757Y-84660619D02*
X177011995Y-84660619D01*
X176915233Y-84709000D01*
X176866852Y-84757380D01*
X176818471Y-84854142D01*
X176770090Y-85047666D01*
X176770090Y-85289571D01*
X176818471Y-85483095D01*
X176866852Y-85579857D01*
X176915233Y-85628238D01*
X177011995Y-85676619D01*
X177108757Y-85676619D01*
X177205519Y-85628238D01*
X177253900Y-85579857D01*
X177302280Y-85483095D01*
X177350661Y-85289571D01*
X177350661Y-85047666D01*
X177302280Y-84854142D01*
X177253900Y-84757380D01*
X177205519Y-84709000D01*
X177108757Y-84660619D01*
X176141138Y-84660619D02*
X176044376Y-84660619D01*
X175947614Y-84709000D01*
X175899233Y-84757380D01*
X175850852Y-84854142D01*
X175802471Y-85047666D01*
X175802471Y-85289571D01*
X175850852Y-85483095D01*
X175899233Y-85579857D01*
X175947614Y-85628238D01*
X176044376Y-85676619D01*
X176141138Y-85676619D01*
X176237900Y-85628238D01*
X176286280Y-85579857D01*
X176334661Y-85483095D01*
X176383042Y-85289571D01*
X176383042Y-85047666D01*
X176334661Y-84854142D01*
X176286280Y-84757380D01*
X176237900Y-84709000D01*
X176141138Y-84660619D01*
X175367042Y-85579857D02*
X175318661Y-85628238D01*
X175367042Y-85676619D01*
X175415423Y-85628238D01*
X175367042Y-85579857D01*
X175367042Y-85676619D01*
X175367042Y-85047666D02*
X175318661Y-85096047D01*
X175367042Y-85144428D01*
X175415423Y-85096047D01*
X175367042Y-85047666D01*
X175367042Y-85144428D01*
X173818852Y-84660619D02*
X173818852Y-85386333D01*
X173867233Y-85531476D01*
X173963995Y-85628238D01*
X174109138Y-85676619D01*
X174205900Y-85676619D01*
X173141519Y-84660619D02*
X172947995Y-84660619D01*
X172851233Y-84709000D01*
X172754471Y-84805761D01*
X172706090Y-84999285D01*
X172706090Y-85337952D01*
X172754471Y-85531476D01*
X172851233Y-85628238D01*
X172947995Y-85676619D01*
X173141519Y-85676619D01*
X173238280Y-85628238D01*
X173335042Y-85531476D01*
X173383423Y-85337952D01*
X173383423Y-84999285D01*
X173335042Y-84805761D01*
X173238280Y-84709000D01*
X173141519Y-84660619D01*
X193957423Y-60784619D02*
X194296090Y-60300809D01*
X194537995Y-60784619D02*
X194537995Y-59768619D01*
X194150947Y-59768619D01*
X194054185Y-59817000D01*
X194005804Y-59865380D01*
X193957423Y-59962142D01*
X193957423Y-60107285D01*
X194005804Y-60204047D01*
X194054185Y-60252428D01*
X194150947Y-60300809D01*
X194537995Y-60300809D01*
X193521995Y-60252428D02*
X193183328Y-60252428D01*
X193038185Y-60784619D02*
X193521995Y-60784619D01*
X193521995Y-59768619D01*
X193038185Y-59768619D01*
X192070566Y-59817000D02*
X192167328Y-59768619D01*
X192312471Y-59768619D01*
X192457614Y-59817000D01*
X192554376Y-59913761D01*
X192602757Y-60010523D01*
X192651138Y-60204047D01*
X192651138Y-60349190D01*
X192602757Y-60542714D01*
X192554376Y-60639476D01*
X192457614Y-60736238D01*
X192312471Y-60784619D01*
X192215709Y-60784619D01*
X192070566Y-60736238D01*
X192022185Y-60687857D01*
X192022185Y-60349190D01*
X192215709Y-60349190D01*
X191586757Y-60784619D02*
X191586757Y-59768619D01*
X191151328Y-60736238D02*
X191006185Y-60784619D01*
X190764280Y-60784619D01*
X190667519Y-60736238D01*
X190619138Y-60687857D01*
X190570757Y-60591095D01*
X190570757Y-60494333D01*
X190619138Y-60397571D01*
X190667519Y-60349190D01*
X190764280Y-60300809D01*
X190957804Y-60252428D01*
X191054566Y-60204047D01*
X191102947Y-60155666D01*
X191151328Y-60058904D01*
X191151328Y-59962142D01*
X191102947Y-59865380D01*
X191054566Y-59817000D01*
X190957804Y-59768619D01*
X190715900Y-59768619D01*
X190570757Y-59817000D01*
X190280471Y-59768619D02*
X189699900Y-59768619D01*
X189990185Y-60784619D02*
X189990185Y-59768619D01*
X189361233Y-60252428D02*
X189022566Y-60252428D01*
X188877423Y-60784619D02*
X189361233Y-60784619D01*
X189361233Y-59768619D01*
X188877423Y-59768619D01*
X187861423Y-60784619D02*
X188200090Y-60300809D01*
X188441995Y-60784619D02*
X188441995Y-59768619D01*
X188054947Y-59768619D01*
X187958185Y-59817000D01*
X187909804Y-59865380D01*
X187861423Y-59962142D01*
X187861423Y-60107285D01*
X187909804Y-60204047D01*
X187958185Y-60252428D01*
X188054947Y-60300809D01*
X188441995Y-60300809D01*
X187474376Y-60736238D02*
X187329233Y-60784619D01*
X187087328Y-60784619D01*
X186990566Y-60736238D01*
X186942185Y-60687857D01*
X186893804Y-60591095D01*
X186893804Y-60494333D01*
X186942185Y-60397571D01*
X186990566Y-60349190D01*
X187087328Y-60300809D01*
X187280852Y-60252428D01*
X187377614Y-60204047D01*
X187425995Y-60155666D01*
X187474376Y-60058904D01*
X187474376Y-59962142D01*
X187425995Y-59865380D01*
X187377614Y-59817000D01*
X187280852Y-59768619D01*
X187038947Y-59768619D01*
X186893804Y-59817000D01*
X186458376Y-60687857D02*
X186409995Y-60736238D01*
X186458376Y-60784619D01*
X186506757Y-60736238D01*
X186458376Y-60687857D01*
X186458376Y-60784619D01*
X186458376Y-60155666D02*
X186409995Y-60204047D01*
X186458376Y-60252428D01*
X186506757Y-60204047D01*
X186458376Y-60155666D01*
X186458376Y-60252428D01*
X194344471Y-63324619D02*
X194247709Y-63324619D01*
X194150947Y-63373000D01*
X194102566Y-63421380D01*
X194054185Y-63518142D01*
X194005804Y-63711666D01*
X194005804Y-63953571D01*
X194054185Y-64147095D01*
X194102566Y-64243857D01*
X194150947Y-64292238D01*
X194247709Y-64340619D01*
X194344471Y-64340619D01*
X194441233Y-64292238D01*
X194489614Y-64243857D01*
X194537995Y-64147095D01*
X194586376Y-63953571D01*
X194586376Y-63711666D01*
X194537995Y-63518142D01*
X194489614Y-63421380D01*
X194441233Y-63373000D01*
X194344471Y-63324619D01*
X193376852Y-63324619D02*
X193280090Y-63324619D01*
X193183328Y-63373000D01*
X193134947Y-63421380D01*
X193086566Y-63518142D01*
X193038185Y-63711666D01*
X193038185Y-63953571D01*
X193086566Y-64147095D01*
X193134947Y-64243857D01*
X193183328Y-64292238D01*
X193280090Y-64340619D01*
X193376852Y-64340619D01*
X193473614Y-64292238D01*
X193521995Y-64243857D01*
X193570376Y-64147095D01*
X193618757Y-63953571D01*
X193618757Y-63711666D01*
X193570376Y-63518142D01*
X193521995Y-63421380D01*
X193473614Y-63373000D01*
X193376852Y-63324619D01*
X192409233Y-63324619D02*
X192312471Y-63324619D01*
X192215709Y-63373000D01*
X192167328Y-63421380D01*
X192118947Y-63518142D01*
X192070566Y-63711666D01*
X192070566Y-63953571D01*
X192118947Y-64147095D01*
X192167328Y-64243857D01*
X192215709Y-64292238D01*
X192312471Y-64340619D01*
X192409233Y-64340619D01*
X192505995Y-64292238D01*
X192554376Y-64243857D01*
X192602757Y-64147095D01*
X192651138Y-63953571D01*
X192651138Y-63711666D01*
X192602757Y-63518142D01*
X192554376Y-63421380D01*
X192505995Y-63373000D01*
X192409233Y-63324619D01*
X191635138Y-64243857D02*
X191586757Y-64292238D01*
X191635138Y-64340619D01*
X191683519Y-64292238D01*
X191635138Y-64243857D01*
X191635138Y-64340619D01*
X191635138Y-63711666D02*
X191586757Y-63760047D01*
X191635138Y-63808428D01*
X191683519Y-63760047D01*
X191635138Y-63711666D01*
X191635138Y-63808428D01*
X190425614Y-64050333D02*
X189941804Y-64050333D01*
X190522376Y-64340619D02*
X190183709Y-63324619D01*
X189845042Y-64340619D01*
X194344471Y-65102619D02*
X194247709Y-65102619D01*
X194150947Y-65151000D01*
X194102566Y-65199380D01*
X194054185Y-65296142D01*
X194005804Y-65489666D01*
X194005804Y-65731571D01*
X194054185Y-65925095D01*
X194102566Y-66021857D01*
X194150947Y-66070238D01*
X194247709Y-66118619D01*
X194344471Y-66118619D01*
X194441233Y-66070238D01*
X194489614Y-66021857D01*
X194537995Y-65925095D01*
X194586376Y-65731571D01*
X194586376Y-65489666D01*
X194537995Y-65296142D01*
X194489614Y-65199380D01*
X194441233Y-65151000D01*
X194344471Y-65102619D01*
X193376852Y-65102619D02*
X193280090Y-65102619D01*
X193183328Y-65151000D01*
X193134947Y-65199380D01*
X193086566Y-65296142D01*
X193038185Y-65489666D01*
X193038185Y-65731571D01*
X193086566Y-65925095D01*
X193134947Y-66021857D01*
X193183328Y-66070238D01*
X193280090Y-66118619D01*
X193376852Y-66118619D01*
X193473614Y-66070238D01*
X193521995Y-66021857D01*
X193570376Y-65925095D01*
X193618757Y-65731571D01*
X193618757Y-65489666D01*
X193570376Y-65296142D01*
X193521995Y-65199380D01*
X193473614Y-65151000D01*
X193376852Y-65102619D01*
X192070566Y-66118619D02*
X192651138Y-66118619D01*
X192360852Y-66118619D02*
X192360852Y-65102619D01*
X192457614Y-65247761D01*
X192554376Y-65344523D01*
X192651138Y-65392904D01*
X191635138Y-66021857D02*
X191586757Y-66070238D01*
X191635138Y-66118619D01*
X191683519Y-66070238D01*
X191635138Y-66021857D01*
X191635138Y-66118619D01*
X191635138Y-65489666D02*
X191586757Y-65538047D01*
X191635138Y-65586428D01*
X191683519Y-65538047D01*
X191635138Y-65489666D01*
X191635138Y-65586428D01*
X190038566Y-65586428D02*
X189893423Y-65634809D01*
X189845042Y-65683190D01*
X189796661Y-65779952D01*
X189796661Y-65925095D01*
X189845042Y-66021857D01*
X189893423Y-66070238D01*
X189990185Y-66118619D01*
X190377233Y-66118619D01*
X190377233Y-65102619D01*
X190038566Y-65102619D01*
X189941804Y-65151000D01*
X189893423Y-65199380D01*
X189845042Y-65296142D01*
X189845042Y-65392904D01*
X189893423Y-65489666D01*
X189941804Y-65538047D01*
X190038566Y-65586428D01*
X190377233Y-65586428D01*
X194344471Y-66880619D02*
X194247709Y-66880619D01*
X194150947Y-66929000D01*
X194102566Y-66977380D01*
X194054185Y-67074142D01*
X194005804Y-67267666D01*
X194005804Y-67509571D01*
X194054185Y-67703095D01*
X194102566Y-67799857D01*
X194150947Y-67848238D01*
X194247709Y-67896619D01*
X194344471Y-67896619D01*
X194441233Y-67848238D01*
X194489614Y-67799857D01*
X194537995Y-67703095D01*
X194586376Y-67509571D01*
X194586376Y-67267666D01*
X194537995Y-67074142D01*
X194489614Y-66977380D01*
X194441233Y-66929000D01*
X194344471Y-66880619D01*
X193038185Y-67896619D02*
X193618757Y-67896619D01*
X193328471Y-67896619D02*
X193328471Y-66880619D01*
X193425233Y-67025761D01*
X193521995Y-67122523D01*
X193618757Y-67170904D01*
X192409233Y-66880619D02*
X192312471Y-66880619D01*
X192215709Y-66929000D01*
X192167328Y-66977380D01*
X192118947Y-67074142D01*
X192070566Y-67267666D01*
X192070566Y-67509571D01*
X192118947Y-67703095D01*
X192167328Y-67799857D01*
X192215709Y-67848238D01*
X192312471Y-67896619D01*
X192409233Y-67896619D01*
X192505995Y-67848238D01*
X192554376Y-67799857D01*
X192602757Y-67703095D01*
X192651138Y-67509571D01*
X192651138Y-67267666D01*
X192602757Y-67074142D01*
X192554376Y-66977380D01*
X192505995Y-66929000D01*
X192409233Y-66880619D01*
X191635138Y-67799857D02*
X191586757Y-67848238D01*
X191635138Y-67896619D01*
X191683519Y-67848238D01*
X191635138Y-67799857D01*
X191635138Y-67896619D01*
X191635138Y-67267666D02*
X191586757Y-67316047D01*
X191635138Y-67364428D01*
X191683519Y-67316047D01*
X191635138Y-67267666D01*
X191635138Y-67364428D01*
X189796661Y-67799857D02*
X189845042Y-67848238D01*
X189990185Y-67896619D01*
X190086947Y-67896619D01*
X190232090Y-67848238D01*
X190328852Y-67751476D01*
X190377233Y-67654714D01*
X190425614Y-67461190D01*
X190425614Y-67316047D01*
X190377233Y-67122523D01*
X190328852Y-67025761D01*
X190232090Y-66929000D01*
X190086947Y-66880619D01*
X189990185Y-66880619D01*
X189845042Y-66929000D01*
X189796661Y-66977380D01*
X194344471Y-68658619D02*
X194247709Y-68658619D01*
X194150947Y-68707000D01*
X194102566Y-68755380D01*
X194054185Y-68852142D01*
X194005804Y-69045666D01*
X194005804Y-69287571D01*
X194054185Y-69481095D01*
X194102566Y-69577857D01*
X194150947Y-69626238D01*
X194247709Y-69674619D01*
X194344471Y-69674619D01*
X194441233Y-69626238D01*
X194489614Y-69577857D01*
X194537995Y-69481095D01*
X194586376Y-69287571D01*
X194586376Y-69045666D01*
X194537995Y-68852142D01*
X194489614Y-68755380D01*
X194441233Y-68707000D01*
X194344471Y-68658619D01*
X193038185Y-69674619D02*
X193618757Y-69674619D01*
X193328471Y-69674619D02*
X193328471Y-68658619D01*
X193425233Y-68803761D01*
X193521995Y-68900523D01*
X193618757Y-68948904D01*
X192070566Y-69674619D02*
X192651138Y-69674619D01*
X192360852Y-69674619D02*
X192360852Y-68658619D01*
X192457614Y-68803761D01*
X192554376Y-68900523D01*
X192651138Y-68948904D01*
X191635138Y-69577857D02*
X191586757Y-69626238D01*
X191635138Y-69674619D01*
X191683519Y-69626238D01*
X191635138Y-69577857D01*
X191635138Y-69674619D01*
X191635138Y-69045666D02*
X191586757Y-69094047D01*
X191635138Y-69142428D01*
X191683519Y-69094047D01*
X191635138Y-69045666D01*
X191635138Y-69142428D01*
X190377233Y-69674619D02*
X190377233Y-68658619D01*
X190135328Y-68658619D01*
X189990185Y-68707000D01*
X189893423Y-68803761D01*
X189845042Y-68900523D01*
X189796661Y-69094047D01*
X189796661Y-69239190D01*
X189845042Y-69432714D01*
X189893423Y-69529476D01*
X189990185Y-69626238D01*
X190135328Y-69674619D01*
X190377233Y-69674619D01*
X194005804Y-71452619D02*
X194586376Y-71452619D01*
X194296090Y-71452619D02*
X194296090Y-70436619D01*
X194392852Y-70581761D01*
X194489614Y-70678523D01*
X194586376Y-70726904D01*
X193376852Y-70436619D02*
X193280090Y-70436619D01*
X193183328Y-70485000D01*
X193134947Y-70533380D01*
X193086566Y-70630142D01*
X193038185Y-70823666D01*
X193038185Y-71065571D01*
X193086566Y-71259095D01*
X193134947Y-71355857D01*
X193183328Y-71404238D01*
X193280090Y-71452619D01*
X193376852Y-71452619D01*
X193473614Y-71404238D01*
X193521995Y-71355857D01*
X193570376Y-71259095D01*
X193618757Y-71065571D01*
X193618757Y-70823666D01*
X193570376Y-70630142D01*
X193521995Y-70533380D01*
X193473614Y-70485000D01*
X193376852Y-70436619D01*
X192409233Y-70436619D02*
X192312471Y-70436619D01*
X192215709Y-70485000D01*
X192167328Y-70533380D01*
X192118947Y-70630142D01*
X192070566Y-70823666D01*
X192070566Y-71065571D01*
X192118947Y-71259095D01*
X192167328Y-71355857D01*
X192215709Y-71404238D01*
X192312471Y-71452619D01*
X192409233Y-71452619D01*
X192505995Y-71404238D01*
X192554376Y-71355857D01*
X192602757Y-71259095D01*
X192651138Y-71065571D01*
X192651138Y-70823666D01*
X192602757Y-70630142D01*
X192554376Y-70533380D01*
X192505995Y-70485000D01*
X192409233Y-70436619D01*
X191635138Y-71355857D02*
X191586757Y-71404238D01*
X191635138Y-71452619D01*
X191683519Y-71404238D01*
X191635138Y-71355857D01*
X191635138Y-71452619D01*
X191635138Y-70823666D02*
X191586757Y-70872047D01*
X191635138Y-70920428D01*
X191683519Y-70872047D01*
X191635138Y-70823666D01*
X191635138Y-70920428D01*
X190425614Y-71404238D02*
X190280471Y-71452619D01*
X190038566Y-71452619D01*
X189941804Y-71404238D01*
X189893423Y-71355857D01*
X189845042Y-71259095D01*
X189845042Y-71162333D01*
X189893423Y-71065571D01*
X189941804Y-71017190D01*
X190038566Y-70968809D01*
X190232090Y-70920428D01*
X190328852Y-70872047D01*
X190377233Y-70823666D01*
X190425614Y-70726904D01*
X190425614Y-70630142D01*
X190377233Y-70533380D01*
X190328852Y-70485000D01*
X190232090Y-70436619D01*
X189990185Y-70436619D01*
X189845042Y-70485000D01*
X189409614Y-71452619D02*
X189409614Y-70436619D01*
X189022566Y-70436619D01*
X188925804Y-70485000D01*
X188877423Y-70533380D01*
X188829042Y-70630142D01*
X188829042Y-70775285D01*
X188877423Y-70872047D01*
X188925804Y-70920428D01*
X189022566Y-70968809D01*
X189409614Y-70968809D01*
X187329233Y-71839666D02*
X187377614Y-71791285D01*
X187474376Y-71646142D01*
X187522757Y-71549380D01*
X187571138Y-71404238D01*
X187619519Y-71162333D01*
X187619519Y-70968809D01*
X187571138Y-70726904D01*
X187522757Y-70581761D01*
X187474376Y-70485000D01*
X187377614Y-70339857D01*
X187329233Y-70291476D01*
X186942185Y-71452619D02*
X186942185Y-70436619D01*
X186700280Y-70436619D01*
X186555138Y-70485000D01*
X186458376Y-70581761D01*
X186409995Y-70678523D01*
X186361614Y-70872047D01*
X186361614Y-71017190D01*
X186409995Y-71210714D01*
X186458376Y-71307476D01*
X186555138Y-71404238D01*
X186700280Y-71452619D01*
X186942185Y-71452619D01*
X186022947Y-71839666D02*
X185974566Y-71791285D01*
X185877804Y-71646142D01*
X185829423Y-71549380D01*
X185781042Y-71404238D01*
X185732661Y-71162333D01*
X185732661Y-70968809D01*
X185781042Y-70726904D01*
X185829423Y-70581761D01*
X185877804Y-70485000D01*
X185974566Y-70339857D01*
X186022947Y-70291476D01*
X194005804Y-73230619D02*
X194586376Y-73230619D01*
X194296090Y-73230619D02*
X194296090Y-72214619D01*
X194392852Y-72359761D01*
X194489614Y-72456523D01*
X194586376Y-72504904D01*
X193376852Y-72214619D02*
X193280090Y-72214619D01*
X193183328Y-72263000D01*
X193134947Y-72311380D01*
X193086566Y-72408142D01*
X193038185Y-72601666D01*
X193038185Y-72843571D01*
X193086566Y-73037095D01*
X193134947Y-73133857D01*
X193183328Y-73182238D01*
X193280090Y-73230619D01*
X193376852Y-73230619D01*
X193473614Y-73182238D01*
X193521995Y-73133857D01*
X193570376Y-73037095D01*
X193618757Y-72843571D01*
X193618757Y-72601666D01*
X193570376Y-72408142D01*
X193521995Y-72311380D01*
X193473614Y-72263000D01*
X193376852Y-72214619D01*
X192070566Y-73230619D02*
X192651138Y-73230619D01*
X192360852Y-73230619D02*
X192360852Y-72214619D01*
X192457614Y-72359761D01*
X192554376Y-72456523D01*
X192651138Y-72504904D01*
X191635138Y-73133857D02*
X191586757Y-73182238D01*
X191635138Y-73230619D01*
X191683519Y-73182238D01*
X191635138Y-73133857D01*
X191635138Y-73230619D01*
X191635138Y-72601666D02*
X191586757Y-72650047D01*
X191635138Y-72698428D01*
X191683519Y-72650047D01*
X191635138Y-72601666D01*
X191635138Y-72698428D01*
X190377233Y-73230619D02*
X190377233Y-72214619D01*
X189990185Y-72214619D01*
X189893423Y-72263000D01*
X189845042Y-72311380D01*
X189796661Y-72408142D01*
X189796661Y-72553285D01*
X189845042Y-72650047D01*
X189893423Y-72698428D01*
X189990185Y-72746809D01*
X190377233Y-72746809D01*
X188780661Y-73133857D02*
X188829042Y-73182238D01*
X188974185Y-73230619D01*
X189070947Y-73230619D01*
X189216090Y-73182238D01*
X189312852Y-73085476D01*
X189361233Y-72988714D01*
X189409614Y-72795190D01*
X189409614Y-72650047D01*
X189361233Y-72456523D01*
X189312852Y-72359761D01*
X189216090Y-72263000D01*
X189070947Y-72214619D01*
X188974185Y-72214619D01*
X188829042Y-72263000D01*
X188780661Y-72311380D01*
X194005804Y-75008619D02*
X194586376Y-75008619D01*
X194296090Y-75008619D02*
X194296090Y-73992619D01*
X194392852Y-74137761D01*
X194489614Y-74234523D01*
X194586376Y-74282904D01*
X193038185Y-75008619D02*
X193618757Y-75008619D01*
X193328471Y-75008619D02*
X193328471Y-73992619D01*
X193425233Y-74137761D01*
X193521995Y-74234523D01*
X193618757Y-74282904D01*
X192409233Y-73992619D02*
X192312471Y-73992619D01*
X192215709Y-74041000D01*
X192167328Y-74089380D01*
X192118947Y-74186142D01*
X192070566Y-74379666D01*
X192070566Y-74621571D01*
X192118947Y-74815095D01*
X192167328Y-74911857D01*
X192215709Y-74960238D01*
X192312471Y-75008619D01*
X192409233Y-75008619D01*
X192505995Y-74960238D01*
X192554376Y-74911857D01*
X192602757Y-74815095D01*
X192651138Y-74621571D01*
X192651138Y-74379666D01*
X192602757Y-74186142D01*
X192554376Y-74089380D01*
X192505995Y-74041000D01*
X192409233Y-73992619D01*
X191635138Y-74911857D02*
X191586757Y-74960238D01*
X191635138Y-75008619D01*
X191683519Y-74960238D01*
X191635138Y-74911857D01*
X191635138Y-75008619D01*
X191635138Y-74379666D02*
X191586757Y-74428047D01*
X191635138Y-74476428D01*
X191683519Y-74428047D01*
X191635138Y-74379666D01*
X191635138Y-74476428D01*
X190425614Y-74960238D02*
X190280471Y-75008619D01*
X190038566Y-75008619D01*
X189941804Y-74960238D01*
X189893423Y-74911857D01*
X189845042Y-74815095D01*
X189845042Y-74718333D01*
X189893423Y-74621571D01*
X189941804Y-74573190D01*
X190038566Y-74524809D01*
X190232090Y-74476428D01*
X190328852Y-74428047D01*
X190377233Y-74379666D01*
X190425614Y-74282904D01*
X190425614Y-74186142D01*
X190377233Y-74089380D01*
X190328852Y-74041000D01*
X190232090Y-73992619D01*
X189990185Y-73992619D01*
X189845042Y-74041000D01*
X189409614Y-75008619D02*
X189409614Y-73992619D01*
X189022566Y-73992619D01*
X188925804Y-74041000D01*
X188877423Y-74089380D01*
X188829042Y-74186142D01*
X188829042Y-74331285D01*
X188877423Y-74428047D01*
X188925804Y-74476428D01*
X189022566Y-74524809D01*
X189409614Y-74524809D01*
X188393614Y-75008619D02*
X188393614Y-74331285D01*
X188393614Y-73992619D02*
X188441995Y-74041000D01*
X188393614Y-74089380D01*
X188345233Y-74041000D01*
X188393614Y-73992619D01*
X188393614Y-74089380D01*
X194005804Y-76786619D02*
X194586376Y-76786619D01*
X194296090Y-76786619D02*
X194296090Y-75770619D01*
X194392852Y-75915761D01*
X194489614Y-76012523D01*
X194586376Y-76060904D01*
X193038185Y-76786619D02*
X193618757Y-76786619D01*
X193328471Y-76786619D02*
X193328471Y-75770619D01*
X193425233Y-75915761D01*
X193521995Y-76012523D01*
X193618757Y-76060904D01*
X192070566Y-76786619D02*
X192651138Y-76786619D01*
X192360852Y-76786619D02*
X192360852Y-75770619D01*
X192457614Y-75915761D01*
X192554376Y-76012523D01*
X192651138Y-76060904D01*
X191635138Y-76689857D02*
X191586757Y-76738238D01*
X191635138Y-76786619D01*
X191683519Y-76738238D01*
X191635138Y-76689857D01*
X191635138Y-76786619D01*
X191635138Y-76157666D02*
X191586757Y-76206047D01*
X191635138Y-76254428D01*
X191683519Y-76206047D01*
X191635138Y-76157666D01*
X191635138Y-76254428D01*
X190377233Y-76786619D02*
X190377233Y-75770619D01*
X189893423Y-76786619D02*
X189893423Y-75770619D01*
X189554757Y-76496333D01*
X189216090Y-75770619D01*
X189216090Y-76786619D01*
X188732280Y-76786619D02*
X188732280Y-75770619D01*
X188393614Y-76496333D01*
X188054947Y-75770619D01*
X188054947Y-76786619D01*
X162836376Y-60621333D02*
X162352566Y-60621333D01*
X162933138Y-60911619D02*
X162594471Y-59895619D01*
X162255804Y-60911619D01*
X161433328Y-60911619D02*
X161917138Y-60911619D01*
X161917138Y-59895619D01*
X161094661Y-59895619D02*
X161094661Y-60718095D01*
X161046280Y-60814857D01*
X160997900Y-60863238D01*
X160901138Y-60911619D01*
X160707614Y-60911619D01*
X160610852Y-60863238D01*
X160562471Y-60814857D01*
X160514090Y-60718095D01*
X160514090Y-59895619D01*
X159062661Y-59895619D02*
X158869138Y-59895619D01*
X158772376Y-59944000D01*
X158675614Y-60040761D01*
X158627233Y-60234285D01*
X158627233Y-60572952D01*
X158675614Y-60766476D01*
X158772376Y-60863238D01*
X158869138Y-60911619D01*
X159062661Y-60911619D01*
X159159423Y-60863238D01*
X159256185Y-60766476D01*
X159304566Y-60572952D01*
X159304566Y-60234285D01*
X159256185Y-60040761D01*
X159159423Y-59944000D01*
X159062661Y-59895619D01*
X158191804Y-60911619D02*
X158191804Y-59895619D01*
X157804757Y-59895619D01*
X157707995Y-59944000D01*
X157659614Y-59992380D01*
X157611233Y-60089142D01*
X157611233Y-60234285D01*
X157659614Y-60331047D01*
X157707995Y-60379428D01*
X157804757Y-60427809D01*
X158191804Y-60427809D01*
X157175804Y-60379428D02*
X156837138Y-60379428D01*
X156691995Y-60911619D02*
X157175804Y-60911619D01*
X157175804Y-59895619D01*
X156691995Y-59895619D01*
X155675995Y-60911619D02*
X156014661Y-60427809D01*
X156256566Y-60911619D02*
X156256566Y-59895619D01*
X155869519Y-59895619D01*
X155772757Y-59944000D01*
X155724376Y-59992380D01*
X155675995Y-60089142D01*
X155675995Y-60234285D01*
X155724376Y-60331047D01*
X155772757Y-60379428D01*
X155869519Y-60427809D01*
X156256566Y-60427809D01*
X155288947Y-60621333D02*
X154805138Y-60621333D01*
X155385709Y-60911619D02*
X155047042Y-59895619D01*
X154708376Y-60911619D01*
X154514852Y-59895619D02*
X153934280Y-59895619D01*
X154224566Y-60911619D02*
X154224566Y-59895619D01*
X153595614Y-60911619D02*
X153595614Y-59895619D01*
X152918280Y-59895619D02*
X152724757Y-59895619D01*
X152627995Y-59944000D01*
X152531233Y-60040761D01*
X152482852Y-60234285D01*
X152482852Y-60572952D01*
X152531233Y-60766476D01*
X152627995Y-60863238D01*
X152724757Y-60911619D01*
X152918280Y-60911619D01*
X153015042Y-60863238D01*
X153111804Y-60766476D01*
X153160185Y-60572952D01*
X153160185Y-60234285D01*
X153111804Y-60040761D01*
X153015042Y-59944000D01*
X152918280Y-59895619D01*
X152047423Y-60911619D02*
X152047423Y-59895619D01*
X151466852Y-60911619D01*
X151466852Y-59895619D01*
X151031423Y-60863238D02*
X150886280Y-60911619D01*
X150644376Y-60911619D01*
X150547614Y-60863238D01*
X150499233Y-60814857D01*
X150450852Y-60718095D01*
X150450852Y-60621333D01*
X150499233Y-60524571D01*
X150547614Y-60476190D01*
X150644376Y-60427809D01*
X150837900Y-60379428D01*
X150934661Y-60331047D01*
X150983042Y-60282666D01*
X151031423Y-60185904D01*
X151031423Y-60089142D01*
X150983042Y-59992380D01*
X150934661Y-59944000D01*
X150837900Y-59895619D01*
X150595995Y-59895619D01*
X150450852Y-59944000D01*
X150015423Y-60814857D02*
X149967042Y-60863238D01*
X150015423Y-60911619D01*
X150063804Y-60863238D01*
X150015423Y-60814857D01*
X150015423Y-60911619D01*
X150015423Y-60282666D02*
X149967042Y-60331047D01*
X150015423Y-60379428D01*
X150063804Y-60331047D01*
X150015423Y-60282666D01*
X150015423Y-60379428D01*
X162594471Y-63451619D02*
X162497709Y-63451619D01*
X162400947Y-63500000D01*
X162352566Y-63548380D01*
X162304185Y-63645142D01*
X162255804Y-63838666D01*
X162255804Y-64080571D01*
X162304185Y-64274095D01*
X162352566Y-64370857D01*
X162400947Y-64419238D01*
X162497709Y-64467619D01*
X162594471Y-64467619D01*
X162691233Y-64419238D01*
X162739614Y-64370857D01*
X162787995Y-64274095D01*
X162836376Y-64080571D01*
X162836376Y-63838666D01*
X162787995Y-63645142D01*
X162739614Y-63548380D01*
X162691233Y-63500000D01*
X162594471Y-63451619D01*
X161626852Y-63451619D02*
X161530090Y-63451619D01*
X161433328Y-63500000D01*
X161384947Y-63548380D01*
X161336566Y-63645142D01*
X161288185Y-63838666D01*
X161288185Y-64080571D01*
X161336566Y-64274095D01*
X161384947Y-64370857D01*
X161433328Y-64419238D01*
X161530090Y-64467619D01*
X161626852Y-64467619D01*
X161723614Y-64419238D01*
X161771995Y-64370857D01*
X161820376Y-64274095D01*
X161868757Y-64080571D01*
X161868757Y-63838666D01*
X161820376Y-63645142D01*
X161771995Y-63548380D01*
X161723614Y-63500000D01*
X161626852Y-63451619D01*
X160659233Y-63451619D02*
X160562471Y-63451619D01*
X160465709Y-63500000D01*
X160417328Y-63548380D01*
X160368947Y-63645142D01*
X160320566Y-63838666D01*
X160320566Y-64080571D01*
X160368947Y-64274095D01*
X160417328Y-64370857D01*
X160465709Y-64419238D01*
X160562471Y-64467619D01*
X160659233Y-64467619D01*
X160755995Y-64419238D01*
X160804376Y-64370857D01*
X160852757Y-64274095D01*
X160901138Y-64080571D01*
X160901138Y-63838666D01*
X160852757Y-63645142D01*
X160804376Y-63548380D01*
X160755995Y-63500000D01*
X160659233Y-63451619D01*
X159691614Y-63451619D02*
X159594852Y-63451619D01*
X159498090Y-63500000D01*
X159449709Y-63548380D01*
X159401328Y-63645142D01*
X159352947Y-63838666D01*
X159352947Y-64080571D01*
X159401328Y-64274095D01*
X159449709Y-64370857D01*
X159498090Y-64419238D01*
X159594852Y-64467619D01*
X159691614Y-64467619D01*
X159788376Y-64419238D01*
X159836757Y-64370857D01*
X159885138Y-64274095D01*
X159933519Y-64080571D01*
X159933519Y-63838666D01*
X159885138Y-63645142D01*
X159836757Y-63548380D01*
X159788376Y-63500000D01*
X159691614Y-63451619D01*
X158917519Y-64370857D02*
X158869138Y-64419238D01*
X158917519Y-64467619D01*
X158965900Y-64419238D01*
X158917519Y-64370857D01*
X158917519Y-64467619D01*
X158917519Y-63838666D02*
X158869138Y-63887047D01*
X158917519Y-63935428D01*
X158965900Y-63887047D01*
X158917519Y-63838666D01*
X158917519Y-63935428D01*
X157659614Y-64467619D02*
X157659614Y-63451619D01*
X157659614Y-63935428D02*
X157079042Y-63935428D01*
X157079042Y-64467619D02*
X157079042Y-63451619D01*
X156401709Y-63451619D02*
X156208185Y-63451619D01*
X156111423Y-63500000D01*
X156014661Y-63596761D01*
X155966280Y-63790285D01*
X155966280Y-64128952D01*
X156014661Y-64322476D01*
X156111423Y-64419238D01*
X156208185Y-64467619D01*
X156401709Y-64467619D01*
X156498471Y-64419238D01*
X156595233Y-64322476D01*
X156643614Y-64128952D01*
X156643614Y-63790285D01*
X156595233Y-63596761D01*
X156498471Y-63500000D01*
X156401709Y-63451619D01*
X155047042Y-64467619D02*
X155530852Y-64467619D01*
X155530852Y-63451619D01*
X154708376Y-64467619D02*
X154708376Y-63451619D01*
X154466471Y-63451619D01*
X154321328Y-63500000D01*
X154224566Y-63596761D01*
X154176185Y-63693523D01*
X154127804Y-63887047D01*
X154127804Y-64032190D01*
X154176185Y-64225714D01*
X154224566Y-64322476D01*
X154321328Y-64419238D01*
X154466471Y-64467619D01*
X154708376Y-64467619D01*
X162594471Y-65229619D02*
X162497709Y-65229619D01*
X162400947Y-65278000D01*
X162352566Y-65326380D01*
X162304185Y-65423142D01*
X162255804Y-65616666D01*
X162255804Y-65858571D01*
X162304185Y-66052095D01*
X162352566Y-66148857D01*
X162400947Y-66197238D01*
X162497709Y-66245619D01*
X162594471Y-66245619D01*
X162691233Y-66197238D01*
X162739614Y-66148857D01*
X162787995Y-66052095D01*
X162836376Y-65858571D01*
X162836376Y-65616666D01*
X162787995Y-65423142D01*
X162739614Y-65326380D01*
X162691233Y-65278000D01*
X162594471Y-65229619D01*
X161626852Y-65229619D02*
X161530090Y-65229619D01*
X161433328Y-65278000D01*
X161384947Y-65326380D01*
X161336566Y-65423142D01*
X161288185Y-65616666D01*
X161288185Y-65858571D01*
X161336566Y-66052095D01*
X161384947Y-66148857D01*
X161433328Y-66197238D01*
X161530090Y-66245619D01*
X161626852Y-66245619D01*
X161723614Y-66197238D01*
X161771995Y-66148857D01*
X161820376Y-66052095D01*
X161868757Y-65858571D01*
X161868757Y-65616666D01*
X161820376Y-65423142D01*
X161771995Y-65326380D01*
X161723614Y-65278000D01*
X161626852Y-65229619D01*
X160659233Y-65229619D02*
X160562471Y-65229619D01*
X160465709Y-65278000D01*
X160417328Y-65326380D01*
X160368947Y-65423142D01*
X160320566Y-65616666D01*
X160320566Y-65858571D01*
X160368947Y-66052095D01*
X160417328Y-66148857D01*
X160465709Y-66197238D01*
X160562471Y-66245619D01*
X160659233Y-66245619D01*
X160755995Y-66197238D01*
X160804376Y-66148857D01*
X160852757Y-66052095D01*
X160901138Y-65858571D01*
X160901138Y-65616666D01*
X160852757Y-65423142D01*
X160804376Y-65326380D01*
X160755995Y-65278000D01*
X160659233Y-65229619D01*
X159352947Y-66245619D02*
X159933519Y-66245619D01*
X159643233Y-66245619D02*
X159643233Y-65229619D01*
X159739995Y-65374761D01*
X159836757Y-65471523D01*
X159933519Y-65519904D01*
X158917519Y-66148857D02*
X158869138Y-66197238D01*
X158917519Y-66245619D01*
X158965900Y-66197238D01*
X158917519Y-66148857D01*
X158917519Y-66245619D01*
X158917519Y-65616666D02*
X158869138Y-65665047D01*
X158917519Y-65713428D01*
X158965900Y-65665047D01*
X158917519Y-65616666D01*
X158917519Y-65713428D01*
X157320947Y-65713428D02*
X157175804Y-65761809D01*
X157127423Y-65810190D01*
X157079042Y-65906952D01*
X157079042Y-66052095D01*
X157127423Y-66148857D01*
X157175804Y-66197238D01*
X157272566Y-66245619D01*
X157659614Y-66245619D01*
X157659614Y-65229619D01*
X157320947Y-65229619D01*
X157224185Y-65278000D01*
X157175804Y-65326380D01*
X157127423Y-65423142D01*
X157127423Y-65519904D01*
X157175804Y-65616666D01*
X157224185Y-65665047D01*
X157320947Y-65713428D01*
X157659614Y-65713428D01*
X155869519Y-65858571D02*
X155095423Y-65858571D01*
X153885900Y-65955333D02*
X153402090Y-65955333D01*
X153982661Y-66245619D02*
X153643995Y-65229619D01*
X153305328Y-66245619D01*
X162594471Y-67007619D02*
X162497709Y-67007619D01*
X162400947Y-67056000D01*
X162352566Y-67104380D01*
X162304185Y-67201142D01*
X162255804Y-67394666D01*
X162255804Y-67636571D01*
X162304185Y-67830095D01*
X162352566Y-67926857D01*
X162400947Y-67975238D01*
X162497709Y-68023619D01*
X162594471Y-68023619D01*
X162691233Y-67975238D01*
X162739614Y-67926857D01*
X162787995Y-67830095D01*
X162836376Y-67636571D01*
X162836376Y-67394666D01*
X162787995Y-67201142D01*
X162739614Y-67104380D01*
X162691233Y-67056000D01*
X162594471Y-67007619D01*
X161626852Y-67007619D02*
X161530090Y-67007619D01*
X161433328Y-67056000D01*
X161384947Y-67104380D01*
X161336566Y-67201142D01*
X161288185Y-67394666D01*
X161288185Y-67636571D01*
X161336566Y-67830095D01*
X161384947Y-67926857D01*
X161433328Y-67975238D01*
X161530090Y-68023619D01*
X161626852Y-68023619D01*
X161723614Y-67975238D01*
X161771995Y-67926857D01*
X161820376Y-67830095D01*
X161868757Y-67636571D01*
X161868757Y-67394666D01*
X161820376Y-67201142D01*
X161771995Y-67104380D01*
X161723614Y-67056000D01*
X161626852Y-67007619D01*
X160320566Y-68023619D02*
X160901138Y-68023619D01*
X160610852Y-68023619D02*
X160610852Y-67007619D01*
X160707614Y-67152761D01*
X160804376Y-67249523D01*
X160901138Y-67297904D01*
X159691614Y-67007619D02*
X159594852Y-67007619D01*
X159498090Y-67056000D01*
X159449709Y-67104380D01*
X159401328Y-67201142D01*
X159352947Y-67394666D01*
X159352947Y-67636571D01*
X159401328Y-67830095D01*
X159449709Y-67926857D01*
X159498090Y-67975238D01*
X159594852Y-68023619D01*
X159691614Y-68023619D01*
X159788376Y-67975238D01*
X159836757Y-67926857D01*
X159885138Y-67830095D01*
X159933519Y-67636571D01*
X159933519Y-67394666D01*
X159885138Y-67201142D01*
X159836757Y-67104380D01*
X159788376Y-67056000D01*
X159691614Y-67007619D01*
X158917519Y-67926857D02*
X158869138Y-67975238D01*
X158917519Y-68023619D01*
X158965900Y-67975238D01*
X158917519Y-67926857D01*
X158917519Y-68023619D01*
X158917519Y-67394666D02*
X158869138Y-67443047D01*
X158917519Y-67491428D01*
X158965900Y-67443047D01*
X158917519Y-67394666D01*
X158917519Y-67491428D01*
X157707995Y-67733333D02*
X157224185Y-67733333D01*
X157804757Y-68023619D02*
X157466090Y-67007619D01*
X157127423Y-68023619D01*
X156014661Y-67636571D02*
X155240566Y-67636571D01*
X153643995Y-67491428D02*
X153498852Y-67539809D01*
X153450471Y-67588190D01*
X153402090Y-67684952D01*
X153402090Y-67830095D01*
X153450471Y-67926857D01*
X153498852Y-67975238D01*
X153595614Y-68023619D01*
X153982661Y-68023619D01*
X153982661Y-67007619D01*
X153643995Y-67007619D01*
X153547233Y-67056000D01*
X153498852Y-67104380D01*
X153450471Y-67201142D01*
X153450471Y-67297904D01*
X153498852Y-67394666D01*
X153547233Y-67443047D01*
X153643995Y-67491428D01*
X153982661Y-67491428D01*
X162594471Y-68785619D02*
X162497709Y-68785619D01*
X162400947Y-68834000D01*
X162352566Y-68882380D01*
X162304185Y-68979142D01*
X162255804Y-69172666D01*
X162255804Y-69414571D01*
X162304185Y-69608095D01*
X162352566Y-69704857D01*
X162400947Y-69753238D01*
X162497709Y-69801619D01*
X162594471Y-69801619D01*
X162691233Y-69753238D01*
X162739614Y-69704857D01*
X162787995Y-69608095D01*
X162836376Y-69414571D01*
X162836376Y-69172666D01*
X162787995Y-68979142D01*
X162739614Y-68882380D01*
X162691233Y-68834000D01*
X162594471Y-68785619D01*
X161626852Y-68785619D02*
X161530090Y-68785619D01*
X161433328Y-68834000D01*
X161384947Y-68882380D01*
X161336566Y-68979142D01*
X161288185Y-69172666D01*
X161288185Y-69414571D01*
X161336566Y-69608095D01*
X161384947Y-69704857D01*
X161433328Y-69753238D01*
X161530090Y-69801619D01*
X161626852Y-69801619D01*
X161723614Y-69753238D01*
X161771995Y-69704857D01*
X161820376Y-69608095D01*
X161868757Y-69414571D01*
X161868757Y-69172666D01*
X161820376Y-68979142D01*
X161771995Y-68882380D01*
X161723614Y-68834000D01*
X161626852Y-68785619D01*
X160320566Y-69801619D02*
X160901138Y-69801619D01*
X160610852Y-69801619D02*
X160610852Y-68785619D01*
X160707614Y-68930761D01*
X160804376Y-69027523D01*
X160901138Y-69075904D01*
X159352947Y-69801619D02*
X159933519Y-69801619D01*
X159643233Y-69801619D02*
X159643233Y-68785619D01*
X159739995Y-68930761D01*
X159836757Y-69027523D01*
X159933519Y-69075904D01*
X158917519Y-69704857D02*
X158869138Y-69753238D01*
X158917519Y-69801619D01*
X158965900Y-69753238D01*
X158917519Y-69704857D01*
X158917519Y-69801619D01*
X158917519Y-69172666D02*
X158869138Y-69221047D01*
X158917519Y-69269428D01*
X158965900Y-69221047D01*
X158917519Y-69172666D01*
X158917519Y-69269428D01*
X157707995Y-69511333D02*
X157224185Y-69511333D01*
X157804757Y-69801619D02*
X157466090Y-68785619D01*
X157127423Y-69801619D01*
X156014661Y-69414571D02*
X155240566Y-69414571D01*
X155627614Y-69801619D02*
X155627614Y-69027523D01*
X153643995Y-69269428D02*
X153498852Y-69317809D01*
X153450471Y-69366190D01*
X153402090Y-69462952D01*
X153402090Y-69608095D01*
X153450471Y-69704857D01*
X153498852Y-69753238D01*
X153595614Y-69801619D01*
X153982661Y-69801619D01*
X153982661Y-68785619D01*
X153643995Y-68785619D01*
X153547233Y-68834000D01*
X153498852Y-68882380D01*
X153450471Y-68979142D01*
X153450471Y-69075904D01*
X153498852Y-69172666D01*
X153547233Y-69221047D01*
X153643995Y-69269428D01*
X153982661Y-69269428D01*
X162594471Y-70563619D02*
X162497709Y-70563619D01*
X162400947Y-70612000D01*
X162352566Y-70660380D01*
X162304185Y-70757142D01*
X162255804Y-70950666D01*
X162255804Y-71192571D01*
X162304185Y-71386095D01*
X162352566Y-71482857D01*
X162400947Y-71531238D01*
X162497709Y-71579619D01*
X162594471Y-71579619D01*
X162691233Y-71531238D01*
X162739614Y-71482857D01*
X162787995Y-71386095D01*
X162836376Y-71192571D01*
X162836376Y-70950666D01*
X162787995Y-70757142D01*
X162739614Y-70660380D01*
X162691233Y-70612000D01*
X162594471Y-70563619D01*
X161288185Y-71579619D02*
X161868757Y-71579619D01*
X161578471Y-71579619D02*
X161578471Y-70563619D01*
X161675233Y-70708761D01*
X161771995Y-70805523D01*
X161868757Y-70853904D01*
X160659233Y-70563619D02*
X160562471Y-70563619D01*
X160465709Y-70612000D01*
X160417328Y-70660380D01*
X160368947Y-70757142D01*
X160320566Y-70950666D01*
X160320566Y-71192571D01*
X160368947Y-71386095D01*
X160417328Y-71482857D01*
X160465709Y-71531238D01*
X160562471Y-71579619D01*
X160659233Y-71579619D01*
X160755995Y-71531238D01*
X160804376Y-71482857D01*
X160852757Y-71386095D01*
X160901138Y-71192571D01*
X160901138Y-70950666D01*
X160852757Y-70757142D01*
X160804376Y-70660380D01*
X160755995Y-70612000D01*
X160659233Y-70563619D01*
X159691614Y-70563619D02*
X159594852Y-70563619D01*
X159498090Y-70612000D01*
X159449709Y-70660380D01*
X159401328Y-70757142D01*
X159352947Y-70950666D01*
X159352947Y-71192571D01*
X159401328Y-71386095D01*
X159449709Y-71482857D01*
X159498090Y-71531238D01*
X159594852Y-71579619D01*
X159691614Y-71579619D01*
X159788376Y-71531238D01*
X159836757Y-71482857D01*
X159885138Y-71386095D01*
X159933519Y-71192571D01*
X159933519Y-70950666D01*
X159885138Y-70757142D01*
X159836757Y-70660380D01*
X159788376Y-70612000D01*
X159691614Y-70563619D01*
X158917519Y-71482857D02*
X158869138Y-71531238D01*
X158917519Y-71579619D01*
X158965900Y-71531238D01*
X158917519Y-71482857D01*
X158917519Y-71579619D01*
X158917519Y-70950666D02*
X158869138Y-70999047D01*
X158917519Y-71047428D01*
X158965900Y-70999047D01*
X158917519Y-70950666D01*
X158917519Y-71047428D01*
X157707995Y-71289333D02*
X157224185Y-71289333D01*
X157804757Y-71579619D02*
X157466090Y-70563619D01*
X157127423Y-71579619D01*
X156111423Y-70563619D02*
X155434090Y-71579619D01*
X155434090Y-70563619D02*
X156111423Y-71579619D01*
X154853519Y-70563619D02*
X154659995Y-70563619D01*
X154563233Y-70612000D01*
X154466471Y-70708761D01*
X154418090Y-70902285D01*
X154418090Y-71240952D01*
X154466471Y-71434476D01*
X154563233Y-71531238D01*
X154659995Y-71579619D01*
X154853519Y-71579619D01*
X154950280Y-71531238D01*
X155047042Y-71434476D01*
X155095423Y-71240952D01*
X155095423Y-70902285D01*
X155047042Y-70708761D01*
X154950280Y-70612000D01*
X154853519Y-70563619D01*
X153402090Y-71579619D02*
X153740757Y-71095809D01*
X153982661Y-71579619D02*
X153982661Y-70563619D01*
X153595614Y-70563619D01*
X153498852Y-70612000D01*
X153450471Y-70660380D01*
X153402090Y-70757142D01*
X153402090Y-70902285D01*
X153450471Y-70999047D01*
X153498852Y-71047428D01*
X153595614Y-71095809D01*
X153982661Y-71095809D01*
X151853900Y-71047428D02*
X151708757Y-71095809D01*
X151660376Y-71144190D01*
X151611995Y-71240952D01*
X151611995Y-71386095D01*
X151660376Y-71482857D01*
X151708757Y-71531238D01*
X151805519Y-71579619D01*
X152192566Y-71579619D01*
X152192566Y-70563619D01*
X151853900Y-70563619D01*
X151757138Y-70612000D01*
X151708757Y-70660380D01*
X151660376Y-70757142D01*
X151660376Y-70853904D01*
X151708757Y-70950666D01*
X151757138Y-70999047D01*
X151853900Y-71047428D01*
X152192566Y-71047428D01*
X162594471Y-72341619D02*
X162497709Y-72341619D01*
X162400947Y-72390000D01*
X162352566Y-72438380D01*
X162304185Y-72535142D01*
X162255804Y-72728666D01*
X162255804Y-72970571D01*
X162304185Y-73164095D01*
X162352566Y-73260857D01*
X162400947Y-73309238D01*
X162497709Y-73357619D01*
X162594471Y-73357619D01*
X162691233Y-73309238D01*
X162739614Y-73260857D01*
X162787995Y-73164095D01*
X162836376Y-72970571D01*
X162836376Y-72728666D01*
X162787995Y-72535142D01*
X162739614Y-72438380D01*
X162691233Y-72390000D01*
X162594471Y-72341619D01*
X161288185Y-73357619D02*
X161868757Y-73357619D01*
X161578471Y-73357619D02*
X161578471Y-72341619D01*
X161675233Y-72486761D01*
X161771995Y-72583523D01*
X161868757Y-72631904D01*
X160659233Y-72341619D02*
X160562471Y-72341619D01*
X160465709Y-72390000D01*
X160417328Y-72438380D01*
X160368947Y-72535142D01*
X160320566Y-72728666D01*
X160320566Y-72970571D01*
X160368947Y-73164095D01*
X160417328Y-73260857D01*
X160465709Y-73309238D01*
X160562471Y-73357619D01*
X160659233Y-73357619D01*
X160755995Y-73309238D01*
X160804376Y-73260857D01*
X160852757Y-73164095D01*
X160901138Y-72970571D01*
X160901138Y-72728666D01*
X160852757Y-72535142D01*
X160804376Y-72438380D01*
X160755995Y-72390000D01*
X160659233Y-72341619D01*
X159352947Y-73357619D02*
X159933519Y-73357619D01*
X159643233Y-73357619D02*
X159643233Y-72341619D01*
X159739995Y-72486761D01*
X159836757Y-72583523D01*
X159933519Y-72631904D01*
X158917519Y-73260857D02*
X158869138Y-73309238D01*
X158917519Y-73357619D01*
X158965900Y-73309238D01*
X158917519Y-73260857D01*
X158917519Y-73357619D01*
X158917519Y-72728666D02*
X158869138Y-72777047D01*
X158917519Y-72825428D01*
X158965900Y-72777047D01*
X158917519Y-72728666D01*
X158917519Y-72825428D01*
X157707995Y-73067333D02*
X157224185Y-73067333D01*
X157804757Y-73357619D02*
X157466090Y-72341619D01*
X157127423Y-73357619D01*
X155821138Y-72341619D02*
X155627614Y-72341619D01*
X155530852Y-72390000D01*
X155434090Y-72486761D01*
X155385709Y-72680285D01*
X155385709Y-73018952D01*
X155434090Y-73212476D01*
X155530852Y-73309238D01*
X155627614Y-73357619D01*
X155821138Y-73357619D01*
X155917900Y-73309238D01*
X156014661Y-73212476D01*
X156063042Y-73018952D01*
X156063042Y-72680285D01*
X156014661Y-72486761D01*
X155917900Y-72390000D01*
X155821138Y-72341619D01*
X154369709Y-73357619D02*
X154708376Y-72873809D01*
X154950280Y-73357619D02*
X154950280Y-72341619D01*
X154563233Y-72341619D01*
X154466471Y-72390000D01*
X154418090Y-72438380D01*
X154369709Y-72535142D01*
X154369709Y-72680285D01*
X154418090Y-72777047D01*
X154466471Y-72825428D01*
X154563233Y-72873809D01*
X154950280Y-72873809D01*
X152821519Y-72825428D02*
X152676376Y-72873809D01*
X152627995Y-72922190D01*
X152579614Y-73018952D01*
X152579614Y-73164095D01*
X152627995Y-73260857D01*
X152676376Y-73309238D01*
X152773138Y-73357619D01*
X153160185Y-73357619D01*
X153160185Y-72341619D01*
X152821519Y-72341619D01*
X152724757Y-72390000D01*
X152676376Y-72438380D01*
X152627995Y-72535142D01*
X152627995Y-72631904D01*
X152676376Y-72728666D01*
X152724757Y-72777047D01*
X152821519Y-72825428D01*
X153160185Y-72825428D01*
X162594471Y-74119619D02*
X162497709Y-74119619D01*
X162400947Y-74168000D01*
X162352566Y-74216380D01*
X162304185Y-74313142D01*
X162255804Y-74506666D01*
X162255804Y-74748571D01*
X162304185Y-74942095D01*
X162352566Y-75038857D01*
X162400947Y-75087238D01*
X162497709Y-75135619D01*
X162594471Y-75135619D01*
X162691233Y-75087238D01*
X162739614Y-75038857D01*
X162787995Y-74942095D01*
X162836376Y-74748571D01*
X162836376Y-74506666D01*
X162787995Y-74313142D01*
X162739614Y-74216380D01*
X162691233Y-74168000D01*
X162594471Y-74119619D01*
X161288185Y-75135619D02*
X161868757Y-75135619D01*
X161578471Y-75135619D02*
X161578471Y-74119619D01*
X161675233Y-74264761D01*
X161771995Y-74361523D01*
X161868757Y-74409904D01*
X160320566Y-75135619D02*
X160901138Y-75135619D01*
X160610852Y-75135619D02*
X160610852Y-74119619D01*
X160707614Y-74264761D01*
X160804376Y-74361523D01*
X160901138Y-74409904D01*
X159691614Y-74119619D02*
X159594852Y-74119619D01*
X159498090Y-74168000D01*
X159449709Y-74216380D01*
X159401328Y-74313142D01*
X159352947Y-74506666D01*
X159352947Y-74748571D01*
X159401328Y-74942095D01*
X159449709Y-75038857D01*
X159498090Y-75087238D01*
X159594852Y-75135619D01*
X159691614Y-75135619D01*
X159788376Y-75087238D01*
X159836757Y-75038857D01*
X159885138Y-74942095D01*
X159933519Y-74748571D01*
X159933519Y-74506666D01*
X159885138Y-74313142D01*
X159836757Y-74216380D01*
X159788376Y-74168000D01*
X159691614Y-74119619D01*
X158917519Y-75038857D02*
X158869138Y-75087238D01*
X158917519Y-75135619D01*
X158965900Y-75087238D01*
X158917519Y-75038857D01*
X158917519Y-75135619D01*
X158917519Y-74506666D02*
X158869138Y-74555047D01*
X158917519Y-74603428D01*
X158965900Y-74555047D01*
X158917519Y-74506666D01*
X158917519Y-74603428D01*
X157707995Y-74845333D02*
X157224185Y-74845333D01*
X157804757Y-75135619D02*
X157466090Y-74119619D01*
X157127423Y-75135619D01*
X156063042Y-74845333D02*
X155579233Y-74845333D01*
X156159804Y-75135619D02*
X155821138Y-74119619D01*
X155482471Y-75135619D01*
X155143804Y-75135619D02*
X155143804Y-74119619D01*
X154563233Y-75135619D01*
X154563233Y-74119619D01*
X154079423Y-75135619D02*
X154079423Y-74119619D01*
X153837519Y-74119619D01*
X153692376Y-74168000D01*
X153595614Y-74264761D01*
X153547233Y-74361523D01*
X153498852Y-74555047D01*
X153498852Y-74700190D01*
X153547233Y-74893714D01*
X153595614Y-74990476D01*
X153692376Y-75087238D01*
X153837519Y-75135619D01*
X154079423Y-75135619D01*
X151950661Y-74603428D02*
X151805519Y-74651809D01*
X151757138Y-74700190D01*
X151708757Y-74796952D01*
X151708757Y-74942095D01*
X151757138Y-75038857D01*
X151805519Y-75087238D01*
X151902280Y-75135619D01*
X152289328Y-75135619D01*
X152289328Y-74119619D01*
X151950661Y-74119619D01*
X151853900Y-74168000D01*
X151805519Y-74216380D01*
X151757138Y-74313142D01*
X151757138Y-74409904D01*
X151805519Y-74506666D01*
X151853900Y-74555047D01*
X151950661Y-74603428D01*
X152289328Y-74603428D01*
X162594471Y-75897619D02*
X162497709Y-75897619D01*
X162400947Y-75946000D01*
X162352566Y-75994380D01*
X162304185Y-76091142D01*
X162255804Y-76284666D01*
X162255804Y-76526571D01*
X162304185Y-76720095D01*
X162352566Y-76816857D01*
X162400947Y-76865238D01*
X162497709Y-76913619D01*
X162594471Y-76913619D01*
X162691233Y-76865238D01*
X162739614Y-76816857D01*
X162787995Y-76720095D01*
X162836376Y-76526571D01*
X162836376Y-76284666D01*
X162787995Y-76091142D01*
X162739614Y-75994380D01*
X162691233Y-75946000D01*
X162594471Y-75897619D01*
X161288185Y-76913619D02*
X161868757Y-76913619D01*
X161578471Y-76913619D02*
X161578471Y-75897619D01*
X161675233Y-76042761D01*
X161771995Y-76139523D01*
X161868757Y-76187904D01*
X160320566Y-76913619D02*
X160901138Y-76913619D01*
X160610852Y-76913619D02*
X160610852Y-75897619D01*
X160707614Y-76042761D01*
X160804376Y-76139523D01*
X160901138Y-76187904D01*
X159352947Y-76913619D02*
X159933519Y-76913619D01*
X159643233Y-76913619D02*
X159643233Y-75897619D01*
X159739995Y-76042761D01*
X159836757Y-76139523D01*
X159933519Y-76187904D01*
X158917519Y-76816857D02*
X158869138Y-76865238D01*
X158917519Y-76913619D01*
X158965900Y-76865238D01*
X158917519Y-76816857D01*
X158917519Y-76913619D01*
X158917519Y-76284666D02*
X158869138Y-76333047D01*
X158917519Y-76381428D01*
X158965900Y-76333047D01*
X158917519Y-76284666D01*
X158917519Y-76381428D01*
X157466090Y-75897619D02*
X157369328Y-75897619D01*
X157272566Y-75946000D01*
X157224185Y-75994380D01*
X157175804Y-76091142D01*
X157127423Y-76284666D01*
X157127423Y-76526571D01*
X157175804Y-76720095D01*
X157224185Y-76816857D01*
X157272566Y-76865238D01*
X157369328Y-76913619D01*
X157466090Y-76913619D01*
X157562852Y-76865238D01*
X157611233Y-76816857D01*
X157659614Y-76720095D01*
X157707995Y-76526571D01*
X157707995Y-76284666D01*
X157659614Y-76091142D01*
X157611233Y-75994380D01*
X157562852Y-75946000D01*
X157466090Y-75897619D01*
X156788757Y-76913619D02*
X156256566Y-76236285D01*
X156788757Y-76236285D02*
X156256566Y-76913619D01*
X155530852Y-76381428D02*
X155869519Y-76381428D01*
X155869519Y-76913619D02*
X155869519Y-75897619D01*
X155385709Y-75897619D01*
X154659995Y-76381428D02*
X154998661Y-76381428D01*
X154998661Y-76913619D02*
X154998661Y-75897619D01*
X154514852Y-75897619D01*
X162255804Y-78691619D02*
X162836376Y-78691619D01*
X162546090Y-78691619D02*
X162546090Y-77675619D01*
X162642852Y-77820761D01*
X162739614Y-77917523D01*
X162836376Y-77965904D01*
X161626852Y-77675619D02*
X161530090Y-77675619D01*
X161433328Y-77724000D01*
X161384947Y-77772380D01*
X161336566Y-77869142D01*
X161288185Y-78062666D01*
X161288185Y-78304571D01*
X161336566Y-78498095D01*
X161384947Y-78594857D01*
X161433328Y-78643238D01*
X161530090Y-78691619D01*
X161626852Y-78691619D01*
X161723614Y-78643238D01*
X161771995Y-78594857D01*
X161820376Y-78498095D01*
X161868757Y-78304571D01*
X161868757Y-78062666D01*
X161820376Y-77869142D01*
X161771995Y-77772380D01*
X161723614Y-77724000D01*
X161626852Y-77675619D01*
X160659233Y-77675619D02*
X160562471Y-77675619D01*
X160465709Y-77724000D01*
X160417328Y-77772380D01*
X160368947Y-77869142D01*
X160320566Y-78062666D01*
X160320566Y-78304571D01*
X160368947Y-78498095D01*
X160417328Y-78594857D01*
X160465709Y-78643238D01*
X160562471Y-78691619D01*
X160659233Y-78691619D01*
X160755995Y-78643238D01*
X160804376Y-78594857D01*
X160852757Y-78498095D01*
X160901138Y-78304571D01*
X160901138Y-78062666D01*
X160852757Y-77869142D01*
X160804376Y-77772380D01*
X160755995Y-77724000D01*
X160659233Y-77675619D01*
X159691614Y-77675619D02*
X159594852Y-77675619D01*
X159498090Y-77724000D01*
X159449709Y-77772380D01*
X159401328Y-77869142D01*
X159352947Y-78062666D01*
X159352947Y-78304571D01*
X159401328Y-78498095D01*
X159449709Y-78594857D01*
X159498090Y-78643238D01*
X159594852Y-78691619D01*
X159691614Y-78691619D01*
X159788376Y-78643238D01*
X159836757Y-78594857D01*
X159885138Y-78498095D01*
X159933519Y-78304571D01*
X159933519Y-78062666D01*
X159885138Y-77869142D01*
X159836757Y-77772380D01*
X159788376Y-77724000D01*
X159691614Y-77675619D01*
X158917519Y-78594857D02*
X158869138Y-78643238D01*
X158917519Y-78691619D01*
X158965900Y-78643238D01*
X158917519Y-78594857D01*
X158917519Y-78691619D01*
X158917519Y-78062666D02*
X158869138Y-78111047D01*
X158917519Y-78159428D01*
X158965900Y-78111047D01*
X158917519Y-78062666D01*
X158917519Y-78159428D01*
X157659614Y-78691619D02*
X157659614Y-77675619D01*
X157175804Y-78691619D02*
X157175804Y-77675619D01*
X156595233Y-78691619D01*
X156595233Y-77675619D01*
X155530852Y-78594857D02*
X155579233Y-78643238D01*
X155724376Y-78691619D01*
X155821138Y-78691619D01*
X155966280Y-78643238D01*
X156063042Y-78546476D01*
X156111423Y-78449714D01*
X156159804Y-78256190D01*
X156159804Y-78111047D01*
X156111423Y-77917523D01*
X156063042Y-77820761D01*
X155966280Y-77724000D01*
X155821138Y-77675619D01*
X155724376Y-77675619D01*
X155579233Y-77724000D01*
X155530852Y-77772380D01*
X154369709Y-78401333D02*
X153885900Y-78401333D01*
X154466471Y-78691619D02*
X154127804Y-77675619D01*
X153789138Y-78691619D01*
X162255804Y-80469619D02*
X162836376Y-80469619D01*
X162546090Y-80469619D02*
X162546090Y-79453619D01*
X162642852Y-79598761D01*
X162739614Y-79695523D01*
X162836376Y-79743904D01*
X161626852Y-79453619D02*
X161530090Y-79453619D01*
X161433328Y-79502000D01*
X161384947Y-79550380D01*
X161336566Y-79647142D01*
X161288185Y-79840666D01*
X161288185Y-80082571D01*
X161336566Y-80276095D01*
X161384947Y-80372857D01*
X161433328Y-80421238D01*
X161530090Y-80469619D01*
X161626852Y-80469619D01*
X161723614Y-80421238D01*
X161771995Y-80372857D01*
X161820376Y-80276095D01*
X161868757Y-80082571D01*
X161868757Y-79840666D01*
X161820376Y-79647142D01*
X161771995Y-79550380D01*
X161723614Y-79502000D01*
X161626852Y-79453619D01*
X160659233Y-79453619D02*
X160562471Y-79453619D01*
X160465709Y-79502000D01*
X160417328Y-79550380D01*
X160368947Y-79647142D01*
X160320566Y-79840666D01*
X160320566Y-80082571D01*
X160368947Y-80276095D01*
X160417328Y-80372857D01*
X160465709Y-80421238D01*
X160562471Y-80469619D01*
X160659233Y-80469619D01*
X160755995Y-80421238D01*
X160804376Y-80372857D01*
X160852757Y-80276095D01*
X160901138Y-80082571D01*
X160901138Y-79840666D01*
X160852757Y-79647142D01*
X160804376Y-79550380D01*
X160755995Y-79502000D01*
X160659233Y-79453619D01*
X159352947Y-80469619D02*
X159933519Y-80469619D01*
X159643233Y-80469619D02*
X159643233Y-79453619D01*
X159739995Y-79598761D01*
X159836757Y-79695523D01*
X159933519Y-79743904D01*
X158917519Y-80372857D02*
X158869138Y-80421238D01*
X158917519Y-80469619D01*
X158965900Y-80421238D01*
X158917519Y-80372857D01*
X158917519Y-80469619D01*
X158917519Y-79840666D02*
X158869138Y-79889047D01*
X158917519Y-79937428D01*
X158965900Y-79889047D01*
X158917519Y-79840666D01*
X158917519Y-79937428D01*
X157659614Y-80469619D02*
X157659614Y-79453619D01*
X157417709Y-79453619D01*
X157272566Y-79502000D01*
X157175804Y-79598761D01*
X157127423Y-79695523D01*
X157079042Y-79889047D01*
X157079042Y-80034190D01*
X157127423Y-80227714D01*
X157175804Y-80324476D01*
X157272566Y-80421238D01*
X157417709Y-80469619D01*
X157659614Y-80469619D01*
X156643614Y-79937428D02*
X156304947Y-79937428D01*
X156159804Y-80469619D02*
X156643614Y-80469619D01*
X156643614Y-79453619D01*
X156159804Y-79453619D01*
X155143804Y-80372857D02*
X155192185Y-80421238D01*
X155337328Y-80469619D01*
X155434090Y-80469619D01*
X155579233Y-80421238D01*
X155675995Y-80324476D01*
X155724376Y-80227714D01*
X155772757Y-80034190D01*
X155772757Y-79889047D01*
X155724376Y-79695523D01*
X155675995Y-79598761D01*
X155579233Y-79502000D01*
X155434090Y-79453619D01*
X155337328Y-79453619D01*
X155192185Y-79502000D01*
X155143804Y-79550380D01*
X153982661Y-80179333D02*
X153498852Y-80179333D01*
X154079423Y-80469619D02*
X153740757Y-79453619D01*
X153402090Y-80469619D01*
X162255804Y-82247619D02*
X162836376Y-82247619D01*
X162546090Y-82247619D02*
X162546090Y-81231619D01*
X162642852Y-81376761D01*
X162739614Y-81473523D01*
X162836376Y-81521904D01*
X161626852Y-81231619D02*
X161530090Y-81231619D01*
X161433328Y-81280000D01*
X161384947Y-81328380D01*
X161336566Y-81425142D01*
X161288185Y-81618666D01*
X161288185Y-81860571D01*
X161336566Y-82054095D01*
X161384947Y-82150857D01*
X161433328Y-82199238D01*
X161530090Y-82247619D01*
X161626852Y-82247619D01*
X161723614Y-82199238D01*
X161771995Y-82150857D01*
X161820376Y-82054095D01*
X161868757Y-81860571D01*
X161868757Y-81618666D01*
X161820376Y-81425142D01*
X161771995Y-81328380D01*
X161723614Y-81280000D01*
X161626852Y-81231619D01*
X160320566Y-82247619D02*
X160901138Y-82247619D01*
X160610852Y-82247619D02*
X160610852Y-81231619D01*
X160707614Y-81376761D01*
X160804376Y-81473523D01*
X160901138Y-81521904D01*
X159691614Y-81231619D02*
X159594852Y-81231619D01*
X159498090Y-81280000D01*
X159449709Y-81328380D01*
X159401328Y-81425142D01*
X159352947Y-81618666D01*
X159352947Y-81860571D01*
X159401328Y-82054095D01*
X159449709Y-82150857D01*
X159498090Y-82199238D01*
X159594852Y-82247619D01*
X159691614Y-82247619D01*
X159788376Y-82199238D01*
X159836757Y-82150857D01*
X159885138Y-82054095D01*
X159933519Y-81860571D01*
X159933519Y-81618666D01*
X159885138Y-81425142D01*
X159836757Y-81328380D01*
X159788376Y-81280000D01*
X159691614Y-81231619D01*
X158917519Y-82150857D02*
X158869138Y-82199238D01*
X158917519Y-82247619D01*
X158965900Y-82199238D01*
X158917519Y-82150857D01*
X158917519Y-82247619D01*
X158917519Y-81618666D02*
X158869138Y-81667047D01*
X158917519Y-81715428D01*
X158965900Y-81667047D01*
X158917519Y-81618666D01*
X158917519Y-81715428D01*
X157659614Y-82247619D02*
X157659614Y-81231619D01*
X157079042Y-82247619D01*
X157079042Y-81231619D01*
X156401709Y-81231619D02*
X156208185Y-81231619D01*
X156111423Y-81280000D01*
X156014661Y-81376761D01*
X155966280Y-81570285D01*
X155966280Y-81908952D01*
X156014661Y-82102476D01*
X156111423Y-82199238D01*
X156208185Y-82247619D01*
X156401709Y-82247619D01*
X156498471Y-82199238D01*
X156595233Y-82102476D01*
X156643614Y-81908952D01*
X156643614Y-81570285D01*
X156595233Y-81376761D01*
X156498471Y-81280000D01*
X156401709Y-81231619D01*
X155675995Y-81231619D02*
X155095423Y-81231619D01*
X155385709Y-82247619D02*
X155385709Y-81231619D01*
X154031042Y-81957333D02*
X153547233Y-81957333D01*
X154127804Y-82247619D02*
X153789138Y-81231619D01*
X153450471Y-82247619D01*
X162255804Y-84025619D02*
X162836376Y-84025619D01*
X162546090Y-84025619D02*
X162546090Y-83009619D01*
X162642852Y-83154761D01*
X162739614Y-83251523D01*
X162836376Y-83299904D01*
X161626852Y-83009619D02*
X161530090Y-83009619D01*
X161433328Y-83058000D01*
X161384947Y-83106380D01*
X161336566Y-83203142D01*
X161288185Y-83396666D01*
X161288185Y-83638571D01*
X161336566Y-83832095D01*
X161384947Y-83928857D01*
X161433328Y-83977238D01*
X161530090Y-84025619D01*
X161626852Y-84025619D01*
X161723614Y-83977238D01*
X161771995Y-83928857D01*
X161820376Y-83832095D01*
X161868757Y-83638571D01*
X161868757Y-83396666D01*
X161820376Y-83203142D01*
X161771995Y-83106380D01*
X161723614Y-83058000D01*
X161626852Y-83009619D01*
X160320566Y-84025619D02*
X160901138Y-84025619D01*
X160610852Y-84025619D02*
X160610852Y-83009619D01*
X160707614Y-83154761D01*
X160804376Y-83251523D01*
X160901138Y-83299904D01*
X159352947Y-84025619D02*
X159933519Y-84025619D01*
X159643233Y-84025619D02*
X159643233Y-83009619D01*
X159739995Y-83154761D01*
X159836757Y-83251523D01*
X159933519Y-83299904D01*
X158917519Y-83928857D02*
X158869138Y-83977238D01*
X158917519Y-84025619D01*
X158965900Y-83977238D01*
X158917519Y-83928857D01*
X158917519Y-84025619D01*
X158917519Y-83396666D02*
X158869138Y-83445047D01*
X158917519Y-83493428D01*
X158965900Y-83445047D01*
X158917519Y-83396666D01*
X158917519Y-83493428D01*
X157659614Y-84025619D02*
X157659614Y-83009619D01*
X157079042Y-84025619D01*
X157079042Y-83009619D01*
X156401709Y-83009619D02*
X156208185Y-83009619D01*
X156111423Y-83058000D01*
X156014661Y-83154761D01*
X155966280Y-83348285D01*
X155966280Y-83686952D01*
X156014661Y-83880476D01*
X156111423Y-83977238D01*
X156208185Y-84025619D01*
X156401709Y-84025619D01*
X156498471Y-83977238D01*
X156595233Y-83880476D01*
X156643614Y-83686952D01*
X156643614Y-83348285D01*
X156595233Y-83154761D01*
X156498471Y-83058000D01*
X156401709Y-83009619D01*
X155675995Y-83009619D02*
X155095423Y-83009619D01*
X155385709Y-84025619D02*
X155385709Y-83009619D01*
X153643995Y-83493428D02*
X153498852Y-83541809D01*
X153450471Y-83590190D01*
X153402090Y-83686952D01*
X153402090Y-83832095D01*
X153450471Y-83928857D01*
X153498852Y-83977238D01*
X153595614Y-84025619D01*
X153982661Y-84025619D01*
X153982661Y-83009619D01*
X153643995Y-83009619D01*
X153547233Y-83058000D01*
X153498852Y-83106380D01*
X153450471Y-83203142D01*
X153450471Y-83299904D01*
X153498852Y-83396666D01*
X153547233Y-83445047D01*
X153643995Y-83493428D01*
X153982661Y-83493428D01*
X162255804Y-85803619D02*
X162836376Y-85803619D01*
X162546090Y-85803619D02*
X162546090Y-84787619D01*
X162642852Y-84932761D01*
X162739614Y-85029523D01*
X162836376Y-85077904D01*
X161288185Y-85803619D02*
X161868757Y-85803619D01*
X161578471Y-85803619D02*
X161578471Y-84787619D01*
X161675233Y-84932761D01*
X161771995Y-85029523D01*
X161868757Y-85077904D01*
X160659233Y-84787619D02*
X160562471Y-84787619D01*
X160465709Y-84836000D01*
X160417328Y-84884380D01*
X160368947Y-84981142D01*
X160320566Y-85174666D01*
X160320566Y-85416571D01*
X160368947Y-85610095D01*
X160417328Y-85706857D01*
X160465709Y-85755238D01*
X160562471Y-85803619D01*
X160659233Y-85803619D01*
X160755995Y-85755238D01*
X160804376Y-85706857D01*
X160852757Y-85610095D01*
X160901138Y-85416571D01*
X160901138Y-85174666D01*
X160852757Y-84981142D01*
X160804376Y-84884380D01*
X160755995Y-84836000D01*
X160659233Y-84787619D01*
X159691614Y-84787619D02*
X159594852Y-84787619D01*
X159498090Y-84836000D01*
X159449709Y-84884380D01*
X159401328Y-84981142D01*
X159352947Y-85174666D01*
X159352947Y-85416571D01*
X159401328Y-85610095D01*
X159449709Y-85706857D01*
X159498090Y-85755238D01*
X159594852Y-85803619D01*
X159691614Y-85803619D01*
X159788376Y-85755238D01*
X159836757Y-85706857D01*
X159885138Y-85610095D01*
X159933519Y-85416571D01*
X159933519Y-85174666D01*
X159885138Y-84981142D01*
X159836757Y-84884380D01*
X159788376Y-84836000D01*
X159691614Y-84787619D01*
X158917519Y-85706857D02*
X158869138Y-85755238D01*
X158917519Y-85803619D01*
X158965900Y-85755238D01*
X158917519Y-85706857D01*
X158917519Y-85803619D01*
X158917519Y-85174666D02*
X158869138Y-85223047D01*
X158917519Y-85271428D01*
X158965900Y-85223047D01*
X158917519Y-85174666D01*
X158917519Y-85271428D01*
X157707995Y-85513333D02*
X157224185Y-85513333D01*
X157804757Y-85803619D02*
X157466090Y-84787619D01*
X157127423Y-85803619D01*
X155240566Y-85126285D02*
X156014661Y-85416571D01*
X155240566Y-85706857D01*
X153982661Y-85126285D02*
X154756757Y-85416571D01*
X153982661Y-85706857D01*
X152386090Y-85271428D02*
X152240947Y-85319809D01*
X152192566Y-85368190D01*
X152144185Y-85464952D01*
X152144185Y-85610095D01*
X152192566Y-85706857D01*
X152240947Y-85755238D01*
X152337709Y-85803619D01*
X152724757Y-85803619D01*
X152724757Y-84787619D01*
X152386090Y-84787619D01*
X152289328Y-84836000D01*
X152240947Y-84884380D01*
X152192566Y-84981142D01*
X152192566Y-85077904D01*
X152240947Y-85174666D01*
X152289328Y-85223047D01*
X152386090Y-85271428D01*
X152724757Y-85271428D01*
X162255804Y-87581619D02*
X162836376Y-87581619D01*
X162546090Y-87581619D02*
X162546090Y-86565619D01*
X162642852Y-86710761D01*
X162739614Y-86807523D01*
X162836376Y-86855904D01*
X161288185Y-87581619D02*
X161868757Y-87581619D01*
X161578471Y-87581619D02*
X161578471Y-86565619D01*
X161675233Y-86710761D01*
X161771995Y-86807523D01*
X161868757Y-86855904D01*
X160659233Y-86565619D02*
X160562471Y-86565619D01*
X160465709Y-86614000D01*
X160417328Y-86662380D01*
X160368947Y-86759142D01*
X160320566Y-86952666D01*
X160320566Y-87194571D01*
X160368947Y-87388095D01*
X160417328Y-87484857D01*
X160465709Y-87533238D01*
X160562471Y-87581619D01*
X160659233Y-87581619D01*
X160755995Y-87533238D01*
X160804376Y-87484857D01*
X160852757Y-87388095D01*
X160901138Y-87194571D01*
X160901138Y-86952666D01*
X160852757Y-86759142D01*
X160804376Y-86662380D01*
X160755995Y-86614000D01*
X160659233Y-86565619D01*
X159352947Y-87581619D02*
X159933519Y-87581619D01*
X159643233Y-87581619D02*
X159643233Y-86565619D01*
X159739995Y-86710761D01*
X159836757Y-86807523D01*
X159933519Y-86855904D01*
X158917519Y-87484857D02*
X158869138Y-87533238D01*
X158917519Y-87581619D01*
X158965900Y-87533238D01*
X158917519Y-87484857D01*
X158917519Y-87581619D01*
X158917519Y-86952666D02*
X158869138Y-87001047D01*
X158917519Y-87049428D01*
X158965900Y-87001047D01*
X158917519Y-86952666D01*
X158917519Y-87049428D01*
X157707995Y-87291333D02*
X157224185Y-87291333D01*
X157804757Y-87581619D02*
X157466090Y-86565619D01*
X157127423Y-87581619D01*
X156014661Y-86904285D02*
X155240566Y-87194571D01*
X156014661Y-87484857D01*
X154756757Y-86904285D02*
X153982661Y-87194571D01*
X154756757Y-87484857D01*
X152386090Y-87049428D02*
X152240947Y-87097809D01*
X152192566Y-87146190D01*
X152144185Y-87242952D01*
X152144185Y-87388095D01*
X152192566Y-87484857D01*
X152240947Y-87533238D01*
X152337709Y-87581619D01*
X152724757Y-87581619D01*
X152724757Y-86565619D01*
X152386090Y-86565619D01*
X152289328Y-86614000D01*
X152240947Y-86662380D01*
X152192566Y-86759142D01*
X152192566Y-86855904D01*
X152240947Y-86952666D01*
X152289328Y-87001047D01*
X152386090Y-87049428D01*
X152724757Y-87049428D01*
X162255804Y-89359619D02*
X162836376Y-89359619D01*
X162546090Y-89359619D02*
X162546090Y-88343619D01*
X162642852Y-88488761D01*
X162739614Y-88585523D01*
X162836376Y-88633904D01*
X161288185Y-89359619D02*
X161868757Y-89359619D01*
X161578471Y-89359619D02*
X161578471Y-88343619D01*
X161675233Y-88488761D01*
X161771995Y-88585523D01*
X161868757Y-88633904D01*
X160320566Y-89359619D02*
X160901138Y-89359619D01*
X160610852Y-89359619D02*
X160610852Y-88343619D01*
X160707614Y-88488761D01*
X160804376Y-88585523D01*
X160901138Y-88633904D01*
X159691614Y-88343619D02*
X159594852Y-88343619D01*
X159498090Y-88392000D01*
X159449709Y-88440380D01*
X159401328Y-88537142D01*
X159352947Y-88730666D01*
X159352947Y-88972571D01*
X159401328Y-89166095D01*
X159449709Y-89262857D01*
X159498090Y-89311238D01*
X159594852Y-89359619D01*
X159691614Y-89359619D01*
X159788376Y-89311238D01*
X159836757Y-89262857D01*
X159885138Y-89166095D01*
X159933519Y-88972571D01*
X159933519Y-88730666D01*
X159885138Y-88537142D01*
X159836757Y-88440380D01*
X159788376Y-88392000D01*
X159691614Y-88343619D01*
X158917519Y-89262857D02*
X158869138Y-89311238D01*
X158917519Y-89359619D01*
X158965900Y-89311238D01*
X158917519Y-89262857D01*
X158917519Y-89359619D01*
X158917519Y-88730666D02*
X158869138Y-88779047D01*
X158917519Y-88827428D01*
X158965900Y-88779047D01*
X158917519Y-88730666D01*
X158917519Y-88827428D01*
X157707995Y-89069333D02*
X157224185Y-89069333D01*
X157804757Y-89359619D02*
X157466090Y-88343619D01*
X157127423Y-89359619D01*
X162255804Y-91137619D02*
X162836376Y-91137619D01*
X162546090Y-91137619D02*
X162546090Y-90121619D01*
X162642852Y-90266761D01*
X162739614Y-90363523D01*
X162836376Y-90411904D01*
X161288185Y-91137619D02*
X161868757Y-91137619D01*
X161578471Y-91137619D02*
X161578471Y-90121619D01*
X161675233Y-90266761D01*
X161771995Y-90363523D01*
X161868757Y-90411904D01*
X160320566Y-91137619D02*
X160901138Y-91137619D01*
X160610852Y-91137619D02*
X160610852Y-90121619D01*
X160707614Y-90266761D01*
X160804376Y-90363523D01*
X160901138Y-90411904D01*
X159352947Y-91137619D02*
X159933519Y-91137619D01*
X159643233Y-91137619D02*
X159643233Y-90121619D01*
X159739995Y-90266761D01*
X159836757Y-90363523D01*
X159933519Y-90411904D01*
X158917519Y-91040857D02*
X158869138Y-91089238D01*
X158917519Y-91137619D01*
X158965900Y-91089238D01*
X158917519Y-91040857D01*
X158917519Y-91137619D01*
X158917519Y-90508666D02*
X158869138Y-90557047D01*
X158917519Y-90605428D01*
X158965900Y-90557047D01*
X158917519Y-90508666D01*
X158917519Y-90605428D01*
X157466090Y-90121619D02*
X157369328Y-90121619D01*
X157272566Y-90170000D01*
X157224185Y-90218380D01*
X157175804Y-90315142D01*
X157127423Y-90508666D01*
X157127423Y-90750571D01*
X157175804Y-90944095D01*
X157224185Y-91040857D01*
X157272566Y-91089238D01*
X157369328Y-91137619D01*
X157466090Y-91137619D01*
X157562852Y-91089238D01*
X157611233Y-91040857D01*
X157659614Y-90944095D01*
X157707995Y-90750571D01*
X157707995Y-90508666D01*
X157659614Y-90315142D01*
X157611233Y-90218380D01*
X157562852Y-90170000D01*
X157466090Y-90121619D01*
X156788757Y-91137619D02*
X156256566Y-90460285D01*
X156788757Y-90460285D02*
X156256566Y-91137619D01*
X155675995Y-90121619D02*
X155579233Y-90121619D01*
X155482471Y-90170000D01*
X155434090Y-90218380D01*
X155385709Y-90315142D01*
X155337328Y-90508666D01*
X155337328Y-90750571D01*
X155385709Y-90944095D01*
X155434090Y-91040857D01*
X155482471Y-91089238D01*
X155579233Y-91137619D01*
X155675995Y-91137619D01*
X155772757Y-91089238D01*
X155821138Y-91040857D01*
X155869519Y-90944095D01*
X155917900Y-90750571D01*
X155917900Y-90508666D01*
X155869519Y-90315142D01*
X155821138Y-90218380D01*
X155772757Y-90170000D01*
X155675995Y-90121619D01*
X154708376Y-90121619D02*
X154611614Y-90121619D01*
X154514852Y-90170000D01*
X154466471Y-90218380D01*
X154418090Y-90315142D01*
X154369709Y-90508666D01*
X154369709Y-90750571D01*
X154418090Y-90944095D01*
X154466471Y-91040857D01*
X154514852Y-91089238D01*
X154611614Y-91137619D01*
X154708376Y-91137619D01*
X154805138Y-91089238D01*
X154853519Y-91040857D01*
X154901900Y-90944095D01*
X154950280Y-90750571D01*
X154950280Y-90508666D01*
X154901900Y-90315142D01*
X154853519Y-90218380D01*
X154805138Y-90170000D01*
X154708376Y-90121619D01*
D12*
X64921190Y-150277285D02*
X64921190Y-151148142D01*
X64969571Y-151244904D01*
X65066333Y-151293285D01*
X65114714Y-151293285D01*
X64921190Y-149938619D02*
X64969571Y-149987000D01*
X64921190Y-150035380D01*
X64872809Y-149987000D01*
X64921190Y-149938619D01*
X64921190Y-150035380D01*
X64001952Y-150954619D02*
X64001952Y-150422428D01*
X64050333Y-150325666D01*
X64147095Y-150277285D01*
X64340619Y-150277285D01*
X64437380Y-150325666D01*
X64001952Y-150906238D02*
X64098714Y-150954619D01*
X64340619Y-150954619D01*
X64437380Y-150906238D01*
X64485761Y-150809476D01*
X64485761Y-150712714D01*
X64437380Y-150615952D01*
X64340619Y-150567571D01*
X64098714Y-150567571D01*
X64001952Y-150519190D01*
X63518142Y-150954619D02*
X63518142Y-150277285D01*
X63518142Y-150374047D02*
X63469761Y-150325666D01*
X63373000Y-150277285D01*
X63227857Y-150277285D01*
X63131095Y-150325666D01*
X63082714Y-150422428D01*
X63082714Y-150954619D01*
X63082714Y-150422428D02*
X63034333Y-150325666D01*
X62937571Y-150277285D01*
X62792428Y-150277285D01*
X62695666Y-150325666D01*
X62647285Y-150422428D01*
X62647285Y-150954619D01*
X61776428Y-150906238D02*
X61873190Y-150954619D01*
X62066714Y-150954619D01*
X62163476Y-150906238D01*
X62211857Y-150809476D01*
X62211857Y-150422428D01*
X62163476Y-150325666D01*
X62066714Y-150277285D01*
X61873190Y-150277285D01*
X61776428Y-150325666D01*
X61728047Y-150422428D01*
X61728047Y-150519190D01*
X62211857Y-150615952D01*
X61341000Y-150906238D02*
X61244238Y-150954619D01*
X61050714Y-150954619D01*
X60953952Y-150906238D01*
X60905571Y-150809476D01*
X60905571Y-150761095D01*
X60953952Y-150664333D01*
X61050714Y-150615952D01*
X61195857Y-150615952D01*
X61292619Y-150567571D01*
X61341000Y-150470809D01*
X61341000Y-150422428D01*
X61292619Y-150325666D01*
X61195857Y-150277285D01*
X61050714Y-150277285D01*
X60953952Y-150325666D01*
X59841190Y-150470809D02*
X59889571Y-150422428D01*
X59986333Y-150374047D01*
X60083095Y-150374047D01*
X60179857Y-150422428D01*
X60228238Y-150470809D01*
X60276619Y-150567571D01*
X60276619Y-150664333D01*
X60228238Y-150761095D01*
X60179857Y-150809476D01*
X60083095Y-150857857D01*
X59986333Y-150857857D01*
X59889571Y-150809476D01*
X59841190Y-150761095D01*
X59841190Y-150374047D02*
X59841190Y-150761095D01*
X59792809Y-150809476D01*
X59744428Y-150809476D01*
X59647666Y-150761095D01*
X59599285Y-150664333D01*
X59599285Y-150422428D01*
X59696047Y-150277285D01*
X59841190Y-150180523D01*
X60034714Y-150132142D01*
X60228238Y-150180523D01*
X60373380Y-150277285D01*
X60470142Y-150422428D01*
X60518523Y-150615952D01*
X60470142Y-150809476D01*
X60373380Y-150954619D01*
X60228238Y-151051380D01*
X60034714Y-151099761D01*
X59841190Y-151051380D01*
X59696047Y-150954619D01*
X59309000Y-150277285D02*
X58921952Y-150277285D01*
X59163857Y-150954619D02*
X59163857Y-150083761D01*
X59115476Y-149987000D01*
X59018714Y-149938619D01*
X58921952Y-149938619D01*
X58583285Y-150954619D02*
X58583285Y-150277285D01*
X58583285Y-150470809D02*
X58534904Y-150374047D01*
X58486523Y-150325666D01*
X58389761Y-150277285D01*
X58293000Y-150277285D01*
X57567285Y-150906238D02*
X57664047Y-150954619D01*
X57857571Y-150954619D01*
X57954333Y-150906238D01*
X58002714Y-150809476D01*
X58002714Y-150422428D01*
X57954333Y-150325666D01*
X57857571Y-150277285D01*
X57664047Y-150277285D01*
X57567285Y-150325666D01*
X57518904Y-150422428D01*
X57518904Y-150519190D01*
X58002714Y-150615952D01*
X57083476Y-150277285D02*
X57083476Y-150954619D01*
X57083476Y-150374047D02*
X57035095Y-150325666D01*
X56938333Y-150277285D01*
X56793190Y-150277285D01*
X56696428Y-150325666D01*
X56648047Y-150422428D01*
X56648047Y-150954619D01*
X55728809Y-150906238D02*
X55825571Y-150954619D01*
X56019095Y-150954619D01*
X56115857Y-150906238D01*
X56164238Y-150857857D01*
X56212619Y-150761095D01*
X56212619Y-150470809D01*
X56164238Y-150374047D01*
X56115857Y-150325666D01*
X56019095Y-150277285D01*
X55825571Y-150277285D01*
X55728809Y-150325666D01*
X55293380Y-150954619D02*
X55293380Y-149938619D01*
X54857952Y-150954619D02*
X54857952Y-150422428D01*
X54906333Y-150325666D01*
X55003095Y-150277285D01*
X55148238Y-150277285D01*
X55245000Y-150325666D01*
X55293380Y-150374047D01*
X54374142Y-150857857D02*
X54325761Y-150906238D01*
X54374142Y-150954619D01*
X54422523Y-150906238D01*
X54374142Y-150857857D01*
X54374142Y-150954619D01*
X53890333Y-150954619D02*
X53890333Y-150277285D01*
X53890333Y-149938619D02*
X53938714Y-149987000D01*
X53890333Y-150035380D01*
X53841952Y-149987000D01*
X53890333Y-149938619D01*
X53890333Y-150035380D01*
X52971095Y-150954619D02*
X52971095Y-149938619D01*
X52971095Y-150906238D02*
X53067857Y-150954619D01*
X53261380Y-150954619D01*
X53358142Y-150906238D01*
X53406523Y-150857857D01*
X53454904Y-150761095D01*
X53454904Y-150470809D01*
X53406523Y-150374047D01*
X53358142Y-150325666D01*
X53261380Y-150277285D01*
X53067857Y-150277285D01*
X52971095Y-150325666D01*
X52487285Y-150857857D02*
X52438904Y-150906238D01*
X52487285Y-150954619D01*
X52535666Y-150906238D01*
X52487285Y-150857857D01*
X52487285Y-150954619D01*
X51568047Y-150954619D02*
X51568047Y-150422428D01*
X51616428Y-150325666D01*
X51713190Y-150277285D01*
X51906714Y-150277285D01*
X52003476Y-150325666D01*
X51568047Y-150906238D02*
X51664809Y-150954619D01*
X51906714Y-150954619D01*
X52003476Y-150906238D01*
X52051857Y-150809476D01*
X52051857Y-150712714D01*
X52003476Y-150615952D01*
X51906714Y-150567571D01*
X51664809Y-150567571D01*
X51568047Y-150519190D01*
X50648809Y-150277285D02*
X50648809Y-150954619D01*
X51084238Y-150277285D02*
X51084238Y-150809476D01*
X51035857Y-150906238D01*
X50939095Y-150954619D01*
X50793952Y-150954619D01*
X50697190Y-150906238D01*
X50648809Y-150857857D01*
D13*
X62375142Y-152696928D02*
X62266285Y-152733214D01*
X62084857Y-152733214D01*
X62012285Y-152696928D01*
X61976000Y-152660642D01*
X61939714Y-152588071D01*
X61939714Y-152515500D01*
X61976000Y-152442928D01*
X62012285Y-152406642D01*
X62084857Y-152370357D01*
X62230000Y-152334071D01*
X62302571Y-152297785D01*
X62338857Y-152261500D01*
X62375142Y-152188928D01*
X62375142Y-152116357D01*
X62338857Y-152043785D01*
X62302571Y-152007500D01*
X62230000Y-151971214D01*
X62048571Y-151971214D01*
X61939714Y-152007500D01*
X61322857Y-152696928D02*
X61395428Y-152733214D01*
X61540571Y-152733214D01*
X61613142Y-152696928D01*
X61649428Y-152624357D01*
X61649428Y-152334071D01*
X61613142Y-152261500D01*
X61540571Y-152225214D01*
X61395428Y-152225214D01*
X61322857Y-152261500D01*
X61286571Y-152334071D01*
X61286571Y-152406642D01*
X61649428Y-152479214D01*
X60960000Y-152225214D02*
X60960000Y-152987214D01*
X60960000Y-152261500D02*
X60887428Y-152225214D01*
X60742285Y-152225214D01*
X60669714Y-152261500D01*
X60633428Y-152297785D01*
X60597142Y-152370357D01*
X60597142Y-152588071D01*
X60633428Y-152660642D01*
X60669714Y-152696928D01*
X60742285Y-152733214D01*
X60887428Y-152733214D01*
X60960000Y-152696928D01*
X60379428Y-152225214D02*
X60089142Y-152225214D01*
X60270571Y-151971214D02*
X60270571Y-152624357D01*
X60234285Y-152696928D01*
X60161714Y-152733214D01*
X60089142Y-152733214D01*
X59544857Y-152696928D02*
X59617428Y-152733214D01*
X59762571Y-152733214D01*
X59835142Y-152696928D01*
X59871428Y-152624357D01*
X59871428Y-152334071D01*
X59835142Y-152261500D01*
X59762571Y-152225214D01*
X59617428Y-152225214D01*
X59544857Y-152261500D01*
X59508571Y-152334071D01*
X59508571Y-152406642D01*
X59871428Y-152479214D01*
X59181999Y-152733214D02*
X59181999Y-152225214D01*
X59181999Y-152297785D02*
X59145714Y-152261500D01*
X59073142Y-152225214D01*
X58964285Y-152225214D01*
X58891714Y-152261500D01*
X58855428Y-152334071D01*
X58855428Y-152733214D01*
X58855428Y-152334071D02*
X58819142Y-152261500D01*
X58746571Y-152225214D01*
X58637714Y-152225214D01*
X58565142Y-152261500D01*
X58528857Y-152334071D01*
X58528857Y-152733214D01*
X58165999Y-152733214D02*
X58165999Y-151971214D01*
X58165999Y-152261500D02*
X58093428Y-152225214D01*
X57948285Y-152225214D01*
X57875714Y-152261500D01*
X57839428Y-152297785D01*
X57803142Y-152370357D01*
X57803142Y-152588071D01*
X57839428Y-152660642D01*
X57875714Y-152696928D01*
X57948285Y-152733214D01*
X58093428Y-152733214D01*
X58165999Y-152696928D01*
X57186285Y-152696928D02*
X57258857Y-152733214D01*
X57404000Y-152733214D01*
X57476571Y-152696928D01*
X57512857Y-152624357D01*
X57512857Y-152334071D01*
X57476571Y-152261500D01*
X57404000Y-152225214D01*
X57258857Y-152225214D01*
X57186285Y-152261500D01*
X57150000Y-152334071D01*
X57150000Y-152406642D01*
X57512857Y-152479214D01*
X56823428Y-152733214D02*
X56823428Y-152225214D01*
X56823428Y-152370357D02*
X56787142Y-152297785D01*
X56750857Y-152261500D01*
X56678285Y-152225214D01*
X56605714Y-152225214D01*
X55807428Y-152043785D02*
X55771142Y-152007500D01*
X55698571Y-151971214D01*
X55517142Y-151971214D01*
X55444571Y-152007500D01*
X55408285Y-152043785D01*
X55371999Y-152116357D01*
X55371999Y-152188928D01*
X55408285Y-152297785D01*
X55843714Y-152733214D01*
X55371999Y-152733214D01*
X54900285Y-151971214D02*
X54827714Y-151971214D01*
X54755142Y-152007500D01*
X54718857Y-152043785D01*
X54682571Y-152116357D01*
X54646285Y-152261500D01*
X54646285Y-152442928D01*
X54682571Y-152588071D01*
X54718857Y-152660642D01*
X54755142Y-152696928D01*
X54827714Y-152733214D01*
X54900285Y-152733214D01*
X54972857Y-152696928D01*
X55009142Y-152660642D01*
X55045428Y-152588071D01*
X55081714Y-152442928D01*
X55081714Y-152261500D01*
X55045428Y-152116357D01*
X55009142Y-152043785D01*
X54972857Y-152007500D01*
X54900285Y-151971214D01*
X53920571Y-152733214D02*
X54356000Y-152733214D01*
X54138285Y-152733214D02*
X54138285Y-151971214D01*
X54210857Y-152080071D01*
X54283428Y-152152642D01*
X54356000Y-152188928D01*
X53557714Y-152733214D02*
X53412571Y-152733214D01*
X53339999Y-152696928D01*
X53303714Y-152660642D01*
X53231142Y-152551785D01*
X53194857Y-152406642D01*
X53194857Y-152116357D01*
X53231142Y-152043785D01*
X53267428Y-152007500D01*
X53339999Y-151971214D01*
X53485142Y-151971214D01*
X53557714Y-152007500D01*
X53594000Y-152043785D01*
X53630285Y-152116357D01*
X53630285Y-152297785D01*
X53594000Y-152370357D01*
X53557714Y-152406642D01*
X53485142Y-152442928D01*
X53339999Y-152442928D01*
X53267428Y-152406642D01*
X53231142Y-152370357D01*
X53194857Y-152297785D01*
X60379428Y-154026214D02*
X60633428Y-153663357D01*
X60814857Y-154026214D02*
X60814857Y-153264214D01*
X60524571Y-153264214D01*
X60452000Y-153300500D01*
X60415714Y-153336785D01*
X60379428Y-153409357D01*
X60379428Y-153518214D01*
X60415714Y-153590785D01*
X60452000Y-153627071D01*
X60524571Y-153663357D01*
X60814857Y-153663357D01*
X59762571Y-153989928D02*
X59835142Y-154026214D01*
X59980285Y-154026214D01*
X60052857Y-153989928D01*
X60089142Y-153917357D01*
X60089142Y-153627071D01*
X60052857Y-153554500D01*
X59980285Y-153518214D01*
X59835142Y-153518214D01*
X59762571Y-153554500D01*
X59726285Y-153627071D01*
X59726285Y-153699642D01*
X60089142Y-153772214D01*
X59472285Y-153518214D02*
X59290857Y-154026214D01*
X59109428Y-153518214D01*
X58819142Y-154026214D02*
X58819142Y-153518214D01*
X58819142Y-153264214D02*
X58855428Y-153300500D01*
X58819142Y-153336785D01*
X58782857Y-153300500D01*
X58819142Y-153264214D01*
X58819142Y-153336785D01*
X58492571Y-153989928D02*
X58420000Y-154026214D01*
X58274857Y-154026214D01*
X58202285Y-153989928D01*
X58166000Y-153917357D01*
X58166000Y-153881071D01*
X58202285Y-153808500D01*
X58274857Y-153772214D01*
X58383714Y-153772214D01*
X58456285Y-153735928D01*
X58492571Y-153663357D01*
X58492571Y-153627071D01*
X58456285Y-153554500D01*
X58383714Y-153518214D01*
X58274857Y-153518214D01*
X58202285Y-153554500D01*
X57839428Y-154026214D02*
X57839428Y-153518214D01*
X57839428Y-153264214D02*
X57875714Y-153300500D01*
X57839428Y-153336785D01*
X57803142Y-153300500D01*
X57839428Y-153264214D01*
X57839428Y-153336785D01*
X57367714Y-154026214D02*
X57440285Y-153989928D01*
X57476571Y-153953642D01*
X57512857Y-153881071D01*
X57512857Y-153663357D01*
X57476571Y-153590785D01*
X57440285Y-153554500D01*
X57367714Y-153518214D01*
X57258857Y-153518214D01*
X57186285Y-153554500D01*
X57150000Y-153590785D01*
X57113714Y-153663357D01*
X57113714Y-153881071D01*
X57150000Y-153953642D01*
X57186285Y-153989928D01*
X57258857Y-154026214D01*
X57367714Y-154026214D01*
X56787142Y-153518214D02*
X56787142Y-154026214D01*
X56787142Y-153590785D02*
X56750857Y-153554500D01*
X56678285Y-153518214D01*
X56569428Y-153518214D01*
X56496857Y-153554500D01*
X56460571Y-153627071D01*
X56460571Y-154026214D01*
X56097714Y-153953642D02*
X56061428Y-153989928D01*
X56097714Y-154026214D01*
X56134000Y-153989928D01*
X56097714Y-153953642D01*
X56097714Y-154026214D01*
X56097714Y-153554500D02*
X56061428Y-153590785D01*
X56097714Y-153627071D01*
X56134000Y-153590785D01*
X56097714Y-153554500D01*
X56097714Y-153627071D01*
X54718857Y-153953642D02*
X54755142Y-153989928D01*
X54864000Y-154026214D01*
X54936571Y-154026214D01*
X55045428Y-153989928D01*
X55118000Y-153917357D01*
X55154285Y-153844785D01*
X55190571Y-153699642D01*
X55190571Y-153590785D01*
X55154285Y-153445642D01*
X55118000Y-153373071D01*
X55045428Y-153300500D01*
X54936571Y-153264214D01*
X54864000Y-153264214D01*
X54755142Y-153300500D01*
X54718857Y-153336785D01*
D10*
X66421000Y-147773571D02*
X66566142Y-147701000D01*
X66638714Y-147628428D01*
X66711285Y-147483285D01*
X66711285Y-147410714D01*
X66638714Y-147265571D01*
X66566142Y-147193000D01*
X66421000Y-147120428D01*
X66130714Y-147120428D01*
X65985571Y-147193000D01*
X65913000Y-147265571D01*
X65840428Y-147410714D01*
X65840428Y-147483285D01*
X65913000Y-147628428D01*
X65985571Y-147701000D01*
X66130714Y-147773571D01*
X66421000Y-147773571D01*
X66566142Y-147846142D01*
X66638714Y-147918714D01*
X66711285Y-148063857D01*
X66711285Y-148354142D01*
X66638714Y-148499285D01*
X66566142Y-148571857D01*
X66421000Y-148644428D01*
X66130714Y-148644428D01*
X65985571Y-148571857D01*
X65913000Y-148499285D01*
X65840428Y-148354142D01*
X65840428Y-148063857D01*
X65913000Y-147918714D01*
X65985571Y-147846142D01*
X66130714Y-147773571D01*
X65187285Y-148063857D02*
X64026142Y-148063857D01*
X62792428Y-147846142D02*
X62574714Y-147918714D01*
X62502142Y-147991285D01*
X62429571Y-148136428D01*
X62429571Y-148354142D01*
X62502142Y-148499285D01*
X62574714Y-148571857D01*
X62719857Y-148644428D01*
X63300428Y-148644428D01*
X63300428Y-147120428D01*
X62792428Y-147120428D01*
X62647285Y-147193000D01*
X62574714Y-147265571D01*
X62502142Y-147410714D01*
X62502142Y-147555857D01*
X62574714Y-147701000D01*
X62647285Y-147773571D01*
X62792428Y-147846142D01*
X63300428Y-147846142D01*
X61776428Y-148644428D02*
X61776428Y-147628428D01*
X61776428Y-147120428D02*
X61849000Y-147193000D01*
X61776428Y-147265571D01*
X61703857Y-147193000D01*
X61776428Y-147120428D01*
X61776428Y-147265571D01*
X61268428Y-147628428D02*
X60687857Y-147628428D01*
X61050714Y-147120428D02*
X61050714Y-148426714D01*
X60978142Y-148571857D01*
X60833000Y-148644428D01*
X60687857Y-148644428D01*
X58147857Y-148499285D02*
X58220428Y-148571857D01*
X58438142Y-148644428D01*
X58583285Y-148644428D01*
X58801000Y-148571857D01*
X58946142Y-148426714D01*
X59018714Y-148281571D01*
X59091285Y-147991285D01*
X59091285Y-147773571D01*
X59018714Y-147483285D01*
X58946142Y-147338142D01*
X58801000Y-147193000D01*
X58583285Y-147120428D01*
X58438142Y-147120428D01*
X58220428Y-147193000D01*
X58147857Y-147265571D01*
X57277000Y-148644428D02*
X57422142Y-148571857D01*
X57494714Y-148499285D01*
X57567285Y-148354142D01*
X57567285Y-147918714D01*
X57494714Y-147773571D01*
X57422142Y-147701000D01*
X57277000Y-147628428D01*
X57059285Y-147628428D01*
X56914142Y-147701000D01*
X56841571Y-147773571D01*
X56769000Y-147918714D01*
X56769000Y-148354142D01*
X56841571Y-148499285D01*
X56914142Y-148571857D01*
X57059285Y-148644428D01*
X57277000Y-148644428D01*
X56115857Y-148644428D02*
X56115857Y-147628428D01*
X56115857Y-147773571D02*
X56043285Y-147701000D01*
X55898142Y-147628428D01*
X55680428Y-147628428D01*
X55535285Y-147701000D01*
X55462714Y-147846142D01*
X55462714Y-148644428D01*
X55462714Y-147846142D02*
X55390142Y-147701000D01*
X55245000Y-147628428D01*
X55027285Y-147628428D01*
X54882142Y-147701000D01*
X54809571Y-147846142D01*
X54809571Y-148644428D01*
X54083857Y-147628428D02*
X54083857Y-149152428D01*
X54083857Y-147701000D02*
X53938714Y-147628428D01*
X53648428Y-147628428D01*
X53503285Y-147701000D01*
X53430714Y-147773571D01*
X53358142Y-147918714D01*
X53358142Y-148354142D01*
X53430714Y-148499285D01*
X53503285Y-148571857D01*
X53648428Y-148644428D01*
X53938714Y-148644428D01*
X54083857Y-148571857D01*
X52051857Y-147628428D02*
X52051857Y-148644428D01*
X52705000Y-147628428D02*
X52705000Y-148426714D01*
X52632428Y-148571857D01*
X52487285Y-148644428D01*
X52269571Y-148644428D01*
X52124428Y-148571857D01*
X52051857Y-148499285D01*
X51543857Y-147628428D02*
X50963285Y-147628428D01*
X51326142Y-147120428D02*
X51326142Y-148426714D01*
X51253571Y-148571857D01*
X51108428Y-148644428D01*
X50963285Y-148644428D01*
X49874714Y-148571857D02*
X50019857Y-148644428D01*
X50310142Y-148644428D01*
X50455285Y-148571857D01*
X50527857Y-148426714D01*
X50527857Y-147846142D01*
X50455285Y-147701000D01*
X50310142Y-147628428D01*
X50019857Y-147628428D01*
X49874714Y-147701000D01*
X49802142Y-147846142D01*
X49802142Y-147991285D01*
X50527857Y-148136428D01*
X49149000Y-148644428D02*
X49149000Y-147628428D01*
X49149000Y-147918714D02*
X49076428Y-147773571D01*
X49003857Y-147701000D01*
X48858714Y-147628428D01*
X48713571Y-147628428D01*
D14*
G36*
X44584036Y-146893576D02*
G01*
X44508487Y-147294322D01*
X43950959Y-147524154D01*
X43616535Y-147296748D01*
X43522878Y-147233431D01*
X43438218Y-147176896D01*
X43366505Y-147129727D01*
X43311689Y-147094502D01*
X43277720Y-147073805D01*
X43268470Y-147069342D01*
X43251805Y-147080820D01*
X43216194Y-147112551D01*
X43165629Y-147160483D01*
X43104100Y-147220562D01*
X43035601Y-147288733D01*
X42964121Y-147360945D01*
X42893653Y-147433142D01*
X42828189Y-147501273D01*
X42771720Y-147561283D01*
X42728237Y-147609119D01*
X42701732Y-147640727D01*
X42695395Y-147651305D01*
X42704514Y-147670806D01*
X42730080Y-147713531D01*
X42769403Y-147775298D01*
X42819797Y-147851931D01*
X42878573Y-147939248D01*
X42912632Y-147989052D01*
X42974711Y-148079993D01*
X43029874Y-148162059D01*
X43075446Y-148231163D01*
X43108750Y-148283222D01*
X43127110Y-148314150D01*
X43129869Y-148320650D01*
X43123615Y-148339121D01*
X43106566Y-148382172D01*
X43081297Y-148443749D01*
X43050378Y-148517799D01*
X43016382Y-148598270D01*
X42981882Y-148679107D01*
X42949449Y-148754258D01*
X42921657Y-148817671D01*
X42901077Y-148863293D01*
X42890281Y-148885069D01*
X42889644Y-148885926D01*
X42872693Y-148890084D01*
X42827549Y-148899361D01*
X42758890Y-148912844D01*
X42671398Y-148929621D01*
X42569750Y-148948781D01*
X42510444Y-148959830D01*
X42401828Y-148980510D01*
X42303723Y-149000189D01*
X42221091Y-149017789D01*
X42158896Y-149032233D01*
X42122101Y-149042446D01*
X42114704Y-149045686D01*
X42107460Y-149067617D01*
X42101615Y-149117147D01*
X42097165Y-149188485D01*
X42094107Y-149275839D01*
X42092435Y-149373417D01*
X42092147Y-149475426D01*
X42093239Y-149576075D01*
X42095706Y-149669572D01*
X42099544Y-149750125D01*
X42104750Y-149811942D01*
X42111319Y-149849230D01*
X42115259Y-149856993D01*
X42138812Y-149866298D01*
X42188718Y-149879600D01*
X42258377Y-149895337D01*
X42341187Y-149911946D01*
X42370095Y-149917319D01*
X42509469Y-149942848D01*
X42619564Y-149963408D01*
X42704018Y-149979815D01*
X42766470Y-149992887D01*
X42810556Y-150003441D01*
X42839915Y-150012294D01*
X42858185Y-150020263D01*
X42869002Y-150028165D01*
X42870515Y-150029727D01*
X42885623Y-150054886D01*
X42908671Y-150103850D01*
X42937356Y-150170621D01*
X42969378Y-150249205D01*
X43002435Y-150333607D01*
X43034227Y-150417830D01*
X43062451Y-150495879D01*
X43084807Y-150561759D01*
X43098993Y-150609473D01*
X43102707Y-150633027D01*
X43102398Y-150633852D01*
X43089811Y-150653104D01*
X43061256Y-150695463D01*
X43019733Y-150756521D01*
X42968244Y-150831868D01*
X42909789Y-150917096D01*
X42893142Y-150941315D01*
X42833785Y-151029123D01*
X42781553Y-151109238D01*
X42739292Y-151177062D01*
X42709847Y-151227993D01*
X42696063Y-151257431D01*
X42695395Y-151261048D01*
X42706976Y-151280057D01*
X42738976Y-151317714D01*
X42787282Y-151369973D01*
X42847780Y-151432786D01*
X42916356Y-151502106D01*
X42988896Y-151573885D01*
X43061288Y-151644077D01*
X43129416Y-151708635D01*
X43189168Y-151763510D01*
X43236429Y-151804656D01*
X43267087Y-151828026D01*
X43275568Y-151831842D01*
X43295309Y-151822855D01*
X43335726Y-151798616D01*
X43390237Y-151763209D01*
X43432177Y-151734711D01*
X43508171Y-151682418D01*
X43598166Y-151620845D01*
X43688436Y-151559370D01*
X43736968Y-151526469D01*
X43901238Y-151415359D01*
X44039131Y-151489916D01*
X44101951Y-151522578D01*
X44155371Y-151547966D01*
X44191516Y-151562446D01*
X44200716Y-151564460D01*
X44211779Y-151549584D01*
X44233606Y-151507547D01*
X44264566Y-151442227D01*
X44303030Y-151357500D01*
X44347368Y-151257245D01*
X44395953Y-151145339D01*
X44447154Y-151025659D01*
X44499341Y-150902084D01*
X44550887Y-150778491D01*
X44600160Y-150658757D01*
X44645533Y-150546759D01*
X44685375Y-150446377D01*
X44718058Y-150361486D01*
X44741951Y-150295965D01*
X44755426Y-150253690D01*
X44757594Y-150239172D01*
X44740417Y-150220653D01*
X44702810Y-150190590D01*
X44652634Y-150155232D01*
X44648422Y-150152434D01*
X44518736Y-150048625D01*
X44414166Y-149927515D01*
X44335619Y-149792976D01*
X44284001Y-149648882D01*
X44260218Y-149499105D01*
X44265177Y-149347517D01*
X44299783Y-149197992D01*
X44364943Y-149054400D01*
X44384114Y-149022984D01*
X44483826Y-148896125D01*
X44601623Y-148794255D01*
X44733429Y-148717904D01*
X44875167Y-148667602D01*
X45022758Y-148643879D01*
X45172127Y-148647265D01*
X45319197Y-148678288D01*
X45459889Y-148737480D01*
X45590127Y-148825369D01*
X45630414Y-148861042D01*
X45732945Y-148972706D01*
X45807659Y-149090257D01*
X45858910Y-149222020D01*
X45887454Y-149352507D01*
X45894500Y-149499216D01*
X45871004Y-149646653D01*
X45819351Y-149789834D01*
X45741929Y-149923777D01*
X45641125Y-150043498D01*
X45519324Y-150144014D01*
X45503316Y-150154609D01*
X45452602Y-150189306D01*
X45414050Y-150219370D01*
X45395619Y-150238565D01*
X45395351Y-150239172D01*
X45399308Y-150259936D01*
X45414993Y-150307062D01*
X45440778Y-150376673D01*
X45475031Y-150464893D01*
X45516123Y-150567844D01*
X45562424Y-150681650D01*
X45612304Y-150802435D01*
X45664133Y-150926321D01*
X45716281Y-151049432D01*
X45767118Y-151167891D01*
X45815013Y-151277823D01*
X45858338Y-151375349D01*
X45895462Y-151456593D01*
X45924756Y-151517679D01*
X45944588Y-151554730D01*
X45952574Y-151564460D01*
X45976979Y-151556883D01*
X46022642Y-151536560D01*
X46081690Y-151507125D01*
X46114160Y-151489916D01*
X46252053Y-151415359D01*
X46416323Y-151526469D01*
X46500179Y-151583390D01*
X46591987Y-151646030D01*
X46678020Y-151705011D01*
X46721113Y-151734711D01*
X46781723Y-151775410D01*
X46833045Y-151807663D01*
X46868385Y-151827384D01*
X46879863Y-151831554D01*
X46896570Y-151820307D01*
X46933546Y-151788911D01*
X46987205Y-151740624D01*
X47053962Y-151678708D01*
X47130234Y-151606421D01*
X47178473Y-151560008D01*
X47262867Y-151477087D01*
X47335803Y-151402920D01*
X47394331Y-151340680D01*
X47435503Y-151293541D01*
X47456372Y-151264673D01*
X47458374Y-151258815D01*
X47449083Y-151236532D01*
X47423409Y-151191477D01*
X47384200Y-151128211D01*
X47334303Y-151051295D01*
X47276567Y-150965292D01*
X47260149Y-150941315D01*
X47200323Y-150854170D01*
X47146650Y-150775710D01*
X47102130Y-150710345D01*
X47069765Y-150662484D01*
X47052555Y-150636535D01*
X47050893Y-150633852D01*
X47053379Y-150613172D01*
X47066577Y-150567704D01*
X47088186Y-150503444D01*
X47115904Y-150426387D01*
X47147430Y-150342529D01*
X47180463Y-150257866D01*
X47212701Y-150178392D01*
X47241843Y-150110104D01*
X47265588Y-150058997D01*
X47281635Y-150031067D01*
X47282775Y-150029727D01*
X47292588Y-150021745D01*
X47309161Y-150013851D01*
X47336132Y-150005229D01*
X47377139Y-149995062D01*
X47435820Y-149982531D01*
X47515813Y-149966821D01*
X47620755Y-149947113D01*
X47754285Y-149922592D01*
X47783196Y-149917319D01*
X47868882Y-149900764D01*
X47943582Y-149884569D01*
X48000694Y-149870296D01*
X48033617Y-149859508D01*
X48038031Y-149856993D01*
X48045306Y-149834696D01*
X48051219Y-149784869D01*
X48055766Y-149713304D01*
X48058945Y-149625793D01*
X48060749Y-149528128D01*
X48061177Y-149426101D01*
X48060223Y-149325503D01*
X48057884Y-149232127D01*
X48054156Y-149151765D01*
X48049034Y-149090209D01*
X48042516Y-149053250D01*
X48038586Y-149045686D01*
X48016708Y-149038056D01*
X47966891Y-149025642D01*
X47894097Y-149009522D01*
X47803289Y-148990773D01*
X47699431Y-148970471D01*
X47642846Y-148959830D01*
X47535486Y-148939760D01*
X47439746Y-148921580D01*
X47360306Y-148906199D01*
X47301846Y-148894531D01*
X47269045Y-148887488D01*
X47263646Y-148885926D01*
X47254522Y-148868322D01*
X47235235Y-148825918D01*
X47208355Y-148764772D01*
X47176454Y-148690943D01*
X47142102Y-148610489D01*
X47107871Y-148529468D01*
X47076331Y-148453937D01*
X47050054Y-148389955D01*
X47031611Y-148343580D01*
X47023571Y-148320869D01*
X47023422Y-148319876D01*
X47032535Y-148301961D01*
X47058086Y-148260733D01*
X47097388Y-148200291D01*
X47147757Y-148124731D01*
X47206506Y-148038152D01*
X47240658Y-147988421D01*
X47302890Y-147897236D01*
X47358164Y-147814449D01*
X47403782Y-147744249D01*
X47437048Y-147690824D01*
X47455264Y-147658361D01*
X47457895Y-147651083D01*
X47446586Y-147634145D01*
X47415319Y-147597978D01*
X47368090Y-147546635D01*
X47308892Y-147484167D01*
X47241719Y-147414626D01*
X47170566Y-147342065D01*
X47099426Y-147270535D01*
X47032293Y-147204087D01*
X46973161Y-147146774D01*
X46926025Y-147102647D01*
X46894877Y-147075759D01*
X46884457Y-147069342D01*
X46867491Y-147078365D01*
X46826911Y-147103715D01*
X46766663Y-147142810D01*
X46690693Y-147193071D01*
X46602946Y-147251917D01*
X46536756Y-147296748D01*
X46202332Y-147524154D01*
X45923567Y-147409238D01*
X45644803Y-147294322D01*
X45569254Y-146893576D01*
X45493706Y-146492829D01*
X44659585Y-146492829D01*
X44584036Y-146893576D01*
X44584036Y-146893576D01*
G37*
X44584036Y-146893576D02*
X44508487Y-147294322D01*
X43950959Y-147524154D01*
X43616535Y-147296748D01*
X43522878Y-147233431D01*
X43438218Y-147176896D01*
X43366505Y-147129727D01*
X43311689Y-147094502D01*
X43277720Y-147073805D01*
X43268470Y-147069342D01*
X43251805Y-147080820D01*
X43216194Y-147112551D01*
X43165629Y-147160483D01*
X43104100Y-147220562D01*
X43035601Y-147288733D01*
X42964121Y-147360945D01*
X42893653Y-147433142D01*
X42828189Y-147501273D01*
X42771720Y-147561283D01*
X42728237Y-147609119D01*
X42701732Y-147640727D01*
X42695395Y-147651305D01*
X42704514Y-147670806D01*
X42730080Y-147713531D01*
X42769403Y-147775298D01*
X42819797Y-147851931D01*
X42878573Y-147939248D01*
X42912632Y-147989052D01*
X42974711Y-148079993D01*
X43029874Y-148162059D01*
X43075446Y-148231163D01*
X43108750Y-148283222D01*
X43127110Y-148314150D01*
X43129869Y-148320650D01*
X43123615Y-148339121D01*
X43106566Y-148382172D01*
X43081297Y-148443749D01*
X43050378Y-148517799D01*
X43016382Y-148598270D01*
X42981882Y-148679107D01*
X42949449Y-148754258D01*
X42921657Y-148817671D01*
X42901077Y-148863293D01*
X42890281Y-148885069D01*
X42889644Y-148885926D01*
X42872693Y-148890084D01*
X42827549Y-148899361D01*
X42758890Y-148912844D01*
X42671398Y-148929621D01*
X42569750Y-148948781D01*
X42510444Y-148959830D01*
X42401828Y-148980510D01*
X42303723Y-149000189D01*
X42221091Y-149017789D01*
X42158896Y-149032233D01*
X42122101Y-149042446D01*
X42114704Y-149045686D01*
X42107460Y-149067617D01*
X42101615Y-149117147D01*
X42097165Y-149188485D01*
X42094107Y-149275839D01*
X42092435Y-149373417D01*
X42092147Y-149475426D01*
X42093239Y-149576075D01*
X42095706Y-149669572D01*
X42099544Y-149750125D01*
X42104750Y-149811942D01*
X42111319Y-149849230D01*
X42115259Y-149856993D01*
X42138812Y-149866298D01*
X42188718Y-149879600D01*
X42258377Y-149895337D01*
X42341187Y-149911946D01*
X42370095Y-149917319D01*
X42509469Y-149942848D01*
X42619564Y-149963408D01*
X42704018Y-149979815D01*
X42766470Y-149992887D01*
X42810556Y-150003441D01*
X42839915Y-150012294D01*
X42858185Y-150020263D01*
X42869002Y-150028165D01*
X42870515Y-150029727D01*
X42885623Y-150054886D01*
X42908671Y-150103850D01*
X42937356Y-150170621D01*
X42969378Y-150249205D01*
X43002435Y-150333607D01*
X43034227Y-150417830D01*
X43062451Y-150495879D01*
X43084807Y-150561759D01*
X43098993Y-150609473D01*
X43102707Y-150633027D01*
X43102398Y-150633852D01*
X43089811Y-150653104D01*
X43061256Y-150695463D01*
X43019733Y-150756521D01*
X42968244Y-150831868D01*
X42909789Y-150917096D01*
X42893142Y-150941315D01*
X42833785Y-151029123D01*
X42781553Y-151109238D01*
X42739292Y-151177062D01*
X42709847Y-151227993D01*
X42696063Y-151257431D01*
X42695395Y-151261048D01*
X42706976Y-151280057D01*
X42738976Y-151317714D01*
X42787282Y-151369973D01*
X42847780Y-151432786D01*
X42916356Y-151502106D01*
X42988896Y-151573885D01*
X43061288Y-151644077D01*
X43129416Y-151708635D01*
X43189168Y-151763510D01*
X43236429Y-151804656D01*
X43267087Y-151828026D01*
X43275568Y-151831842D01*
X43295309Y-151822855D01*
X43335726Y-151798616D01*
X43390237Y-151763209D01*
X43432177Y-151734711D01*
X43508171Y-151682418D01*
X43598166Y-151620845D01*
X43688436Y-151559370D01*
X43736968Y-151526469D01*
X43901238Y-151415359D01*
X44039131Y-151489916D01*
X44101951Y-151522578D01*
X44155371Y-151547966D01*
X44191516Y-151562446D01*
X44200716Y-151564460D01*
X44211779Y-151549584D01*
X44233606Y-151507547D01*
X44264566Y-151442227D01*
X44303030Y-151357500D01*
X44347368Y-151257245D01*
X44395953Y-151145339D01*
X44447154Y-151025659D01*
X44499341Y-150902084D01*
X44550887Y-150778491D01*
X44600160Y-150658757D01*
X44645533Y-150546759D01*
X44685375Y-150446377D01*
X44718058Y-150361486D01*
X44741951Y-150295965D01*
X44755426Y-150253690D01*
X44757594Y-150239172D01*
X44740417Y-150220653D01*
X44702810Y-150190590D01*
X44652634Y-150155232D01*
X44648422Y-150152434D01*
X44518736Y-150048625D01*
X44414166Y-149927515D01*
X44335619Y-149792976D01*
X44284001Y-149648882D01*
X44260218Y-149499105D01*
X44265177Y-149347517D01*
X44299783Y-149197992D01*
X44364943Y-149054400D01*
X44384114Y-149022984D01*
X44483826Y-148896125D01*
X44601623Y-148794255D01*
X44733429Y-148717904D01*
X44875167Y-148667602D01*
X45022758Y-148643879D01*
X45172127Y-148647265D01*
X45319197Y-148678288D01*
X45459889Y-148737480D01*
X45590127Y-148825369D01*
X45630414Y-148861042D01*
X45732945Y-148972706D01*
X45807659Y-149090257D01*
X45858910Y-149222020D01*
X45887454Y-149352507D01*
X45894500Y-149499216D01*
X45871004Y-149646653D01*
X45819351Y-149789834D01*
X45741929Y-149923777D01*
X45641125Y-150043498D01*
X45519324Y-150144014D01*
X45503316Y-150154609D01*
X45452602Y-150189306D01*
X45414050Y-150219370D01*
X45395619Y-150238565D01*
X45395351Y-150239172D01*
X45399308Y-150259936D01*
X45414993Y-150307062D01*
X45440778Y-150376673D01*
X45475031Y-150464893D01*
X45516123Y-150567844D01*
X45562424Y-150681650D01*
X45612304Y-150802435D01*
X45664133Y-150926321D01*
X45716281Y-151049432D01*
X45767118Y-151167891D01*
X45815013Y-151277823D01*
X45858338Y-151375349D01*
X45895462Y-151456593D01*
X45924756Y-151517679D01*
X45944588Y-151554730D01*
X45952574Y-151564460D01*
X45976979Y-151556883D01*
X46022642Y-151536560D01*
X46081690Y-151507125D01*
X46114160Y-151489916D01*
X46252053Y-151415359D01*
X46416323Y-151526469D01*
X46500179Y-151583390D01*
X46591987Y-151646030D01*
X46678020Y-151705011D01*
X46721113Y-151734711D01*
X46781723Y-151775410D01*
X46833045Y-151807663D01*
X46868385Y-151827384D01*
X46879863Y-151831554D01*
X46896570Y-151820307D01*
X46933546Y-151788911D01*
X46987205Y-151740624D01*
X47053962Y-151678708D01*
X47130234Y-151606421D01*
X47178473Y-151560008D01*
X47262867Y-151477087D01*
X47335803Y-151402920D01*
X47394331Y-151340680D01*
X47435503Y-151293541D01*
X47456372Y-151264673D01*
X47458374Y-151258815D01*
X47449083Y-151236532D01*
X47423409Y-151191477D01*
X47384200Y-151128211D01*
X47334303Y-151051295D01*
X47276567Y-150965292D01*
X47260149Y-150941315D01*
X47200323Y-150854170D01*
X47146650Y-150775710D01*
X47102130Y-150710345D01*
X47069765Y-150662484D01*
X47052555Y-150636535D01*
X47050893Y-150633852D01*
X47053379Y-150613172D01*
X47066577Y-150567704D01*
X47088186Y-150503444D01*
X47115904Y-150426387D01*
X47147430Y-150342529D01*
X47180463Y-150257866D01*
X47212701Y-150178392D01*
X47241843Y-150110104D01*
X47265588Y-150058997D01*
X47281635Y-150031067D01*
X47282775Y-150029727D01*
X47292588Y-150021745D01*
X47309161Y-150013851D01*
X47336132Y-150005229D01*
X47377139Y-149995062D01*
X47435820Y-149982531D01*
X47515813Y-149966821D01*
X47620755Y-149947113D01*
X47754285Y-149922592D01*
X47783196Y-149917319D01*
X47868882Y-149900764D01*
X47943582Y-149884569D01*
X48000694Y-149870296D01*
X48033617Y-149859508D01*
X48038031Y-149856993D01*
X48045306Y-149834696D01*
X48051219Y-149784869D01*
X48055766Y-149713304D01*
X48058945Y-149625793D01*
X48060749Y-149528128D01*
X48061177Y-149426101D01*
X48060223Y-149325503D01*
X48057884Y-149232127D01*
X48054156Y-149151765D01*
X48049034Y-149090209D01*
X48042516Y-149053250D01*
X48038586Y-149045686D01*
X48016708Y-149038056D01*
X47966891Y-149025642D01*
X47894097Y-149009522D01*
X47803289Y-148990773D01*
X47699431Y-148970471D01*
X47642846Y-148959830D01*
X47535486Y-148939760D01*
X47439746Y-148921580D01*
X47360306Y-148906199D01*
X47301846Y-148894531D01*
X47269045Y-148887488D01*
X47263646Y-148885926D01*
X47254522Y-148868322D01*
X47235235Y-148825918D01*
X47208355Y-148764772D01*
X47176454Y-148690943D01*
X47142102Y-148610489D01*
X47107871Y-148529468D01*
X47076331Y-148453937D01*
X47050054Y-148389955D01*
X47031611Y-148343580D01*
X47023571Y-148320869D01*
X47023422Y-148319876D01*
X47032535Y-148301961D01*
X47058086Y-148260733D01*
X47097388Y-148200291D01*
X47147757Y-148124731D01*
X47206506Y-148038152D01*
X47240658Y-147988421D01*
X47302890Y-147897236D01*
X47358164Y-147814449D01*
X47403782Y-147744249D01*
X47437048Y-147690824D01*
X47455264Y-147658361D01*
X47457895Y-147651083D01*
X47446586Y-147634145D01*
X47415319Y-147597978D01*
X47368090Y-147546635D01*
X47308892Y-147484167D01*
X47241719Y-147414626D01*
X47170566Y-147342065D01*
X47099426Y-147270535D01*
X47032293Y-147204087D01*
X46973161Y-147146774D01*
X46926025Y-147102647D01*
X46894877Y-147075759D01*
X46884457Y-147069342D01*
X46867491Y-147078365D01*
X46826911Y-147103715D01*
X46766663Y-147142810D01*
X46690693Y-147193071D01*
X46602946Y-147251917D01*
X46536756Y-147296748D01*
X46202332Y-147524154D01*
X45923567Y-147409238D01*
X45644803Y-147294322D01*
X45569254Y-146893576D01*
X45493706Y-146492829D01*
X44659585Y-146492829D01*
X44584036Y-146893576D01*
G36*
X42693612Y-152432645D02*
G01*
X42636135Y-152450206D01*
X42599128Y-152472395D01*
X42587073Y-152489942D01*
X42590391Y-152510742D01*
X42611921Y-152543419D01*
X42630126Y-152566562D01*
X42667656Y-152608402D01*
X42695852Y-152626005D01*
X42719889Y-152624856D01*
X42791192Y-152606710D01*
X42843558Y-152607534D01*
X42886082Y-152628098D01*
X42900358Y-152640134D01*
X42946053Y-152682483D01*
X42946053Y-153235526D01*
X43129869Y-153235526D01*
X43129869Y-152433421D01*
X43037961Y-152433421D01*
X42982781Y-152435603D01*
X42954312Y-152443351D01*
X42946057Y-152458468D01*
X42946053Y-152458916D01*
X42942155Y-152474749D01*
X42924526Y-152472684D01*
X42900099Y-152461261D01*
X42849650Y-152440005D01*
X42808684Y-152427216D01*
X42755972Y-152423938D01*
X42693612Y-152432645D01*
X42693612Y-152432645D01*
G37*
X42693612Y-152432645D02*
X42636135Y-152450206D01*
X42599128Y-152472395D01*
X42587073Y-152489942D01*
X42590391Y-152510742D01*
X42611921Y-152543419D01*
X42630126Y-152566562D01*
X42667656Y-152608402D01*
X42695852Y-152626005D01*
X42719889Y-152624856D01*
X42791192Y-152606710D01*
X42843558Y-152607534D01*
X42886082Y-152628098D01*
X42900358Y-152640134D01*
X42946053Y-152682483D01*
X42946053Y-153235526D01*
X43129869Y-153235526D01*
X43129869Y-152433421D01*
X43037961Y-152433421D01*
X42982781Y-152435603D01*
X42954312Y-152443351D01*
X42946057Y-152458468D01*
X42946053Y-152458916D01*
X42942155Y-152474749D01*
X42924526Y-152472684D01*
X42900099Y-152461261D01*
X42849650Y-152440005D01*
X42808684Y-152427216D01*
X42755972Y-152423938D01*
X42693612Y-152432645D01*
G36*
X46087043Y-152447226D02*
G01*
X46045454Y-152467090D01*
X46005175Y-152495784D01*
X45974490Y-152528809D01*
X45952139Y-152570931D01*
X45936864Y-152626915D01*
X45927408Y-152701528D01*
X45922513Y-152799535D01*
X45920919Y-152925702D01*
X45920894Y-152938914D01*
X45920527Y-153235526D01*
X46104343Y-153235526D01*
X46104343Y-152962081D01*
X46104473Y-152860777D01*
X46105379Y-152787353D01*
X46107827Y-152736271D01*
X46112586Y-152701990D01*
X46120426Y-152678971D01*
X46132115Y-152661673D01*
X46148398Y-152644581D01*
X46205366Y-152607857D01*
X46267555Y-152601042D01*
X46326801Y-152624261D01*
X46347405Y-152641543D01*
X46362530Y-152657791D01*
X46373390Y-152675191D01*
X46380690Y-152699212D01*
X46385137Y-152735322D01*
X46387436Y-152788988D01*
X46388296Y-152865680D01*
X46388422Y-152959043D01*
X46388422Y-153235526D01*
X46572237Y-153235526D01*
X46572237Y-152433421D01*
X46480329Y-152433421D01*
X46425149Y-152435603D01*
X46396680Y-152443351D01*
X46388425Y-152458468D01*
X46388422Y-152458916D01*
X46384592Y-152473720D01*
X46367699Y-152472040D01*
X46334112Y-152455773D01*
X46257937Y-152431840D01*
X46170800Y-152429178D01*
X46087043Y-152447226D01*
X46087043Y-152447226D01*
G37*
X46087043Y-152447226D02*
X46045454Y-152467090D01*
X46005175Y-152495784D01*
X45974490Y-152528809D01*
X45952139Y-152570931D01*
X45936864Y-152626915D01*
X45927408Y-152701528D01*
X45922513Y-152799535D01*
X45920919Y-152925702D01*
X45920894Y-152938914D01*
X45920527Y-153235526D01*
X46104343Y-153235526D01*
X46104343Y-152962081D01*
X46104473Y-152860777D01*
X46105379Y-152787353D01*
X46107827Y-152736271D01*
X46112586Y-152701990D01*
X46120426Y-152678971D01*
X46132115Y-152661673D01*
X46148398Y-152644581D01*
X46205366Y-152607857D01*
X46267555Y-152601042D01*
X46326801Y-152624261D01*
X46347405Y-152641543D01*
X46362530Y-152657791D01*
X46373390Y-152675191D01*
X46380690Y-152699212D01*
X46385137Y-152735322D01*
X46387436Y-152788988D01*
X46388296Y-152865680D01*
X46388422Y-152959043D01*
X46388422Y-153235526D01*
X46572237Y-153235526D01*
X46572237Y-152433421D01*
X46480329Y-152433421D01*
X46425149Y-152435603D01*
X46396680Y-152443351D01*
X46388425Y-152458468D01*
X46388422Y-152458916D01*
X46384592Y-152473720D01*
X46367699Y-152472040D01*
X46334112Y-152455773D01*
X46257937Y-152431840D01*
X46170800Y-152429178D01*
X46087043Y-152447226D01*
G36*
X41526216Y-152430554D02*
G01*
X41483426Y-152440949D01*
X41401391Y-152479013D01*
X41331243Y-152537149D01*
X41282695Y-152606852D01*
X41276025Y-152622502D01*
X41266876Y-152663496D01*
X41260471Y-152724138D01*
X41258290Y-152785430D01*
X41258290Y-152901316D01*
X41500593Y-152901316D01*
X41600529Y-152901693D01*
X41670931Y-152903987D01*
X41715687Y-152909938D01*
X41738685Y-152921285D01*
X41743811Y-152939771D01*
X41734952Y-152967136D01*
X41719083Y-152999155D01*
X41674816Y-153052592D01*
X41613301Y-153079215D01*
X41538115Y-153078347D01*
X41452947Y-153049371D01*
X41379341Y-153013611D01*
X41318266Y-153061904D01*
X41257190Y-153110197D01*
X41314649Y-153163285D01*
X41391359Y-153213445D01*
X41485698Y-153243688D01*
X41587173Y-153252151D01*
X41685289Y-153236974D01*
X41701119Y-153231824D01*
X41787353Y-153186791D01*
X41851499Y-153119652D01*
X41894909Y-153028405D01*
X41918936Y-152911044D01*
X41919216Y-152908529D01*
X41921367Y-152780627D01*
X41912671Y-152734997D01*
X41742895Y-152734997D01*
X41727303Y-152742013D01*
X41684971Y-152747388D01*
X41622566Y-152750457D01*
X41583019Y-152750921D01*
X41509272Y-152750630D01*
X41463160Y-152748783D01*
X41438900Y-152743912D01*
X41430706Y-152734555D01*
X41432794Y-152719245D01*
X41434545Y-152713322D01*
X41464440Y-152657668D01*
X41511458Y-152612815D01*
X41552951Y-152593105D01*
X41608074Y-152594295D01*
X41663932Y-152618875D01*
X41710788Y-152659570D01*
X41738906Y-152709108D01*
X41742895Y-152734997D01*
X41912671Y-152734997D01*
X41899926Y-152668133D01*
X41857389Y-152573727D01*
X41796253Y-152500088D01*
X41719015Y-152449893D01*
X41628170Y-152425822D01*
X41526216Y-152430554D01*
X41526216Y-152430554D01*
G37*
X41526216Y-152430554D02*
X41483426Y-152440949D01*
X41401391Y-152479013D01*
X41331243Y-152537149D01*
X41282695Y-152606852D01*
X41276025Y-152622502D01*
X41266876Y-152663496D01*
X41260471Y-152724138D01*
X41258290Y-152785430D01*
X41258290Y-152901316D01*
X41500593Y-152901316D01*
X41600529Y-152901693D01*
X41670931Y-152903987D01*
X41715687Y-152909938D01*
X41738685Y-152921285D01*
X41743811Y-152939771D01*
X41734952Y-152967136D01*
X41719083Y-152999155D01*
X41674816Y-153052592D01*
X41613301Y-153079215D01*
X41538115Y-153078347D01*
X41452947Y-153049371D01*
X41379341Y-153013611D01*
X41318266Y-153061904D01*
X41257190Y-153110197D01*
X41314649Y-153163285D01*
X41391359Y-153213445D01*
X41485698Y-153243688D01*
X41587173Y-153252151D01*
X41685289Y-153236974D01*
X41701119Y-153231824D01*
X41787353Y-153186791D01*
X41851499Y-153119652D01*
X41894909Y-153028405D01*
X41918936Y-152911044D01*
X41919216Y-152908529D01*
X41921367Y-152780627D01*
X41912671Y-152734997D01*
X41742895Y-152734997D01*
X41727303Y-152742013D01*
X41684971Y-152747388D01*
X41622566Y-152750457D01*
X41583019Y-152750921D01*
X41509272Y-152750630D01*
X41463160Y-152748783D01*
X41438900Y-152743912D01*
X41430706Y-152734555D01*
X41432794Y-152719245D01*
X41434545Y-152713322D01*
X41464440Y-152657668D01*
X41511458Y-152612815D01*
X41552951Y-152593105D01*
X41608074Y-152594295D01*
X41663932Y-152618875D01*
X41710788Y-152659570D01*
X41738906Y-152709108D01*
X41742895Y-152734997D01*
X41912671Y-152734997D01*
X41899926Y-152668133D01*
X41857389Y-152573727D01*
X41796253Y-152500088D01*
X41719015Y-152449893D01*
X41628170Y-152425822D01*
X41526216Y-152430554D01*
G36*
X42138424Y-152440419D02*
G01*
X42041605Y-152481549D01*
X42011110Y-152501571D01*
X41972135Y-152532340D01*
X41947669Y-152556533D01*
X41943422Y-152564413D01*
X41955416Y-152581899D01*
X41986113Y-152611570D01*
X42010688Y-152632279D01*
X42077954Y-152686336D01*
X42131070Y-152641642D01*
X42172116Y-152612789D01*
X42212137Y-152602829D01*
X42257941Y-152605261D01*
X42330676Y-152623345D01*
X42380744Y-152660881D01*
X42411171Y-152721562D01*
X42424983Y-152809081D01*
X42424987Y-152809136D01*
X42423792Y-152906958D01*
X42405228Y-152978730D01*
X42368196Y-153027595D01*
X42342950Y-153044143D01*
X42275903Y-153064749D01*
X42204291Y-153064762D01*
X42141985Y-153044768D01*
X42127237Y-153035000D01*
X42090250Y-153010047D01*
X42061332Y-153005958D01*
X42030144Y-153024530D01*
X41995664Y-153057887D01*
X41941088Y-153114196D01*
X42001682Y-153164142D01*
X42095302Y-153220513D01*
X42200875Y-153248293D01*
X42311202Y-153246282D01*
X42383657Y-153227862D01*
X42468344Y-153182310D01*
X42536073Y-153110650D01*
X42566843Y-153060066D01*
X42591764Y-152987488D01*
X42604234Y-152895569D01*
X42604330Y-152795948D01*
X42592130Y-152700267D01*
X42567710Y-152620169D01*
X42563864Y-152611956D01*
X42506907Y-152531413D01*
X42429791Y-152472771D01*
X42338610Y-152437247D01*
X42239457Y-152426057D01*
X42138424Y-152440419D01*
X42138424Y-152440419D01*
G37*
X42138424Y-152440419D02*
X42041605Y-152481549D01*
X42011110Y-152501571D01*
X41972135Y-152532340D01*
X41947669Y-152556533D01*
X41943422Y-152564413D01*
X41955416Y-152581899D01*
X41986113Y-152611570D01*
X42010688Y-152632279D01*
X42077954Y-152686336D01*
X42131070Y-152641642D01*
X42172116Y-152612789D01*
X42212137Y-152602829D01*
X42257941Y-152605261D01*
X42330676Y-152623345D01*
X42380744Y-152660881D01*
X42411171Y-152721562D01*
X42424983Y-152809081D01*
X42424987Y-152809136D01*
X42423792Y-152906958D01*
X42405228Y-152978730D01*
X42368196Y-153027595D01*
X42342950Y-153044143D01*
X42275903Y-153064749D01*
X42204291Y-153064762D01*
X42141985Y-153044768D01*
X42127237Y-153035000D01*
X42090250Y-153010047D01*
X42061332Y-153005958D01*
X42030144Y-153024530D01*
X41995664Y-153057887D01*
X41941088Y-153114196D01*
X42001682Y-153164142D01*
X42095302Y-153220513D01*
X42200875Y-153248293D01*
X42311202Y-153246282D01*
X42383657Y-153227862D01*
X42468344Y-153182310D01*
X42536073Y-153110650D01*
X42566843Y-153060066D01*
X42591764Y-152987488D01*
X42604234Y-152895569D01*
X42604330Y-152795948D01*
X42592130Y-152700267D01*
X42567710Y-152620169D01*
X42563864Y-152611956D01*
X42506907Y-152531413D01*
X42429791Y-152472771D01*
X42338610Y-152437247D01*
X42239457Y-152426057D01*
X42138424Y-152440419D01*
G36*
X43764869Y-152693533D02*
G01*
X43763290Y-152816089D01*
X43757519Y-152909179D01*
X43746009Y-152976651D01*
X43727210Y-153022355D01*
X43699574Y-153050139D01*
X43661552Y-153063854D01*
X43614474Y-153067358D01*
X43565168Y-153063432D01*
X43527717Y-153049089D01*
X43500572Y-153020478D01*
X43482185Y-152973751D01*
X43471007Y-152905058D01*
X43465489Y-152810550D01*
X43464079Y-152693533D01*
X43464079Y-152433421D01*
X43280264Y-152433421D01*
X43280264Y-153235526D01*
X43372172Y-153235526D01*
X43427578Y-153233281D01*
X43456109Y-153225396D01*
X43464079Y-153210428D01*
X43468880Y-153197097D01*
X43487986Y-153199917D01*
X43526496Y-153218783D01*
X43614761Y-153247887D01*
X43708377Y-153245825D01*
X43798079Y-153214221D01*
X43840796Y-153189257D01*
X43873379Y-153162226D01*
X43897183Y-153128405D01*
X43913561Y-153083068D01*
X43923869Y-153021489D01*
X43929459Y-152938943D01*
X43931688Y-152830705D01*
X43931974Y-152747004D01*
X43931974Y-152433421D01*
X43764869Y-152433421D01*
X43764869Y-152693533D01*
X43764869Y-152693533D01*
G37*
X43764869Y-152693533D02*
X43763290Y-152816089D01*
X43757519Y-152909179D01*
X43746009Y-152976651D01*
X43727210Y-153022355D01*
X43699574Y-153050139D01*
X43661552Y-153063854D01*
X43614474Y-153067358D01*
X43565168Y-153063432D01*
X43527717Y-153049089D01*
X43500572Y-153020478D01*
X43482185Y-152973751D01*
X43471007Y-152905058D01*
X43465489Y-152810550D01*
X43464079Y-152693533D01*
X43464079Y-152433421D01*
X43280264Y-152433421D01*
X43280264Y-153235526D01*
X43372172Y-153235526D01*
X43427578Y-153233281D01*
X43456109Y-153225396D01*
X43464079Y-153210428D01*
X43468880Y-153197097D01*
X43487986Y-153199917D01*
X43526496Y-153218783D01*
X43614761Y-153247887D01*
X43708377Y-153245825D01*
X43798079Y-153214221D01*
X43840796Y-153189257D01*
X43873379Y-153162226D01*
X43897183Y-153128405D01*
X43913561Y-153083068D01*
X43923869Y-153021489D01*
X43929459Y-152938943D01*
X43931688Y-152830705D01*
X43931974Y-152747004D01*
X43931974Y-152433421D01*
X43764869Y-152433421D01*
X43764869Y-152693533D01*
G36*
X44273331Y-152443310D02*
G01*
X44188808Y-152489340D01*
X44122679Y-152562006D01*
X44091522Y-152621106D01*
X44078145Y-152673305D01*
X44069478Y-152747719D01*
X44065763Y-152833442D01*
X44067246Y-152919569D01*
X44074169Y-152995193D01*
X44082255Y-153035584D01*
X44109535Y-153090840D01*
X44156780Y-153149530D01*
X44213718Y-153200852D01*
X44270076Y-153234005D01*
X44271450Y-153234531D01*
X44341384Y-153249018D01*
X44424263Y-153249377D01*
X44503023Y-153236188D01*
X44533434Y-153225617D01*
X44611761Y-153181201D01*
X44667857Y-153123007D01*
X44704714Y-153045965D01*
X44725320Y-152945001D01*
X44729982Y-152892116D01*
X44729387Y-152825663D01*
X44550264Y-152825663D01*
X44544230Y-152922630D01*
X44526862Y-152996523D01*
X44499260Y-153043736D01*
X44479596Y-153057237D01*
X44429213Y-153066651D01*
X44369327Y-153063864D01*
X44317551Y-153050316D01*
X44303973Y-153042862D01*
X44268151Y-152999451D01*
X44244507Y-152933014D01*
X44234442Y-152852161D01*
X44239358Y-152765502D01*
X44250345Y-152713349D01*
X44281891Y-152652951D01*
X44331689Y-152615197D01*
X44391663Y-152602143D01*
X44453736Y-152615849D01*
X44501418Y-152649372D01*
X44526475Y-152677031D01*
X44541100Y-152704294D01*
X44548071Y-152741190D01*
X44550167Y-152797750D01*
X44550264Y-152825663D01*
X44729387Y-152825663D01*
X44728718Y-152750994D01*
X44705735Y-152635271D01*
X44661028Y-152544941D01*
X44594595Y-152480000D01*
X44506435Y-152440445D01*
X44487505Y-152435858D01*
X44373734Y-152425090D01*
X44273331Y-152443310D01*
X44273331Y-152443310D01*
G37*
X44273331Y-152443310D02*
X44188808Y-152489340D01*
X44122679Y-152562006D01*
X44091522Y-152621106D01*
X44078145Y-152673305D01*
X44069478Y-152747719D01*
X44065763Y-152833442D01*
X44067246Y-152919569D01*
X44074169Y-152995193D01*
X44082255Y-153035584D01*
X44109535Y-153090840D01*
X44156780Y-153149530D01*
X44213718Y-153200852D01*
X44270076Y-153234005D01*
X44271450Y-153234531D01*
X44341384Y-153249018D01*
X44424263Y-153249377D01*
X44503023Y-153236188D01*
X44533434Y-153225617D01*
X44611761Y-153181201D01*
X44667857Y-153123007D01*
X44704714Y-153045965D01*
X44725320Y-152945001D01*
X44729982Y-152892116D01*
X44729387Y-152825663D01*
X44550264Y-152825663D01*
X44544230Y-152922630D01*
X44526862Y-152996523D01*
X44499260Y-153043736D01*
X44479596Y-153057237D01*
X44429213Y-153066651D01*
X44369327Y-153063864D01*
X44317551Y-153050316D01*
X44303973Y-153042862D01*
X44268151Y-152999451D01*
X44244507Y-152933014D01*
X44234442Y-152852161D01*
X44239358Y-152765502D01*
X44250345Y-152713349D01*
X44281891Y-152652951D01*
X44331689Y-152615197D01*
X44391663Y-152602143D01*
X44453736Y-152615849D01*
X44501418Y-152649372D01*
X44526475Y-152677031D01*
X44541100Y-152704294D01*
X44548071Y-152741190D01*
X44550167Y-152797750D01*
X44550264Y-152825663D01*
X44729387Y-152825663D01*
X44728718Y-152750994D01*
X44705735Y-152635271D01*
X44661028Y-152544941D01*
X44594595Y-152480000D01*
X44506435Y-152440445D01*
X44487505Y-152435858D01*
X44373734Y-152425090D01*
X44273331Y-152443310D01*
G36*
X45066372Y-152430547D02*
G01*
X45003092Y-152442548D01*
X44937443Y-152467648D01*
X44930428Y-152470848D01*
X44880644Y-152497026D01*
X44846166Y-152521353D01*
X44835022Y-152536937D01*
X44845634Y-152562353D01*
X44871412Y-152599853D01*
X44882854Y-152613852D01*
X44930008Y-152668954D01*
X44990799Y-152633086D01*
X45048653Y-152609192D01*
X45115500Y-152596420D01*
X45179606Y-152595613D01*
X45229236Y-152607615D01*
X45241146Y-152615105D01*
X45263828Y-152649450D01*
X45266584Y-152689013D01*
X45249612Y-152719920D01*
X45239573Y-152725913D01*
X45209490Y-152733357D01*
X45156611Y-152742106D01*
X45091425Y-152750467D01*
X45079400Y-152751778D01*
X44974703Y-152769888D01*
X44898768Y-152800651D01*
X44848408Y-152846907D01*
X44820436Y-152911497D01*
X44811722Y-152990387D01*
X44823760Y-153080065D01*
X44862849Y-153150486D01*
X44929145Y-153201777D01*
X45022806Y-153234067D01*
X45126777Y-153246807D01*
X45211562Y-153246654D01*
X45280335Y-153235083D01*
X45327303Y-153219109D01*
X45386650Y-153191275D01*
X45441494Y-153158973D01*
X45460987Y-153144755D01*
X45511119Y-153103835D01*
X45390197Y-152981477D01*
X45321457Y-153026967D01*
X45252512Y-153061133D01*
X45178889Y-153079004D01*
X45108117Y-153080889D01*
X45047726Y-153067101D01*
X45005243Y-153037949D01*
X44991526Y-153013352D01*
X44993583Y-152973904D01*
X45027670Y-152943737D01*
X45093692Y-152922906D01*
X45166026Y-152913279D01*
X45277348Y-152894910D01*
X45360048Y-152860254D01*
X45415235Y-152808297D01*
X45444012Y-152738023D01*
X45447999Y-152654707D01*
X45428307Y-152567681D01*
X45383411Y-152501902D01*
X45312909Y-152457068D01*
X45216399Y-152432879D01*
X45144900Y-152428137D01*
X45066372Y-152430547D01*
X45066372Y-152430547D01*
G37*
X45066372Y-152430547D02*
X45003092Y-152442548D01*
X44937443Y-152467648D01*
X44930428Y-152470848D01*
X44880644Y-152497026D01*
X44846166Y-152521353D01*
X44835022Y-152536937D01*
X44845634Y-152562353D01*
X44871412Y-152599853D01*
X44882854Y-152613852D01*
X44930008Y-152668954D01*
X44990799Y-152633086D01*
X45048653Y-152609192D01*
X45115500Y-152596420D01*
X45179606Y-152595613D01*
X45229236Y-152607615D01*
X45241146Y-152615105D01*
X45263828Y-152649450D01*
X45266584Y-152689013D01*
X45249612Y-152719920D01*
X45239573Y-152725913D01*
X45209490Y-152733357D01*
X45156611Y-152742106D01*
X45091425Y-152750467D01*
X45079400Y-152751778D01*
X44974703Y-152769888D01*
X44898768Y-152800651D01*
X44848408Y-152846907D01*
X44820436Y-152911497D01*
X44811722Y-152990387D01*
X44823760Y-153080065D01*
X44862849Y-153150486D01*
X44929145Y-153201777D01*
X45022806Y-153234067D01*
X45126777Y-153246807D01*
X45211562Y-153246654D01*
X45280335Y-153235083D01*
X45327303Y-153219109D01*
X45386650Y-153191275D01*
X45441494Y-153158973D01*
X45460987Y-153144755D01*
X45511119Y-153103835D01*
X45390197Y-152981477D01*
X45321457Y-153026967D01*
X45252512Y-153061133D01*
X45178889Y-153079004D01*
X45108117Y-153080889D01*
X45047726Y-153067101D01*
X45005243Y-153037949D01*
X44991526Y-153013352D01*
X44993583Y-152973904D01*
X45027670Y-152943737D01*
X45093692Y-152922906D01*
X45166026Y-152913279D01*
X45277348Y-152894910D01*
X45360048Y-152860254D01*
X45415235Y-152808297D01*
X45444012Y-152738023D01*
X45447999Y-152654707D01*
X45428307Y-152567681D01*
X45383411Y-152501902D01*
X45312909Y-152457068D01*
X45216399Y-152432879D01*
X45144900Y-152428137D01*
X45066372Y-152430547D01*
G36*
X46887982Y-152452027D02*
G01*
X46871330Y-152459866D01*
X46813695Y-152502086D01*
X46759195Y-152563700D01*
X46718501Y-152631543D01*
X46706926Y-152662734D01*
X46696366Y-152718449D01*
X46690069Y-152785781D01*
X46689304Y-152813585D01*
X46689211Y-152901316D01*
X47194150Y-152901316D01*
X47183387Y-152947270D01*
X47156967Y-153001620D01*
X47110778Y-153048591D01*
X47055828Y-153078848D01*
X47020811Y-153085131D01*
X46973323Y-153077506D01*
X46916665Y-153058383D01*
X46897418Y-153049584D01*
X46826241Y-153014036D01*
X46765498Y-153060367D01*
X46730448Y-153091703D01*
X46711798Y-153117567D01*
X46710853Y-153125158D01*
X46727515Y-153143556D01*
X46764030Y-153171515D01*
X46797172Y-153193327D01*
X46886607Y-153232537D01*
X46986871Y-153250285D01*
X47086246Y-153245670D01*
X47165461Y-153221551D01*
X47247120Y-153169884D01*
X47305151Y-153101856D01*
X47341454Y-153013843D01*
X47357928Y-152902216D01*
X47359389Y-152851138D01*
X47353543Y-152734091D01*
X47352825Y-152730686D01*
X47185511Y-152730686D01*
X47180903Y-152741662D01*
X47161964Y-152747715D01*
X47122902Y-152750310D01*
X47057923Y-152750910D01*
X47032903Y-152750921D01*
X46956779Y-152750014D01*
X46908504Y-152746720D01*
X46882540Y-152740181D01*
X46873352Y-152729537D01*
X46873027Y-152726119D01*
X46883513Y-152698956D01*
X46909758Y-152660903D01*
X46921041Y-152647579D01*
X46962928Y-152609896D01*
X47006591Y-152595080D01*
X47030115Y-152593842D01*
X47093757Y-152609329D01*
X47147127Y-152650930D01*
X47180981Y-152711353D01*
X47181581Y-152713322D01*
X47185511Y-152730686D01*
X47352825Y-152730686D01*
X47334101Y-152641928D01*
X47299078Y-152568190D01*
X47256244Y-152515848D01*
X47177052Y-152459092D01*
X47083960Y-152428762D01*
X46984945Y-152426021D01*
X46887982Y-152452027D01*
X46887982Y-152452027D01*
G37*
X46887982Y-152452027D02*
X46871330Y-152459866D01*
X46813695Y-152502086D01*
X46759195Y-152563700D01*
X46718501Y-152631543D01*
X46706926Y-152662734D01*
X46696366Y-152718449D01*
X46690069Y-152785781D01*
X46689304Y-152813585D01*
X46689211Y-152901316D01*
X47194150Y-152901316D01*
X47183387Y-152947270D01*
X47156967Y-153001620D01*
X47110778Y-153048591D01*
X47055828Y-153078848D01*
X47020811Y-153085131D01*
X46973323Y-153077506D01*
X46916665Y-153058383D01*
X46897418Y-153049584D01*
X46826241Y-153014036D01*
X46765498Y-153060367D01*
X46730448Y-153091703D01*
X46711798Y-153117567D01*
X46710853Y-153125158D01*
X46727515Y-153143556D01*
X46764030Y-153171515D01*
X46797172Y-153193327D01*
X46886607Y-153232537D01*
X46986871Y-153250285D01*
X47086246Y-153245670D01*
X47165461Y-153221551D01*
X47247120Y-153169884D01*
X47305151Y-153101856D01*
X47341454Y-153013843D01*
X47357928Y-152902216D01*
X47359389Y-152851138D01*
X47353543Y-152734091D01*
X47352825Y-152730686D01*
X47185511Y-152730686D01*
X47180903Y-152741662D01*
X47161964Y-152747715D01*
X47122902Y-152750310D01*
X47057923Y-152750910D01*
X47032903Y-152750921D01*
X46956779Y-152750014D01*
X46908504Y-152746720D01*
X46882540Y-152740181D01*
X46873352Y-152729537D01*
X46873027Y-152726119D01*
X46883513Y-152698956D01*
X46909758Y-152660903D01*
X46921041Y-152647579D01*
X46962928Y-152609896D01*
X47006591Y-152595080D01*
X47030115Y-152593842D01*
X47093757Y-152609329D01*
X47147127Y-152650930D01*
X47180981Y-152711353D01*
X47181581Y-152713322D01*
X47185511Y-152730686D01*
X47352825Y-152730686D01*
X47334101Y-152641928D01*
X47299078Y-152568190D01*
X47256244Y-152515848D01*
X47177052Y-152459092D01*
X47083960Y-152428762D01*
X46984945Y-152426021D01*
X46887982Y-152452027D01*
G36*
X48458216Y-152442104D02*
G01*
X48370795Y-152480754D01*
X48304430Y-152545290D01*
X48259024Y-152635812D01*
X48234482Y-152752418D01*
X48232723Y-152770624D01*
X48231344Y-152898984D01*
X48249216Y-153011496D01*
X48285250Y-153102688D01*
X48304545Y-153132022D01*
X48371755Y-153194106D01*
X48457350Y-153234316D01*
X48553110Y-153251003D01*
X48650813Y-153242517D01*
X48725083Y-153216380D01*
X48788953Y-153172335D01*
X48841154Y-153114587D01*
X48842057Y-153113236D01*
X48863256Y-153077593D01*
X48877033Y-153041752D01*
X48885376Y-152996519D01*
X48890273Y-152932701D01*
X48892431Y-152880368D01*
X48893329Y-152832910D01*
X48726257Y-152832910D01*
X48724624Y-152880154D01*
X48718696Y-152943046D01*
X48708239Y-152983407D01*
X48689381Y-153012122D01*
X48671719Y-153028896D01*
X48609106Y-153064016D01*
X48543592Y-153068710D01*
X48482579Y-153043440D01*
X48452072Y-153015124D01*
X48430089Y-152986589D01*
X48417231Y-152959284D01*
X48411588Y-152923750D01*
X48411249Y-152870524D01*
X48412988Y-152821506D01*
X48416729Y-152751482D01*
X48422659Y-152706064D01*
X48433347Y-152676440D01*
X48451361Y-152653797D01*
X48465637Y-152640855D01*
X48525349Y-152606860D01*
X48589766Y-152605165D01*
X48643781Y-152625301D01*
X48689860Y-152667352D01*
X48717311Y-152736428D01*
X48726257Y-152832910D01*
X48893329Y-152832910D01*
X48894401Y-152776299D01*
X48891036Y-152698468D01*
X48880955Y-152639930D01*
X48862774Y-152593737D01*
X48835110Y-152552942D01*
X48824854Y-152540828D01*
X48760722Y-152480474D01*
X48691934Y-152445220D01*
X48607811Y-152430450D01*
X48566791Y-152429243D01*
X48458216Y-152442104D01*
X48458216Y-152442104D01*
G37*
X48458216Y-152442104D02*
X48370795Y-152480754D01*
X48304430Y-152545290D01*
X48259024Y-152635812D01*
X48234482Y-152752418D01*
X48232723Y-152770624D01*
X48231344Y-152898984D01*
X48249216Y-153011496D01*
X48285250Y-153102688D01*
X48304545Y-153132022D01*
X48371755Y-153194106D01*
X48457350Y-153234316D01*
X48553110Y-153251003D01*
X48650813Y-153242517D01*
X48725083Y-153216380D01*
X48788953Y-153172335D01*
X48841154Y-153114587D01*
X48842057Y-153113236D01*
X48863256Y-153077593D01*
X48877033Y-153041752D01*
X48885376Y-152996519D01*
X48890273Y-152932701D01*
X48892431Y-152880368D01*
X48893329Y-152832910D01*
X48726257Y-152832910D01*
X48724624Y-152880154D01*
X48718696Y-152943046D01*
X48708239Y-152983407D01*
X48689381Y-153012122D01*
X48671719Y-153028896D01*
X48609106Y-153064016D01*
X48543592Y-153068710D01*
X48482579Y-153043440D01*
X48452072Y-153015124D01*
X48430089Y-152986589D01*
X48417231Y-152959284D01*
X48411588Y-152923750D01*
X48411249Y-152870524D01*
X48412988Y-152821506D01*
X48416729Y-152751482D01*
X48422659Y-152706064D01*
X48433347Y-152676440D01*
X48451361Y-152653797D01*
X48465637Y-152640855D01*
X48525349Y-152606860D01*
X48589766Y-152605165D01*
X48643781Y-152625301D01*
X48689860Y-152667352D01*
X48717311Y-152736428D01*
X48726257Y-152832910D01*
X48893329Y-152832910D01*
X48894401Y-152776299D01*
X48891036Y-152698468D01*
X48880955Y-152639930D01*
X48862774Y-152593737D01*
X48835110Y-152552942D01*
X48824854Y-152540828D01*
X48760722Y-152480474D01*
X48691934Y-152445220D01*
X48607811Y-152430450D01*
X48566791Y-152429243D01*
X48458216Y-152442104D01*
G36*
X42383807Y-153691078D02*
G01*
X42303932Y-153711845D01*
X42237038Y-153754705D01*
X42204649Y-153786723D01*
X42151555Y-153862413D01*
X42121127Y-153950216D01*
X42110673Y-154058150D01*
X42110620Y-154066875D01*
X42110527Y-154154605D01*
X42615466Y-154154605D01*
X42604702Y-154200559D01*
X42585268Y-154242178D01*
X42551255Y-154285544D01*
X42544140Y-154292467D01*
X42482997Y-154329935D01*
X42413271Y-154336289D01*
X42333013Y-154311638D01*
X42319408Y-154305000D01*
X42277681Y-154284819D01*
X42249732Y-154273321D01*
X42244855Y-154272258D01*
X42227832Y-154282583D01*
X42195367Y-154307845D01*
X42178886Y-154321650D01*
X42144736Y-154353361D01*
X42133522Y-154374299D01*
X42141305Y-154393560D01*
X42145465Y-154398827D01*
X42173643Y-154421878D01*
X42220138Y-154449892D01*
X42252566Y-154466246D01*
X42344615Y-154495059D01*
X42446524Y-154504395D01*
X42543037Y-154493332D01*
X42570066Y-154485412D01*
X42653724Y-154440581D01*
X42715734Y-154371598D01*
X42756455Y-154277794D01*
X42776245Y-154158498D01*
X42778418Y-154096118D01*
X42772074Y-154005298D01*
X42611843Y-154005298D01*
X42596345Y-154012012D01*
X42554688Y-154017280D01*
X42494124Y-154020389D01*
X42453093Y-154020921D01*
X42379289Y-154020408D01*
X42332707Y-154018006D01*
X42307152Y-154012422D01*
X42296431Y-154002361D01*
X42294343Y-153987763D01*
X42308669Y-153942796D01*
X42344738Y-153898353D01*
X42392185Y-153864242D01*
X42439651Y-153850288D01*
X42504121Y-153862666D01*
X42559930Y-153898452D01*
X42598626Y-153950033D01*
X42611843Y-154005298D01*
X42772074Y-154005298D01*
X42769179Y-153963866D01*
X42740664Y-153858498D01*
X42692271Y-153779178D01*
X42623396Y-153725071D01*
X42533435Y-153695343D01*
X42484700Y-153689618D01*
X42383807Y-153691078D01*
X42383807Y-153691078D01*
G37*
X42383807Y-153691078D02*
X42303932Y-153711845D01*
X42237038Y-153754705D01*
X42204649Y-153786723D01*
X42151555Y-153862413D01*
X42121127Y-153950216D01*
X42110673Y-154058150D01*
X42110620Y-154066875D01*
X42110527Y-154154605D01*
X42615466Y-154154605D01*
X42604702Y-154200559D01*
X42585268Y-154242178D01*
X42551255Y-154285544D01*
X42544140Y-154292467D01*
X42482997Y-154329935D01*
X42413271Y-154336289D01*
X42333013Y-154311638D01*
X42319408Y-154305000D01*
X42277681Y-154284819D01*
X42249732Y-154273321D01*
X42244855Y-154272258D01*
X42227832Y-154282583D01*
X42195367Y-154307845D01*
X42178886Y-154321650D01*
X42144736Y-154353361D01*
X42133522Y-154374299D01*
X42141305Y-154393560D01*
X42145465Y-154398827D01*
X42173643Y-154421878D01*
X42220138Y-154449892D01*
X42252566Y-154466246D01*
X42344615Y-154495059D01*
X42446524Y-154504395D01*
X42543037Y-154493332D01*
X42570066Y-154485412D01*
X42653724Y-154440581D01*
X42715734Y-154371598D01*
X42756455Y-154277794D01*
X42776245Y-154158498D01*
X42778418Y-154096118D01*
X42772074Y-154005298D01*
X42611843Y-154005298D01*
X42596345Y-154012012D01*
X42554688Y-154017280D01*
X42494124Y-154020389D01*
X42453093Y-154020921D01*
X42379289Y-154020408D01*
X42332707Y-154018006D01*
X42307152Y-154012422D01*
X42296431Y-154002361D01*
X42294343Y-153987763D01*
X42308669Y-153942796D01*
X42344738Y-153898353D01*
X42392185Y-153864242D01*
X42439651Y-153850288D01*
X42504121Y-153862666D01*
X42559930Y-153898452D01*
X42598626Y-153950033D01*
X42611843Y-154005298D01*
X42772074Y-154005298D01*
X42769179Y-153963866D01*
X42740664Y-153858498D01*
X42692271Y-153779178D01*
X42623396Y-153725071D01*
X42533435Y-153695343D01*
X42484700Y-153689618D01*
X42383807Y-153691078D01*
G36*
X42911833Y-153686447D02*
G01*
X42847592Y-153699112D01*
X42811020Y-153717864D01*
X42772547Y-153749017D01*
X42827283Y-153818127D01*
X42861031Y-153859979D01*
X42883947Y-153880398D01*
X42906721Y-153883517D01*
X42940044Y-153873472D01*
X42955686Y-153867789D01*
X43019458Y-153859404D01*
X43077860Y-153877378D01*
X43120736Y-153917982D01*
X43127701Y-153930929D01*
X43135287Y-153965224D01*
X43141141Y-154028427D01*
X43144989Y-154116060D01*
X43146557Y-154223640D01*
X43146579Y-154238944D01*
X43146579Y-154505526D01*
X43330395Y-154505526D01*
X43330395Y-153686710D01*
X43238487Y-153686710D01*
X43185493Y-153688094D01*
X43157885Y-153694252D01*
X43147676Y-153708194D01*
X43146579Y-153721344D01*
X43146579Y-153755978D01*
X43102550Y-153721344D01*
X43052063Y-153697716D01*
X42984240Y-153686033D01*
X42911833Y-153686447D01*
X42911833Y-153686447D01*
G37*
X42911833Y-153686447D02*
X42847592Y-153699112D01*
X42811020Y-153717864D01*
X42772547Y-153749017D01*
X42827283Y-153818127D01*
X42861031Y-153859979D01*
X42883947Y-153880398D01*
X42906721Y-153883517D01*
X42940044Y-153873472D01*
X42955686Y-153867789D01*
X43019458Y-153859404D01*
X43077860Y-153877378D01*
X43120736Y-153917982D01*
X43127701Y-153930929D01*
X43135287Y-153965224D01*
X43141141Y-154028427D01*
X43144989Y-154116060D01*
X43146557Y-154223640D01*
X43146579Y-154238944D01*
X43146579Y-154505526D01*
X43330395Y-154505526D01*
X43330395Y-153686710D01*
X43238487Y-153686710D01*
X43185493Y-153688094D01*
X43157885Y-153694252D01*
X43147676Y-153708194D01*
X43146579Y-153721344D01*
X43146579Y-153755978D01*
X43102550Y-153721344D01*
X43052063Y-153697716D01*
X42984240Y-153686033D01*
X42911833Y-153686447D01*
G36*
X43705008Y-153691673D02*
G01*
X43634573Y-153708780D01*
X43614213Y-153717844D01*
X43574747Y-153741583D01*
X43544459Y-153768321D01*
X43522048Y-153802699D01*
X43506214Y-153849360D01*
X43495657Y-153912946D01*
X43489076Y-153998099D01*
X43485172Y-154109462D01*
X43483690Y-154183849D01*
X43478235Y-154505526D01*
X43571420Y-154505526D01*
X43627953Y-154503156D01*
X43657078Y-154495055D01*
X43664606Y-154481451D01*
X43668580Y-154466741D01*
X43686348Y-154469554D01*
X43710560Y-154481348D01*
X43771172Y-154499427D01*
X43849071Y-154504299D01*
X43931005Y-154496330D01*
X44003719Y-154475889D01*
X44010241Y-154473051D01*
X44076698Y-154426365D01*
X44120509Y-154361464D01*
X44140668Y-154285600D01*
X44139128Y-154258344D01*
X43974655Y-154258344D01*
X43960163Y-154295024D01*
X43917195Y-154321309D01*
X43847871Y-154335417D01*
X43810823Y-154337290D01*
X43749081Y-154332494D01*
X43708040Y-154313858D01*
X43698027Y-154305000D01*
X43670900Y-154256806D01*
X43664606Y-154213092D01*
X43664606Y-154154605D01*
X43746070Y-154154605D01*
X43840766Y-154159432D01*
X43907187Y-154174613D01*
X43949154Y-154201200D01*
X43958551Y-154213052D01*
X43974655Y-154258344D01*
X44139128Y-154258344D01*
X44136171Y-154206026D01*
X44106015Y-154129995D01*
X44064869Y-154078612D01*
X44039948Y-154056397D01*
X44015552Y-154041798D01*
X43983809Y-154032897D01*
X43936848Y-154027775D01*
X43866796Y-154024515D01*
X43839010Y-154023577D01*
X43664606Y-154017879D01*
X43664862Y-153965091D01*
X43671616Y-153909603D01*
X43696036Y-153876052D01*
X43745370Y-153854618D01*
X43746694Y-153854236D01*
X43816640Y-153845808D01*
X43885086Y-153856816D01*
X43935953Y-153883585D01*
X43956363Y-153896803D01*
X43978346Y-153894974D01*
X44012174Y-153875824D01*
X44032039Y-153862308D01*
X44070894Y-153833432D01*
X44094962Y-153811786D01*
X44098824Y-153805589D01*
X44082921Y-153773519D01*
X44035935Y-153735219D01*
X44015527Y-153722297D01*
X43956857Y-153700041D01*
X43877788Y-153687432D01*
X43789959Y-153684600D01*
X43705008Y-153691673D01*
X43705008Y-153691673D01*
G37*
X43705008Y-153691673D02*
X43634573Y-153708780D01*
X43614213Y-153717844D01*
X43574747Y-153741583D01*
X43544459Y-153768321D01*
X43522048Y-153802699D01*
X43506214Y-153849360D01*
X43495657Y-153912946D01*
X43489076Y-153998099D01*
X43485172Y-154109462D01*
X43483690Y-154183849D01*
X43478235Y-154505526D01*
X43571420Y-154505526D01*
X43627953Y-154503156D01*
X43657078Y-154495055D01*
X43664606Y-154481451D01*
X43668580Y-154466741D01*
X43686348Y-154469554D01*
X43710560Y-154481348D01*
X43771172Y-154499427D01*
X43849071Y-154504299D01*
X43931005Y-154496330D01*
X44003719Y-154475889D01*
X44010241Y-154473051D01*
X44076698Y-154426365D01*
X44120509Y-154361464D01*
X44140668Y-154285600D01*
X44139128Y-154258344D01*
X43974655Y-154258344D01*
X43960163Y-154295024D01*
X43917195Y-154321309D01*
X43847871Y-154335417D01*
X43810823Y-154337290D01*
X43749081Y-154332494D01*
X43708040Y-154313858D01*
X43698027Y-154305000D01*
X43670900Y-154256806D01*
X43664606Y-154213092D01*
X43664606Y-154154605D01*
X43746070Y-154154605D01*
X43840766Y-154159432D01*
X43907187Y-154174613D01*
X43949154Y-154201200D01*
X43958551Y-154213052D01*
X43974655Y-154258344D01*
X44139128Y-154258344D01*
X44136171Y-154206026D01*
X44106015Y-154129995D01*
X44064869Y-154078612D01*
X44039948Y-154056397D01*
X44015552Y-154041798D01*
X43983809Y-154032897D01*
X43936848Y-154027775D01*
X43866796Y-154024515D01*
X43839010Y-154023577D01*
X43664606Y-154017879D01*
X43664862Y-153965091D01*
X43671616Y-153909603D01*
X43696036Y-153876052D01*
X43745370Y-153854618D01*
X43746694Y-153854236D01*
X43816640Y-153845808D01*
X43885086Y-153856816D01*
X43935953Y-153883585D01*
X43956363Y-153896803D01*
X43978346Y-153894974D01*
X44012174Y-153875824D01*
X44032039Y-153862308D01*
X44070894Y-153833432D01*
X44094962Y-153811786D01*
X44098824Y-153805589D01*
X44082921Y-153773519D01*
X44035935Y-153735219D01*
X44015527Y-153722297D01*
X43956857Y-153700041D01*
X43877788Y-153687432D01*
X43789959Y-153684600D01*
X43705008Y-153691673D01*
G36*
X44710870Y-153690104D02*
G01*
X44644780Y-153695066D01*
X44558374Y-153954079D01*
X44471969Y-154213092D01*
X44444876Y-154121184D01*
X44428572Y-154064384D01*
X44407125Y-153987625D01*
X44383965Y-153903251D01*
X44371720Y-153857993D01*
X44325656Y-153686710D01*
X44135613Y-153686710D01*
X44192418Y-153866349D01*
X44220393Y-153954704D01*
X44254187Y-154061281D01*
X44289480Y-154172454D01*
X44320987Y-154271579D01*
X44392750Y-154497171D01*
X44547714Y-154507253D01*
X44589730Y-154368528D01*
X44615641Y-154282351D01*
X44643917Y-154187347D01*
X44668631Y-154103441D01*
X44669606Y-154100102D01*
X44688065Y-154043248D01*
X44704351Y-154004456D01*
X44715758Y-153989787D01*
X44718102Y-153991483D01*
X44726329Y-154014225D01*
X44741962Y-154062940D01*
X44763096Y-154131502D01*
X44787830Y-154213785D01*
X44801213Y-154259046D01*
X44873689Y-154505526D01*
X45027505Y-154505526D01*
X45150469Y-154117006D01*
X45185012Y-154008022D01*
X45216479Y-153909048D01*
X45243384Y-153824736D01*
X45264241Y-153759734D01*
X45277562Y-153718692D01*
X45281612Y-153706701D01*
X45278406Y-153694423D01*
X45253235Y-153689046D01*
X45200854Y-153689584D01*
X45192655Y-153689990D01*
X45095518Y-153695066D01*
X45031900Y-153929013D01*
X45008516Y-154014333D01*
X44987619Y-154089335D01*
X44971049Y-154147507D01*
X44960646Y-154182337D01*
X44958724Y-154188016D01*
X44950759Y-154181486D01*
X44934696Y-154147654D01*
X44912379Y-154091127D01*
X44885655Y-154016510D01*
X44863063Y-153949107D01*
X44776959Y-153685143D01*
X44710870Y-153690104D01*
X44710870Y-153690104D01*
G37*
X44710870Y-153690104D02*
X44644780Y-153695066D01*
X44558374Y-153954079D01*
X44471969Y-154213092D01*
X44444876Y-154121184D01*
X44428572Y-154064384D01*
X44407125Y-153987625D01*
X44383965Y-153903251D01*
X44371720Y-153857993D01*
X44325656Y-153686710D01*
X44135613Y-153686710D01*
X44192418Y-153866349D01*
X44220393Y-153954704D01*
X44254187Y-154061281D01*
X44289480Y-154172454D01*
X44320987Y-154271579D01*
X44392750Y-154497171D01*
X44547714Y-154507253D01*
X44589730Y-154368528D01*
X44615641Y-154282351D01*
X44643917Y-154187347D01*
X44668631Y-154103441D01*
X44669606Y-154100102D01*
X44688065Y-154043248D01*
X44704351Y-154004456D01*
X44715758Y-153989787D01*
X44718102Y-153991483D01*
X44726329Y-154014225D01*
X44741962Y-154062940D01*
X44763096Y-154131502D01*
X44787830Y-154213785D01*
X44801213Y-154259046D01*
X44873689Y-154505526D01*
X45027505Y-154505526D01*
X45150469Y-154117006D01*
X45185012Y-154008022D01*
X45216479Y-153909048D01*
X45243384Y-153824736D01*
X45264241Y-153759734D01*
X45277562Y-153718692D01*
X45281612Y-153706701D01*
X45278406Y-153694423D01*
X45253235Y-153689046D01*
X45200854Y-153689584D01*
X45192655Y-153689990D01*
X45095518Y-153695066D01*
X45031900Y-153929013D01*
X45008516Y-154014333D01*
X44987619Y-154089335D01*
X44971049Y-154147507D01*
X44960646Y-154182337D01*
X44958724Y-154188016D01*
X44950759Y-154181486D01*
X44934696Y-154147654D01*
X44912379Y-154091127D01*
X44885655Y-154016510D01*
X44863063Y-153949107D01*
X44776959Y-153685143D01*
X44710870Y-153690104D01*
G36*
X45352369Y-154505526D02*
G01*
X45444277Y-154505526D01*
X45497623Y-154503962D01*
X45525407Y-154497485D01*
X45535410Y-154483418D01*
X45536185Y-154473906D01*
X45537872Y-154454832D01*
X45548510Y-154451174D01*
X45576465Y-154462932D01*
X45598205Y-154473906D01*
X45681668Y-154499911D01*
X45772396Y-154501416D01*
X45846158Y-154482021D01*
X45914846Y-154435165D01*
X45967206Y-154366004D01*
X45995878Y-154284427D01*
X45996608Y-154279866D01*
X46000868Y-154230101D01*
X46002986Y-154158659D01*
X46002816Y-154104626D01*
X45820280Y-154104626D01*
X45816051Y-154176441D01*
X45806432Y-154235634D01*
X45793410Y-154269060D01*
X45744144Y-154314740D01*
X45685650Y-154331115D01*
X45625329Y-154317873D01*
X45573783Y-154278373D01*
X45554262Y-154251807D01*
X45542848Y-154220106D01*
X45537502Y-154173832D01*
X45536185Y-154104328D01*
X45538542Y-154035499D01*
X45544767Y-153975026D01*
X45553592Y-153934556D01*
X45555063Y-153930929D01*
X45590653Y-153887802D01*
X45642600Y-153864124D01*
X45700722Y-153860301D01*
X45754840Y-153876738D01*
X45794774Y-153913840D01*
X45798917Y-153921222D01*
X45811884Y-153966239D01*
X45818948Y-154030967D01*
X45820280Y-154104626D01*
X46002816Y-154104626D01*
X46002729Y-154077230D01*
X46001528Y-154033405D01*
X45993355Y-153924988D01*
X45976370Y-153843588D01*
X45948113Y-153783412D01*
X45906128Y-153738666D01*
X45865368Y-153712400D01*
X45808419Y-153693935D01*
X45737589Y-153687602D01*
X45665059Y-153692760D01*
X45603014Y-153708769D01*
X45570232Y-153727920D01*
X45536185Y-153758732D01*
X45536185Y-153369210D01*
X45352369Y-153369210D01*
X45352369Y-154505526D01*
X45352369Y-154505526D01*
G37*
X45352369Y-154505526D02*
X45444277Y-154505526D01*
X45497623Y-154503962D01*
X45525407Y-154497485D01*
X45535410Y-154483418D01*
X45536185Y-154473906D01*
X45537872Y-154454832D01*
X45548510Y-154451174D01*
X45576465Y-154462932D01*
X45598205Y-154473906D01*
X45681668Y-154499911D01*
X45772396Y-154501416D01*
X45846158Y-154482021D01*
X45914846Y-154435165D01*
X45967206Y-154366004D01*
X45995878Y-154284427D01*
X45996608Y-154279866D01*
X46000868Y-154230101D01*
X46002986Y-154158659D01*
X46002816Y-154104626D01*
X45820280Y-154104626D01*
X45816051Y-154176441D01*
X45806432Y-154235634D01*
X45793410Y-154269060D01*
X45744144Y-154314740D01*
X45685650Y-154331115D01*
X45625329Y-154317873D01*
X45573783Y-154278373D01*
X45554262Y-154251807D01*
X45542848Y-154220106D01*
X45537502Y-154173832D01*
X45536185Y-154104328D01*
X45538542Y-154035499D01*
X45544767Y-153975026D01*
X45553592Y-153934556D01*
X45555063Y-153930929D01*
X45590653Y-153887802D01*
X45642600Y-153864124D01*
X45700722Y-153860301D01*
X45754840Y-153876738D01*
X45794774Y-153913840D01*
X45798917Y-153921222D01*
X45811884Y-153966239D01*
X45818948Y-154030967D01*
X45820280Y-154104626D01*
X46002816Y-154104626D01*
X46002729Y-154077230D01*
X46001528Y-154033405D01*
X45993355Y-153924988D01*
X45976370Y-153843588D01*
X45948113Y-153783412D01*
X45906128Y-153738666D01*
X45865368Y-153712400D01*
X45808419Y-153693935D01*
X45737589Y-153687602D01*
X45665059Y-153692760D01*
X45603014Y-153708769D01*
X45570232Y-153727920D01*
X45536185Y-153758732D01*
X45536185Y-153369210D01*
X45352369Y-153369210D01*
X45352369Y-154505526D01*
G36*
X46405119Y-153688486D02*
G01*
X46380112Y-153695982D01*
X46372050Y-153712451D01*
X46371711Y-153719886D01*
X46370264Y-153740594D01*
X46360302Y-153743845D01*
X46333388Y-153729648D01*
X46317402Y-153719948D01*
X46266967Y-153699175D01*
X46206728Y-153688904D01*
X46143566Y-153688114D01*
X46084363Y-153695786D01*
X46035998Y-153710898D01*
X46005354Y-153732432D01*
X45999311Y-153759366D01*
X46002361Y-153766660D01*
X46024594Y-153796937D01*
X46059070Y-153834175D01*
X46065306Y-153840195D01*
X46098167Y-153867875D01*
X46126520Y-153876818D01*
X46166173Y-153870576D01*
X46182058Y-153866429D01*
X46231491Y-153856467D01*
X46266248Y-153860947D01*
X46295600Y-153876746D01*
X46322487Y-153897949D01*
X46342290Y-153924614D01*
X46356052Y-153961827D01*
X46364816Y-154014673D01*
X46369626Y-154088237D01*
X46371526Y-154187605D01*
X46371711Y-154247601D01*
X46371711Y-154505526D01*
X46538816Y-154505526D01*
X46538816Y-153686710D01*
X46455264Y-153686710D01*
X46405119Y-153688486D01*
X46405119Y-153688486D01*
G37*
X46405119Y-153688486D02*
X46380112Y-153695982D01*
X46372050Y-153712451D01*
X46371711Y-153719886D01*
X46370264Y-153740594D01*
X46360302Y-153743845D01*
X46333388Y-153729648D01*
X46317402Y-153719948D01*
X46266967Y-153699175D01*
X46206728Y-153688904D01*
X46143566Y-153688114D01*
X46084363Y-153695786D01*
X46035998Y-153710898D01*
X46005354Y-153732432D01*
X45999311Y-153759366D01*
X46002361Y-153766660D01*
X46024594Y-153796937D01*
X46059070Y-153834175D01*
X46065306Y-153840195D01*
X46098167Y-153867875D01*
X46126520Y-153876818D01*
X46166173Y-153870576D01*
X46182058Y-153866429D01*
X46231491Y-153856467D01*
X46266248Y-153860947D01*
X46295600Y-153876746D01*
X46322487Y-153897949D01*
X46342290Y-153924614D01*
X46356052Y-153961827D01*
X46364816Y-154014673D01*
X46369626Y-154088237D01*
X46371526Y-154187605D01*
X46371711Y-154247601D01*
X46371711Y-154505526D01*
X46538816Y-154505526D01*
X46538816Y-153686710D01*
X46455264Y-153686710D01*
X46405119Y-153688486D01*
G36*
X46924543Y-153693184D02*
G01*
X46845930Y-153714160D01*
X46786084Y-153752180D01*
X46743853Y-153801978D01*
X46730725Y-153823230D01*
X46721032Y-153845492D01*
X46714256Y-153873970D01*
X46709877Y-153913871D01*
X46707376Y-153970401D01*
X46706232Y-154048767D01*
X46705928Y-154154176D01*
X46705922Y-154182142D01*
X46705922Y-154505526D01*
X46786132Y-154505526D01*
X46837294Y-154501943D01*
X46875123Y-154492866D01*
X46884601Y-154487268D01*
X46910512Y-154477606D01*
X46936976Y-154487268D01*
X46980548Y-154499330D01*
X47043840Y-154504185D01*
X47113990Y-154502078D01*
X47178140Y-154493256D01*
X47215593Y-154481937D01*
X47288067Y-154435412D01*
X47333360Y-154370846D01*
X47353722Y-154285000D01*
X47353912Y-154282796D01*
X47352125Y-154244713D01*
X47190527Y-154244713D01*
X47176399Y-154288030D01*
X47153388Y-154312408D01*
X47107196Y-154330845D01*
X47046225Y-154338205D01*
X46984051Y-154334583D01*
X46934249Y-154320074D01*
X46920297Y-154310765D01*
X46895915Y-154267753D01*
X46889737Y-154218857D01*
X46889737Y-154154605D01*
X46982182Y-154154605D01*
X47070005Y-154161366D01*
X47136582Y-154180520D01*
X47177998Y-154210376D01*
X47190527Y-154244713D01*
X47352125Y-154244713D01*
X47349510Y-154189004D01*
X47318576Y-154114847D01*
X47260419Y-154058767D01*
X47252380Y-154053665D01*
X47217837Y-154037055D01*
X47175082Y-154026996D01*
X47115314Y-154022107D01*
X47044310Y-154020983D01*
X46889737Y-154020921D01*
X46889737Y-153956125D01*
X46896294Y-153905850D01*
X46913025Y-153872169D01*
X46914984Y-153870376D01*
X46952217Y-153855642D01*
X47008420Y-153849931D01*
X47070533Y-153852737D01*
X47125490Y-153863556D01*
X47158101Y-153879782D01*
X47175772Y-153892780D01*
X47194431Y-153895262D01*
X47220181Y-153884613D01*
X47259127Y-153858218D01*
X47317370Y-153813465D01*
X47322716Y-153809273D01*
X47319977Y-153793760D01*
X47297124Y-153767960D01*
X47262391Y-153739289D01*
X47224010Y-153715166D01*
X47211952Y-153709470D01*
X47167966Y-153698103D01*
X47103513Y-153689995D01*
X47031503Y-153686743D01*
X47028136Y-153686736D01*
X46924543Y-153693184D01*
X46924543Y-153693184D01*
G37*
X46924543Y-153693184D02*
X46845930Y-153714160D01*
X46786084Y-153752180D01*
X46743853Y-153801978D01*
X46730725Y-153823230D01*
X46721032Y-153845492D01*
X46714256Y-153873970D01*
X46709877Y-153913871D01*
X46707376Y-153970401D01*
X46706232Y-154048767D01*
X46705928Y-154154176D01*
X46705922Y-154182142D01*
X46705922Y-154505526D01*
X46786132Y-154505526D01*
X46837294Y-154501943D01*
X46875123Y-154492866D01*
X46884601Y-154487268D01*
X46910512Y-154477606D01*
X46936976Y-154487268D01*
X46980548Y-154499330D01*
X47043840Y-154504185D01*
X47113990Y-154502078D01*
X47178140Y-154493256D01*
X47215593Y-154481937D01*
X47288067Y-154435412D01*
X47333360Y-154370846D01*
X47353722Y-154285000D01*
X47353912Y-154282796D01*
X47352125Y-154244713D01*
X47190527Y-154244713D01*
X47176399Y-154288030D01*
X47153388Y-154312408D01*
X47107196Y-154330845D01*
X47046225Y-154338205D01*
X46984051Y-154334583D01*
X46934249Y-154320074D01*
X46920297Y-154310765D01*
X46895915Y-154267753D01*
X46889737Y-154218857D01*
X46889737Y-154154605D01*
X46982182Y-154154605D01*
X47070005Y-154161366D01*
X47136582Y-154180520D01*
X47177998Y-154210376D01*
X47190527Y-154244713D01*
X47352125Y-154244713D01*
X47349510Y-154189004D01*
X47318576Y-154114847D01*
X47260419Y-154058767D01*
X47252380Y-154053665D01*
X47217837Y-154037055D01*
X47175082Y-154026996D01*
X47115314Y-154022107D01*
X47044310Y-154020983D01*
X46889737Y-154020921D01*
X46889737Y-153956125D01*
X46896294Y-153905850D01*
X46913025Y-153872169D01*
X46914984Y-153870376D01*
X46952217Y-153855642D01*
X47008420Y-153849931D01*
X47070533Y-153852737D01*
X47125490Y-153863556D01*
X47158101Y-153879782D01*
X47175772Y-153892780D01*
X47194431Y-153895262D01*
X47220181Y-153884613D01*
X47259127Y-153858218D01*
X47317370Y-153813465D01*
X47322716Y-153809273D01*
X47319977Y-153793760D01*
X47297124Y-153767960D01*
X47262391Y-153739289D01*
X47224010Y-153715166D01*
X47211952Y-153709470D01*
X47167966Y-153698103D01*
X47103513Y-153689995D01*
X47031503Y-153686743D01*
X47028136Y-153686736D01*
X46924543Y-153693184D01*
G36*
X47621640Y-152447468D02*
G01*
X47586408Y-152464874D01*
X47542960Y-152495206D01*
X47511294Y-152528283D01*
X47489606Y-152569817D01*
X47476097Y-152625522D01*
X47468962Y-152701111D01*
X47466400Y-152802296D01*
X47466250Y-152845797D01*
X47466688Y-152941135D01*
X47468504Y-153009271D01*
X47472455Y-153056418D01*
X47479298Y-153088790D01*
X47489789Y-153112600D01*
X47500704Y-153128843D01*
X47570381Y-153197952D01*
X47652434Y-153239521D01*
X47740950Y-153252023D01*
X47830019Y-153233934D01*
X47858237Y-153221142D01*
X47925790Y-153185931D01*
X47925790Y-153737700D01*
X47876488Y-153712205D01*
X47811527Y-153692480D01*
X47731680Y-153687427D01*
X47651948Y-153696756D01*
X47591735Y-153717714D01*
X47541792Y-153757627D01*
X47499119Y-153814741D01*
X47495910Y-153820605D01*
X47482378Y-153848227D01*
X47472495Y-153876068D01*
X47465691Y-153909794D01*
X47461399Y-153955071D01*
X47459049Y-154017562D01*
X47458072Y-154102935D01*
X47457895Y-154199010D01*
X47457895Y-154505526D01*
X47641711Y-154505526D01*
X47641711Y-153940339D01*
X47693125Y-153897077D01*
X47746534Y-153862472D01*
X47797112Y-153856180D01*
X47847970Y-153872372D01*
X47875075Y-153888227D01*
X47895249Y-153910810D01*
X47909597Y-153944940D01*
X47919224Y-153995434D01*
X47925237Y-154067111D01*
X47928740Y-154164788D01*
X47929974Y-154229802D01*
X47934145Y-154497171D01*
X48021875Y-154502222D01*
X48109606Y-154507273D01*
X48109606Y-152848101D01*
X47925790Y-152848101D01*
X47921104Y-152940600D01*
X47905312Y-153004809D01*
X47875817Y-153044759D01*
X47830020Y-153064480D01*
X47783750Y-153068421D01*
X47731372Y-153063892D01*
X47696610Y-153046069D01*
X47674872Y-153022519D01*
X47657760Y-152997189D01*
X47647573Y-152968969D01*
X47643040Y-152929431D01*
X47642891Y-152870142D01*
X47644416Y-152820498D01*
X47647919Y-152745710D01*
X47653133Y-152696611D01*
X47661913Y-152665467D01*
X47676114Y-152644545D01*
X47689516Y-152632452D01*
X47745513Y-152606081D01*
X47811789Y-152601822D01*
X47849844Y-152610906D01*
X47887523Y-152643196D01*
X47912481Y-152706006D01*
X47924578Y-152798894D01*
X47925790Y-152848101D01*
X48109606Y-152848101D01*
X48109606Y-152433421D01*
X48017698Y-152433421D01*
X47962517Y-152435603D01*
X47934048Y-152443351D01*
X47925794Y-152458468D01*
X47925790Y-152458916D01*
X47921960Y-152473720D01*
X47905067Y-152472039D01*
X47871481Y-152455772D01*
X47793222Y-152430887D01*
X47705173Y-152428271D01*
X47621640Y-152447468D01*
X47621640Y-152447468D01*
G37*
X47621640Y-152447468D02*
X47586408Y-152464874D01*
X47542960Y-152495206D01*
X47511294Y-152528283D01*
X47489606Y-152569817D01*
X47476097Y-152625522D01*
X47468962Y-152701111D01*
X47466400Y-152802296D01*
X47466250Y-152845797D01*
X47466688Y-152941135D01*
X47468504Y-153009271D01*
X47472455Y-153056418D01*
X47479298Y-153088790D01*
X47489789Y-153112600D01*
X47500704Y-153128843D01*
X47570381Y-153197952D01*
X47652434Y-153239521D01*
X47740950Y-153252023D01*
X47830019Y-153233934D01*
X47858237Y-153221142D01*
X47925790Y-153185931D01*
X47925790Y-153737700D01*
X47876488Y-153712205D01*
X47811527Y-153692480D01*
X47731680Y-153687427D01*
X47651948Y-153696756D01*
X47591735Y-153717714D01*
X47541792Y-153757627D01*
X47499119Y-153814741D01*
X47495910Y-153820605D01*
X47482378Y-153848227D01*
X47472495Y-153876068D01*
X47465691Y-153909794D01*
X47461399Y-153955071D01*
X47459049Y-154017562D01*
X47458072Y-154102935D01*
X47457895Y-154199010D01*
X47457895Y-154505526D01*
X47641711Y-154505526D01*
X47641711Y-153940339D01*
X47693125Y-153897077D01*
X47746534Y-153862472D01*
X47797112Y-153856180D01*
X47847970Y-153872372D01*
X47875075Y-153888227D01*
X47895249Y-153910810D01*
X47909597Y-153944940D01*
X47919224Y-153995434D01*
X47925237Y-154067111D01*
X47928740Y-154164788D01*
X47929974Y-154229802D01*
X47934145Y-154497171D01*
X48021875Y-154502222D01*
X48109606Y-154507273D01*
X48109606Y-152848101D01*
X47925790Y-152848101D01*
X47921104Y-152940600D01*
X47905312Y-153004809D01*
X47875817Y-153044759D01*
X47830020Y-153064480D01*
X47783750Y-153068421D01*
X47731372Y-153063892D01*
X47696610Y-153046069D01*
X47674872Y-153022519D01*
X47657760Y-152997189D01*
X47647573Y-152968969D01*
X47643040Y-152929431D01*
X47642891Y-152870142D01*
X47644416Y-152820498D01*
X47647919Y-152745710D01*
X47653133Y-152696611D01*
X47661913Y-152665467D01*
X47676114Y-152644545D01*
X47689516Y-152632452D01*
X47745513Y-152606081D01*
X47811789Y-152601822D01*
X47849844Y-152610906D01*
X47887523Y-152643196D01*
X47912481Y-152706006D01*
X47924578Y-152798894D01*
X47925790Y-152848101D01*
X48109606Y-152848101D01*
X48109606Y-152433421D01*
X48017698Y-152433421D01*
X47962517Y-152435603D01*
X47934048Y-152443351D01*
X47925794Y-152458468D01*
X47925790Y-152458916D01*
X47921960Y-152473720D01*
X47905067Y-152472039D01*
X47871481Y-152455772D01*
X47793222Y-152430887D01*
X47705173Y-152428271D01*
X47621640Y-152447468D01*
M02*
