M48
; DRILL file {KiCad 5.1.6+dfsg1-1~bpo10+1} date Mon Jul 13 16:37:21 2020
; FORMAT={-:-/ absolute / inch / decimal}
; #@! TF.CreationDate,2020-07-13T16:37:21+08:00
; #@! TF.GenerationSoftware,Kicad,Pcbnew,5.1.6+dfsg1-1~bpo10+1
FMAT,2
INCH
T1C0.0400
%
G90
G05
T1
X5.95Y-2.975
X5.95Y-3.075
X6.05Y-2.975
X6.05Y-3.075
X6.15Y-2.975
X6.15Y-3.075
X6.25Y-2.975
X6.25Y-3.075
X6.35Y-2.975
X6.35Y-3.075
X6.45Y-2.975
X6.45Y-3.075
X6.55Y-2.975
X6.55Y-3.075
X6.65Y-2.975
X6.65Y-3.075
X6.75Y-2.975
X6.75Y-3.075
X6.85Y-2.975
X6.85Y-3.075
X6.95Y-2.975
X6.95Y-3.075
X7.05Y-2.975
X7.05Y-3.075
X7.15Y-2.975
X7.15Y-3.075
X7.25Y-2.975
X7.25Y-3.075
X7.35Y-2.975
X7.35Y-3.075
X7.45Y-2.975
X7.45Y-3.075
X7.55Y-2.975
X7.55Y-3.075
X7.65Y-2.975
X7.65Y-3.075
X7.75Y-2.975
X7.75Y-3.075
X7.85Y-2.975
X7.85Y-3.075
X7.05Y-3.375
X7.15Y-3.375
X7.25Y-3.375
X7.35Y-3.375
X5.95Y-3.375
X6.05Y-3.375
X6.15Y-3.375
X6.25Y-3.375
T0
M30
