%TF.GenerationSoftware,KiCad,Pcbnew,5.1.6+dfsg1-1~bpo10+1*%
%TF.CreationDate,2020-07-13T16:37:17+08:00*%
%TF.ProjectId,Pi-I2C,50692d49-3243-42e6-9b69-6361645f7063,rev?*%
%TF.SameCoordinates,Original*%
%TF.FileFunction,Copper,L1,Top*%
%TF.FilePolarity,Positive*%
%FSLAX46Y46*%
G04 Gerber Fmt 4.6, Leading zero omitted, Abs format (unit mm)*
G04 Created by KiCad (PCBNEW 5.1.6+dfsg1-1~bpo10+1) date 2020-07-13 16:37:17*
%MOMM*%
%LPD*%
G01*
G04 APERTURE LIST*
%TA.AperFunction,NonConductor*%
%ADD10C,0.190500*%
%TD*%
%TA.AperFunction,ComponentPad*%
%ADD11R,1.727200X1.727200*%
%TD*%
%TA.AperFunction,ComponentPad*%
%ADD12C,1.727200*%
%TD*%
%TA.AperFunction,ComponentPad*%
%ADD13O,1.727200X1.727200*%
%TD*%
%TA.AperFunction,SMDPad,CuDef*%
%ADD14R,0.800100X0.800100*%
%TD*%
%TA.AperFunction,SMDPad,CuDef*%
%ADD15R,1.300000X0.700000*%
%TD*%
%TA.AperFunction,SMDPad,CuDef*%
%ADD16R,0.700000X1.300000*%
%TD*%
%TA.AperFunction,Conductor*%
%ADD17C,0.508000*%
%TD*%
%TA.AperFunction,Conductor*%
%ADD18C,0.254000*%
%TD*%
G04 APERTURE END LIST*
D10*
X148789571Y-91625964D02*
X148789571Y-92170250D01*
X148753285Y-92279107D01*
X148680714Y-92351678D01*
X148571857Y-92387964D01*
X148499285Y-92387964D01*
X149587857Y-92315392D02*
X149551571Y-92351678D01*
X149442714Y-92387964D01*
X149370142Y-92387964D01*
X149261285Y-92351678D01*
X149188714Y-92279107D01*
X149152428Y-92206535D01*
X149116142Y-92061392D01*
X149116142Y-91952535D01*
X149152428Y-91807392D01*
X149188714Y-91734821D01*
X149261285Y-91662250D01*
X149370142Y-91625964D01*
X149442714Y-91625964D01*
X149551571Y-91662250D01*
X149587857Y-91698535D01*
X150168428Y-91988821D02*
X149914428Y-91988821D01*
X149914428Y-92387964D02*
X149914428Y-91625964D01*
X150277285Y-91625964D01*
X151111857Y-91698535D02*
X151148142Y-91662250D01*
X151220714Y-91625964D01*
X151402142Y-91625964D01*
X151474714Y-91662250D01*
X151511000Y-91698535D01*
X151547285Y-91771107D01*
X151547285Y-91843678D01*
X151511000Y-91952535D01*
X151075571Y-92387964D01*
X151547285Y-92387964D01*
X152019000Y-91625964D02*
X152091571Y-91625964D01*
X152164142Y-91662250D01*
X152200428Y-91698535D01*
X152236714Y-91771107D01*
X152273000Y-91916250D01*
X152273000Y-92097678D01*
X152236714Y-92242821D01*
X152200428Y-92315392D01*
X152164142Y-92351678D01*
X152091571Y-92387964D01*
X152019000Y-92387964D01*
X151946428Y-92351678D01*
X151910142Y-92315392D01*
X151873857Y-92242821D01*
X151837571Y-92097678D01*
X151837571Y-91916250D01*
X151873857Y-91771107D01*
X151910142Y-91698535D01*
X151946428Y-91662250D01*
X152019000Y-91625964D01*
X152998714Y-92387964D02*
X152563285Y-92387964D01*
X152781000Y-92387964D02*
X152781000Y-91625964D01*
X152708428Y-91734821D01*
X152635857Y-91807392D01*
X152563285Y-91843678D01*
X153252714Y-91625964D02*
X153760714Y-91625964D01*
X153434142Y-92387964D01*
X150077714Y-93721464D02*
X149823714Y-93358607D01*
X149642285Y-93721464D02*
X149642285Y-92959464D01*
X149932571Y-92959464D01*
X150005142Y-92995750D01*
X150041428Y-93032035D01*
X150077714Y-93104607D01*
X150077714Y-93213464D01*
X150041428Y-93286035D01*
X150005142Y-93322321D01*
X149932571Y-93358607D01*
X149642285Y-93358607D01*
X150404285Y-93322321D02*
X150658285Y-93322321D01*
X150767142Y-93721464D02*
X150404285Y-93721464D01*
X150404285Y-92959464D01*
X150767142Y-92959464D01*
X150984857Y-92959464D02*
X151238857Y-93721464D01*
X151492857Y-92959464D01*
X152291142Y-93503750D02*
X152654000Y-93503750D01*
X152218571Y-93721464D02*
X152472571Y-92959464D01*
X152726571Y-93721464D01*
D11*
%TO.P,P3,1*%
%TO.N,+5V*%
X179070000Y-85725000D03*
D12*
%TO.P,P3,2*%
%TO.N,/SDA1_5V*%
X181610000Y-85725000D03*
D13*
%TO.P,P3,3*%
%TO.N,/SCL1_5V*%
X184150000Y-85725000D03*
D12*
%TO.P,P3,4*%
%TO.N,GND*%
X186690000Y-85725000D03*
%TD*%
D13*
%TO.P,P1,2*%
%TO.N,+5V*%
X151130000Y-75565000D03*
D11*
%TO.P,P1,1*%
%TO.N,+3V3*%
X151130000Y-78105000D03*
D13*
%TO.P,P1,4*%
%TO.N,+5V*%
X153670000Y-75565000D03*
%TO.P,P1,3*%
%TO.N,/SDA1*%
X153670000Y-78105000D03*
%TO.P,P1,6*%
%TO.N,GND*%
X156210000Y-75565000D03*
%TO.P,P1,5*%
%TO.N,/SCL1*%
X156210000Y-78105000D03*
%TO.P,P1,8*%
%TO.N,Net-(P1-Pad8)*%
X158750000Y-75565000D03*
%TO.P,P1,7*%
%TO.N,Net-(P1-Pad7)*%
X158750000Y-78105000D03*
%TO.P,P1,10*%
%TO.N,Net-(P1-Pad10)*%
X161290000Y-75565000D03*
%TO.P,P1,9*%
%TO.N,GND*%
X161290000Y-78105000D03*
%TO.P,P1,12*%
%TO.N,Net-(P1-Pad12)*%
X163830000Y-75565000D03*
%TO.P,P1,11*%
%TO.N,Net-(P1-Pad11)*%
X163830000Y-78105000D03*
%TO.P,P1,14*%
%TO.N,GND*%
X166370000Y-75565000D03*
%TO.P,P1,13*%
%TO.N,Net-(P1-Pad13)*%
X166370000Y-78105000D03*
%TO.P,P1,16*%
%TO.N,Net-(P1-Pad16)*%
X168910000Y-75565000D03*
%TO.P,P1,15*%
%TO.N,Net-(P1-Pad15)*%
X168910000Y-78105000D03*
%TO.P,P1,18*%
%TO.N,Net-(P1-Pad18)*%
X171450000Y-75565000D03*
%TO.P,P1,17*%
%TO.N,+3V3*%
X171450000Y-78105000D03*
%TO.P,P1,20*%
%TO.N,GND*%
X173990000Y-75565000D03*
%TO.P,P1,19*%
%TO.N,Net-(P1-Pad19)*%
X173990000Y-78105000D03*
%TO.P,P1,22*%
%TO.N,Net-(P1-Pad22)*%
X176530000Y-75565000D03*
%TO.P,P1,21*%
%TO.N,Net-(P1-Pad21)*%
X176530000Y-78105000D03*
%TO.P,P1,24*%
%TO.N,Net-(P1-Pad24)*%
X179070000Y-75565000D03*
%TO.P,P1,23*%
%TO.N,Net-(P1-Pad23)*%
X179070000Y-78105000D03*
%TO.P,P1,26*%
%TO.N,Net-(P1-Pad26)*%
X181610000Y-75565000D03*
%TO.P,P1,25*%
%TO.N,GND*%
X181610000Y-78105000D03*
%TO.P,P1,28*%
%TO.N,Net-(P1-Pad28)*%
X184150000Y-75565000D03*
%TO.P,P1,27*%
%TO.N,Net-(P1-Pad27)*%
X184150000Y-78105000D03*
%TO.P,P1,30*%
%TO.N,GND*%
X186690000Y-75565000D03*
%TO.P,P1,29*%
%TO.N,Net-(P1-Pad29)*%
X186690000Y-78105000D03*
%TO.P,P1,32*%
%TO.N,Net-(P1-Pad32)*%
X189230000Y-75565000D03*
%TO.P,P1,31*%
%TO.N,Net-(P1-Pad31)*%
X189230000Y-78105000D03*
%TO.P,P1,34*%
%TO.N,GND*%
X191770000Y-75565000D03*
%TO.P,P1,33*%
%TO.N,Net-(P1-Pad33)*%
X191770000Y-78105000D03*
%TO.P,P1,36*%
%TO.N,Net-(P1-Pad36)*%
X194310000Y-75565000D03*
%TO.P,P1,35*%
%TO.N,Net-(P1-Pad35)*%
X194310000Y-78105000D03*
%TO.P,P1,38*%
%TO.N,Net-(P1-Pad38)*%
X196850000Y-75565000D03*
%TO.P,P1,37*%
%TO.N,Net-(P1-Pad37)*%
X196850000Y-78105000D03*
%TO.P,P1,40*%
%TO.N,Net-(P1-Pad40)*%
X199390000Y-75565000D03*
%TO.P,P1,39*%
%TO.N,GND*%
X199390000Y-78105000D03*
%TD*%
D14*
%TO.P,Q2,1*%
%TO.N,+3V3*%
X169179240Y-87315000D03*
%TO.P,Q2,2*%
%TO.N,/SCL1*%
X169179240Y-89215000D03*
%TO.P,Q2,3*%
%TO.N,/SCL1_5V*%
X171178220Y-88265000D03*
%TD*%
D11*
%TO.P,P2,1*%
%TO.N,+3V3*%
X151130000Y-85725000D03*
D13*
%TO.P,P2,2*%
%TO.N,/SDA1*%
X153670000Y-85725000D03*
%TO.P,P2,3*%
%TO.N,/SCL1*%
X156210000Y-85725000D03*
%TO.P,P2,4*%
%TO.N,GND*%
X158750000Y-85725000D03*
%TD*%
D14*
%TO.P,Q1,1*%
%TO.N,+3V3*%
X169179240Y-82235000D03*
%TO.P,Q1,2*%
%TO.N,/SDA1*%
X169179240Y-84135000D03*
%TO.P,Q1,3*%
%TO.N,/SDA1_5V*%
X171178220Y-83185000D03*
%TD*%
D15*
%TO.P,R1,1*%
%TO.N,+3V3*%
X165735000Y-82235000D03*
%TO.P,R1,2*%
%TO.N,/SDA1*%
X165735000Y-84135000D03*
%TD*%
%TO.P,R2,1*%
%TO.N,+3V3*%
X165735000Y-87315000D03*
%TO.P,R2,2*%
%TO.N,/SCL1*%
X165735000Y-89215000D03*
%TD*%
D16*
%TO.P,R3,1*%
%TO.N,+5V*%
X179710000Y-81915000D03*
%TO.P,R3,2*%
%TO.N,/SDA1_5V*%
X181610000Y-81915000D03*
%TD*%
%TO.P,R4,1*%
%TO.N,+5V*%
X186050000Y-81915000D03*
%TO.P,R4,2*%
%TO.N,/SCL1_5V*%
X184150000Y-81915000D03*
%TD*%
D17*
%TO.N,+3V3*%
X169179240Y-87315000D02*
X169230000Y-87315000D01*
X169230000Y-87315000D02*
X170180000Y-88265000D01*
X154152600Y-88900000D02*
X151130000Y-85877400D01*
X170180000Y-88265000D02*
X170180000Y-89837302D01*
X170180000Y-89837302D02*
X169847302Y-90170000D01*
X169847302Y-90170000D02*
X164867038Y-90170000D01*
X164867038Y-90170000D02*
X163597038Y-88900000D01*
X163597038Y-88900000D02*
X154152600Y-88900000D01*
X151130000Y-85877400D02*
X151130000Y-85725000D01*
X165735000Y-82235000D02*
X169179240Y-82235000D01*
X169179240Y-87315000D02*
X165735000Y-87315000D01*
X169225000Y-87315000D02*
X170180000Y-86360000D01*
X169179240Y-87315000D02*
X169225000Y-87315000D01*
X170180000Y-83185000D02*
X170180000Y-86360000D01*
X169230000Y-82235000D02*
X170180000Y-83185000D01*
X169179240Y-82235000D02*
X169230000Y-82235000D01*
X169179240Y-82235000D02*
X169179240Y-80375760D01*
X169179240Y-80375760D02*
X171450000Y-78105000D01*
X151130000Y-85725000D02*
X151130000Y-78105000D01*
%TO.N,+5V*%
X186050000Y-81915000D02*
X186050000Y-80757000D01*
X186050000Y-80757000D02*
X185303000Y-80010000D01*
X185303000Y-80010000D02*
X180340000Y-80010000D01*
X180340000Y-80010000D02*
X179710000Y-80640000D01*
X179710000Y-80640000D02*
X179710000Y-81915000D01*
X179070000Y-85725000D02*
X179070000Y-84353400D01*
X179070000Y-84353400D02*
X179710000Y-83713400D01*
X179710000Y-83713400D02*
X179710000Y-81915000D01*
X186685000Y-81915000D02*
X186050000Y-81915000D01*
X153670000Y-75565000D02*
X155575000Y-73660000D01*
X155575000Y-73660000D02*
X200025000Y-73660000D01*
X200025000Y-73660000D02*
X201295000Y-74930000D01*
X201295000Y-74930000D02*
X201295000Y-78740000D01*
X201295000Y-78740000D02*
X198120000Y-81915000D01*
X198120000Y-81915000D02*
X186685000Y-81915000D01*
X179710000Y-81915000D02*
X179710000Y-81615000D01*
X179710000Y-81615000D02*
X179705000Y-81610000D01*
X151130000Y-75565000D02*
X153670000Y-75565000D01*
D18*
%TO.N,/SDA1*%
X162560000Y-82550000D02*
X164145000Y-84135000D01*
X162560000Y-77470000D02*
X162560000Y-82550000D01*
X161925000Y-76835000D02*
X162560000Y-77470000D01*
X154940000Y-76835000D02*
X161925000Y-76835000D01*
X153670000Y-78105000D02*
X154940000Y-76835000D01*
X169179240Y-84135000D02*
X165735000Y-84135000D01*
X164145000Y-84135000D02*
X165735000Y-84135000D01*
X153670000Y-85725000D02*
X153670000Y-78105000D01*
%TO.N,/SCL1*%
X165735000Y-89215000D02*
X169179240Y-89215000D01*
X156210000Y-85725000D02*
X156210000Y-87630000D01*
X156210000Y-87630000D02*
X156845000Y-88265000D01*
X156845000Y-88265000D02*
X164465000Y-88265000D01*
X164465000Y-88265000D02*
X165415000Y-89215000D01*
X165415000Y-89215000D02*
X165735000Y-89215000D01*
X156210000Y-85725000D02*
X156210000Y-78105000D01*
%TO.N,/SDA1_5V*%
X180975000Y-87630000D02*
X181610000Y-86995000D01*
X181610000Y-86995000D02*
X181610000Y-85725000D01*
X172720000Y-87630000D02*
X180975000Y-87630000D01*
X171178220Y-86088220D02*
X172720000Y-87630000D01*
X171178220Y-83185000D02*
X171178220Y-86088220D01*
X181610000Y-81915000D02*
X181610000Y-85725000D01*
%TO.N,/SCL1_5V*%
X184150000Y-86995000D02*
X184150000Y-85725000D01*
X182880000Y-88265000D02*
X184150000Y-86995000D01*
X171178220Y-88265000D02*
X182880000Y-88265000D01*
X184150000Y-85725000D02*
X184150000Y-81915000D01*
%TD*%
M02*
