%TF.GenerationSoftware,KiCad,Pcbnew,5.1.6+dfsg1-1~bpo10+1*%
%TF.CreationDate,2020-07-13T16:37:17+08:00*%
%TF.ProjectId,Pi-I2C,50692d49-3243-42e6-9b69-6361645f7063,rev?*%
%TF.SameCoordinates,Original*%
%TF.FileFunction,Copper,L2,Bot*%
%TF.FilePolarity,Positive*%
%FSLAX46Y46*%
G04 Gerber Fmt 4.6, Leading zero omitted, Abs format (unit mm)*
G04 Created by KiCad (PCBNEW 5.1.6+dfsg1-1~bpo10+1) date 2020-07-13 16:37:17*
%MOMM*%
%LPD*%
G01*
G04 APERTURE LIST*
%TA.AperFunction,ComponentPad*%
%ADD10R,1.727200X1.727200*%
%TD*%
%TA.AperFunction,ComponentPad*%
%ADD11C,1.727200*%
%TD*%
%TA.AperFunction,ComponentPad*%
%ADD12O,1.727200X1.727200*%
%TD*%
%TA.AperFunction,Conductor*%
%ADD13C,0.254000*%
%TD*%
G04 APERTURE END LIST*
D10*
%TO.P,P3,1*%
%TO.N,+5V*%
X179070000Y-85725000D03*
D11*
%TO.P,P3,2*%
%TO.N,/SDA1_5V*%
X181610000Y-85725000D03*
D12*
%TO.P,P3,3*%
%TO.N,/SCL1_5V*%
X184150000Y-85725000D03*
D11*
%TO.P,P3,4*%
%TO.N,GND*%
X186690000Y-85725000D03*
%TD*%
D12*
%TO.P,P1,2*%
%TO.N,+5V*%
X151130000Y-75565000D03*
D10*
%TO.P,P1,1*%
%TO.N,+3V3*%
X151130000Y-78105000D03*
D12*
%TO.P,P1,4*%
%TO.N,+5V*%
X153670000Y-75565000D03*
%TO.P,P1,3*%
%TO.N,/SDA1*%
X153670000Y-78105000D03*
%TO.P,P1,6*%
%TO.N,GND*%
X156210000Y-75565000D03*
%TO.P,P1,5*%
%TO.N,/SCL1*%
X156210000Y-78105000D03*
%TO.P,P1,8*%
%TO.N,Net-(P1-Pad8)*%
X158750000Y-75565000D03*
%TO.P,P1,7*%
%TO.N,Net-(P1-Pad7)*%
X158750000Y-78105000D03*
%TO.P,P1,10*%
%TO.N,Net-(P1-Pad10)*%
X161290000Y-75565000D03*
%TO.P,P1,9*%
%TO.N,GND*%
X161290000Y-78105000D03*
%TO.P,P1,12*%
%TO.N,Net-(P1-Pad12)*%
X163830000Y-75565000D03*
%TO.P,P1,11*%
%TO.N,Net-(P1-Pad11)*%
X163830000Y-78105000D03*
%TO.P,P1,14*%
%TO.N,GND*%
X166370000Y-75565000D03*
%TO.P,P1,13*%
%TO.N,Net-(P1-Pad13)*%
X166370000Y-78105000D03*
%TO.P,P1,16*%
%TO.N,Net-(P1-Pad16)*%
X168910000Y-75565000D03*
%TO.P,P1,15*%
%TO.N,Net-(P1-Pad15)*%
X168910000Y-78105000D03*
%TO.P,P1,18*%
%TO.N,Net-(P1-Pad18)*%
X171450000Y-75565000D03*
%TO.P,P1,17*%
%TO.N,+3V3*%
X171450000Y-78105000D03*
%TO.P,P1,20*%
%TO.N,GND*%
X173990000Y-75565000D03*
%TO.P,P1,19*%
%TO.N,Net-(P1-Pad19)*%
X173990000Y-78105000D03*
%TO.P,P1,22*%
%TO.N,Net-(P1-Pad22)*%
X176530000Y-75565000D03*
%TO.P,P1,21*%
%TO.N,Net-(P1-Pad21)*%
X176530000Y-78105000D03*
%TO.P,P1,24*%
%TO.N,Net-(P1-Pad24)*%
X179070000Y-75565000D03*
%TO.P,P1,23*%
%TO.N,Net-(P1-Pad23)*%
X179070000Y-78105000D03*
%TO.P,P1,26*%
%TO.N,Net-(P1-Pad26)*%
X181610000Y-75565000D03*
%TO.P,P1,25*%
%TO.N,GND*%
X181610000Y-78105000D03*
%TO.P,P1,28*%
%TO.N,Net-(P1-Pad28)*%
X184150000Y-75565000D03*
%TO.P,P1,27*%
%TO.N,Net-(P1-Pad27)*%
X184150000Y-78105000D03*
%TO.P,P1,30*%
%TO.N,GND*%
X186690000Y-75565000D03*
%TO.P,P1,29*%
%TO.N,Net-(P1-Pad29)*%
X186690000Y-78105000D03*
%TO.P,P1,32*%
%TO.N,Net-(P1-Pad32)*%
X189230000Y-75565000D03*
%TO.P,P1,31*%
%TO.N,Net-(P1-Pad31)*%
X189230000Y-78105000D03*
%TO.P,P1,34*%
%TO.N,GND*%
X191770000Y-75565000D03*
%TO.P,P1,33*%
%TO.N,Net-(P1-Pad33)*%
X191770000Y-78105000D03*
%TO.P,P1,36*%
%TO.N,Net-(P1-Pad36)*%
X194310000Y-75565000D03*
%TO.P,P1,35*%
%TO.N,Net-(P1-Pad35)*%
X194310000Y-78105000D03*
%TO.P,P1,38*%
%TO.N,Net-(P1-Pad38)*%
X196850000Y-75565000D03*
%TO.P,P1,37*%
%TO.N,Net-(P1-Pad37)*%
X196850000Y-78105000D03*
%TO.P,P1,40*%
%TO.N,Net-(P1-Pad40)*%
X199390000Y-75565000D03*
%TO.P,P1,39*%
%TO.N,GND*%
X199390000Y-78105000D03*
%TD*%
D10*
%TO.P,P2,1*%
%TO.N,+3V3*%
X151130000Y-85725000D03*
D12*
%TO.P,P2,2*%
%TO.N,/SDA1*%
X153670000Y-85725000D03*
%TO.P,P2,3*%
%TO.N,/SCL1*%
X156210000Y-85725000D03*
%TO.P,P2,4*%
%TO.N,GND*%
X158750000Y-85725000D03*
%TD*%
D13*
%TO.N,GND*%
G36*
X201855001Y-94540000D02*
G01*
X148030000Y-94540000D01*
X148030000Y-84861400D01*
X149628328Y-84861400D01*
X149628328Y-86588600D01*
X149640588Y-86713082D01*
X149676898Y-86832780D01*
X149735863Y-86943094D01*
X149815215Y-87039785D01*
X149911906Y-87119137D01*
X150022220Y-87178102D01*
X150141918Y-87214412D01*
X150266400Y-87226672D01*
X151993600Y-87226672D01*
X152118082Y-87214412D01*
X152237780Y-87178102D01*
X152348094Y-87119137D01*
X152444785Y-87039785D01*
X152524137Y-86943094D01*
X152583102Y-86832780D01*
X152600636Y-86774977D01*
X152714698Y-86889039D01*
X152960147Y-87053042D01*
X153232875Y-87166010D01*
X153522401Y-87223600D01*
X153817599Y-87223600D01*
X154107125Y-87166010D01*
X154379853Y-87053042D01*
X154625302Y-86889039D01*
X154834039Y-86680302D01*
X154940000Y-86521719D01*
X155045961Y-86680302D01*
X155254698Y-86889039D01*
X155500147Y-87053042D01*
X155772875Y-87166010D01*
X156062401Y-87223600D01*
X156357599Y-87223600D01*
X156647125Y-87166010D01*
X156919853Y-87053042D01*
X157165302Y-86889039D01*
X157374039Y-86680302D01*
X157484559Y-86514897D01*
X157543183Y-86613488D01*
X157739707Y-86831854D01*
X157975056Y-87007684D01*
X158240186Y-87134222D01*
X158390974Y-87179958D01*
X158623000Y-87058817D01*
X158623000Y-85852000D01*
X158877000Y-85852000D01*
X158877000Y-87058817D01*
X159109026Y-87179958D01*
X159259814Y-87134222D01*
X159524944Y-87007684D01*
X159760293Y-86831854D01*
X159956817Y-86613488D01*
X160106964Y-86360978D01*
X160204963Y-86084027D01*
X160084464Y-85852000D01*
X158877000Y-85852000D01*
X158623000Y-85852000D01*
X158603000Y-85852000D01*
X158603000Y-85598000D01*
X158623000Y-85598000D01*
X158623000Y-84391183D01*
X158877000Y-84391183D01*
X158877000Y-85598000D01*
X160084464Y-85598000D01*
X160204963Y-85365973D01*
X160106964Y-85089022D01*
X159971616Y-84861400D01*
X177568328Y-84861400D01*
X177568328Y-86588600D01*
X177580588Y-86713082D01*
X177616898Y-86832780D01*
X177675863Y-86943094D01*
X177755215Y-87039785D01*
X177851906Y-87119137D01*
X177962220Y-87178102D01*
X178081918Y-87214412D01*
X178206400Y-87226672D01*
X179933600Y-87226672D01*
X180058082Y-87214412D01*
X180177780Y-87178102D01*
X180288094Y-87119137D01*
X180384785Y-87039785D01*
X180464137Y-86943094D01*
X180523102Y-86832780D01*
X180540636Y-86774977D01*
X180654698Y-86889039D01*
X180900147Y-87053042D01*
X181172875Y-87166010D01*
X181462401Y-87223600D01*
X181757599Y-87223600D01*
X182047125Y-87166010D01*
X182319853Y-87053042D01*
X182565302Y-86889039D01*
X182774039Y-86680302D01*
X182880000Y-86521719D01*
X182985961Y-86680302D01*
X183194698Y-86889039D01*
X183440147Y-87053042D01*
X183712875Y-87166010D01*
X184002401Y-87223600D01*
X184297599Y-87223600D01*
X184587125Y-87166010D01*
X184859853Y-87053042D01*
X185105302Y-86889039D01*
X185231237Y-86763104D01*
X185831501Y-86763104D01*
X185910782Y-87013567D01*
X186177141Y-87140826D01*
X186463210Y-87213675D01*
X186757993Y-87229315D01*
X187050164Y-87187145D01*
X187328493Y-87088786D01*
X187469218Y-87013567D01*
X187548499Y-86763104D01*
X186690000Y-85904605D01*
X185831501Y-86763104D01*
X185231237Y-86763104D01*
X185314039Y-86680302D01*
X185426411Y-86512125D01*
X185651896Y-86583499D01*
X186510395Y-85725000D01*
X186869605Y-85725000D01*
X187728104Y-86583499D01*
X187978567Y-86504218D01*
X188105826Y-86237859D01*
X188178675Y-85951790D01*
X188194315Y-85657007D01*
X188152145Y-85364836D01*
X188053786Y-85086507D01*
X187978567Y-84945782D01*
X187728104Y-84866501D01*
X186869605Y-85725000D01*
X186510395Y-85725000D01*
X185651896Y-84866501D01*
X185426411Y-84937875D01*
X185314039Y-84769698D01*
X185231237Y-84686896D01*
X185831501Y-84686896D01*
X186690000Y-85545395D01*
X187548499Y-84686896D01*
X187469218Y-84436433D01*
X187202859Y-84309174D01*
X186916790Y-84236325D01*
X186622007Y-84220685D01*
X186329836Y-84262855D01*
X186051507Y-84361214D01*
X185910782Y-84436433D01*
X185831501Y-84686896D01*
X185231237Y-84686896D01*
X185105302Y-84560961D01*
X184859853Y-84396958D01*
X184587125Y-84283990D01*
X184297599Y-84226400D01*
X184002401Y-84226400D01*
X183712875Y-84283990D01*
X183440147Y-84396958D01*
X183194698Y-84560961D01*
X182985961Y-84769698D01*
X182880000Y-84928281D01*
X182774039Y-84769698D01*
X182565302Y-84560961D01*
X182319853Y-84396958D01*
X182047125Y-84283990D01*
X181757599Y-84226400D01*
X181462401Y-84226400D01*
X181172875Y-84283990D01*
X180900147Y-84396958D01*
X180654698Y-84560961D01*
X180540636Y-84675023D01*
X180523102Y-84617220D01*
X180464137Y-84506906D01*
X180384785Y-84410215D01*
X180288094Y-84330863D01*
X180177780Y-84271898D01*
X180058082Y-84235588D01*
X179933600Y-84223328D01*
X178206400Y-84223328D01*
X178081918Y-84235588D01*
X177962220Y-84271898D01*
X177851906Y-84330863D01*
X177755215Y-84410215D01*
X177675863Y-84506906D01*
X177616898Y-84617220D01*
X177580588Y-84736918D01*
X177568328Y-84861400D01*
X159971616Y-84861400D01*
X159956817Y-84836512D01*
X159760293Y-84618146D01*
X159524944Y-84442316D01*
X159259814Y-84315778D01*
X159109026Y-84270042D01*
X158877000Y-84391183D01*
X158623000Y-84391183D01*
X158390974Y-84270042D01*
X158240186Y-84315778D01*
X157975056Y-84442316D01*
X157739707Y-84618146D01*
X157543183Y-84836512D01*
X157484559Y-84935103D01*
X157374039Y-84769698D01*
X157165302Y-84560961D01*
X156919853Y-84396958D01*
X156647125Y-84283990D01*
X156357599Y-84226400D01*
X156062401Y-84226400D01*
X155772875Y-84283990D01*
X155500147Y-84396958D01*
X155254698Y-84560961D01*
X155045961Y-84769698D01*
X154940000Y-84928281D01*
X154834039Y-84769698D01*
X154625302Y-84560961D01*
X154379853Y-84396958D01*
X154107125Y-84283990D01*
X153817599Y-84226400D01*
X153522401Y-84226400D01*
X153232875Y-84283990D01*
X152960147Y-84396958D01*
X152714698Y-84560961D01*
X152600636Y-84675023D01*
X152583102Y-84617220D01*
X152524137Y-84506906D01*
X152444785Y-84410215D01*
X152348094Y-84330863D01*
X152237780Y-84271898D01*
X152118082Y-84235588D01*
X151993600Y-84223328D01*
X150266400Y-84223328D01*
X150141918Y-84235588D01*
X150022220Y-84271898D01*
X149911906Y-84330863D01*
X149815215Y-84410215D01*
X149735863Y-84506906D01*
X149676898Y-84617220D01*
X149640588Y-84736918D01*
X149628328Y-84861400D01*
X148030000Y-84861400D01*
X148030000Y-77241400D01*
X149628328Y-77241400D01*
X149628328Y-78968600D01*
X149640588Y-79093082D01*
X149676898Y-79212780D01*
X149735863Y-79323094D01*
X149815215Y-79419785D01*
X149911906Y-79499137D01*
X150022220Y-79558102D01*
X150141918Y-79594412D01*
X150266400Y-79606672D01*
X151993600Y-79606672D01*
X152118082Y-79594412D01*
X152237780Y-79558102D01*
X152348094Y-79499137D01*
X152444785Y-79419785D01*
X152524137Y-79323094D01*
X152583102Y-79212780D01*
X152600636Y-79154977D01*
X152714698Y-79269039D01*
X152960147Y-79433042D01*
X153232875Y-79546010D01*
X153522401Y-79603600D01*
X153817599Y-79603600D01*
X154107125Y-79546010D01*
X154379853Y-79433042D01*
X154625302Y-79269039D01*
X154834039Y-79060302D01*
X154940000Y-78901719D01*
X155045961Y-79060302D01*
X155254698Y-79269039D01*
X155500147Y-79433042D01*
X155772875Y-79546010D01*
X156062401Y-79603600D01*
X156357599Y-79603600D01*
X156647125Y-79546010D01*
X156919853Y-79433042D01*
X157165302Y-79269039D01*
X157374039Y-79060302D01*
X157480000Y-78901719D01*
X157585961Y-79060302D01*
X157794698Y-79269039D01*
X158040147Y-79433042D01*
X158312875Y-79546010D01*
X158602401Y-79603600D01*
X158897599Y-79603600D01*
X159187125Y-79546010D01*
X159459853Y-79433042D01*
X159705302Y-79269039D01*
X159914039Y-79060302D01*
X160024559Y-78894897D01*
X160083183Y-78993488D01*
X160279707Y-79211854D01*
X160515056Y-79387684D01*
X160780186Y-79514222D01*
X160930974Y-79559958D01*
X161163000Y-79438817D01*
X161163000Y-78232000D01*
X161143000Y-78232000D01*
X161143000Y-77978000D01*
X161163000Y-77978000D01*
X161163000Y-77958000D01*
X161417000Y-77958000D01*
X161417000Y-77978000D01*
X161437000Y-77978000D01*
X161437000Y-78232000D01*
X161417000Y-78232000D01*
X161417000Y-79438817D01*
X161649026Y-79559958D01*
X161799814Y-79514222D01*
X162064944Y-79387684D01*
X162300293Y-79211854D01*
X162496817Y-78993488D01*
X162555441Y-78894897D01*
X162665961Y-79060302D01*
X162874698Y-79269039D01*
X163120147Y-79433042D01*
X163392875Y-79546010D01*
X163682401Y-79603600D01*
X163977599Y-79603600D01*
X164267125Y-79546010D01*
X164539853Y-79433042D01*
X164785302Y-79269039D01*
X164994039Y-79060302D01*
X165100000Y-78901719D01*
X165205961Y-79060302D01*
X165414698Y-79269039D01*
X165660147Y-79433042D01*
X165932875Y-79546010D01*
X166222401Y-79603600D01*
X166517599Y-79603600D01*
X166807125Y-79546010D01*
X167079853Y-79433042D01*
X167325302Y-79269039D01*
X167534039Y-79060302D01*
X167640000Y-78901719D01*
X167745961Y-79060302D01*
X167954698Y-79269039D01*
X168200147Y-79433042D01*
X168472875Y-79546010D01*
X168762401Y-79603600D01*
X169057599Y-79603600D01*
X169347125Y-79546010D01*
X169619853Y-79433042D01*
X169865302Y-79269039D01*
X170074039Y-79060302D01*
X170180000Y-78901719D01*
X170285961Y-79060302D01*
X170494698Y-79269039D01*
X170740147Y-79433042D01*
X171012875Y-79546010D01*
X171302401Y-79603600D01*
X171597599Y-79603600D01*
X171887125Y-79546010D01*
X172159853Y-79433042D01*
X172405302Y-79269039D01*
X172614039Y-79060302D01*
X172720000Y-78901719D01*
X172825961Y-79060302D01*
X173034698Y-79269039D01*
X173280147Y-79433042D01*
X173552875Y-79546010D01*
X173842401Y-79603600D01*
X174137599Y-79603600D01*
X174427125Y-79546010D01*
X174699853Y-79433042D01*
X174945302Y-79269039D01*
X175154039Y-79060302D01*
X175260000Y-78901719D01*
X175365961Y-79060302D01*
X175574698Y-79269039D01*
X175820147Y-79433042D01*
X176092875Y-79546010D01*
X176382401Y-79603600D01*
X176677599Y-79603600D01*
X176967125Y-79546010D01*
X177239853Y-79433042D01*
X177485302Y-79269039D01*
X177694039Y-79060302D01*
X177800000Y-78901719D01*
X177905961Y-79060302D01*
X178114698Y-79269039D01*
X178360147Y-79433042D01*
X178632875Y-79546010D01*
X178922401Y-79603600D01*
X179217599Y-79603600D01*
X179507125Y-79546010D01*
X179779853Y-79433042D01*
X180025302Y-79269039D01*
X180234039Y-79060302D01*
X180344559Y-78894897D01*
X180403183Y-78993488D01*
X180599707Y-79211854D01*
X180835056Y-79387684D01*
X181100186Y-79514222D01*
X181250974Y-79559958D01*
X181483000Y-79438817D01*
X181483000Y-78232000D01*
X181463000Y-78232000D01*
X181463000Y-77978000D01*
X181483000Y-77978000D01*
X181483000Y-77958000D01*
X181737000Y-77958000D01*
X181737000Y-77978000D01*
X181757000Y-77978000D01*
X181757000Y-78232000D01*
X181737000Y-78232000D01*
X181737000Y-79438817D01*
X181969026Y-79559958D01*
X182119814Y-79514222D01*
X182384944Y-79387684D01*
X182620293Y-79211854D01*
X182816817Y-78993488D01*
X182875441Y-78894897D01*
X182985961Y-79060302D01*
X183194698Y-79269039D01*
X183440147Y-79433042D01*
X183712875Y-79546010D01*
X184002401Y-79603600D01*
X184297599Y-79603600D01*
X184587125Y-79546010D01*
X184859853Y-79433042D01*
X185105302Y-79269039D01*
X185314039Y-79060302D01*
X185420000Y-78901719D01*
X185525961Y-79060302D01*
X185734698Y-79269039D01*
X185980147Y-79433042D01*
X186252875Y-79546010D01*
X186542401Y-79603600D01*
X186837599Y-79603600D01*
X187127125Y-79546010D01*
X187399853Y-79433042D01*
X187645302Y-79269039D01*
X187854039Y-79060302D01*
X187960000Y-78901719D01*
X188065961Y-79060302D01*
X188274698Y-79269039D01*
X188520147Y-79433042D01*
X188792875Y-79546010D01*
X189082401Y-79603600D01*
X189377599Y-79603600D01*
X189667125Y-79546010D01*
X189939853Y-79433042D01*
X190185302Y-79269039D01*
X190394039Y-79060302D01*
X190500000Y-78901719D01*
X190605961Y-79060302D01*
X190814698Y-79269039D01*
X191060147Y-79433042D01*
X191332875Y-79546010D01*
X191622401Y-79603600D01*
X191917599Y-79603600D01*
X192207125Y-79546010D01*
X192479853Y-79433042D01*
X192725302Y-79269039D01*
X192934039Y-79060302D01*
X193040000Y-78901719D01*
X193145961Y-79060302D01*
X193354698Y-79269039D01*
X193600147Y-79433042D01*
X193872875Y-79546010D01*
X194162401Y-79603600D01*
X194457599Y-79603600D01*
X194747125Y-79546010D01*
X195019853Y-79433042D01*
X195265302Y-79269039D01*
X195474039Y-79060302D01*
X195580000Y-78901719D01*
X195685961Y-79060302D01*
X195894698Y-79269039D01*
X196140147Y-79433042D01*
X196412875Y-79546010D01*
X196702401Y-79603600D01*
X196997599Y-79603600D01*
X197287125Y-79546010D01*
X197559853Y-79433042D01*
X197805302Y-79269039D01*
X198014039Y-79060302D01*
X198124559Y-78894897D01*
X198183183Y-78993488D01*
X198379707Y-79211854D01*
X198615056Y-79387684D01*
X198880186Y-79514222D01*
X199030974Y-79559958D01*
X199263000Y-79438817D01*
X199263000Y-78232000D01*
X199517000Y-78232000D01*
X199517000Y-79438817D01*
X199749026Y-79559958D01*
X199899814Y-79514222D01*
X200164944Y-79387684D01*
X200400293Y-79211854D01*
X200596817Y-78993488D01*
X200746964Y-78740978D01*
X200844963Y-78464027D01*
X200724464Y-78232000D01*
X199517000Y-78232000D01*
X199263000Y-78232000D01*
X199243000Y-78232000D01*
X199243000Y-77978000D01*
X199263000Y-77978000D01*
X199263000Y-77958000D01*
X199517000Y-77958000D01*
X199517000Y-77978000D01*
X200724464Y-77978000D01*
X200844963Y-77745973D01*
X200746964Y-77469022D01*
X200596817Y-77216512D01*
X200400293Y-76998146D01*
X200184187Y-76836692D01*
X200345302Y-76729039D01*
X200554039Y-76520302D01*
X200718042Y-76274853D01*
X200831010Y-76002125D01*
X200888600Y-75712599D01*
X200888600Y-75417401D01*
X200831010Y-75127875D01*
X200718042Y-74855147D01*
X200554039Y-74609698D01*
X200345302Y-74400961D01*
X200099853Y-74236958D01*
X199827125Y-74123990D01*
X199537599Y-74066400D01*
X199242401Y-74066400D01*
X198952875Y-74123990D01*
X198680147Y-74236958D01*
X198434698Y-74400961D01*
X198225961Y-74609698D01*
X198120000Y-74768281D01*
X198014039Y-74609698D01*
X197805302Y-74400961D01*
X197559853Y-74236958D01*
X197287125Y-74123990D01*
X196997599Y-74066400D01*
X196702401Y-74066400D01*
X196412875Y-74123990D01*
X196140147Y-74236958D01*
X195894698Y-74400961D01*
X195685961Y-74609698D01*
X195580000Y-74768281D01*
X195474039Y-74609698D01*
X195265302Y-74400961D01*
X195019853Y-74236958D01*
X194747125Y-74123990D01*
X194457599Y-74066400D01*
X194162401Y-74066400D01*
X193872875Y-74123990D01*
X193600147Y-74236958D01*
X193354698Y-74400961D01*
X193145961Y-74609698D01*
X193035441Y-74775103D01*
X192976817Y-74676512D01*
X192780293Y-74458146D01*
X192544944Y-74282316D01*
X192279814Y-74155778D01*
X192129026Y-74110042D01*
X191897000Y-74231183D01*
X191897000Y-75438000D01*
X191917000Y-75438000D01*
X191917000Y-75692000D01*
X191897000Y-75692000D01*
X191897000Y-75712000D01*
X191643000Y-75712000D01*
X191643000Y-75692000D01*
X191623000Y-75692000D01*
X191623000Y-75438000D01*
X191643000Y-75438000D01*
X191643000Y-74231183D01*
X191410974Y-74110042D01*
X191260186Y-74155778D01*
X190995056Y-74282316D01*
X190759707Y-74458146D01*
X190563183Y-74676512D01*
X190504559Y-74775103D01*
X190394039Y-74609698D01*
X190185302Y-74400961D01*
X189939853Y-74236958D01*
X189667125Y-74123990D01*
X189377599Y-74066400D01*
X189082401Y-74066400D01*
X188792875Y-74123990D01*
X188520147Y-74236958D01*
X188274698Y-74400961D01*
X188065961Y-74609698D01*
X187955441Y-74775103D01*
X187896817Y-74676512D01*
X187700293Y-74458146D01*
X187464944Y-74282316D01*
X187199814Y-74155778D01*
X187049026Y-74110042D01*
X186817000Y-74231183D01*
X186817000Y-75438000D01*
X186837000Y-75438000D01*
X186837000Y-75692000D01*
X186817000Y-75692000D01*
X186817000Y-75712000D01*
X186563000Y-75712000D01*
X186563000Y-75692000D01*
X186543000Y-75692000D01*
X186543000Y-75438000D01*
X186563000Y-75438000D01*
X186563000Y-74231183D01*
X186330974Y-74110042D01*
X186180186Y-74155778D01*
X185915056Y-74282316D01*
X185679707Y-74458146D01*
X185483183Y-74676512D01*
X185424559Y-74775103D01*
X185314039Y-74609698D01*
X185105302Y-74400961D01*
X184859853Y-74236958D01*
X184587125Y-74123990D01*
X184297599Y-74066400D01*
X184002401Y-74066400D01*
X183712875Y-74123990D01*
X183440147Y-74236958D01*
X183194698Y-74400961D01*
X182985961Y-74609698D01*
X182880000Y-74768281D01*
X182774039Y-74609698D01*
X182565302Y-74400961D01*
X182319853Y-74236958D01*
X182047125Y-74123990D01*
X181757599Y-74066400D01*
X181462401Y-74066400D01*
X181172875Y-74123990D01*
X180900147Y-74236958D01*
X180654698Y-74400961D01*
X180445961Y-74609698D01*
X180340000Y-74768281D01*
X180234039Y-74609698D01*
X180025302Y-74400961D01*
X179779853Y-74236958D01*
X179507125Y-74123990D01*
X179217599Y-74066400D01*
X178922401Y-74066400D01*
X178632875Y-74123990D01*
X178360147Y-74236958D01*
X178114698Y-74400961D01*
X177905961Y-74609698D01*
X177800000Y-74768281D01*
X177694039Y-74609698D01*
X177485302Y-74400961D01*
X177239853Y-74236958D01*
X176967125Y-74123990D01*
X176677599Y-74066400D01*
X176382401Y-74066400D01*
X176092875Y-74123990D01*
X175820147Y-74236958D01*
X175574698Y-74400961D01*
X175365961Y-74609698D01*
X175255441Y-74775103D01*
X175196817Y-74676512D01*
X175000293Y-74458146D01*
X174764944Y-74282316D01*
X174499814Y-74155778D01*
X174349026Y-74110042D01*
X174117000Y-74231183D01*
X174117000Y-75438000D01*
X174137000Y-75438000D01*
X174137000Y-75692000D01*
X174117000Y-75692000D01*
X174117000Y-75712000D01*
X173863000Y-75712000D01*
X173863000Y-75692000D01*
X173843000Y-75692000D01*
X173843000Y-75438000D01*
X173863000Y-75438000D01*
X173863000Y-74231183D01*
X173630974Y-74110042D01*
X173480186Y-74155778D01*
X173215056Y-74282316D01*
X172979707Y-74458146D01*
X172783183Y-74676512D01*
X172724559Y-74775103D01*
X172614039Y-74609698D01*
X172405302Y-74400961D01*
X172159853Y-74236958D01*
X171887125Y-74123990D01*
X171597599Y-74066400D01*
X171302401Y-74066400D01*
X171012875Y-74123990D01*
X170740147Y-74236958D01*
X170494698Y-74400961D01*
X170285961Y-74609698D01*
X170180000Y-74768281D01*
X170074039Y-74609698D01*
X169865302Y-74400961D01*
X169619853Y-74236958D01*
X169347125Y-74123990D01*
X169057599Y-74066400D01*
X168762401Y-74066400D01*
X168472875Y-74123990D01*
X168200147Y-74236958D01*
X167954698Y-74400961D01*
X167745961Y-74609698D01*
X167635441Y-74775103D01*
X167576817Y-74676512D01*
X167380293Y-74458146D01*
X167144944Y-74282316D01*
X166879814Y-74155778D01*
X166729026Y-74110042D01*
X166497000Y-74231183D01*
X166497000Y-75438000D01*
X166517000Y-75438000D01*
X166517000Y-75692000D01*
X166497000Y-75692000D01*
X166497000Y-75712000D01*
X166243000Y-75712000D01*
X166243000Y-75692000D01*
X166223000Y-75692000D01*
X166223000Y-75438000D01*
X166243000Y-75438000D01*
X166243000Y-74231183D01*
X166010974Y-74110042D01*
X165860186Y-74155778D01*
X165595056Y-74282316D01*
X165359707Y-74458146D01*
X165163183Y-74676512D01*
X165104559Y-74775103D01*
X164994039Y-74609698D01*
X164785302Y-74400961D01*
X164539853Y-74236958D01*
X164267125Y-74123990D01*
X163977599Y-74066400D01*
X163682401Y-74066400D01*
X163392875Y-74123990D01*
X163120147Y-74236958D01*
X162874698Y-74400961D01*
X162665961Y-74609698D01*
X162560000Y-74768281D01*
X162454039Y-74609698D01*
X162245302Y-74400961D01*
X161999853Y-74236958D01*
X161727125Y-74123990D01*
X161437599Y-74066400D01*
X161142401Y-74066400D01*
X160852875Y-74123990D01*
X160580147Y-74236958D01*
X160334698Y-74400961D01*
X160125961Y-74609698D01*
X160020000Y-74768281D01*
X159914039Y-74609698D01*
X159705302Y-74400961D01*
X159459853Y-74236958D01*
X159187125Y-74123990D01*
X158897599Y-74066400D01*
X158602401Y-74066400D01*
X158312875Y-74123990D01*
X158040147Y-74236958D01*
X157794698Y-74400961D01*
X157585961Y-74609698D01*
X157475441Y-74775103D01*
X157416817Y-74676512D01*
X157220293Y-74458146D01*
X156984944Y-74282316D01*
X156719814Y-74155778D01*
X156569026Y-74110042D01*
X156337000Y-74231183D01*
X156337000Y-75438000D01*
X156357000Y-75438000D01*
X156357000Y-75692000D01*
X156337000Y-75692000D01*
X156337000Y-75712000D01*
X156083000Y-75712000D01*
X156083000Y-75692000D01*
X156063000Y-75692000D01*
X156063000Y-75438000D01*
X156083000Y-75438000D01*
X156083000Y-74231183D01*
X155850974Y-74110042D01*
X155700186Y-74155778D01*
X155435056Y-74282316D01*
X155199707Y-74458146D01*
X155003183Y-74676512D01*
X154944559Y-74775103D01*
X154834039Y-74609698D01*
X154625302Y-74400961D01*
X154379853Y-74236958D01*
X154107125Y-74123990D01*
X153817599Y-74066400D01*
X153522401Y-74066400D01*
X153232875Y-74123990D01*
X152960147Y-74236958D01*
X152714698Y-74400961D01*
X152505961Y-74609698D01*
X152400000Y-74768281D01*
X152294039Y-74609698D01*
X152085302Y-74400961D01*
X151839853Y-74236958D01*
X151567125Y-74123990D01*
X151277599Y-74066400D01*
X150982401Y-74066400D01*
X150692875Y-74123990D01*
X150420147Y-74236958D01*
X150174698Y-74400961D01*
X149965961Y-74609698D01*
X149801958Y-74855147D01*
X149688990Y-75127875D01*
X149631400Y-75417401D01*
X149631400Y-75712599D01*
X149688990Y-76002125D01*
X149801958Y-76274853D01*
X149965961Y-76520302D01*
X150080023Y-76634364D01*
X150022220Y-76651898D01*
X149911906Y-76710863D01*
X149815215Y-76790215D01*
X149735863Y-76886906D01*
X149676898Y-76997220D01*
X149640588Y-77116918D01*
X149628328Y-77241400D01*
X148030000Y-77241400D01*
X148030000Y-72465000D01*
X201855000Y-72465000D01*
X201855001Y-94540000D01*
G37*
X201855001Y-94540000D02*
X148030000Y-94540000D01*
X148030000Y-84861400D01*
X149628328Y-84861400D01*
X149628328Y-86588600D01*
X149640588Y-86713082D01*
X149676898Y-86832780D01*
X149735863Y-86943094D01*
X149815215Y-87039785D01*
X149911906Y-87119137D01*
X150022220Y-87178102D01*
X150141918Y-87214412D01*
X150266400Y-87226672D01*
X151993600Y-87226672D01*
X152118082Y-87214412D01*
X152237780Y-87178102D01*
X152348094Y-87119137D01*
X152444785Y-87039785D01*
X152524137Y-86943094D01*
X152583102Y-86832780D01*
X152600636Y-86774977D01*
X152714698Y-86889039D01*
X152960147Y-87053042D01*
X153232875Y-87166010D01*
X153522401Y-87223600D01*
X153817599Y-87223600D01*
X154107125Y-87166010D01*
X154379853Y-87053042D01*
X154625302Y-86889039D01*
X154834039Y-86680302D01*
X154940000Y-86521719D01*
X155045961Y-86680302D01*
X155254698Y-86889039D01*
X155500147Y-87053042D01*
X155772875Y-87166010D01*
X156062401Y-87223600D01*
X156357599Y-87223600D01*
X156647125Y-87166010D01*
X156919853Y-87053042D01*
X157165302Y-86889039D01*
X157374039Y-86680302D01*
X157484559Y-86514897D01*
X157543183Y-86613488D01*
X157739707Y-86831854D01*
X157975056Y-87007684D01*
X158240186Y-87134222D01*
X158390974Y-87179958D01*
X158623000Y-87058817D01*
X158623000Y-85852000D01*
X158877000Y-85852000D01*
X158877000Y-87058817D01*
X159109026Y-87179958D01*
X159259814Y-87134222D01*
X159524944Y-87007684D01*
X159760293Y-86831854D01*
X159956817Y-86613488D01*
X160106964Y-86360978D01*
X160204963Y-86084027D01*
X160084464Y-85852000D01*
X158877000Y-85852000D01*
X158623000Y-85852000D01*
X158603000Y-85852000D01*
X158603000Y-85598000D01*
X158623000Y-85598000D01*
X158623000Y-84391183D01*
X158877000Y-84391183D01*
X158877000Y-85598000D01*
X160084464Y-85598000D01*
X160204963Y-85365973D01*
X160106964Y-85089022D01*
X159971616Y-84861400D01*
X177568328Y-84861400D01*
X177568328Y-86588600D01*
X177580588Y-86713082D01*
X177616898Y-86832780D01*
X177675863Y-86943094D01*
X177755215Y-87039785D01*
X177851906Y-87119137D01*
X177962220Y-87178102D01*
X178081918Y-87214412D01*
X178206400Y-87226672D01*
X179933600Y-87226672D01*
X180058082Y-87214412D01*
X180177780Y-87178102D01*
X180288094Y-87119137D01*
X180384785Y-87039785D01*
X180464137Y-86943094D01*
X180523102Y-86832780D01*
X180540636Y-86774977D01*
X180654698Y-86889039D01*
X180900147Y-87053042D01*
X181172875Y-87166010D01*
X181462401Y-87223600D01*
X181757599Y-87223600D01*
X182047125Y-87166010D01*
X182319853Y-87053042D01*
X182565302Y-86889039D01*
X182774039Y-86680302D01*
X182880000Y-86521719D01*
X182985961Y-86680302D01*
X183194698Y-86889039D01*
X183440147Y-87053042D01*
X183712875Y-87166010D01*
X184002401Y-87223600D01*
X184297599Y-87223600D01*
X184587125Y-87166010D01*
X184859853Y-87053042D01*
X185105302Y-86889039D01*
X185231237Y-86763104D01*
X185831501Y-86763104D01*
X185910782Y-87013567D01*
X186177141Y-87140826D01*
X186463210Y-87213675D01*
X186757993Y-87229315D01*
X187050164Y-87187145D01*
X187328493Y-87088786D01*
X187469218Y-87013567D01*
X187548499Y-86763104D01*
X186690000Y-85904605D01*
X185831501Y-86763104D01*
X185231237Y-86763104D01*
X185314039Y-86680302D01*
X185426411Y-86512125D01*
X185651896Y-86583499D01*
X186510395Y-85725000D01*
X186869605Y-85725000D01*
X187728104Y-86583499D01*
X187978567Y-86504218D01*
X188105826Y-86237859D01*
X188178675Y-85951790D01*
X188194315Y-85657007D01*
X188152145Y-85364836D01*
X188053786Y-85086507D01*
X187978567Y-84945782D01*
X187728104Y-84866501D01*
X186869605Y-85725000D01*
X186510395Y-85725000D01*
X185651896Y-84866501D01*
X185426411Y-84937875D01*
X185314039Y-84769698D01*
X185231237Y-84686896D01*
X185831501Y-84686896D01*
X186690000Y-85545395D01*
X187548499Y-84686896D01*
X187469218Y-84436433D01*
X187202859Y-84309174D01*
X186916790Y-84236325D01*
X186622007Y-84220685D01*
X186329836Y-84262855D01*
X186051507Y-84361214D01*
X185910782Y-84436433D01*
X185831501Y-84686896D01*
X185231237Y-84686896D01*
X185105302Y-84560961D01*
X184859853Y-84396958D01*
X184587125Y-84283990D01*
X184297599Y-84226400D01*
X184002401Y-84226400D01*
X183712875Y-84283990D01*
X183440147Y-84396958D01*
X183194698Y-84560961D01*
X182985961Y-84769698D01*
X182880000Y-84928281D01*
X182774039Y-84769698D01*
X182565302Y-84560961D01*
X182319853Y-84396958D01*
X182047125Y-84283990D01*
X181757599Y-84226400D01*
X181462401Y-84226400D01*
X181172875Y-84283990D01*
X180900147Y-84396958D01*
X180654698Y-84560961D01*
X180540636Y-84675023D01*
X180523102Y-84617220D01*
X180464137Y-84506906D01*
X180384785Y-84410215D01*
X180288094Y-84330863D01*
X180177780Y-84271898D01*
X180058082Y-84235588D01*
X179933600Y-84223328D01*
X178206400Y-84223328D01*
X178081918Y-84235588D01*
X177962220Y-84271898D01*
X177851906Y-84330863D01*
X177755215Y-84410215D01*
X177675863Y-84506906D01*
X177616898Y-84617220D01*
X177580588Y-84736918D01*
X177568328Y-84861400D01*
X159971616Y-84861400D01*
X159956817Y-84836512D01*
X159760293Y-84618146D01*
X159524944Y-84442316D01*
X159259814Y-84315778D01*
X159109026Y-84270042D01*
X158877000Y-84391183D01*
X158623000Y-84391183D01*
X158390974Y-84270042D01*
X158240186Y-84315778D01*
X157975056Y-84442316D01*
X157739707Y-84618146D01*
X157543183Y-84836512D01*
X157484559Y-84935103D01*
X157374039Y-84769698D01*
X157165302Y-84560961D01*
X156919853Y-84396958D01*
X156647125Y-84283990D01*
X156357599Y-84226400D01*
X156062401Y-84226400D01*
X155772875Y-84283990D01*
X155500147Y-84396958D01*
X155254698Y-84560961D01*
X155045961Y-84769698D01*
X154940000Y-84928281D01*
X154834039Y-84769698D01*
X154625302Y-84560961D01*
X154379853Y-84396958D01*
X154107125Y-84283990D01*
X153817599Y-84226400D01*
X153522401Y-84226400D01*
X153232875Y-84283990D01*
X152960147Y-84396958D01*
X152714698Y-84560961D01*
X152600636Y-84675023D01*
X152583102Y-84617220D01*
X152524137Y-84506906D01*
X152444785Y-84410215D01*
X152348094Y-84330863D01*
X152237780Y-84271898D01*
X152118082Y-84235588D01*
X151993600Y-84223328D01*
X150266400Y-84223328D01*
X150141918Y-84235588D01*
X150022220Y-84271898D01*
X149911906Y-84330863D01*
X149815215Y-84410215D01*
X149735863Y-84506906D01*
X149676898Y-84617220D01*
X149640588Y-84736918D01*
X149628328Y-84861400D01*
X148030000Y-84861400D01*
X148030000Y-77241400D01*
X149628328Y-77241400D01*
X149628328Y-78968600D01*
X149640588Y-79093082D01*
X149676898Y-79212780D01*
X149735863Y-79323094D01*
X149815215Y-79419785D01*
X149911906Y-79499137D01*
X150022220Y-79558102D01*
X150141918Y-79594412D01*
X150266400Y-79606672D01*
X151993600Y-79606672D01*
X152118082Y-79594412D01*
X152237780Y-79558102D01*
X152348094Y-79499137D01*
X152444785Y-79419785D01*
X152524137Y-79323094D01*
X152583102Y-79212780D01*
X152600636Y-79154977D01*
X152714698Y-79269039D01*
X152960147Y-79433042D01*
X153232875Y-79546010D01*
X153522401Y-79603600D01*
X153817599Y-79603600D01*
X154107125Y-79546010D01*
X154379853Y-79433042D01*
X154625302Y-79269039D01*
X154834039Y-79060302D01*
X154940000Y-78901719D01*
X155045961Y-79060302D01*
X155254698Y-79269039D01*
X155500147Y-79433042D01*
X155772875Y-79546010D01*
X156062401Y-79603600D01*
X156357599Y-79603600D01*
X156647125Y-79546010D01*
X156919853Y-79433042D01*
X157165302Y-79269039D01*
X157374039Y-79060302D01*
X157480000Y-78901719D01*
X157585961Y-79060302D01*
X157794698Y-79269039D01*
X158040147Y-79433042D01*
X158312875Y-79546010D01*
X158602401Y-79603600D01*
X158897599Y-79603600D01*
X159187125Y-79546010D01*
X159459853Y-79433042D01*
X159705302Y-79269039D01*
X159914039Y-79060302D01*
X160024559Y-78894897D01*
X160083183Y-78993488D01*
X160279707Y-79211854D01*
X160515056Y-79387684D01*
X160780186Y-79514222D01*
X160930974Y-79559958D01*
X161163000Y-79438817D01*
X161163000Y-78232000D01*
X161143000Y-78232000D01*
X161143000Y-77978000D01*
X161163000Y-77978000D01*
X161163000Y-77958000D01*
X161417000Y-77958000D01*
X161417000Y-77978000D01*
X161437000Y-77978000D01*
X161437000Y-78232000D01*
X161417000Y-78232000D01*
X161417000Y-79438817D01*
X161649026Y-79559958D01*
X161799814Y-79514222D01*
X162064944Y-79387684D01*
X162300293Y-79211854D01*
X162496817Y-78993488D01*
X162555441Y-78894897D01*
X162665961Y-79060302D01*
X162874698Y-79269039D01*
X163120147Y-79433042D01*
X163392875Y-79546010D01*
X163682401Y-79603600D01*
X163977599Y-79603600D01*
X164267125Y-79546010D01*
X164539853Y-79433042D01*
X164785302Y-79269039D01*
X164994039Y-79060302D01*
X165100000Y-78901719D01*
X165205961Y-79060302D01*
X165414698Y-79269039D01*
X165660147Y-79433042D01*
X165932875Y-79546010D01*
X166222401Y-79603600D01*
X166517599Y-79603600D01*
X166807125Y-79546010D01*
X167079853Y-79433042D01*
X167325302Y-79269039D01*
X167534039Y-79060302D01*
X167640000Y-78901719D01*
X167745961Y-79060302D01*
X167954698Y-79269039D01*
X168200147Y-79433042D01*
X168472875Y-79546010D01*
X168762401Y-79603600D01*
X169057599Y-79603600D01*
X169347125Y-79546010D01*
X169619853Y-79433042D01*
X169865302Y-79269039D01*
X170074039Y-79060302D01*
X170180000Y-78901719D01*
X170285961Y-79060302D01*
X170494698Y-79269039D01*
X170740147Y-79433042D01*
X171012875Y-79546010D01*
X171302401Y-79603600D01*
X171597599Y-79603600D01*
X171887125Y-79546010D01*
X172159853Y-79433042D01*
X172405302Y-79269039D01*
X172614039Y-79060302D01*
X172720000Y-78901719D01*
X172825961Y-79060302D01*
X173034698Y-79269039D01*
X173280147Y-79433042D01*
X173552875Y-79546010D01*
X173842401Y-79603600D01*
X174137599Y-79603600D01*
X174427125Y-79546010D01*
X174699853Y-79433042D01*
X174945302Y-79269039D01*
X175154039Y-79060302D01*
X175260000Y-78901719D01*
X175365961Y-79060302D01*
X175574698Y-79269039D01*
X175820147Y-79433042D01*
X176092875Y-79546010D01*
X176382401Y-79603600D01*
X176677599Y-79603600D01*
X176967125Y-79546010D01*
X177239853Y-79433042D01*
X177485302Y-79269039D01*
X177694039Y-79060302D01*
X177800000Y-78901719D01*
X177905961Y-79060302D01*
X178114698Y-79269039D01*
X178360147Y-79433042D01*
X178632875Y-79546010D01*
X178922401Y-79603600D01*
X179217599Y-79603600D01*
X179507125Y-79546010D01*
X179779853Y-79433042D01*
X180025302Y-79269039D01*
X180234039Y-79060302D01*
X180344559Y-78894897D01*
X180403183Y-78993488D01*
X180599707Y-79211854D01*
X180835056Y-79387684D01*
X181100186Y-79514222D01*
X181250974Y-79559958D01*
X181483000Y-79438817D01*
X181483000Y-78232000D01*
X181463000Y-78232000D01*
X181463000Y-77978000D01*
X181483000Y-77978000D01*
X181483000Y-77958000D01*
X181737000Y-77958000D01*
X181737000Y-77978000D01*
X181757000Y-77978000D01*
X181757000Y-78232000D01*
X181737000Y-78232000D01*
X181737000Y-79438817D01*
X181969026Y-79559958D01*
X182119814Y-79514222D01*
X182384944Y-79387684D01*
X182620293Y-79211854D01*
X182816817Y-78993488D01*
X182875441Y-78894897D01*
X182985961Y-79060302D01*
X183194698Y-79269039D01*
X183440147Y-79433042D01*
X183712875Y-79546010D01*
X184002401Y-79603600D01*
X184297599Y-79603600D01*
X184587125Y-79546010D01*
X184859853Y-79433042D01*
X185105302Y-79269039D01*
X185314039Y-79060302D01*
X185420000Y-78901719D01*
X185525961Y-79060302D01*
X185734698Y-79269039D01*
X185980147Y-79433042D01*
X186252875Y-79546010D01*
X186542401Y-79603600D01*
X186837599Y-79603600D01*
X187127125Y-79546010D01*
X187399853Y-79433042D01*
X187645302Y-79269039D01*
X187854039Y-79060302D01*
X187960000Y-78901719D01*
X188065961Y-79060302D01*
X188274698Y-79269039D01*
X188520147Y-79433042D01*
X188792875Y-79546010D01*
X189082401Y-79603600D01*
X189377599Y-79603600D01*
X189667125Y-79546010D01*
X189939853Y-79433042D01*
X190185302Y-79269039D01*
X190394039Y-79060302D01*
X190500000Y-78901719D01*
X190605961Y-79060302D01*
X190814698Y-79269039D01*
X191060147Y-79433042D01*
X191332875Y-79546010D01*
X191622401Y-79603600D01*
X191917599Y-79603600D01*
X192207125Y-79546010D01*
X192479853Y-79433042D01*
X192725302Y-79269039D01*
X192934039Y-79060302D01*
X193040000Y-78901719D01*
X193145961Y-79060302D01*
X193354698Y-79269039D01*
X193600147Y-79433042D01*
X193872875Y-79546010D01*
X194162401Y-79603600D01*
X194457599Y-79603600D01*
X194747125Y-79546010D01*
X195019853Y-79433042D01*
X195265302Y-79269039D01*
X195474039Y-79060302D01*
X195580000Y-78901719D01*
X195685961Y-79060302D01*
X195894698Y-79269039D01*
X196140147Y-79433042D01*
X196412875Y-79546010D01*
X196702401Y-79603600D01*
X196997599Y-79603600D01*
X197287125Y-79546010D01*
X197559853Y-79433042D01*
X197805302Y-79269039D01*
X198014039Y-79060302D01*
X198124559Y-78894897D01*
X198183183Y-78993488D01*
X198379707Y-79211854D01*
X198615056Y-79387684D01*
X198880186Y-79514222D01*
X199030974Y-79559958D01*
X199263000Y-79438817D01*
X199263000Y-78232000D01*
X199517000Y-78232000D01*
X199517000Y-79438817D01*
X199749026Y-79559958D01*
X199899814Y-79514222D01*
X200164944Y-79387684D01*
X200400293Y-79211854D01*
X200596817Y-78993488D01*
X200746964Y-78740978D01*
X200844963Y-78464027D01*
X200724464Y-78232000D01*
X199517000Y-78232000D01*
X199263000Y-78232000D01*
X199243000Y-78232000D01*
X199243000Y-77978000D01*
X199263000Y-77978000D01*
X199263000Y-77958000D01*
X199517000Y-77958000D01*
X199517000Y-77978000D01*
X200724464Y-77978000D01*
X200844963Y-77745973D01*
X200746964Y-77469022D01*
X200596817Y-77216512D01*
X200400293Y-76998146D01*
X200184187Y-76836692D01*
X200345302Y-76729039D01*
X200554039Y-76520302D01*
X200718042Y-76274853D01*
X200831010Y-76002125D01*
X200888600Y-75712599D01*
X200888600Y-75417401D01*
X200831010Y-75127875D01*
X200718042Y-74855147D01*
X200554039Y-74609698D01*
X200345302Y-74400961D01*
X200099853Y-74236958D01*
X199827125Y-74123990D01*
X199537599Y-74066400D01*
X199242401Y-74066400D01*
X198952875Y-74123990D01*
X198680147Y-74236958D01*
X198434698Y-74400961D01*
X198225961Y-74609698D01*
X198120000Y-74768281D01*
X198014039Y-74609698D01*
X197805302Y-74400961D01*
X197559853Y-74236958D01*
X197287125Y-74123990D01*
X196997599Y-74066400D01*
X196702401Y-74066400D01*
X196412875Y-74123990D01*
X196140147Y-74236958D01*
X195894698Y-74400961D01*
X195685961Y-74609698D01*
X195580000Y-74768281D01*
X195474039Y-74609698D01*
X195265302Y-74400961D01*
X195019853Y-74236958D01*
X194747125Y-74123990D01*
X194457599Y-74066400D01*
X194162401Y-74066400D01*
X193872875Y-74123990D01*
X193600147Y-74236958D01*
X193354698Y-74400961D01*
X193145961Y-74609698D01*
X193035441Y-74775103D01*
X192976817Y-74676512D01*
X192780293Y-74458146D01*
X192544944Y-74282316D01*
X192279814Y-74155778D01*
X192129026Y-74110042D01*
X191897000Y-74231183D01*
X191897000Y-75438000D01*
X191917000Y-75438000D01*
X191917000Y-75692000D01*
X191897000Y-75692000D01*
X191897000Y-75712000D01*
X191643000Y-75712000D01*
X191643000Y-75692000D01*
X191623000Y-75692000D01*
X191623000Y-75438000D01*
X191643000Y-75438000D01*
X191643000Y-74231183D01*
X191410974Y-74110042D01*
X191260186Y-74155778D01*
X190995056Y-74282316D01*
X190759707Y-74458146D01*
X190563183Y-74676512D01*
X190504559Y-74775103D01*
X190394039Y-74609698D01*
X190185302Y-74400961D01*
X189939853Y-74236958D01*
X189667125Y-74123990D01*
X189377599Y-74066400D01*
X189082401Y-74066400D01*
X188792875Y-74123990D01*
X188520147Y-74236958D01*
X188274698Y-74400961D01*
X188065961Y-74609698D01*
X187955441Y-74775103D01*
X187896817Y-74676512D01*
X187700293Y-74458146D01*
X187464944Y-74282316D01*
X187199814Y-74155778D01*
X187049026Y-74110042D01*
X186817000Y-74231183D01*
X186817000Y-75438000D01*
X186837000Y-75438000D01*
X186837000Y-75692000D01*
X186817000Y-75692000D01*
X186817000Y-75712000D01*
X186563000Y-75712000D01*
X186563000Y-75692000D01*
X186543000Y-75692000D01*
X186543000Y-75438000D01*
X186563000Y-75438000D01*
X186563000Y-74231183D01*
X186330974Y-74110042D01*
X186180186Y-74155778D01*
X185915056Y-74282316D01*
X185679707Y-74458146D01*
X185483183Y-74676512D01*
X185424559Y-74775103D01*
X185314039Y-74609698D01*
X185105302Y-74400961D01*
X184859853Y-74236958D01*
X184587125Y-74123990D01*
X184297599Y-74066400D01*
X184002401Y-74066400D01*
X183712875Y-74123990D01*
X183440147Y-74236958D01*
X183194698Y-74400961D01*
X182985961Y-74609698D01*
X182880000Y-74768281D01*
X182774039Y-74609698D01*
X182565302Y-74400961D01*
X182319853Y-74236958D01*
X182047125Y-74123990D01*
X181757599Y-74066400D01*
X181462401Y-74066400D01*
X181172875Y-74123990D01*
X180900147Y-74236958D01*
X180654698Y-74400961D01*
X180445961Y-74609698D01*
X180340000Y-74768281D01*
X180234039Y-74609698D01*
X180025302Y-74400961D01*
X179779853Y-74236958D01*
X179507125Y-74123990D01*
X179217599Y-74066400D01*
X178922401Y-74066400D01*
X178632875Y-74123990D01*
X178360147Y-74236958D01*
X178114698Y-74400961D01*
X177905961Y-74609698D01*
X177800000Y-74768281D01*
X177694039Y-74609698D01*
X177485302Y-74400961D01*
X177239853Y-74236958D01*
X176967125Y-74123990D01*
X176677599Y-74066400D01*
X176382401Y-74066400D01*
X176092875Y-74123990D01*
X175820147Y-74236958D01*
X175574698Y-74400961D01*
X175365961Y-74609698D01*
X175255441Y-74775103D01*
X175196817Y-74676512D01*
X175000293Y-74458146D01*
X174764944Y-74282316D01*
X174499814Y-74155778D01*
X174349026Y-74110042D01*
X174117000Y-74231183D01*
X174117000Y-75438000D01*
X174137000Y-75438000D01*
X174137000Y-75692000D01*
X174117000Y-75692000D01*
X174117000Y-75712000D01*
X173863000Y-75712000D01*
X173863000Y-75692000D01*
X173843000Y-75692000D01*
X173843000Y-75438000D01*
X173863000Y-75438000D01*
X173863000Y-74231183D01*
X173630974Y-74110042D01*
X173480186Y-74155778D01*
X173215056Y-74282316D01*
X172979707Y-74458146D01*
X172783183Y-74676512D01*
X172724559Y-74775103D01*
X172614039Y-74609698D01*
X172405302Y-74400961D01*
X172159853Y-74236958D01*
X171887125Y-74123990D01*
X171597599Y-74066400D01*
X171302401Y-74066400D01*
X171012875Y-74123990D01*
X170740147Y-74236958D01*
X170494698Y-74400961D01*
X170285961Y-74609698D01*
X170180000Y-74768281D01*
X170074039Y-74609698D01*
X169865302Y-74400961D01*
X169619853Y-74236958D01*
X169347125Y-74123990D01*
X169057599Y-74066400D01*
X168762401Y-74066400D01*
X168472875Y-74123990D01*
X168200147Y-74236958D01*
X167954698Y-74400961D01*
X167745961Y-74609698D01*
X167635441Y-74775103D01*
X167576817Y-74676512D01*
X167380293Y-74458146D01*
X167144944Y-74282316D01*
X166879814Y-74155778D01*
X166729026Y-74110042D01*
X166497000Y-74231183D01*
X166497000Y-75438000D01*
X166517000Y-75438000D01*
X166517000Y-75692000D01*
X166497000Y-75692000D01*
X166497000Y-75712000D01*
X166243000Y-75712000D01*
X166243000Y-75692000D01*
X166223000Y-75692000D01*
X166223000Y-75438000D01*
X166243000Y-75438000D01*
X166243000Y-74231183D01*
X166010974Y-74110042D01*
X165860186Y-74155778D01*
X165595056Y-74282316D01*
X165359707Y-74458146D01*
X165163183Y-74676512D01*
X165104559Y-74775103D01*
X164994039Y-74609698D01*
X164785302Y-74400961D01*
X164539853Y-74236958D01*
X164267125Y-74123990D01*
X163977599Y-74066400D01*
X163682401Y-74066400D01*
X163392875Y-74123990D01*
X163120147Y-74236958D01*
X162874698Y-74400961D01*
X162665961Y-74609698D01*
X162560000Y-74768281D01*
X162454039Y-74609698D01*
X162245302Y-74400961D01*
X161999853Y-74236958D01*
X161727125Y-74123990D01*
X161437599Y-74066400D01*
X161142401Y-74066400D01*
X160852875Y-74123990D01*
X160580147Y-74236958D01*
X160334698Y-74400961D01*
X160125961Y-74609698D01*
X160020000Y-74768281D01*
X159914039Y-74609698D01*
X159705302Y-74400961D01*
X159459853Y-74236958D01*
X159187125Y-74123990D01*
X158897599Y-74066400D01*
X158602401Y-74066400D01*
X158312875Y-74123990D01*
X158040147Y-74236958D01*
X157794698Y-74400961D01*
X157585961Y-74609698D01*
X157475441Y-74775103D01*
X157416817Y-74676512D01*
X157220293Y-74458146D01*
X156984944Y-74282316D01*
X156719814Y-74155778D01*
X156569026Y-74110042D01*
X156337000Y-74231183D01*
X156337000Y-75438000D01*
X156357000Y-75438000D01*
X156357000Y-75692000D01*
X156337000Y-75692000D01*
X156337000Y-75712000D01*
X156083000Y-75712000D01*
X156083000Y-75692000D01*
X156063000Y-75692000D01*
X156063000Y-75438000D01*
X156083000Y-75438000D01*
X156083000Y-74231183D01*
X155850974Y-74110042D01*
X155700186Y-74155778D01*
X155435056Y-74282316D01*
X155199707Y-74458146D01*
X155003183Y-74676512D01*
X154944559Y-74775103D01*
X154834039Y-74609698D01*
X154625302Y-74400961D01*
X154379853Y-74236958D01*
X154107125Y-74123990D01*
X153817599Y-74066400D01*
X153522401Y-74066400D01*
X153232875Y-74123990D01*
X152960147Y-74236958D01*
X152714698Y-74400961D01*
X152505961Y-74609698D01*
X152400000Y-74768281D01*
X152294039Y-74609698D01*
X152085302Y-74400961D01*
X151839853Y-74236958D01*
X151567125Y-74123990D01*
X151277599Y-74066400D01*
X150982401Y-74066400D01*
X150692875Y-74123990D01*
X150420147Y-74236958D01*
X150174698Y-74400961D01*
X149965961Y-74609698D01*
X149801958Y-74855147D01*
X149688990Y-75127875D01*
X149631400Y-75417401D01*
X149631400Y-75712599D01*
X149688990Y-76002125D01*
X149801958Y-76274853D01*
X149965961Y-76520302D01*
X150080023Y-76634364D01*
X150022220Y-76651898D01*
X149911906Y-76710863D01*
X149815215Y-76790215D01*
X149735863Y-76886906D01*
X149676898Y-76997220D01*
X149640588Y-77116918D01*
X149628328Y-77241400D01*
X148030000Y-77241400D01*
X148030000Y-72465000D01*
X201855000Y-72465000D01*
X201855001Y-94540000D01*
%TD*%
M02*
